%TF.GenerationSoftware,KiCad,Pcbnew,5.1.10-88a1d61d58~88~ubuntu20.04.1*%
%TF.CreationDate,2021-09-23T20:16:40+02:00*%
%TF.ProjectId,SCART-breakout,53434152-542d-4627-9265-616b6f75742e,rev?*%
%TF.SameCoordinates,Original*%
%TF.FileFunction,Copper,L1,Top*%
%TF.FilePolarity,Positive*%
%FSLAX46Y46*%
G04 Gerber Fmt 4.6, Leading zero omitted, Abs format (unit mm)*
G04 Created by KiCad (PCBNEW 5.1.10-88a1d61d58~88~ubuntu20.04.1) date 2021-09-23 20:16:40*
%MOMM*%
%LPD*%
G01*
G04 APERTURE LIST*
%TA.AperFunction,ComponentPad*%
%ADD10C,2.500000*%
%TD*%
%TA.AperFunction,ComponentPad*%
%ADD11C,2.200000*%
%TD*%
%TA.AperFunction,ComponentPad*%
%ADD12R,1.700000X1.700000*%
%TD*%
%TA.AperFunction,ComponentPad*%
%ADD13O,1.700000X1.700000*%
%TD*%
%TA.AperFunction,ComponentPad*%
%ADD14C,3.000000*%
%TD*%
%TA.AperFunction,ComponentPad*%
%ADD15C,2.600000*%
%TD*%
%TA.AperFunction,ComponentPad*%
%ADD16C,5.600000*%
%TD*%
%TA.AperFunction,Conductor*%
%ADD17C,0.250000*%
%TD*%
%TA.AperFunction,Conductor*%
%ADD18C,0.254000*%
%TD*%
%TA.AperFunction,Conductor*%
%ADD19C,0.100000*%
%TD*%
G04 APERTURE END LIST*
D10*
%TO.P,SW1,1*%
%TO.N,/Audio_R_INT*%
X173101000Y-71501000D03*
%TO.P,SW1,4*%
%TO.N,/Audio_L_INT*%
X173101000Y-76331000D03*
%TO.P,SW1,2*%
%TO.N,/Audio_R*%
X168401000Y-71501000D03*
%TO.P,SW1,5*%
%TO.N,/Audio_L*%
X168401000Y-76331000D03*
%TO.P,SW1,3*%
%TO.N,/Audio_R_EXT*%
X163701000Y-71501000D03*
%TO.P,SW1,6*%
%TO.N,/Audio_L_EXT*%
X163701000Y-76331000D03*
%TD*%
D11*
%TO.P,J1,20*%
%TO.N,/Sync*%
X131605000Y-86250000D03*
%TO.P,J1,18*%
%TO.N,GND*%
X135415000Y-86250000D03*
%TO.P,J1,16*%
%TO.N,/Blanking*%
X139225000Y-86250000D03*
%TO.P,J1,14*%
%TO.N,N/C*%
X143035000Y-86250000D03*
%TO.P,J1,12*%
X146845000Y-86250000D03*
%TO.P,J1,10*%
X150655000Y-86250000D03*
%TO.P,J1,8*%
X154465000Y-86250000D03*
%TO.P,J1,6*%
%TO.N,/Audio_L*%
X158275000Y-86250000D03*
%TO.P,J1,4*%
%TO.N,GND*%
X162085000Y-86250000D03*
%TO.P,J1,2*%
%TO.N,/Audio_R*%
X165895000Y-86250000D03*
%TO.P,J1,21*%
%TO.N,GND*%
X129710000Y-91330000D03*
%TO.P,J1,19*%
%TO.N,N/C*%
X133520000Y-91330000D03*
%TO.P,J1,17*%
%TO.N,GND*%
X137330000Y-91330000D03*
%TO.P,J1,15*%
%TO.N,/Red*%
X141140000Y-91330000D03*
%TO.P,J1,13*%
%TO.N,GND*%
X144950000Y-91330000D03*
%TO.P,J1,11*%
%TO.N,/Green*%
X148760000Y-91330000D03*
%TO.P,J1,9*%
%TO.N,GND*%
X152570000Y-91330000D03*
%TO.P,J1,7*%
%TO.N,/Blue*%
X156380000Y-91330000D03*
%TO.P,J1,5*%
%TO.N,GND*%
X160190000Y-91330000D03*
%TO.P,J1,3*%
%TO.N,N/C*%
X164000000Y-91330000D03*
%TO.P,J1,1*%
X167810000Y-91330000D03*
%TD*%
D12*
%TO.P,J4,1*%
%TO.N,/Audio_Mono*%
X159194500Y-98996500D03*
D13*
%TO.P,J4,2*%
%TO.N,/Audio_L_INT*%
X156654500Y-98996500D03*
%TO.P,J4,3*%
%TO.N,GND*%
X154114500Y-98996500D03*
%TO.P,J4,4*%
%TO.N,/Audio_R_INT*%
X151574500Y-98996500D03*
%TO.P,J4,5*%
%TO.N,/Blanking*%
X149034500Y-98996500D03*
%TO.P,J4,6*%
%TO.N,GND*%
X146494500Y-98996500D03*
%TO.P,J4,7*%
%TO.N,/Sync_A*%
X143954500Y-98996500D03*
%TO.P,J4,8*%
%TO.N,/Blue_A*%
X141414500Y-98996500D03*
%TO.P,J4,9*%
%TO.N,/Green_A*%
X138874500Y-98996500D03*
%TO.P,J4,10*%
%TO.N,/Red_A*%
X136334500Y-98996500D03*
%TD*%
D14*
%TO.P,J2,2*%
%TO.N,GND*%
X129787500Y-71831000D03*
X140087500Y-71831000D03*
D15*
%TO.P,J2,1*%
%TO.N,/Audio_R_EXT*%
X134937500Y-70231000D03*
%TD*%
D14*
%TO.P,J3,2*%
%TO.N,GND*%
X149282000Y-71831000D03*
X159582000Y-71831000D03*
D15*
%TO.P,J3,1*%
%TO.N,/Audio_L_EXT*%
X154432000Y-70231000D03*
%TD*%
D16*
%TO.P,J5,1*%
%TO.N,GND*%
X171767500Y-100266500D03*
%TD*%
%TO.P,J6,1*%
%TO.N,GND*%
X124841000Y-100203000D03*
%TD*%
%TO.P,J7,1*%
%TO.N,GND*%
X124841000Y-70421500D03*
%TD*%
D17*
%TO.N,/Blanking*%
X149034500Y-98996500D02*
X149034500Y-98171000D01*
X149034500Y-98171000D02*
X143002000Y-92138500D01*
X143002000Y-92138500D02*
X143002000Y-90027000D01*
X143002000Y-90027000D02*
X139225000Y-86250000D01*
%TO.N,/Audio_L*%
X158275000Y-86250000D02*
X158482000Y-86250000D01*
X158482000Y-86250000D02*
X168401000Y-76331000D01*
%TO.N,/Audio_L_INT*%
X156654500Y-98996500D02*
X156654500Y-98361500D01*
X156654500Y-98361500D02*
X157861000Y-97155000D01*
X173101000Y-81534000D02*
X173101000Y-76331000D01*
X169672000Y-84963000D02*
X173101000Y-81534000D01*
X169672000Y-93472000D02*
X169672000Y-84963000D01*
X165989000Y-97155000D02*
X169672000Y-93472000D01*
X157861000Y-97155000D02*
X165989000Y-97155000D01*
%TD*%
D18*
%TO.N,GND*%
X122930470Y-67546861D02*
X122916308Y-67556323D01*
X122604124Y-68005019D01*
X124841000Y-70241895D01*
X127077876Y-68005019D01*
X126765692Y-67556323D01*
X126683259Y-67512000D01*
X174804001Y-67512000D01*
X174804000Y-69110398D01*
X174804001Y-69110408D01*
X174804000Y-98660596D01*
X174642139Y-98355970D01*
X174632677Y-98341808D01*
X174183981Y-98029624D01*
X171947105Y-100266500D01*
X174183981Y-102503376D01*
X174632677Y-102191192D01*
X174804000Y-101872562D01*
X174804000Y-103176000D01*
X173612421Y-103176000D01*
X173678030Y-103141139D01*
X173692192Y-103131677D01*
X174004376Y-102682981D01*
X171767500Y-100446105D01*
X169530624Y-102682981D01*
X169842808Y-103131677D01*
X169925241Y-103176000D01*
X126566413Y-103176000D01*
X126751530Y-103077639D01*
X126765692Y-103068177D01*
X127077876Y-102619481D01*
X124841000Y-100382605D01*
X122604124Y-102619481D01*
X122916308Y-103068177D01*
X123116839Y-103176000D01*
X121868000Y-103176000D01*
X121868000Y-101928413D01*
X121966361Y-102113530D01*
X121975823Y-102127692D01*
X122424519Y-102439876D01*
X124661395Y-100203000D01*
X125020605Y-100203000D01*
X127257481Y-102439876D01*
X127706177Y-102127692D01*
X128026612Y-101531741D01*
X128224626Y-100884727D01*
X128292610Y-100211516D01*
X128227949Y-99537977D01*
X128033130Y-98889994D01*
X128025300Y-98875257D01*
X135103500Y-98875257D01*
X135103500Y-99117743D01*
X135150807Y-99355569D01*
X135243602Y-99579597D01*
X135378320Y-99781217D01*
X135549783Y-99952680D01*
X135751403Y-100087398D01*
X135975431Y-100180193D01*
X136213257Y-100227500D01*
X136455743Y-100227500D01*
X136693569Y-100180193D01*
X136917597Y-100087398D01*
X137119217Y-99952680D01*
X137290680Y-99781217D01*
X137425398Y-99579597D01*
X137518193Y-99355569D01*
X137565500Y-99117743D01*
X137565500Y-98875257D01*
X137643500Y-98875257D01*
X137643500Y-99117743D01*
X137690807Y-99355569D01*
X137783602Y-99579597D01*
X137918320Y-99781217D01*
X138089783Y-99952680D01*
X138291403Y-100087398D01*
X138515431Y-100180193D01*
X138753257Y-100227500D01*
X138995743Y-100227500D01*
X139233569Y-100180193D01*
X139457597Y-100087398D01*
X139659217Y-99952680D01*
X139830680Y-99781217D01*
X139965398Y-99579597D01*
X140058193Y-99355569D01*
X140105500Y-99117743D01*
X140105500Y-98875257D01*
X140183500Y-98875257D01*
X140183500Y-99117743D01*
X140230807Y-99355569D01*
X140323602Y-99579597D01*
X140458320Y-99781217D01*
X140629783Y-99952680D01*
X140831403Y-100087398D01*
X141055431Y-100180193D01*
X141293257Y-100227500D01*
X141535743Y-100227500D01*
X141773569Y-100180193D01*
X141997597Y-100087398D01*
X142199217Y-99952680D01*
X142370680Y-99781217D01*
X142505398Y-99579597D01*
X142598193Y-99355569D01*
X142645500Y-99117743D01*
X142645500Y-98875257D01*
X142723500Y-98875257D01*
X142723500Y-99117743D01*
X142770807Y-99355569D01*
X142863602Y-99579597D01*
X142998320Y-99781217D01*
X143169783Y-99952680D01*
X143371403Y-100087398D01*
X143595431Y-100180193D01*
X143833257Y-100227500D01*
X144075743Y-100227500D01*
X144313569Y-100180193D01*
X144537597Y-100087398D01*
X144739217Y-99952680D01*
X144910680Y-99781217D01*
X145045398Y-99579597D01*
X145092728Y-99465332D01*
X145150343Y-99627752D01*
X145299322Y-99877855D01*
X145494231Y-100094088D01*
X145727580Y-100268141D01*
X145990401Y-100393325D01*
X146137610Y-100437976D01*
X146367500Y-100316655D01*
X146367500Y-99123500D01*
X146347500Y-99123500D01*
X146347500Y-98869500D01*
X146367500Y-98869500D01*
X146367500Y-97676345D01*
X146137610Y-97555024D01*
X145990401Y-97599675D01*
X145727580Y-97724859D01*
X145494231Y-97898912D01*
X145299322Y-98115145D01*
X145150343Y-98365248D01*
X145092728Y-98527668D01*
X145045398Y-98413403D01*
X144910680Y-98211783D01*
X144739217Y-98040320D01*
X144537597Y-97905602D01*
X144313569Y-97812807D01*
X144075743Y-97765500D01*
X143833257Y-97765500D01*
X143595431Y-97812807D01*
X143371403Y-97905602D01*
X143169783Y-98040320D01*
X142998320Y-98211783D01*
X142863602Y-98413403D01*
X142770807Y-98637431D01*
X142723500Y-98875257D01*
X142645500Y-98875257D01*
X142598193Y-98637431D01*
X142505398Y-98413403D01*
X142370680Y-98211783D01*
X142199217Y-98040320D01*
X141997597Y-97905602D01*
X141773569Y-97812807D01*
X141535743Y-97765500D01*
X141293257Y-97765500D01*
X141055431Y-97812807D01*
X140831403Y-97905602D01*
X140629783Y-98040320D01*
X140458320Y-98211783D01*
X140323602Y-98413403D01*
X140230807Y-98637431D01*
X140183500Y-98875257D01*
X140105500Y-98875257D01*
X140058193Y-98637431D01*
X139965398Y-98413403D01*
X139830680Y-98211783D01*
X139659217Y-98040320D01*
X139457597Y-97905602D01*
X139233569Y-97812807D01*
X138995743Y-97765500D01*
X138753257Y-97765500D01*
X138515431Y-97812807D01*
X138291403Y-97905602D01*
X138089783Y-98040320D01*
X137918320Y-98211783D01*
X137783602Y-98413403D01*
X137690807Y-98637431D01*
X137643500Y-98875257D01*
X137565500Y-98875257D01*
X137518193Y-98637431D01*
X137425398Y-98413403D01*
X137290680Y-98211783D01*
X137119217Y-98040320D01*
X136917597Y-97905602D01*
X136693569Y-97812807D01*
X136455743Y-97765500D01*
X136213257Y-97765500D01*
X135975431Y-97812807D01*
X135751403Y-97905602D01*
X135549783Y-98040320D01*
X135378320Y-98211783D01*
X135243602Y-98413403D01*
X135150807Y-98637431D01*
X135103500Y-98875257D01*
X128025300Y-98875257D01*
X127715639Y-98292470D01*
X127706177Y-98278308D01*
X127257481Y-97966124D01*
X125020605Y-100203000D01*
X124661395Y-100203000D01*
X122424519Y-97966124D01*
X121975823Y-98278308D01*
X121868000Y-98478839D01*
X121868000Y-97786519D01*
X122604124Y-97786519D01*
X124841000Y-100023395D01*
X127077876Y-97786519D01*
X126765692Y-97337823D01*
X126169741Y-97017388D01*
X125522727Y-96819374D01*
X124849516Y-96751390D01*
X124175977Y-96816051D01*
X123527994Y-97010870D01*
X122930470Y-97328361D01*
X122916308Y-97337823D01*
X122604124Y-97786519D01*
X121868000Y-97786519D01*
X121868000Y-92536712D01*
X128682893Y-92536712D01*
X128790726Y-92811338D01*
X129097384Y-92962216D01*
X129427585Y-93050369D01*
X129768639Y-93072409D01*
X130107439Y-93027489D01*
X130430966Y-92917336D01*
X130629274Y-92811338D01*
X130737107Y-92536712D01*
X129710000Y-91509605D01*
X128682893Y-92536712D01*
X121868000Y-92536712D01*
X121868000Y-87322158D01*
X124509000Y-87322158D01*
X124509001Y-90257843D01*
X124528983Y-90460723D01*
X124607950Y-90721043D01*
X124736186Y-90960955D01*
X124908762Y-91171239D01*
X125119046Y-91343815D01*
X125358958Y-91472051D01*
X125619278Y-91551018D01*
X125890000Y-91577682D01*
X126160723Y-91551018D01*
X126421043Y-91472051D01*
X126577095Y-91388639D01*
X127967591Y-91388639D01*
X128012511Y-91727439D01*
X128122664Y-92050966D01*
X128228662Y-92249274D01*
X128503288Y-92357107D01*
X129530395Y-91330000D01*
X129889605Y-91330000D01*
X130916712Y-92357107D01*
X131191338Y-92249274D01*
X131342216Y-91942616D01*
X131430369Y-91612415D01*
X131452409Y-91271361D01*
X131440844Y-91184134D01*
X132039000Y-91184134D01*
X132039000Y-91475866D01*
X132095914Y-91761992D01*
X132207555Y-92031517D01*
X132369632Y-92274083D01*
X132575917Y-92480368D01*
X132818483Y-92642445D01*
X133088008Y-92754086D01*
X133374134Y-92811000D01*
X133665866Y-92811000D01*
X133951992Y-92754086D01*
X134221517Y-92642445D01*
X134379758Y-92536712D01*
X136302893Y-92536712D01*
X136410726Y-92811338D01*
X136717384Y-92962216D01*
X137047585Y-93050369D01*
X137388639Y-93072409D01*
X137727439Y-93027489D01*
X138050966Y-92917336D01*
X138249274Y-92811338D01*
X138357107Y-92536712D01*
X137330000Y-91509605D01*
X136302893Y-92536712D01*
X134379758Y-92536712D01*
X134464083Y-92480368D01*
X134670368Y-92274083D01*
X134832445Y-92031517D01*
X134944086Y-91761992D01*
X135001000Y-91475866D01*
X135001000Y-91388639D01*
X135587591Y-91388639D01*
X135632511Y-91727439D01*
X135742664Y-92050966D01*
X135848662Y-92249274D01*
X136123288Y-92357107D01*
X137150395Y-91330000D01*
X137509605Y-91330000D01*
X138536712Y-92357107D01*
X138811338Y-92249274D01*
X138962216Y-91942616D01*
X139050369Y-91612415D01*
X139072409Y-91271361D01*
X139027489Y-90932561D01*
X138917336Y-90609034D01*
X138811338Y-90410726D01*
X138536712Y-90302893D01*
X137509605Y-91330000D01*
X137150395Y-91330000D01*
X136123288Y-90302893D01*
X135848662Y-90410726D01*
X135697784Y-90717384D01*
X135609631Y-91047585D01*
X135587591Y-91388639D01*
X135001000Y-91388639D01*
X135001000Y-91184134D01*
X134944086Y-90898008D01*
X134832445Y-90628483D01*
X134670368Y-90385917D01*
X134464083Y-90179632D01*
X134379759Y-90123288D01*
X136302893Y-90123288D01*
X137330000Y-91150395D01*
X138357107Y-90123288D01*
X138249274Y-89848662D01*
X137942616Y-89697784D01*
X137612415Y-89609631D01*
X137271361Y-89587591D01*
X136932561Y-89632511D01*
X136609034Y-89742664D01*
X136410726Y-89848662D01*
X136302893Y-90123288D01*
X134379759Y-90123288D01*
X134221517Y-90017555D01*
X133951992Y-89905914D01*
X133665866Y-89849000D01*
X133374134Y-89849000D01*
X133088008Y-89905914D01*
X132818483Y-90017555D01*
X132575917Y-90179632D01*
X132369632Y-90385917D01*
X132207555Y-90628483D01*
X132095914Y-90898008D01*
X132039000Y-91184134D01*
X131440844Y-91184134D01*
X131407489Y-90932561D01*
X131297336Y-90609034D01*
X131191338Y-90410726D01*
X130916712Y-90302893D01*
X129889605Y-91330000D01*
X129530395Y-91330000D01*
X128503288Y-90302893D01*
X128228662Y-90410726D01*
X128077784Y-90717384D01*
X127989631Y-91047585D01*
X127967591Y-91388639D01*
X126577095Y-91388639D01*
X126660955Y-91343815D01*
X126871239Y-91171239D01*
X127043815Y-90960955D01*
X127172051Y-90721043D01*
X127251018Y-90460723D01*
X127271000Y-90257843D01*
X127271000Y-90123288D01*
X128682893Y-90123288D01*
X129710000Y-91150395D01*
X130737107Y-90123288D01*
X130629274Y-89848662D01*
X130322616Y-89697784D01*
X129992415Y-89609631D01*
X129651361Y-89587591D01*
X129312561Y-89632511D01*
X128989034Y-89742664D01*
X128790726Y-89848662D01*
X128682893Y-90123288D01*
X127271000Y-90123288D01*
X127271000Y-87322157D01*
X127251018Y-87119277D01*
X127172051Y-86858957D01*
X127043815Y-86619045D01*
X126871238Y-86408761D01*
X126660954Y-86236185D01*
X126421042Y-86107949D01*
X126408466Y-86104134D01*
X130124000Y-86104134D01*
X130124000Y-86395866D01*
X130180914Y-86681992D01*
X130292555Y-86951517D01*
X130454632Y-87194083D01*
X130660917Y-87400368D01*
X130903483Y-87562445D01*
X131173008Y-87674086D01*
X131459134Y-87731000D01*
X131750866Y-87731000D01*
X132036992Y-87674086D01*
X132306517Y-87562445D01*
X132464758Y-87456712D01*
X134387893Y-87456712D01*
X134495726Y-87731338D01*
X134802384Y-87882216D01*
X135132585Y-87970369D01*
X135473639Y-87992409D01*
X135812439Y-87947489D01*
X136135966Y-87837336D01*
X136334274Y-87731338D01*
X136442107Y-87456712D01*
X135415000Y-86429605D01*
X134387893Y-87456712D01*
X132464758Y-87456712D01*
X132549083Y-87400368D01*
X132755368Y-87194083D01*
X132917445Y-86951517D01*
X133029086Y-86681992D01*
X133086000Y-86395866D01*
X133086000Y-86308639D01*
X133672591Y-86308639D01*
X133717511Y-86647439D01*
X133827664Y-86970966D01*
X133933662Y-87169274D01*
X134208288Y-87277107D01*
X135235395Y-86250000D01*
X135594605Y-86250000D01*
X136621712Y-87277107D01*
X136896338Y-87169274D01*
X137047216Y-86862616D01*
X137135369Y-86532415D01*
X137157409Y-86191361D01*
X137145844Y-86104134D01*
X137744000Y-86104134D01*
X137744000Y-86395866D01*
X137800914Y-86681992D01*
X137912555Y-86951517D01*
X138074632Y-87194083D01*
X138280917Y-87400368D01*
X138523483Y-87562445D01*
X138793008Y-87674086D01*
X139079134Y-87731000D01*
X139370866Y-87731000D01*
X139656992Y-87674086D01*
X139852509Y-87593100D01*
X142496001Y-90236593D01*
X142496001Y-90733635D01*
X142452445Y-90628483D01*
X142290368Y-90385917D01*
X142084083Y-90179632D01*
X141841517Y-90017555D01*
X141571992Y-89905914D01*
X141285866Y-89849000D01*
X140994134Y-89849000D01*
X140708008Y-89905914D01*
X140438483Y-90017555D01*
X140195917Y-90179632D01*
X139989632Y-90385917D01*
X139827555Y-90628483D01*
X139715914Y-90898008D01*
X139659000Y-91184134D01*
X139659000Y-91475866D01*
X139715914Y-91761992D01*
X139827555Y-92031517D01*
X139989632Y-92274083D01*
X140195917Y-92480368D01*
X140438483Y-92642445D01*
X140708008Y-92754086D01*
X140994134Y-92811000D01*
X141285866Y-92811000D01*
X141571992Y-92754086D01*
X141841517Y-92642445D01*
X142084083Y-92480368D01*
X142290368Y-92274083D01*
X142452445Y-92031517D01*
X142496000Y-91926366D01*
X142496000Y-92113654D01*
X142493553Y-92138500D01*
X142496000Y-92163346D01*
X142496000Y-92163353D01*
X142503322Y-92237692D01*
X142532255Y-92333074D01*
X142579241Y-92420979D01*
X142642473Y-92498027D01*
X142661785Y-92513876D01*
X148219006Y-98071097D01*
X148078320Y-98211783D01*
X147943602Y-98413403D01*
X147896272Y-98527668D01*
X147838657Y-98365248D01*
X147689678Y-98115145D01*
X147494769Y-97898912D01*
X147261420Y-97724859D01*
X146998599Y-97599675D01*
X146851390Y-97555024D01*
X146621500Y-97676345D01*
X146621500Y-98869500D01*
X146641500Y-98869500D01*
X146641500Y-99123500D01*
X146621500Y-99123500D01*
X146621500Y-100316655D01*
X146851390Y-100437976D01*
X146998599Y-100393325D01*
X147261420Y-100268141D01*
X147494769Y-100094088D01*
X147689678Y-99877855D01*
X147838657Y-99627752D01*
X147896272Y-99465332D01*
X147943602Y-99579597D01*
X148078320Y-99781217D01*
X148249783Y-99952680D01*
X148451403Y-100087398D01*
X148675431Y-100180193D01*
X148913257Y-100227500D01*
X149155743Y-100227500D01*
X149393569Y-100180193D01*
X149617597Y-100087398D01*
X149819217Y-99952680D01*
X149990680Y-99781217D01*
X150125398Y-99579597D01*
X150218193Y-99355569D01*
X150265500Y-99117743D01*
X150265500Y-98875257D01*
X150343500Y-98875257D01*
X150343500Y-99117743D01*
X150390807Y-99355569D01*
X150483602Y-99579597D01*
X150618320Y-99781217D01*
X150789783Y-99952680D01*
X150991403Y-100087398D01*
X151215431Y-100180193D01*
X151453257Y-100227500D01*
X151695743Y-100227500D01*
X151933569Y-100180193D01*
X152157597Y-100087398D01*
X152359217Y-99952680D01*
X152530680Y-99781217D01*
X152665398Y-99579597D01*
X152712728Y-99465332D01*
X152770343Y-99627752D01*
X152919322Y-99877855D01*
X153114231Y-100094088D01*
X153347580Y-100268141D01*
X153610401Y-100393325D01*
X153757610Y-100437976D01*
X153987500Y-100316655D01*
X153987500Y-99123500D01*
X153967500Y-99123500D01*
X153967500Y-98869500D01*
X153987500Y-98869500D01*
X153987500Y-97676345D01*
X154241500Y-97676345D01*
X154241500Y-98869500D01*
X154261500Y-98869500D01*
X154261500Y-99123500D01*
X154241500Y-99123500D01*
X154241500Y-100316655D01*
X154471390Y-100437976D01*
X154618599Y-100393325D01*
X154881420Y-100268141D01*
X154895037Y-100257984D01*
X168315890Y-100257984D01*
X168380551Y-100931523D01*
X168575370Y-101579506D01*
X168892861Y-102177030D01*
X168902323Y-102191192D01*
X169351019Y-102503376D01*
X171587895Y-100266500D01*
X169351019Y-98029624D01*
X168902323Y-98341808D01*
X168581888Y-98937759D01*
X168383874Y-99584773D01*
X168315890Y-100257984D01*
X154895037Y-100257984D01*
X155114769Y-100094088D01*
X155309678Y-99877855D01*
X155458657Y-99627752D01*
X155516272Y-99465332D01*
X155563602Y-99579597D01*
X155698320Y-99781217D01*
X155869783Y-99952680D01*
X156071403Y-100087398D01*
X156295431Y-100180193D01*
X156533257Y-100227500D01*
X156775743Y-100227500D01*
X157013569Y-100180193D01*
X157237597Y-100087398D01*
X157439217Y-99952680D01*
X157610680Y-99781217D01*
X157745398Y-99579597D01*
X157838193Y-99355569D01*
X157885500Y-99117743D01*
X157885500Y-98875257D01*
X157838193Y-98637431D01*
X157745398Y-98413403D01*
X157610680Y-98211783D01*
X157565244Y-98166347D01*
X157585091Y-98146500D01*
X157961657Y-98146500D01*
X157961657Y-99846500D01*
X157969013Y-99921189D01*
X157990799Y-99993008D01*
X158026178Y-100059196D01*
X158073789Y-100117211D01*
X158131804Y-100164822D01*
X158197992Y-100200201D01*
X158269811Y-100221987D01*
X158344500Y-100229343D01*
X160044500Y-100229343D01*
X160119189Y-100221987D01*
X160191008Y-100200201D01*
X160257196Y-100164822D01*
X160315211Y-100117211D01*
X160362822Y-100059196D01*
X160398201Y-99993008D01*
X160419987Y-99921189D01*
X160427343Y-99846500D01*
X160427343Y-98146500D01*
X160419987Y-98071811D01*
X160398201Y-97999992D01*
X160362822Y-97933804D01*
X160315211Y-97875789D01*
X160283810Y-97850019D01*
X169530624Y-97850019D01*
X171767500Y-100086895D01*
X174004376Y-97850019D01*
X173692192Y-97401323D01*
X173096241Y-97080888D01*
X172449227Y-96882874D01*
X171776016Y-96814890D01*
X171102477Y-96879551D01*
X170454494Y-97074370D01*
X169856970Y-97391861D01*
X169842808Y-97401323D01*
X169530624Y-97850019D01*
X160283810Y-97850019D01*
X160257196Y-97828178D01*
X160191008Y-97792799D01*
X160119189Y-97771013D01*
X160044500Y-97763657D01*
X158344500Y-97763657D01*
X158269811Y-97771013D01*
X158197992Y-97792799D01*
X158131804Y-97828178D01*
X158073789Y-97875789D01*
X158026178Y-97933804D01*
X157990799Y-97999992D01*
X157969013Y-98071811D01*
X157961657Y-98146500D01*
X157585091Y-98146500D01*
X158070592Y-97661000D01*
X165964154Y-97661000D01*
X165989000Y-97663447D01*
X166013846Y-97661000D01*
X166013854Y-97661000D01*
X166088193Y-97653678D01*
X166183575Y-97624745D01*
X166271479Y-97577759D01*
X166348527Y-97514527D01*
X166364376Y-97495215D01*
X170012220Y-93847372D01*
X170031527Y-93831527D01*
X170094759Y-93754479D01*
X170141745Y-93666575D01*
X170170678Y-93571193D01*
X170178000Y-93496854D01*
X170178000Y-93496853D01*
X170180448Y-93472000D01*
X170178000Y-93447146D01*
X170178000Y-87322158D01*
X170229000Y-87322158D01*
X170229001Y-90257843D01*
X170248983Y-90460723D01*
X170327950Y-90721043D01*
X170456186Y-90960955D01*
X170628762Y-91171239D01*
X170839046Y-91343815D01*
X171078958Y-91472051D01*
X171339278Y-91551018D01*
X171610000Y-91577682D01*
X171880723Y-91551018D01*
X172141043Y-91472051D01*
X172380955Y-91343815D01*
X172591239Y-91171239D01*
X172763815Y-90960955D01*
X172892051Y-90721043D01*
X172971018Y-90460723D01*
X172991000Y-90257843D01*
X172991000Y-87322157D01*
X172971018Y-87119277D01*
X172892051Y-86858957D01*
X172763815Y-86619045D01*
X172591238Y-86408761D01*
X172380954Y-86236185D01*
X172141042Y-86107949D01*
X171880722Y-86028982D01*
X171610000Y-86002318D01*
X171339277Y-86028982D01*
X171078957Y-86107949D01*
X170839045Y-86236185D01*
X170628761Y-86408762D01*
X170456185Y-86619046D01*
X170327949Y-86858958D01*
X170248982Y-87119278D01*
X170229000Y-87322158D01*
X170178000Y-87322158D01*
X170178000Y-85172591D01*
X173441220Y-81909372D01*
X173460527Y-81893527D01*
X173523759Y-81816479D01*
X173570745Y-81728575D01*
X173599678Y-81633193D01*
X173607000Y-81558854D01*
X173607000Y-81558847D01*
X173609447Y-81534001D01*
X173607000Y-81509155D01*
X173607000Y-77886790D01*
X173873568Y-77776374D01*
X174140702Y-77597881D01*
X174367881Y-77370702D01*
X174546374Y-77103568D01*
X174669322Y-76806745D01*
X174732000Y-76491640D01*
X174732000Y-76170360D01*
X174669322Y-75855255D01*
X174546374Y-75558432D01*
X174367881Y-75291298D01*
X174140702Y-75064119D01*
X173873568Y-74885626D01*
X173576745Y-74762678D01*
X173261640Y-74700000D01*
X172940360Y-74700000D01*
X172625255Y-74762678D01*
X172328432Y-74885626D01*
X172061298Y-75064119D01*
X171834119Y-75291298D01*
X171655626Y-75558432D01*
X171532678Y-75855255D01*
X171470000Y-76170360D01*
X171470000Y-76491640D01*
X171532678Y-76806745D01*
X171655626Y-77103568D01*
X171834119Y-77370702D01*
X172061298Y-77597881D01*
X172328432Y-77776374D01*
X172595001Y-77886790D01*
X172595000Y-81324408D01*
X169331781Y-84587628D01*
X169312474Y-84603473D01*
X169249242Y-84680521D01*
X169224127Y-84727508D01*
X169202255Y-84768426D01*
X169173322Y-84863808D01*
X169163553Y-84963000D01*
X169166001Y-84987856D01*
X169166000Y-90733635D01*
X169122445Y-90628483D01*
X168960368Y-90385917D01*
X168754083Y-90179632D01*
X168511517Y-90017555D01*
X168241992Y-89905914D01*
X167955866Y-89849000D01*
X167664134Y-89849000D01*
X167378008Y-89905914D01*
X167108483Y-90017555D01*
X166865917Y-90179632D01*
X166659632Y-90385917D01*
X166497555Y-90628483D01*
X166385914Y-90898008D01*
X166329000Y-91184134D01*
X166329000Y-91475866D01*
X166385914Y-91761992D01*
X166497555Y-92031517D01*
X166659632Y-92274083D01*
X166865917Y-92480368D01*
X167108483Y-92642445D01*
X167378008Y-92754086D01*
X167664134Y-92811000D01*
X167955866Y-92811000D01*
X168241992Y-92754086D01*
X168511517Y-92642445D01*
X168754083Y-92480368D01*
X168960368Y-92274083D01*
X169122445Y-92031517D01*
X169166000Y-91926366D01*
X169166000Y-93262408D01*
X165779409Y-96649000D01*
X157885854Y-96649000D01*
X157861000Y-96646552D01*
X157836146Y-96649000D01*
X157761807Y-96656322D01*
X157666425Y-96685255D01*
X157578521Y-96732241D01*
X157501473Y-96795473D01*
X157485629Y-96814779D01*
X156534909Y-97765500D01*
X156533257Y-97765500D01*
X156295431Y-97812807D01*
X156071403Y-97905602D01*
X155869783Y-98040320D01*
X155698320Y-98211783D01*
X155563602Y-98413403D01*
X155516272Y-98527668D01*
X155458657Y-98365248D01*
X155309678Y-98115145D01*
X155114769Y-97898912D01*
X154881420Y-97724859D01*
X154618599Y-97599675D01*
X154471390Y-97555024D01*
X154241500Y-97676345D01*
X153987500Y-97676345D01*
X153757610Y-97555024D01*
X153610401Y-97599675D01*
X153347580Y-97724859D01*
X153114231Y-97898912D01*
X152919322Y-98115145D01*
X152770343Y-98365248D01*
X152712728Y-98527668D01*
X152665398Y-98413403D01*
X152530680Y-98211783D01*
X152359217Y-98040320D01*
X152157597Y-97905602D01*
X151933569Y-97812807D01*
X151695743Y-97765500D01*
X151453257Y-97765500D01*
X151215431Y-97812807D01*
X150991403Y-97905602D01*
X150789783Y-98040320D01*
X150618320Y-98211783D01*
X150483602Y-98413403D01*
X150390807Y-98637431D01*
X150343500Y-98875257D01*
X150265500Y-98875257D01*
X150218193Y-98637431D01*
X150125398Y-98413403D01*
X149990680Y-98211783D01*
X149819217Y-98040320D01*
X149617597Y-97905602D01*
X149395921Y-97813781D01*
X149394027Y-97811473D01*
X149374720Y-97795628D01*
X144615575Y-93036484D01*
X144667585Y-93050369D01*
X145008639Y-93072409D01*
X145347439Y-93027489D01*
X145670966Y-92917336D01*
X145869274Y-92811338D01*
X145977107Y-92536712D01*
X144950000Y-91509605D01*
X144935858Y-91523748D01*
X144756253Y-91344143D01*
X144770395Y-91330000D01*
X145129605Y-91330000D01*
X146156712Y-92357107D01*
X146431338Y-92249274D01*
X146582216Y-91942616D01*
X146670369Y-91612415D01*
X146692409Y-91271361D01*
X146680844Y-91184134D01*
X147279000Y-91184134D01*
X147279000Y-91475866D01*
X147335914Y-91761992D01*
X147447555Y-92031517D01*
X147609632Y-92274083D01*
X147815917Y-92480368D01*
X148058483Y-92642445D01*
X148328008Y-92754086D01*
X148614134Y-92811000D01*
X148905866Y-92811000D01*
X149191992Y-92754086D01*
X149461517Y-92642445D01*
X149619758Y-92536712D01*
X151542893Y-92536712D01*
X151650726Y-92811338D01*
X151957384Y-92962216D01*
X152287585Y-93050369D01*
X152628639Y-93072409D01*
X152967439Y-93027489D01*
X153290966Y-92917336D01*
X153489274Y-92811338D01*
X153597107Y-92536712D01*
X152570000Y-91509605D01*
X151542893Y-92536712D01*
X149619758Y-92536712D01*
X149704083Y-92480368D01*
X149910368Y-92274083D01*
X150072445Y-92031517D01*
X150184086Y-91761992D01*
X150241000Y-91475866D01*
X150241000Y-91388639D01*
X150827591Y-91388639D01*
X150872511Y-91727439D01*
X150982664Y-92050966D01*
X151088662Y-92249274D01*
X151363288Y-92357107D01*
X152390395Y-91330000D01*
X152749605Y-91330000D01*
X153776712Y-92357107D01*
X154051338Y-92249274D01*
X154202216Y-91942616D01*
X154290369Y-91612415D01*
X154312409Y-91271361D01*
X154300844Y-91184134D01*
X154899000Y-91184134D01*
X154899000Y-91475866D01*
X154955914Y-91761992D01*
X155067555Y-92031517D01*
X155229632Y-92274083D01*
X155435917Y-92480368D01*
X155678483Y-92642445D01*
X155948008Y-92754086D01*
X156234134Y-92811000D01*
X156525866Y-92811000D01*
X156811992Y-92754086D01*
X157081517Y-92642445D01*
X157239758Y-92536712D01*
X159162893Y-92536712D01*
X159270726Y-92811338D01*
X159577384Y-92962216D01*
X159907585Y-93050369D01*
X160248639Y-93072409D01*
X160587439Y-93027489D01*
X160910966Y-92917336D01*
X161109274Y-92811338D01*
X161217107Y-92536712D01*
X160190000Y-91509605D01*
X159162893Y-92536712D01*
X157239758Y-92536712D01*
X157324083Y-92480368D01*
X157530368Y-92274083D01*
X157692445Y-92031517D01*
X157804086Y-91761992D01*
X157861000Y-91475866D01*
X157861000Y-91388639D01*
X158447591Y-91388639D01*
X158492511Y-91727439D01*
X158602664Y-92050966D01*
X158708662Y-92249274D01*
X158983288Y-92357107D01*
X160010395Y-91330000D01*
X160369605Y-91330000D01*
X161396712Y-92357107D01*
X161671338Y-92249274D01*
X161822216Y-91942616D01*
X161910369Y-91612415D01*
X161932409Y-91271361D01*
X161920844Y-91184134D01*
X162519000Y-91184134D01*
X162519000Y-91475866D01*
X162575914Y-91761992D01*
X162687555Y-92031517D01*
X162849632Y-92274083D01*
X163055917Y-92480368D01*
X163298483Y-92642445D01*
X163568008Y-92754086D01*
X163854134Y-92811000D01*
X164145866Y-92811000D01*
X164431992Y-92754086D01*
X164701517Y-92642445D01*
X164944083Y-92480368D01*
X165150368Y-92274083D01*
X165312445Y-92031517D01*
X165424086Y-91761992D01*
X165481000Y-91475866D01*
X165481000Y-91184134D01*
X165424086Y-90898008D01*
X165312445Y-90628483D01*
X165150368Y-90385917D01*
X164944083Y-90179632D01*
X164701517Y-90017555D01*
X164431992Y-89905914D01*
X164145866Y-89849000D01*
X163854134Y-89849000D01*
X163568008Y-89905914D01*
X163298483Y-90017555D01*
X163055917Y-90179632D01*
X162849632Y-90385917D01*
X162687555Y-90628483D01*
X162575914Y-90898008D01*
X162519000Y-91184134D01*
X161920844Y-91184134D01*
X161887489Y-90932561D01*
X161777336Y-90609034D01*
X161671338Y-90410726D01*
X161396712Y-90302893D01*
X160369605Y-91330000D01*
X160010395Y-91330000D01*
X158983288Y-90302893D01*
X158708662Y-90410726D01*
X158557784Y-90717384D01*
X158469631Y-91047585D01*
X158447591Y-91388639D01*
X157861000Y-91388639D01*
X157861000Y-91184134D01*
X157804086Y-90898008D01*
X157692445Y-90628483D01*
X157530368Y-90385917D01*
X157324083Y-90179632D01*
X157239759Y-90123288D01*
X159162893Y-90123288D01*
X160190000Y-91150395D01*
X161217107Y-90123288D01*
X161109274Y-89848662D01*
X160802616Y-89697784D01*
X160472415Y-89609631D01*
X160131361Y-89587591D01*
X159792561Y-89632511D01*
X159469034Y-89742664D01*
X159270726Y-89848662D01*
X159162893Y-90123288D01*
X157239759Y-90123288D01*
X157081517Y-90017555D01*
X156811992Y-89905914D01*
X156525866Y-89849000D01*
X156234134Y-89849000D01*
X155948008Y-89905914D01*
X155678483Y-90017555D01*
X155435917Y-90179632D01*
X155229632Y-90385917D01*
X155067555Y-90628483D01*
X154955914Y-90898008D01*
X154899000Y-91184134D01*
X154300844Y-91184134D01*
X154267489Y-90932561D01*
X154157336Y-90609034D01*
X154051338Y-90410726D01*
X153776712Y-90302893D01*
X152749605Y-91330000D01*
X152390395Y-91330000D01*
X151363288Y-90302893D01*
X151088662Y-90410726D01*
X150937784Y-90717384D01*
X150849631Y-91047585D01*
X150827591Y-91388639D01*
X150241000Y-91388639D01*
X150241000Y-91184134D01*
X150184086Y-90898008D01*
X150072445Y-90628483D01*
X149910368Y-90385917D01*
X149704083Y-90179632D01*
X149619759Y-90123288D01*
X151542893Y-90123288D01*
X152570000Y-91150395D01*
X153597107Y-90123288D01*
X153489274Y-89848662D01*
X153182616Y-89697784D01*
X152852415Y-89609631D01*
X152511361Y-89587591D01*
X152172561Y-89632511D01*
X151849034Y-89742664D01*
X151650726Y-89848662D01*
X151542893Y-90123288D01*
X149619759Y-90123288D01*
X149461517Y-90017555D01*
X149191992Y-89905914D01*
X148905866Y-89849000D01*
X148614134Y-89849000D01*
X148328008Y-89905914D01*
X148058483Y-90017555D01*
X147815917Y-90179632D01*
X147609632Y-90385917D01*
X147447555Y-90628483D01*
X147335914Y-90898008D01*
X147279000Y-91184134D01*
X146680844Y-91184134D01*
X146647489Y-90932561D01*
X146537336Y-90609034D01*
X146431338Y-90410726D01*
X146156712Y-90302893D01*
X145129605Y-91330000D01*
X144770395Y-91330000D01*
X143743288Y-90302893D01*
X143508000Y-90395280D01*
X143508000Y-90123288D01*
X143922893Y-90123288D01*
X144950000Y-91150395D01*
X145977107Y-90123288D01*
X145869274Y-89848662D01*
X145562616Y-89697784D01*
X145232415Y-89609631D01*
X144891361Y-89587591D01*
X144552561Y-89632511D01*
X144229034Y-89742664D01*
X144030726Y-89848662D01*
X143922893Y-90123288D01*
X143508000Y-90123288D01*
X143508000Y-90051854D01*
X143510448Y-90027000D01*
X143500678Y-89927807D01*
X143471745Y-89832425D01*
X143424759Y-89744521D01*
X143361527Y-89667473D01*
X143342220Y-89651628D01*
X140568100Y-86877509D01*
X140649086Y-86681992D01*
X140706000Y-86395866D01*
X140706000Y-86104134D01*
X141554000Y-86104134D01*
X141554000Y-86395866D01*
X141610914Y-86681992D01*
X141722555Y-86951517D01*
X141884632Y-87194083D01*
X142090917Y-87400368D01*
X142333483Y-87562445D01*
X142603008Y-87674086D01*
X142889134Y-87731000D01*
X143180866Y-87731000D01*
X143466992Y-87674086D01*
X143736517Y-87562445D01*
X143979083Y-87400368D01*
X144185368Y-87194083D01*
X144347445Y-86951517D01*
X144459086Y-86681992D01*
X144516000Y-86395866D01*
X144516000Y-86104134D01*
X145364000Y-86104134D01*
X145364000Y-86395866D01*
X145420914Y-86681992D01*
X145532555Y-86951517D01*
X145694632Y-87194083D01*
X145900917Y-87400368D01*
X146143483Y-87562445D01*
X146413008Y-87674086D01*
X146699134Y-87731000D01*
X146990866Y-87731000D01*
X147276992Y-87674086D01*
X147546517Y-87562445D01*
X147789083Y-87400368D01*
X147995368Y-87194083D01*
X148157445Y-86951517D01*
X148269086Y-86681992D01*
X148326000Y-86395866D01*
X148326000Y-86104134D01*
X149174000Y-86104134D01*
X149174000Y-86395866D01*
X149230914Y-86681992D01*
X149342555Y-86951517D01*
X149504632Y-87194083D01*
X149710917Y-87400368D01*
X149953483Y-87562445D01*
X150223008Y-87674086D01*
X150509134Y-87731000D01*
X150800866Y-87731000D01*
X151086992Y-87674086D01*
X151356517Y-87562445D01*
X151599083Y-87400368D01*
X151805368Y-87194083D01*
X151967445Y-86951517D01*
X152079086Y-86681992D01*
X152136000Y-86395866D01*
X152136000Y-86104134D01*
X152984000Y-86104134D01*
X152984000Y-86395866D01*
X153040914Y-86681992D01*
X153152555Y-86951517D01*
X153314632Y-87194083D01*
X153520917Y-87400368D01*
X153763483Y-87562445D01*
X154033008Y-87674086D01*
X154319134Y-87731000D01*
X154610866Y-87731000D01*
X154896992Y-87674086D01*
X155166517Y-87562445D01*
X155409083Y-87400368D01*
X155615368Y-87194083D01*
X155777445Y-86951517D01*
X155889086Y-86681992D01*
X155946000Y-86395866D01*
X155946000Y-86104134D01*
X156794000Y-86104134D01*
X156794000Y-86395866D01*
X156850914Y-86681992D01*
X156962555Y-86951517D01*
X157124632Y-87194083D01*
X157330917Y-87400368D01*
X157573483Y-87562445D01*
X157843008Y-87674086D01*
X158129134Y-87731000D01*
X158420866Y-87731000D01*
X158706992Y-87674086D01*
X158976517Y-87562445D01*
X159134758Y-87456712D01*
X161057893Y-87456712D01*
X161165726Y-87731338D01*
X161472384Y-87882216D01*
X161802585Y-87970369D01*
X162143639Y-87992409D01*
X162482439Y-87947489D01*
X162805966Y-87837336D01*
X163004274Y-87731338D01*
X163112107Y-87456712D01*
X162085000Y-86429605D01*
X161057893Y-87456712D01*
X159134758Y-87456712D01*
X159219083Y-87400368D01*
X159425368Y-87194083D01*
X159587445Y-86951517D01*
X159699086Y-86681992D01*
X159756000Y-86395866D01*
X159756000Y-86308639D01*
X160342591Y-86308639D01*
X160387511Y-86647439D01*
X160497664Y-86970966D01*
X160603662Y-87169274D01*
X160878288Y-87277107D01*
X161905395Y-86250000D01*
X162264605Y-86250000D01*
X163291712Y-87277107D01*
X163566338Y-87169274D01*
X163717216Y-86862616D01*
X163805369Y-86532415D01*
X163827409Y-86191361D01*
X163815844Y-86104134D01*
X164414000Y-86104134D01*
X164414000Y-86395866D01*
X164470914Y-86681992D01*
X164582555Y-86951517D01*
X164744632Y-87194083D01*
X164950917Y-87400368D01*
X165193483Y-87562445D01*
X165463008Y-87674086D01*
X165749134Y-87731000D01*
X166040866Y-87731000D01*
X166326992Y-87674086D01*
X166596517Y-87562445D01*
X166839083Y-87400368D01*
X167045368Y-87194083D01*
X167207445Y-86951517D01*
X167319086Y-86681992D01*
X167376000Y-86395866D01*
X167376000Y-86104134D01*
X167319086Y-85818008D01*
X167207445Y-85548483D01*
X167045368Y-85305917D01*
X166839083Y-85099632D01*
X166596517Y-84937555D01*
X166326992Y-84825914D01*
X166040866Y-84769000D01*
X165749134Y-84769000D01*
X165463008Y-84825914D01*
X165193483Y-84937555D01*
X164950917Y-85099632D01*
X164744632Y-85305917D01*
X164582555Y-85548483D01*
X164470914Y-85818008D01*
X164414000Y-86104134D01*
X163815844Y-86104134D01*
X163782489Y-85852561D01*
X163672336Y-85529034D01*
X163566338Y-85330726D01*
X163291712Y-85222893D01*
X162264605Y-86250000D01*
X161905395Y-86250000D01*
X160878288Y-85222893D01*
X160603662Y-85330726D01*
X160452784Y-85637384D01*
X160364631Y-85967585D01*
X160342591Y-86308639D01*
X159756000Y-86308639D01*
X159756000Y-86104134D01*
X159699086Y-85818008D01*
X159678729Y-85768862D01*
X160404303Y-85043288D01*
X161057893Y-85043288D01*
X162085000Y-86070395D01*
X163112107Y-85043288D01*
X163004274Y-84768662D01*
X162697616Y-84617784D01*
X162367415Y-84529631D01*
X162026361Y-84507591D01*
X161687561Y-84552511D01*
X161364034Y-84662664D01*
X161165726Y-84768662D01*
X161057893Y-85043288D01*
X160404303Y-85043288D01*
X167658686Y-77788906D01*
X167925255Y-77899322D01*
X168240360Y-77962000D01*
X168561640Y-77962000D01*
X168876745Y-77899322D01*
X169173568Y-77776374D01*
X169440702Y-77597881D01*
X169667881Y-77370702D01*
X169846374Y-77103568D01*
X169969322Y-76806745D01*
X170032000Y-76491640D01*
X170032000Y-76170360D01*
X169969322Y-75855255D01*
X169846374Y-75558432D01*
X169667881Y-75291298D01*
X169440702Y-75064119D01*
X169173568Y-74885626D01*
X168876745Y-74762678D01*
X168561640Y-74700000D01*
X168240360Y-74700000D01*
X167925255Y-74762678D01*
X167628432Y-74885626D01*
X167361298Y-75064119D01*
X167134119Y-75291298D01*
X166955626Y-75558432D01*
X166832678Y-75855255D01*
X166770000Y-76170360D01*
X166770000Y-76491640D01*
X166832678Y-76806745D01*
X166943094Y-77073314D01*
X159037864Y-84978545D01*
X158976517Y-84937555D01*
X158706992Y-84825914D01*
X158420866Y-84769000D01*
X158129134Y-84769000D01*
X157843008Y-84825914D01*
X157573483Y-84937555D01*
X157330917Y-85099632D01*
X157124632Y-85305917D01*
X156962555Y-85548483D01*
X156850914Y-85818008D01*
X156794000Y-86104134D01*
X155946000Y-86104134D01*
X155889086Y-85818008D01*
X155777445Y-85548483D01*
X155615368Y-85305917D01*
X155409083Y-85099632D01*
X155166517Y-84937555D01*
X154896992Y-84825914D01*
X154610866Y-84769000D01*
X154319134Y-84769000D01*
X154033008Y-84825914D01*
X153763483Y-84937555D01*
X153520917Y-85099632D01*
X153314632Y-85305917D01*
X153152555Y-85548483D01*
X153040914Y-85818008D01*
X152984000Y-86104134D01*
X152136000Y-86104134D01*
X152079086Y-85818008D01*
X151967445Y-85548483D01*
X151805368Y-85305917D01*
X151599083Y-85099632D01*
X151356517Y-84937555D01*
X151086992Y-84825914D01*
X150800866Y-84769000D01*
X150509134Y-84769000D01*
X150223008Y-84825914D01*
X149953483Y-84937555D01*
X149710917Y-85099632D01*
X149504632Y-85305917D01*
X149342555Y-85548483D01*
X149230914Y-85818008D01*
X149174000Y-86104134D01*
X148326000Y-86104134D01*
X148269086Y-85818008D01*
X148157445Y-85548483D01*
X147995368Y-85305917D01*
X147789083Y-85099632D01*
X147546517Y-84937555D01*
X147276992Y-84825914D01*
X146990866Y-84769000D01*
X146699134Y-84769000D01*
X146413008Y-84825914D01*
X146143483Y-84937555D01*
X145900917Y-85099632D01*
X145694632Y-85305917D01*
X145532555Y-85548483D01*
X145420914Y-85818008D01*
X145364000Y-86104134D01*
X144516000Y-86104134D01*
X144459086Y-85818008D01*
X144347445Y-85548483D01*
X144185368Y-85305917D01*
X143979083Y-85099632D01*
X143736517Y-84937555D01*
X143466992Y-84825914D01*
X143180866Y-84769000D01*
X142889134Y-84769000D01*
X142603008Y-84825914D01*
X142333483Y-84937555D01*
X142090917Y-85099632D01*
X141884632Y-85305917D01*
X141722555Y-85548483D01*
X141610914Y-85818008D01*
X141554000Y-86104134D01*
X140706000Y-86104134D01*
X140649086Y-85818008D01*
X140537445Y-85548483D01*
X140375368Y-85305917D01*
X140169083Y-85099632D01*
X139926517Y-84937555D01*
X139656992Y-84825914D01*
X139370866Y-84769000D01*
X139079134Y-84769000D01*
X138793008Y-84825914D01*
X138523483Y-84937555D01*
X138280917Y-85099632D01*
X138074632Y-85305917D01*
X137912555Y-85548483D01*
X137800914Y-85818008D01*
X137744000Y-86104134D01*
X137145844Y-86104134D01*
X137112489Y-85852561D01*
X137002336Y-85529034D01*
X136896338Y-85330726D01*
X136621712Y-85222893D01*
X135594605Y-86250000D01*
X135235395Y-86250000D01*
X134208288Y-85222893D01*
X133933662Y-85330726D01*
X133782784Y-85637384D01*
X133694631Y-85967585D01*
X133672591Y-86308639D01*
X133086000Y-86308639D01*
X133086000Y-86104134D01*
X133029086Y-85818008D01*
X132917445Y-85548483D01*
X132755368Y-85305917D01*
X132549083Y-85099632D01*
X132464759Y-85043288D01*
X134387893Y-85043288D01*
X135415000Y-86070395D01*
X136442107Y-85043288D01*
X136334274Y-84768662D01*
X136027616Y-84617784D01*
X135697415Y-84529631D01*
X135356361Y-84507591D01*
X135017561Y-84552511D01*
X134694034Y-84662664D01*
X134495726Y-84768662D01*
X134387893Y-85043288D01*
X132464759Y-85043288D01*
X132306517Y-84937555D01*
X132036992Y-84825914D01*
X131750866Y-84769000D01*
X131459134Y-84769000D01*
X131173008Y-84825914D01*
X130903483Y-84937555D01*
X130660917Y-85099632D01*
X130454632Y-85305917D01*
X130292555Y-85548483D01*
X130180914Y-85818008D01*
X130124000Y-86104134D01*
X126408466Y-86104134D01*
X126160722Y-86028982D01*
X125890000Y-86002318D01*
X125619277Y-86028982D01*
X125358957Y-86107949D01*
X125119045Y-86236185D01*
X124908761Y-86408762D01*
X124736185Y-86619046D01*
X124607949Y-86858958D01*
X124528982Y-87119278D01*
X124509000Y-87322158D01*
X121868000Y-87322158D01*
X121868000Y-76170360D01*
X162070000Y-76170360D01*
X162070000Y-76491640D01*
X162132678Y-76806745D01*
X162255626Y-77103568D01*
X162434119Y-77370702D01*
X162661298Y-77597881D01*
X162928432Y-77776374D01*
X163225255Y-77899322D01*
X163540360Y-77962000D01*
X163861640Y-77962000D01*
X164176745Y-77899322D01*
X164473568Y-77776374D01*
X164740702Y-77597881D01*
X164967881Y-77370702D01*
X165146374Y-77103568D01*
X165269322Y-76806745D01*
X165332000Y-76491640D01*
X165332000Y-76170360D01*
X165269322Y-75855255D01*
X165146374Y-75558432D01*
X164967881Y-75291298D01*
X164740702Y-75064119D01*
X164473568Y-74885626D01*
X164176745Y-74762678D01*
X163861640Y-74700000D01*
X163540360Y-74700000D01*
X163225255Y-74762678D01*
X162928432Y-74885626D01*
X162661298Y-75064119D01*
X162434119Y-75291298D01*
X162255626Y-75558432D01*
X162132678Y-75855255D01*
X162070000Y-76170360D01*
X121868000Y-76170360D01*
X121868000Y-72837981D01*
X122604124Y-72837981D01*
X122916308Y-73286677D01*
X123512259Y-73607112D01*
X124159273Y-73805126D01*
X124832484Y-73873110D01*
X125506023Y-73808449D01*
X126154006Y-73613630D01*
X126701630Y-73322653D01*
X128475452Y-73322653D01*
X128631462Y-73638214D01*
X129006245Y-73829020D01*
X129411051Y-73943044D01*
X129830324Y-73975902D01*
X130247951Y-73926334D01*
X130647883Y-73796243D01*
X130943538Y-73638214D01*
X131099548Y-73322653D01*
X138775452Y-73322653D01*
X138931462Y-73638214D01*
X139306245Y-73829020D01*
X139711051Y-73943044D01*
X140130324Y-73975902D01*
X140547951Y-73926334D01*
X140947883Y-73796243D01*
X141243538Y-73638214D01*
X141399548Y-73322653D01*
X147969952Y-73322653D01*
X148125962Y-73638214D01*
X148500745Y-73829020D01*
X148905551Y-73943044D01*
X149324824Y-73975902D01*
X149742451Y-73926334D01*
X150142383Y-73796243D01*
X150438038Y-73638214D01*
X150594048Y-73322653D01*
X158269952Y-73322653D01*
X158425962Y-73638214D01*
X158800745Y-73829020D01*
X159205551Y-73943044D01*
X159624824Y-73975902D01*
X160042451Y-73926334D01*
X160442383Y-73796243D01*
X160738038Y-73638214D01*
X160894048Y-73322653D01*
X159582000Y-72010605D01*
X158269952Y-73322653D01*
X150594048Y-73322653D01*
X149282000Y-72010605D01*
X147969952Y-73322653D01*
X141399548Y-73322653D01*
X140087500Y-72010605D01*
X138775452Y-73322653D01*
X131099548Y-73322653D01*
X129787500Y-72010605D01*
X128475452Y-73322653D01*
X126701630Y-73322653D01*
X126751530Y-73296139D01*
X126765692Y-73286677D01*
X127077876Y-72837981D01*
X124841000Y-70601105D01*
X122604124Y-72837981D01*
X121868000Y-72837981D01*
X121868000Y-72146913D01*
X121966361Y-72332030D01*
X121975823Y-72346192D01*
X122424519Y-72658376D01*
X124661395Y-70421500D01*
X125020605Y-70421500D01*
X127257481Y-72658376D01*
X127706177Y-72346192D01*
X127708542Y-72341794D01*
X127822257Y-72691383D01*
X127980286Y-72987038D01*
X128295847Y-73143048D01*
X129607895Y-71831000D01*
X129967105Y-71831000D01*
X131279153Y-73143048D01*
X131594714Y-72987038D01*
X131785520Y-72612255D01*
X131899544Y-72207449D01*
X131932402Y-71788176D01*
X131882834Y-71370549D01*
X131752743Y-70970617D01*
X131594714Y-70674962D01*
X131279153Y-70518952D01*
X129967105Y-71831000D01*
X129607895Y-71831000D01*
X129593753Y-71816858D01*
X129773358Y-71637253D01*
X129787500Y-71651395D01*
X131099548Y-70339347D01*
X130964130Y-70065436D01*
X133256500Y-70065436D01*
X133256500Y-70396564D01*
X133321100Y-70721330D01*
X133447817Y-71027252D01*
X133631782Y-71302575D01*
X133865925Y-71536718D01*
X134141248Y-71720683D01*
X134447170Y-71847400D01*
X134771936Y-71912000D01*
X135103064Y-71912000D01*
X135294987Y-71873824D01*
X137942598Y-71873824D01*
X137992166Y-72291451D01*
X138122257Y-72691383D01*
X138280286Y-72987038D01*
X138595847Y-73143048D01*
X139907895Y-71831000D01*
X140267105Y-71831000D01*
X141579153Y-73143048D01*
X141894714Y-72987038D01*
X142085520Y-72612255D01*
X142199544Y-72207449D01*
X142225689Y-71873824D01*
X147137098Y-71873824D01*
X147186666Y-72291451D01*
X147316757Y-72691383D01*
X147474786Y-72987038D01*
X147790347Y-73143048D01*
X149102395Y-71831000D01*
X149461605Y-71831000D01*
X150773653Y-73143048D01*
X151089214Y-72987038D01*
X151280020Y-72612255D01*
X151394044Y-72207449D01*
X151426902Y-71788176D01*
X151377334Y-71370549D01*
X151247243Y-70970617D01*
X151089214Y-70674962D01*
X150773653Y-70518952D01*
X149461605Y-71831000D01*
X149102395Y-71831000D01*
X147790347Y-70518952D01*
X147474786Y-70674962D01*
X147283980Y-71049745D01*
X147169956Y-71454551D01*
X147137098Y-71873824D01*
X142225689Y-71873824D01*
X142232402Y-71788176D01*
X142182834Y-71370549D01*
X142052743Y-70970617D01*
X141894714Y-70674962D01*
X141579153Y-70518952D01*
X140267105Y-71831000D01*
X139907895Y-71831000D01*
X138595847Y-70518952D01*
X138280286Y-70674962D01*
X138089480Y-71049745D01*
X137975456Y-71454551D01*
X137942598Y-71873824D01*
X135294987Y-71873824D01*
X135427830Y-71847400D01*
X135733752Y-71720683D01*
X136009075Y-71536718D01*
X136243218Y-71302575D01*
X136427183Y-71027252D01*
X136553900Y-70721330D01*
X136618500Y-70396564D01*
X136618500Y-70339347D01*
X138775452Y-70339347D01*
X140087500Y-71651395D01*
X141399548Y-70339347D01*
X147969952Y-70339347D01*
X149282000Y-71651395D01*
X150594048Y-70339347D01*
X150458630Y-70065436D01*
X152751000Y-70065436D01*
X152751000Y-70396564D01*
X152815600Y-70721330D01*
X152942317Y-71027252D01*
X153126282Y-71302575D01*
X153360425Y-71536718D01*
X153635748Y-71720683D01*
X153941670Y-71847400D01*
X154266436Y-71912000D01*
X154597564Y-71912000D01*
X154789487Y-71873824D01*
X157437098Y-71873824D01*
X157486666Y-72291451D01*
X157616757Y-72691383D01*
X157774786Y-72987038D01*
X158090347Y-73143048D01*
X159402395Y-71831000D01*
X159761605Y-71831000D01*
X161073653Y-73143048D01*
X161389214Y-72987038D01*
X161580020Y-72612255D01*
X161694044Y-72207449D01*
X161726902Y-71788176D01*
X161677334Y-71370549D01*
X161667515Y-71340360D01*
X162070000Y-71340360D01*
X162070000Y-71661640D01*
X162132678Y-71976745D01*
X162255626Y-72273568D01*
X162434119Y-72540702D01*
X162661298Y-72767881D01*
X162928432Y-72946374D01*
X163225255Y-73069322D01*
X163540360Y-73132000D01*
X163861640Y-73132000D01*
X164176745Y-73069322D01*
X164473568Y-72946374D01*
X164740702Y-72767881D01*
X164967881Y-72540702D01*
X165146374Y-72273568D01*
X165269322Y-71976745D01*
X165332000Y-71661640D01*
X165332000Y-71340360D01*
X166770000Y-71340360D01*
X166770000Y-71661640D01*
X166832678Y-71976745D01*
X166955626Y-72273568D01*
X167134119Y-72540702D01*
X167361298Y-72767881D01*
X167628432Y-72946374D01*
X167925255Y-73069322D01*
X168240360Y-73132000D01*
X168561640Y-73132000D01*
X168876745Y-73069322D01*
X169173568Y-72946374D01*
X169440702Y-72767881D01*
X169667881Y-72540702D01*
X169846374Y-72273568D01*
X169969322Y-71976745D01*
X170032000Y-71661640D01*
X170032000Y-71340360D01*
X171470000Y-71340360D01*
X171470000Y-71661640D01*
X171532678Y-71976745D01*
X171655626Y-72273568D01*
X171834119Y-72540702D01*
X172061298Y-72767881D01*
X172328432Y-72946374D01*
X172625255Y-73069322D01*
X172940360Y-73132000D01*
X173261640Y-73132000D01*
X173576745Y-73069322D01*
X173873568Y-72946374D01*
X174140702Y-72767881D01*
X174367881Y-72540702D01*
X174546374Y-72273568D01*
X174669322Y-71976745D01*
X174732000Y-71661640D01*
X174732000Y-71340360D01*
X174669322Y-71025255D01*
X174546374Y-70728432D01*
X174367881Y-70461298D01*
X174140702Y-70234119D01*
X173873568Y-70055626D01*
X173576745Y-69932678D01*
X173261640Y-69870000D01*
X172940360Y-69870000D01*
X172625255Y-69932678D01*
X172328432Y-70055626D01*
X172061298Y-70234119D01*
X171834119Y-70461298D01*
X171655626Y-70728432D01*
X171532678Y-71025255D01*
X171470000Y-71340360D01*
X170032000Y-71340360D01*
X169969322Y-71025255D01*
X169846374Y-70728432D01*
X169667881Y-70461298D01*
X169440702Y-70234119D01*
X169173568Y-70055626D01*
X168876745Y-69932678D01*
X168561640Y-69870000D01*
X168240360Y-69870000D01*
X167925255Y-69932678D01*
X167628432Y-70055626D01*
X167361298Y-70234119D01*
X167134119Y-70461298D01*
X166955626Y-70728432D01*
X166832678Y-71025255D01*
X166770000Y-71340360D01*
X165332000Y-71340360D01*
X165269322Y-71025255D01*
X165146374Y-70728432D01*
X164967881Y-70461298D01*
X164740702Y-70234119D01*
X164473568Y-70055626D01*
X164176745Y-69932678D01*
X163861640Y-69870000D01*
X163540360Y-69870000D01*
X163225255Y-69932678D01*
X162928432Y-70055626D01*
X162661298Y-70234119D01*
X162434119Y-70461298D01*
X162255626Y-70728432D01*
X162132678Y-71025255D01*
X162070000Y-71340360D01*
X161667515Y-71340360D01*
X161547243Y-70970617D01*
X161389214Y-70674962D01*
X161073653Y-70518952D01*
X159761605Y-71831000D01*
X159402395Y-71831000D01*
X158090347Y-70518952D01*
X157774786Y-70674962D01*
X157583980Y-71049745D01*
X157469956Y-71454551D01*
X157437098Y-71873824D01*
X154789487Y-71873824D01*
X154922330Y-71847400D01*
X155228252Y-71720683D01*
X155503575Y-71536718D01*
X155737718Y-71302575D01*
X155921683Y-71027252D01*
X156048400Y-70721330D01*
X156113000Y-70396564D01*
X156113000Y-70339347D01*
X158269952Y-70339347D01*
X159582000Y-71651395D01*
X160894048Y-70339347D01*
X160738038Y-70023786D01*
X160363255Y-69832980D01*
X159958449Y-69718956D01*
X159539176Y-69686098D01*
X159121549Y-69735666D01*
X158721617Y-69865757D01*
X158425962Y-70023786D01*
X158269952Y-70339347D01*
X156113000Y-70339347D01*
X156113000Y-70065436D01*
X156048400Y-69740670D01*
X155921683Y-69434748D01*
X155737718Y-69159425D01*
X155503575Y-68925282D01*
X155228252Y-68741317D01*
X154922330Y-68614600D01*
X154597564Y-68550000D01*
X154266436Y-68550000D01*
X153941670Y-68614600D01*
X153635748Y-68741317D01*
X153360425Y-68925282D01*
X153126282Y-69159425D01*
X152942317Y-69434748D01*
X152815600Y-69740670D01*
X152751000Y-70065436D01*
X150458630Y-70065436D01*
X150438038Y-70023786D01*
X150063255Y-69832980D01*
X149658449Y-69718956D01*
X149239176Y-69686098D01*
X148821549Y-69735666D01*
X148421617Y-69865757D01*
X148125962Y-70023786D01*
X147969952Y-70339347D01*
X141399548Y-70339347D01*
X141243538Y-70023786D01*
X140868755Y-69832980D01*
X140463949Y-69718956D01*
X140044676Y-69686098D01*
X139627049Y-69735666D01*
X139227117Y-69865757D01*
X138931462Y-70023786D01*
X138775452Y-70339347D01*
X136618500Y-70339347D01*
X136618500Y-70065436D01*
X136553900Y-69740670D01*
X136427183Y-69434748D01*
X136243218Y-69159425D01*
X136009075Y-68925282D01*
X135733752Y-68741317D01*
X135427830Y-68614600D01*
X135103064Y-68550000D01*
X134771936Y-68550000D01*
X134447170Y-68614600D01*
X134141248Y-68741317D01*
X133865925Y-68925282D01*
X133631782Y-69159425D01*
X133447817Y-69434748D01*
X133321100Y-69740670D01*
X133256500Y-70065436D01*
X130964130Y-70065436D01*
X130943538Y-70023786D01*
X130568755Y-69832980D01*
X130163949Y-69718956D01*
X129744676Y-69686098D01*
X129327049Y-69735666D01*
X128927117Y-69865757D01*
X128631462Y-70023786D01*
X128475453Y-70339345D01*
X128360761Y-70224653D01*
X128280591Y-70304823D01*
X128227949Y-69756477D01*
X128033130Y-69108494D01*
X127715639Y-68510970D01*
X127706177Y-68496808D01*
X127257481Y-68184624D01*
X125020605Y-70421500D01*
X124661395Y-70421500D01*
X122424519Y-68184624D01*
X121975823Y-68496808D01*
X121868000Y-68697339D01*
X121868000Y-67512000D01*
X122996079Y-67512000D01*
X122930470Y-67546861D01*
%TA.AperFunction,Conductor*%
D19*
G36*
X122930470Y-67546861D02*
G01*
X122916308Y-67556323D01*
X122604124Y-68005019D01*
X124841000Y-70241895D01*
X127077876Y-68005019D01*
X126765692Y-67556323D01*
X126683259Y-67512000D01*
X174804001Y-67512000D01*
X174804000Y-69110398D01*
X174804001Y-69110408D01*
X174804000Y-98660596D01*
X174642139Y-98355970D01*
X174632677Y-98341808D01*
X174183981Y-98029624D01*
X171947105Y-100266500D01*
X174183981Y-102503376D01*
X174632677Y-102191192D01*
X174804000Y-101872562D01*
X174804000Y-103176000D01*
X173612421Y-103176000D01*
X173678030Y-103141139D01*
X173692192Y-103131677D01*
X174004376Y-102682981D01*
X171767500Y-100446105D01*
X169530624Y-102682981D01*
X169842808Y-103131677D01*
X169925241Y-103176000D01*
X126566413Y-103176000D01*
X126751530Y-103077639D01*
X126765692Y-103068177D01*
X127077876Y-102619481D01*
X124841000Y-100382605D01*
X122604124Y-102619481D01*
X122916308Y-103068177D01*
X123116839Y-103176000D01*
X121868000Y-103176000D01*
X121868000Y-101928413D01*
X121966361Y-102113530D01*
X121975823Y-102127692D01*
X122424519Y-102439876D01*
X124661395Y-100203000D01*
X125020605Y-100203000D01*
X127257481Y-102439876D01*
X127706177Y-102127692D01*
X128026612Y-101531741D01*
X128224626Y-100884727D01*
X128292610Y-100211516D01*
X128227949Y-99537977D01*
X128033130Y-98889994D01*
X128025300Y-98875257D01*
X135103500Y-98875257D01*
X135103500Y-99117743D01*
X135150807Y-99355569D01*
X135243602Y-99579597D01*
X135378320Y-99781217D01*
X135549783Y-99952680D01*
X135751403Y-100087398D01*
X135975431Y-100180193D01*
X136213257Y-100227500D01*
X136455743Y-100227500D01*
X136693569Y-100180193D01*
X136917597Y-100087398D01*
X137119217Y-99952680D01*
X137290680Y-99781217D01*
X137425398Y-99579597D01*
X137518193Y-99355569D01*
X137565500Y-99117743D01*
X137565500Y-98875257D01*
X137643500Y-98875257D01*
X137643500Y-99117743D01*
X137690807Y-99355569D01*
X137783602Y-99579597D01*
X137918320Y-99781217D01*
X138089783Y-99952680D01*
X138291403Y-100087398D01*
X138515431Y-100180193D01*
X138753257Y-100227500D01*
X138995743Y-100227500D01*
X139233569Y-100180193D01*
X139457597Y-100087398D01*
X139659217Y-99952680D01*
X139830680Y-99781217D01*
X139965398Y-99579597D01*
X140058193Y-99355569D01*
X140105500Y-99117743D01*
X140105500Y-98875257D01*
X140183500Y-98875257D01*
X140183500Y-99117743D01*
X140230807Y-99355569D01*
X140323602Y-99579597D01*
X140458320Y-99781217D01*
X140629783Y-99952680D01*
X140831403Y-100087398D01*
X141055431Y-100180193D01*
X141293257Y-100227500D01*
X141535743Y-100227500D01*
X141773569Y-100180193D01*
X141997597Y-100087398D01*
X142199217Y-99952680D01*
X142370680Y-99781217D01*
X142505398Y-99579597D01*
X142598193Y-99355569D01*
X142645500Y-99117743D01*
X142645500Y-98875257D01*
X142723500Y-98875257D01*
X142723500Y-99117743D01*
X142770807Y-99355569D01*
X142863602Y-99579597D01*
X142998320Y-99781217D01*
X143169783Y-99952680D01*
X143371403Y-100087398D01*
X143595431Y-100180193D01*
X143833257Y-100227500D01*
X144075743Y-100227500D01*
X144313569Y-100180193D01*
X144537597Y-100087398D01*
X144739217Y-99952680D01*
X144910680Y-99781217D01*
X145045398Y-99579597D01*
X145092728Y-99465332D01*
X145150343Y-99627752D01*
X145299322Y-99877855D01*
X145494231Y-100094088D01*
X145727580Y-100268141D01*
X145990401Y-100393325D01*
X146137610Y-100437976D01*
X146367500Y-100316655D01*
X146367500Y-99123500D01*
X146347500Y-99123500D01*
X146347500Y-98869500D01*
X146367500Y-98869500D01*
X146367500Y-97676345D01*
X146137610Y-97555024D01*
X145990401Y-97599675D01*
X145727580Y-97724859D01*
X145494231Y-97898912D01*
X145299322Y-98115145D01*
X145150343Y-98365248D01*
X145092728Y-98527668D01*
X145045398Y-98413403D01*
X144910680Y-98211783D01*
X144739217Y-98040320D01*
X144537597Y-97905602D01*
X144313569Y-97812807D01*
X144075743Y-97765500D01*
X143833257Y-97765500D01*
X143595431Y-97812807D01*
X143371403Y-97905602D01*
X143169783Y-98040320D01*
X142998320Y-98211783D01*
X142863602Y-98413403D01*
X142770807Y-98637431D01*
X142723500Y-98875257D01*
X142645500Y-98875257D01*
X142598193Y-98637431D01*
X142505398Y-98413403D01*
X142370680Y-98211783D01*
X142199217Y-98040320D01*
X141997597Y-97905602D01*
X141773569Y-97812807D01*
X141535743Y-97765500D01*
X141293257Y-97765500D01*
X141055431Y-97812807D01*
X140831403Y-97905602D01*
X140629783Y-98040320D01*
X140458320Y-98211783D01*
X140323602Y-98413403D01*
X140230807Y-98637431D01*
X140183500Y-98875257D01*
X140105500Y-98875257D01*
X140058193Y-98637431D01*
X139965398Y-98413403D01*
X139830680Y-98211783D01*
X139659217Y-98040320D01*
X139457597Y-97905602D01*
X139233569Y-97812807D01*
X138995743Y-97765500D01*
X138753257Y-97765500D01*
X138515431Y-97812807D01*
X138291403Y-97905602D01*
X138089783Y-98040320D01*
X137918320Y-98211783D01*
X137783602Y-98413403D01*
X137690807Y-98637431D01*
X137643500Y-98875257D01*
X137565500Y-98875257D01*
X137518193Y-98637431D01*
X137425398Y-98413403D01*
X137290680Y-98211783D01*
X137119217Y-98040320D01*
X136917597Y-97905602D01*
X136693569Y-97812807D01*
X136455743Y-97765500D01*
X136213257Y-97765500D01*
X135975431Y-97812807D01*
X135751403Y-97905602D01*
X135549783Y-98040320D01*
X135378320Y-98211783D01*
X135243602Y-98413403D01*
X135150807Y-98637431D01*
X135103500Y-98875257D01*
X128025300Y-98875257D01*
X127715639Y-98292470D01*
X127706177Y-98278308D01*
X127257481Y-97966124D01*
X125020605Y-100203000D01*
X124661395Y-100203000D01*
X122424519Y-97966124D01*
X121975823Y-98278308D01*
X121868000Y-98478839D01*
X121868000Y-97786519D01*
X122604124Y-97786519D01*
X124841000Y-100023395D01*
X127077876Y-97786519D01*
X126765692Y-97337823D01*
X126169741Y-97017388D01*
X125522727Y-96819374D01*
X124849516Y-96751390D01*
X124175977Y-96816051D01*
X123527994Y-97010870D01*
X122930470Y-97328361D01*
X122916308Y-97337823D01*
X122604124Y-97786519D01*
X121868000Y-97786519D01*
X121868000Y-92536712D01*
X128682893Y-92536712D01*
X128790726Y-92811338D01*
X129097384Y-92962216D01*
X129427585Y-93050369D01*
X129768639Y-93072409D01*
X130107439Y-93027489D01*
X130430966Y-92917336D01*
X130629274Y-92811338D01*
X130737107Y-92536712D01*
X129710000Y-91509605D01*
X128682893Y-92536712D01*
X121868000Y-92536712D01*
X121868000Y-87322158D01*
X124509000Y-87322158D01*
X124509001Y-90257843D01*
X124528983Y-90460723D01*
X124607950Y-90721043D01*
X124736186Y-90960955D01*
X124908762Y-91171239D01*
X125119046Y-91343815D01*
X125358958Y-91472051D01*
X125619278Y-91551018D01*
X125890000Y-91577682D01*
X126160723Y-91551018D01*
X126421043Y-91472051D01*
X126577095Y-91388639D01*
X127967591Y-91388639D01*
X128012511Y-91727439D01*
X128122664Y-92050966D01*
X128228662Y-92249274D01*
X128503288Y-92357107D01*
X129530395Y-91330000D01*
X129889605Y-91330000D01*
X130916712Y-92357107D01*
X131191338Y-92249274D01*
X131342216Y-91942616D01*
X131430369Y-91612415D01*
X131452409Y-91271361D01*
X131440844Y-91184134D01*
X132039000Y-91184134D01*
X132039000Y-91475866D01*
X132095914Y-91761992D01*
X132207555Y-92031517D01*
X132369632Y-92274083D01*
X132575917Y-92480368D01*
X132818483Y-92642445D01*
X133088008Y-92754086D01*
X133374134Y-92811000D01*
X133665866Y-92811000D01*
X133951992Y-92754086D01*
X134221517Y-92642445D01*
X134379758Y-92536712D01*
X136302893Y-92536712D01*
X136410726Y-92811338D01*
X136717384Y-92962216D01*
X137047585Y-93050369D01*
X137388639Y-93072409D01*
X137727439Y-93027489D01*
X138050966Y-92917336D01*
X138249274Y-92811338D01*
X138357107Y-92536712D01*
X137330000Y-91509605D01*
X136302893Y-92536712D01*
X134379758Y-92536712D01*
X134464083Y-92480368D01*
X134670368Y-92274083D01*
X134832445Y-92031517D01*
X134944086Y-91761992D01*
X135001000Y-91475866D01*
X135001000Y-91388639D01*
X135587591Y-91388639D01*
X135632511Y-91727439D01*
X135742664Y-92050966D01*
X135848662Y-92249274D01*
X136123288Y-92357107D01*
X137150395Y-91330000D01*
X137509605Y-91330000D01*
X138536712Y-92357107D01*
X138811338Y-92249274D01*
X138962216Y-91942616D01*
X139050369Y-91612415D01*
X139072409Y-91271361D01*
X139027489Y-90932561D01*
X138917336Y-90609034D01*
X138811338Y-90410726D01*
X138536712Y-90302893D01*
X137509605Y-91330000D01*
X137150395Y-91330000D01*
X136123288Y-90302893D01*
X135848662Y-90410726D01*
X135697784Y-90717384D01*
X135609631Y-91047585D01*
X135587591Y-91388639D01*
X135001000Y-91388639D01*
X135001000Y-91184134D01*
X134944086Y-90898008D01*
X134832445Y-90628483D01*
X134670368Y-90385917D01*
X134464083Y-90179632D01*
X134379759Y-90123288D01*
X136302893Y-90123288D01*
X137330000Y-91150395D01*
X138357107Y-90123288D01*
X138249274Y-89848662D01*
X137942616Y-89697784D01*
X137612415Y-89609631D01*
X137271361Y-89587591D01*
X136932561Y-89632511D01*
X136609034Y-89742664D01*
X136410726Y-89848662D01*
X136302893Y-90123288D01*
X134379759Y-90123288D01*
X134221517Y-90017555D01*
X133951992Y-89905914D01*
X133665866Y-89849000D01*
X133374134Y-89849000D01*
X133088008Y-89905914D01*
X132818483Y-90017555D01*
X132575917Y-90179632D01*
X132369632Y-90385917D01*
X132207555Y-90628483D01*
X132095914Y-90898008D01*
X132039000Y-91184134D01*
X131440844Y-91184134D01*
X131407489Y-90932561D01*
X131297336Y-90609034D01*
X131191338Y-90410726D01*
X130916712Y-90302893D01*
X129889605Y-91330000D01*
X129530395Y-91330000D01*
X128503288Y-90302893D01*
X128228662Y-90410726D01*
X128077784Y-90717384D01*
X127989631Y-91047585D01*
X127967591Y-91388639D01*
X126577095Y-91388639D01*
X126660955Y-91343815D01*
X126871239Y-91171239D01*
X127043815Y-90960955D01*
X127172051Y-90721043D01*
X127251018Y-90460723D01*
X127271000Y-90257843D01*
X127271000Y-90123288D01*
X128682893Y-90123288D01*
X129710000Y-91150395D01*
X130737107Y-90123288D01*
X130629274Y-89848662D01*
X130322616Y-89697784D01*
X129992415Y-89609631D01*
X129651361Y-89587591D01*
X129312561Y-89632511D01*
X128989034Y-89742664D01*
X128790726Y-89848662D01*
X128682893Y-90123288D01*
X127271000Y-90123288D01*
X127271000Y-87322157D01*
X127251018Y-87119277D01*
X127172051Y-86858957D01*
X127043815Y-86619045D01*
X126871238Y-86408761D01*
X126660954Y-86236185D01*
X126421042Y-86107949D01*
X126408466Y-86104134D01*
X130124000Y-86104134D01*
X130124000Y-86395866D01*
X130180914Y-86681992D01*
X130292555Y-86951517D01*
X130454632Y-87194083D01*
X130660917Y-87400368D01*
X130903483Y-87562445D01*
X131173008Y-87674086D01*
X131459134Y-87731000D01*
X131750866Y-87731000D01*
X132036992Y-87674086D01*
X132306517Y-87562445D01*
X132464758Y-87456712D01*
X134387893Y-87456712D01*
X134495726Y-87731338D01*
X134802384Y-87882216D01*
X135132585Y-87970369D01*
X135473639Y-87992409D01*
X135812439Y-87947489D01*
X136135966Y-87837336D01*
X136334274Y-87731338D01*
X136442107Y-87456712D01*
X135415000Y-86429605D01*
X134387893Y-87456712D01*
X132464758Y-87456712D01*
X132549083Y-87400368D01*
X132755368Y-87194083D01*
X132917445Y-86951517D01*
X133029086Y-86681992D01*
X133086000Y-86395866D01*
X133086000Y-86308639D01*
X133672591Y-86308639D01*
X133717511Y-86647439D01*
X133827664Y-86970966D01*
X133933662Y-87169274D01*
X134208288Y-87277107D01*
X135235395Y-86250000D01*
X135594605Y-86250000D01*
X136621712Y-87277107D01*
X136896338Y-87169274D01*
X137047216Y-86862616D01*
X137135369Y-86532415D01*
X137157409Y-86191361D01*
X137145844Y-86104134D01*
X137744000Y-86104134D01*
X137744000Y-86395866D01*
X137800914Y-86681992D01*
X137912555Y-86951517D01*
X138074632Y-87194083D01*
X138280917Y-87400368D01*
X138523483Y-87562445D01*
X138793008Y-87674086D01*
X139079134Y-87731000D01*
X139370866Y-87731000D01*
X139656992Y-87674086D01*
X139852509Y-87593100D01*
X142496001Y-90236593D01*
X142496001Y-90733635D01*
X142452445Y-90628483D01*
X142290368Y-90385917D01*
X142084083Y-90179632D01*
X141841517Y-90017555D01*
X141571992Y-89905914D01*
X141285866Y-89849000D01*
X140994134Y-89849000D01*
X140708008Y-89905914D01*
X140438483Y-90017555D01*
X140195917Y-90179632D01*
X139989632Y-90385917D01*
X139827555Y-90628483D01*
X139715914Y-90898008D01*
X139659000Y-91184134D01*
X139659000Y-91475866D01*
X139715914Y-91761992D01*
X139827555Y-92031517D01*
X139989632Y-92274083D01*
X140195917Y-92480368D01*
X140438483Y-92642445D01*
X140708008Y-92754086D01*
X140994134Y-92811000D01*
X141285866Y-92811000D01*
X141571992Y-92754086D01*
X141841517Y-92642445D01*
X142084083Y-92480368D01*
X142290368Y-92274083D01*
X142452445Y-92031517D01*
X142496000Y-91926366D01*
X142496000Y-92113654D01*
X142493553Y-92138500D01*
X142496000Y-92163346D01*
X142496000Y-92163353D01*
X142503322Y-92237692D01*
X142532255Y-92333074D01*
X142579241Y-92420979D01*
X142642473Y-92498027D01*
X142661785Y-92513876D01*
X148219006Y-98071097D01*
X148078320Y-98211783D01*
X147943602Y-98413403D01*
X147896272Y-98527668D01*
X147838657Y-98365248D01*
X147689678Y-98115145D01*
X147494769Y-97898912D01*
X147261420Y-97724859D01*
X146998599Y-97599675D01*
X146851390Y-97555024D01*
X146621500Y-97676345D01*
X146621500Y-98869500D01*
X146641500Y-98869500D01*
X146641500Y-99123500D01*
X146621500Y-99123500D01*
X146621500Y-100316655D01*
X146851390Y-100437976D01*
X146998599Y-100393325D01*
X147261420Y-100268141D01*
X147494769Y-100094088D01*
X147689678Y-99877855D01*
X147838657Y-99627752D01*
X147896272Y-99465332D01*
X147943602Y-99579597D01*
X148078320Y-99781217D01*
X148249783Y-99952680D01*
X148451403Y-100087398D01*
X148675431Y-100180193D01*
X148913257Y-100227500D01*
X149155743Y-100227500D01*
X149393569Y-100180193D01*
X149617597Y-100087398D01*
X149819217Y-99952680D01*
X149990680Y-99781217D01*
X150125398Y-99579597D01*
X150218193Y-99355569D01*
X150265500Y-99117743D01*
X150265500Y-98875257D01*
X150343500Y-98875257D01*
X150343500Y-99117743D01*
X150390807Y-99355569D01*
X150483602Y-99579597D01*
X150618320Y-99781217D01*
X150789783Y-99952680D01*
X150991403Y-100087398D01*
X151215431Y-100180193D01*
X151453257Y-100227500D01*
X151695743Y-100227500D01*
X151933569Y-100180193D01*
X152157597Y-100087398D01*
X152359217Y-99952680D01*
X152530680Y-99781217D01*
X152665398Y-99579597D01*
X152712728Y-99465332D01*
X152770343Y-99627752D01*
X152919322Y-99877855D01*
X153114231Y-100094088D01*
X153347580Y-100268141D01*
X153610401Y-100393325D01*
X153757610Y-100437976D01*
X153987500Y-100316655D01*
X153987500Y-99123500D01*
X153967500Y-99123500D01*
X153967500Y-98869500D01*
X153987500Y-98869500D01*
X153987500Y-97676345D01*
X154241500Y-97676345D01*
X154241500Y-98869500D01*
X154261500Y-98869500D01*
X154261500Y-99123500D01*
X154241500Y-99123500D01*
X154241500Y-100316655D01*
X154471390Y-100437976D01*
X154618599Y-100393325D01*
X154881420Y-100268141D01*
X154895037Y-100257984D01*
X168315890Y-100257984D01*
X168380551Y-100931523D01*
X168575370Y-101579506D01*
X168892861Y-102177030D01*
X168902323Y-102191192D01*
X169351019Y-102503376D01*
X171587895Y-100266500D01*
X169351019Y-98029624D01*
X168902323Y-98341808D01*
X168581888Y-98937759D01*
X168383874Y-99584773D01*
X168315890Y-100257984D01*
X154895037Y-100257984D01*
X155114769Y-100094088D01*
X155309678Y-99877855D01*
X155458657Y-99627752D01*
X155516272Y-99465332D01*
X155563602Y-99579597D01*
X155698320Y-99781217D01*
X155869783Y-99952680D01*
X156071403Y-100087398D01*
X156295431Y-100180193D01*
X156533257Y-100227500D01*
X156775743Y-100227500D01*
X157013569Y-100180193D01*
X157237597Y-100087398D01*
X157439217Y-99952680D01*
X157610680Y-99781217D01*
X157745398Y-99579597D01*
X157838193Y-99355569D01*
X157885500Y-99117743D01*
X157885500Y-98875257D01*
X157838193Y-98637431D01*
X157745398Y-98413403D01*
X157610680Y-98211783D01*
X157565244Y-98166347D01*
X157585091Y-98146500D01*
X157961657Y-98146500D01*
X157961657Y-99846500D01*
X157969013Y-99921189D01*
X157990799Y-99993008D01*
X158026178Y-100059196D01*
X158073789Y-100117211D01*
X158131804Y-100164822D01*
X158197992Y-100200201D01*
X158269811Y-100221987D01*
X158344500Y-100229343D01*
X160044500Y-100229343D01*
X160119189Y-100221987D01*
X160191008Y-100200201D01*
X160257196Y-100164822D01*
X160315211Y-100117211D01*
X160362822Y-100059196D01*
X160398201Y-99993008D01*
X160419987Y-99921189D01*
X160427343Y-99846500D01*
X160427343Y-98146500D01*
X160419987Y-98071811D01*
X160398201Y-97999992D01*
X160362822Y-97933804D01*
X160315211Y-97875789D01*
X160283810Y-97850019D01*
X169530624Y-97850019D01*
X171767500Y-100086895D01*
X174004376Y-97850019D01*
X173692192Y-97401323D01*
X173096241Y-97080888D01*
X172449227Y-96882874D01*
X171776016Y-96814890D01*
X171102477Y-96879551D01*
X170454494Y-97074370D01*
X169856970Y-97391861D01*
X169842808Y-97401323D01*
X169530624Y-97850019D01*
X160283810Y-97850019D01*
X160257196Y-97828178D01*
X160191008Y-97792799D01*
X160119189Y-97771013D01*
X160044500Y-97763657D01*
X158344500Y-97763657D01*
X158269811Y-97771013D01*
X158197992Y-97792799D01*
X158131804Y-97828178D01*
X158073789Y-97875789D01*
X158026178Y-97933804D01*
X157990799Y-97999992D01*
X157969013Y-98071811D01*
X157961657Y-98146500D01*
X157585091Y-98146500D01*
X158070592Y-97661000D01*
X165964154Y-97661000D01*
X165989000Y-97663447D01*
X166013846Y-97661000D01*
X166013854Y-97661000D01*
X166088193Y-97653678D01*
X166183575Y-97624745D01*
X166271479Y-97577759D01*
X166348527Y-97514527D01*
X166364376Y-97495215D01*
X170012220Y-93847372D01*
X170031527Y-93831527D01*
X170094759Y-93754479D01*
X170141745Y-93666575D01*
X170170678Y-93571193D01*
X170178000Y-93496854D01*
X170178000Y-93496853D01*
X170180448Y-93472000D01*
X170178000Y-93447146D01*
X170178000Y-87322158D01*
X170229000Y-87322158D01*
X170229001Y-90257843D01*
X170248983Y-90460723D01*
X170327950Y-90721043D01*
X170456186Y-90960955D01*
X170628762Y-91171239D01*
X170839046Y-91343815D01*
X171078958Y-91472051D01*
X171339278Y-91551018D01*
X171610000Y-91577682D01*
X171880723Y-91551018D01*
X172141043Y-91472051D01*
X172380955Y-91343815D01*
X172591239Y-91171239D01*
X172763815Y-90960955D01*
X172892051Y-90721043D01*
X172971018Y-90460723D01*
X172991000Y-90257843D01*
X172991000Y-87322157D01*
X172971018Y-87119277D01*
X172892051Y-86858957D01*
X172763815Y-86619045D01*
X172591238Y-86408761D01*
X172380954Y-86236185D01*
X172141042Y-86107949D01*
X171880722Y-86028982D01*
X171610000Y-86002318D01*
X171339277Y-86028982D01*
X171078957Y-86107949D01*
X170839045Y-86236185D01*
X170628761Y-86408762D01*
X170456185Y-86619046D01*
X170327949Y-86858958D01*
X170248982Y-87119278D01*
X170229000Y-87322158D01*
X170178000Y-87322158D01*
X170178000Y-85172591D01*
X173441220Y-81909372D01*
X173460527Y-81893527D01*
X173523759Y-81816479D01*
X173570745Y-81728575D01*
X173599678Y-81633193D01*
X173607000Y-81558854D01*
X173607000Y-81558847D01*
X173609447Y-81534001D01*
X173607000Y-81509155D01*
X173607000Y-77886790D01*
X173873568Y-77776374D01*
X174140702Y-77597881D01*
X174367881Y-77370702D01*
X174546374Y-77103568D01*
X174669322Y-76806745D01*
X174732000Y-76491640D01*
X174732000Y-76170360D01*
X174669322Y-75855255D01*
X174546374Y-75558432D01*
X174367881Y-75291298D01*
X174140702Y-75064119D01*
X173873568Y-74885626D01*
X173576745Y-74762678D01*
X173261640Y-74700000D01*
X172940360Y-74700000D01*
X172625255Y-74762678D01*
X172328432Y-74885626D01*
X172061298Y-75064119D01*
X171834119Y-75291298D01*
X171655626Y-75558432D01*
X171532678Y-75855255D01*
X171470000Y-76170360D01*
X171470000Y-76491640D01*
X171532678Y-76806745D01*
X171655626Y-77103568D01*
X171834119Y-77370702D01*
X172061298Y-77597881D01*
X172328432Y-77776374D01*
X172595001Y-77886790D01*
X172595000Y-81324408D01*
X169331781Y-84587628D01*
X169312474Y-84603473D01*
X169249242Y-84680521D01*
X169224127Y-84727508D01*
X169202255Y-84768426D01*
X169173322Y-84863808D01*
X169163553Y-84963000D01*
X169166001Y-84987856D01*
X169166000Y-90733635D01*
X169122445Y-90628483D01*
X168960368Y-90385917D01*
X168754083Y-90179632D01*
X168511517Y-90017555D01*
X168241992Y-89905914D01*
X167955866Y-89849000D01*
X167664134Y-89849000D01*
X167378008Y-89905914D01*
X167108483Y-90017555D01*
X166865917Y-90179632D01*
X166659632Y-90385917D01*
X166497555Y-90628483D01*
X166385914Y-90898008D01*
X166329000Y-91184134D01*
X166329000Y-91475866D01*
X166385914Y-91761992D01*
X166497555Y-92031517D01*
X166659632Y-92274083D01*
X166865917Y-92480368D01*
X167108483Y-92642445D01*
X167378008Y-92754086D01*
X167664134Y-92811000D01*
X167955866Y-92811000D01*
X168241992Y-92754086D01*
X168511517Y-92642445D01*
X168754083Y-92480368D01*
X168960368Y-92274083D01*
X169122445Y-92031517D01*
X169166000Y-91926366D01*
X169166000Y-93262408D01*
X165779409Y-96649000D01*
X157885854Y-96649000D01*
X157861000Y-96646552D01*
X157836146Y-96649000D01*
X157761807Y-96656322D01*
X157666425Y-96685255D01*
X157578521Y-96732241D01*
X157501473Y-96795473D01*
X157485629Y-96814779D01*
X156534909Y-97765500D01*
X156533257Y-97765500D01*
X156295431Y-97812807D01*
X156071403Y-97905602D01*
X155869783Y-98040320D01*
X155698320Y-98211783D01*
X155563602Y-98413403D01*
X155516272Y-98527668D01*
X155458657Y-98365248D01*
X155309678Y-98115145D01*
X155114769Y-97898912D01*
X154881420Y-97724859D01*
X154618599Y-97599675D01*
X154471390Y-97555024D01*
X154241500Y-97676345D01*
X153987500Y-97676345D01*
X153757610Y-97555024D01*
X153610401Y-97599675D01*
X153347580Y-97724859D01*
X153114231Y-97898912D01*
X152919322Y-98115145D01*
X152770343Y-98365248D01*
X152712728Y-98527668D01*
X152665398Y-98413403D01*
X152530680Y-98211783D01*
X152359217Y-98040320D01*
X152157597Y-97905602D01*
X151933569Y-97812807D01*
X151695743Y-97765500D01*
X151453257Y-97765500D01*
X151215431Y-97812807D01*
X150991403Y-97905602D01*
X150789783Y-98040320D01*
X150618320Y-98211783D01*
X150483602Y-98413403D01*
X150390807Y-98637431D01*
X150343500Y-98875257D01*
X150265500Y-98875257D01*
X150218193Y-98637431D01*
X150125398Y-98413403D01*
X149990680Y-98211783D01*
X149819217Y-98040320D01*
X149617597Y-97905602D01*
X149395921Y-97813781D01*
X149394027Y-97811473D01*
X149374720Y-97795628D01*
X144615575Y-93036484D01*
X144667585Y-93050369D01*
X145008639Y-93072409D01*
X145347439Y-93027489D01*
X145670966Y-92917336D01*
X145869274Y-92811338D01*
X145977107Y-92536712D01*
X144950000Y-91509605D01*
X144935858Y-91523748D01*
X144756253Y-91344143D01*
X144770395Y-91330000D01*
X145129605Y-91330000D01*
X146156712Y-92357107D01*
X146431338Y-92249274D01*
X146582216Y-91942616D01*
X146670369Y-91612415D01*
X146692409Y-91271361D01*
X146680844Y-91184134D01*
X147279000Y-91184134D01*
X147279000Y-91475866D01*
X147335914Y-91761992D01*
X147447555Y-92031517D01*
X147609632Y-92274083D01*
X147815917Y-92480368D01*
X148058483Y-92642445D01*
X148328008Y-92754086D01*
X148614134Y-92811000D01*
X148905866Y-92811000D01*
X149191992Y-92754086D01*
X149461517Y-92642445D01*
X149619758Y-92536712D01*
X151542893Y-92536712D01*
X151650726Y-92811338D01*
X151957384Y-92962216D01*
X152287585Y-93050369D01*
X152628639Y-93072409D01*
X152967439Y-93027489D01*
X153290966Y-92917336D01*
X153489274Y-92811338D01*
X153597107Y-92536712D01*
X152570000Y-91509605D01*
X151542893Y-92536712D01*
X149619758Y-92536712D01*
X149704083Y-92480368D01*
X149910368Y-92274083D01*
X150072445Y-92031517D01*
X150184086Y-91761992D01*
X150241000Y-91475866D01*
X150241000Y-91388639D01*
X150827591Y-91388639D01*
X150872511Y-91727439D01*
X150982664Y-92050966D01*
X151088662Y-92249274D01*
X151363288Y-92357107D01*
X152390395Y-91330000D01*
X152749605Y-91330000D01*
X153776712Y-92357107D01*
X154051338Y-92249274D01*
X154202216Y-91942616D01*
X154290369Y-91612415D01*
X154312409Y-91271361D01*
X154300844Y-91184134D01*
X154899000Y-91184134D01*
X154899000Y-91475866D01*
X154955914Y-91761992D01*
X155067555Y-92031517D01*
X155229632Y-92274083D01*
X155435917Y-92480368D01*
X155678483Y-92642445D01*
X155948008Y-92754086D01*
X156234134Y-92811000D01*
X156525866Y-92811000D01*
X156811992Y-92754086D01*
X157081517Y-92642445D01*
X157239758Y-92536712D01*
X159162893Y-92536712D01*
X159270726Y-92811338D01*
X159577384Y-92962216D01*
X159907585Y-93050369D01*
X160248639Y-93072409D01*
X160587439Y-93027489D01*
X160910966Y-92917336D01*
X161109274Y-92811338D01*
X161217107Y-92536712D01*
X160190000Y-91509605D01*
X159162893Y-92536712D01*
X157239758Y-92536712D01*
X157324083Y-92480368D01*
X157530368Y-92274083D01*
X157692445Y-92031517D01*
X157804086Y-91761992D01*
X157861000Y-91475866D01*
X157861000Y-91388639D01*
X158447591Y-91388639D01*
X158492511Y-91727439D01*
X158602664Y-92050966D01*
X158708662Y-92249274D01*
X158983288Y-92357107D01*
X160010395Y-91330000D01*
X160369605Y-91330000D01*
X161396712Y-92357107D01*
X161671338Y-92249274D01*
X161822216Y-91942616D01*
X161910369Y-91612415D01*
X161932409Y-91271361D01*
X161920844Y-91184134D01*
X162519000Y-91184134D01*
X162519000Y-91475866D01*
X162575914Y-91761992D01*
X162687555Y-92031517D01*
X162849632Y-92274083D01*
X163055917Y-92480368D01*
X163298483Y-92642445D01*
X163568008Y-92754086D01*
X163854134Y-92811000D01*
X164145866Y-92811000D01*
X164431992Y-92754086D01*
X164701517Y-92642445D01*
X164944083Y-92480368D01*
X165150368Y-92274083D01*
X165312445Y-92031517D01*
X165424086Y-91761992D01*
X165481000Y-91475866D01*
X165481000Y-91184134D01*
X165424086Y-90898008D01*
X165312445Y-90628483D01*
X165150368Y-90385917D01*
X164944083Y-90179632D01*
X164701517Y-90017555D01*
X164431992Y-89905914D01*
X164145866Y-89849000D01*
X163854134Y-89849000D01*
X163568008Y-89905914D01*
X163298483Y-90017555D01*
X163055917Y-90179632D01*
X162849632Y-90385917D01*
X162687555Y-90628483D01*
X162575914Y-90898008D01*
X162519000Y-91184134D01*
X161920844Y-91184134D01*
X161887489Y-90932561D01*
X161777336Y-90609034D01*
X161671338Y-90410726D01*
X161396712Y-90302893D01*
X160369605Y-91330000D01*
X160010395Y-91330000D01*
X158983288Y-90302893D01*
X158708662Y-90410726D01*
X158557784Y-90717384D01*
X158469631Y-91047585D01*
X158447591Y-91388639D01*
X157861000Y-91388639D01*
X157861000Y-91184134D01*
X157804086Y-90898008D01*
X157692445Y-90628483D01*
X157530368Y-90385917D01*
X157324083Y-90179632D01*
X157239759Y-90123288D01*
X159162893Y-90123288D01*
X160190000Y-91150395D01*
X161217107Y-90123288D01*
X161109274Y-89848662D01*
X160802616Y-89697784D01*
X160472415Y-89609631D01*
X160131361Y-89587591D01*
X159792561Y-89632511D01*
X159469034Y-89742664D01*
X159270726Y-89848662D01*
X159162893Y-90123288D01*
X157239759Y-90123288D01*
X157081517Y-90017555D01*
X156811992Y-89905914D01*
X156525866Y-89849000D01*
X156234134Y-89849000D01*
X155948008Y-89905914D01*
X155678483Y-90017555D01*
X155435917Y-90179632D01*
X155229632Y-90385917D01*
X155067555Y-90628483D01*
X154955914Y-90898008D01*
X154899000Y-91184134D01*
X154300844Y-91184134D01*
X154267489Y-90932561D01*
X154157336Y-90609034D01*
X154051338Y-90410726D01*
X153776712Y-90302893D01*
X152749605Y-91330000D01*
X152390395Y-91330000D01*
X151363288Y-90302893D01*
X151088662Y-90410726D01*
X150937784Y-90717384D01*
X150849631Y-91047585D01*
X150827591Y-91388639D01*
X150241000Y-91388639D01*
X150241000Y-91184134D01*
X150184086Y-90898008D01*
X150072445Y-90628483D01*
X149910368Y-90385917D01*
X149704083Y-90179632D01*
X149619759Y-90123288D01*
X151542893Y-90123288D01*
X152570000Y-91150395D01*
X153597107Y-90123288D01*
X153489274Y-89848662D01*
X153182616Y-89697784D01*
X152852415Y-89609631D01*
X152511361Y-89587591D01*
X152172561Y-89632511D01*
X151849034Y-89742664D01*
X151650726Y-89848662D01*
X151542893Y-90123288D01*
X149619759Y-90123288D01*
X149461517Y-90017555D01*
X149191992Y-89905914D01*
X148905866Y-89849000D01*
X148614134Y-89849000D01*
X148328008Y-89905914D01*
X148058483Y-90017555D01*
X147815917Y-90179632D01*
X147609632Y-90385917D01*
X147447555Y-90628483D01*
X147335914Y-90898008D01*
X147279000Y-91184134D01*
X146680844Y-91184134D01*
X146647489Y-90932561D01*
X146537336Y-90609034D01*
X146431338Y-90410726D01*
X146156712Y-90302893D01*
X145129605Y-91330000D01*
X144770395Y-91330000D01*
X143743288Y-90302893D01*
X143508000Y-90395280D01*
X143508000Y-90123288D01*
X143922893Y-90123288D01*
X144950000Y-91150395D01*
X145977107Y-90123288D01*
X145869274Y-89848662D01*
X145562616Y-89697784D01*
X145232415Y-89609631D01*
X144891361Y-89587591D01*
X144552561Y-89632511D01*
X144229034Y-89742664D01*
X144030726Y-89848662D01*
X143922893Y-90123288D01*
X143508000Y-90123288D01*
X143508000Y-90051854D01*
X143510448Y-90027000D01*
X143500678Y-89927807D01*
X143471745Y-89832425D01*
X143424759Y-89744521D01*
X143361527Y-89667473D01*
X143342220Y-89651628D01*
X140568100Y-86877509D01*
X140649086Y-86681992D01*
X140706000Y-86395866D01*
X140706000Y-86104134D01*
X141554000Y-86104134D01*
X141554000Y-86395866D01*
X141610914Y-86681992D01*
X141722555Y-86951517D01*
X141884632Y-87194083D01*
X142090917Y-87400368D01*
X142333483Y-87562445D01*
X142603008Y-87674086D01*
X142889134Y-87731000D01*
X143180866Y-87731000D01*
X143466992Y-87674086D01*
X143736517Y-87562445D01*
X143979083Y-87400368D01*
X144185368Y-87194083D01*
X144347445Y-86951517D01*
X144459086Y-86681992D01*
X144516000Y-86395866D01*
X144516000Y-86104134D01*
X145364000Y-86104134D01*
X145364000Y-86395866D01*
X145420914Y-86681992D01*
X145532555Y-86951517D01*
X145694632Y-87194083D01*
X145900917Y-87400368D01*
X146143483Y-87562445D01*
X146413008Y-87674086D01*
X146699134Y-87731000D01*
X146990866Y-87731000D01*
X147276992Y-87674086D01*
X147546517Y-87562445D01*
X147789083Y-87400368D01*
X147995368Y-87194083D01*
X148157445Y-86951517D01*
X148269086Y-86681992D01*
X148326000Y-86395866D01*
X148326000Y-86104134D01*
X149174000Y-86104134D01*
X149174000Y-86395866D01*
X149230914Y-86681992D01*
X149342555Y-86951517D01*
X149504632Y-87194083D01*
X149710917Y-87400368D01*
X149953483Y-87562445D01*
X150223008Y-87674086D01*
X150509134Y-87731000D01*
X150800866Y-87731000D01*
X151086992Y-87674086D01*
X151356517Y-87562445D01*
X151599083Y-87400368D01*
X151805368Y-87194083D01*
X151967445Y-86951517D01*
X152079086Y-86681992D01*
X152136000Y-86395866D01*
X152136000Y-86104134D01*
X152984000Y-86104134D01*
X152984000Y-86395866D01*
X153040914Y-86681992D01*
X153152555Y-86951517D01*
X153314632Y-87194083D01*
X153520917Y-87400368D01*
X153763483Y-87562445D01*
X154033008Y-87674086D01*
X154319134Y-87731000D01*
X154610866Y-87731000D01*
X154896992Y-87674086D01*
X155166517Y-87562445D01*
X155409083Y-87400368D01*
X155615368Y-87194083D01*
X155777445Y-86951517D01*
X155889086Y-86681992D01*
X155946000Y-86395866D01*
X155946000Y-86104134D01*
X156794000Y-86104134D01*
X156794000Y-86395866D01*
X156850914Y-86681992D01*
X156962555Y-86951517D01*
X157124632Y-87194083D01*
X157330917Y-87400368D01*
X157573483Y-87562445D01*
X157843008Y-87674086D01*
X158129134Y-87731000D01*
X158420866Y-87731000D01*
X158706992Y-87674086D01*
X158976517Y-87562445D01*
X159134758Y-87456712D01*
X161057893Y-87456712D01*
X161165726Y-87731338D01*
X161472384Y-87882216D01*
X161802585Y-87970369D01*
X162143639Y-87992409D01*
X162482439Y-87947489D01*
X162805966Y-87837336D01*
X163004274Y-87731338D01*
X163112107Y-87456712D01*
X162085000Y-86429605D01*
X161057893Y-87456712D01*
X159134758Y-87456712D01*
X159219083Y-87400368D01*
X159425368Y-87194083D01*
X159587445Y-86951517D01*
X159699086Y-86681992D01*
X159756000Y-86395866D01*
X159756000Y-86308639D01*
X160342591Y-86308639D01*
X160387511Y-86647439D01*
X160497664Y-86970966D01*
X160603662Y-87169274D01*
X160878288Y-87277107D01*
X161905395Y-86250000D01*
X162264605Y-86250000D01*
X163291712Y-87277107D01*
X163566338Y-87169274D01*
X163717216Y-86862616D01*
X163805369Y-86532415D01*
X163827409Y-86191361D01*
X163815844Y-86104134D01*
X164414000Y-86104134D01*
X164414000Y-86395866D01*
X164470914Y-86681992D01*
X164582555Y-86951517D01*
X164744632Y-87194083D01*
X164950917Y-87400368D01*
X165193483Y-87562445D01*
X165463008Y-87674086D01*
X165749134Y-87731000D01*
X166040866Y-87731000D01*
X166326992Y-87674086D01*
X166596517Y-87562445D01*
X166839083Y-87400368D01*
X167045368Y-87194083D01*
X167207445Y-86951517D01*
X167319086Y-86681992D01*
X167376000Y-86395866D01*
X167376000Y-86104134D01*
X167319086Y-85818008D01*
X167207445Y-85548483D01*
X167045368Y-85305917D01*
X166839083Y-85099632D01*
X166596517Y-84937555D01*
X166326992Y-84825914D01*
X166040866Y-84769000D01*
X165749134Y-84769000D01*
X165463008Y-84825914D01*
X165193483Y-84937555D01*
X164950917Y-85099632D01*
X164744632Y-85305917D01*
X164582555Y-85548483D01*
X164470914Y-85818008D01*
X164414000Y-86104134D01*
X163815844Y-86104134D01*
X163782489Y-85852561D01*
X163672336Y-85529034D01*
X163566338Y-85330726D01*
X163291712Y-85222893D01*
X162264605Y-86250000D01*
X161905395Y-86250000D01*
X160878288Y-85222893D01*
X160603662Y-85330726D01*
X160452784Y-85637384D01*
X160364631Y-85967585D01*
X160342591Y-86308639D01*
X159756000Y-86308639D01*
X159756000Y-86104134D01*
X159699086Y-85818008D01*
X159678729Y-85768862D01*
X160404303Y-85043288D01*
X161057893Y-85043288D01*
X162085000Y-86070395D01*
X163112107Y-85043288D01*
X163004274Y-84768662D01*
X162697616Y-84617784D01*
X162367415Y-84529631D01*
X162026361Y-84507591D01*
X161687561Y-84552511D01*
X161364034Y-84662664D01*
X161165726Y-84768662D01*
X161057893Y-85043288D01*
X160404303Y-85043288D01*
X167658686Y-77788906D01*
X167925255Y-77899322D01*
X168240360Y-77962000D01*
X168561640Y-77962000D01*
X168876745Y-77899322D01*
X169173568Y-77776374D01*
X169440702Y-77597881D01*
X169667881Y-77370702D01*
X169846374Y-77103568D01*
X169969322Y-76806745D01*
X170032000Y-76491640D01*
X170032000Y-76170360D01*
X169969322Y-75855255D01*
X169846374Y-75558432D01*
X169667881Y-75291298D01*
X169440702Y-75064119D01*
X169173568Y-74885626D01*
X168876745Y-74762678D01*
X168561640Y-74700000D01*
X168240360Y-74700000D01*
X167925255Y-74762678D01*
X167628432Y-74885626D01*
X167361298Y-75064119D01*
X167134119Y-75291298D01*
X166955626Y-75558432D01*
X166832678Y-75855255D01*
X166770000Y-76170360D01*
X166770000Y-76491640D01*
X166832678Y-76806745D01*
X166943094Y-77073314D01*
X159037864Y-84978545D01*
X158976517Y-84937555D01*
X158706992Y-84825914D01*
X158420866Y-84769000D01*
X158129134Y-84769000D01*
X157843008Y-84825914D01*
X157573483Y-84937555D01*
X157330917Y-85099632D01*
X157124632Y-85305917D01*
X156962555Y-85548483D01*
X156850914Y-85818008D01*
X156794000Y-86104134D01*
X155946000Y-86104134D01*
X155889086Y-85818008D01*
X155777445Y-85548483D01*
X155615368Y-85305917D01*
X155409083Y-85099632D01*
X155166517Y-84937555D01*
X154896992Y-84825914D01*
X154610866Y-84769000D01*
X154319134Y-84769000D01*
X154033008Y-84825914D01*
X153763483Y-84937555D01*
X153520917Y-85099632D01*
X153314632Y-85305917D01*
X153152555Y-85548483D01*
X153040914Y-85818008D01*
X152984000Y-86104134D01*
X152136000Y-86104134D01*
X152079086Y-85818008D01*
X151967445Y-85548483D01*
X151805368Y-85305917D01*
X151599083Y-85099632D01*
X151356517Y-84937555D01*
X151086992Y-84825914D01*
X150800866Y-84769000D01*
X150509134Y-84769000D01*
X150223008Y-84825914D01*
X149953483Y-84937555D01*
X149710917Y-85099632D01*
X149504632Y-85305917D01*
X149342555Y-85548483D01*
X149230914Y-85818008D01*
X149174000Y-86104134D01*
X148326000Y-86104134D01*
X148269086Y-85818008D01*
X148157445Y-85548483D01*
X147995368Y-85305917D01*
X147789083Y-85099632D01*
X147546517Y-84937555D01*
X147276992Y-84825914D01*
X146990866Y-84769000D01*
X146699134Y-84769000D01*
X146413008Y-84825914D01*
X146143483Y-84937555D01*
X145900917Y-85099632D01*
X145694632Y-85305917D01*
X145532555Y-85548483D01*
X145420914Y-85818008D01*
X145364000Y-86104134D01*
X144516000Y-86104134D01*
X144459086Y-85818008D01*
X144347445Y-85548483D01*
X144185368Y-85305917D01*
X143979083Y-85099632D01*
X143736517Y-84937555D01*
X143466992Y-84825914D01*
X143180866Y-84769000D01*
X142889134Y-84769000D01*
X142603008Y-84825914D01*
X142333483Y-84937555D01*
X142090917Y-85099632D01*
X141884632Y-85305917D01*
X141722555Y-85548483D01*
X141610914Y-85818008D01*
X141554000Y-86104134D01*
X140706000Y-86104134D01*
X140649086Y-85818008D01*
X140537445Y-85548483D01*
X140375368Y-85305917D01*
X140169083Y-85099632D01*
X139926517Y-84937555D01*
X139656992Y-84825914D01*
X139370866Y-84769000D01*
X139079134Y-84769000D01*
X138793008Y-84825914D01*
X138523483Y-84937555D01*
X138280917Y-85099632D01*
X138074632Y-85305917D01*
X137912555Y-85548483D01*
X137800914Y-85818008D01*
X137744000Y-86104134D01*
X137145844Y-86104134D01*
X137112489Y-85852561D01*
X137002336Y-85529034D01*
X136896338Y-85330726D01*
X136621712Y-85222893D01*
X135594605Y-86250000D01*
X135235395Y-86250000D01*
X134208288Y-85222893D01*
X133933662Y-85330726D01*
X133782784Y-85637384D01*
X133694631Y-85967585D01*
X133672591Y-86308639D01*
X133086000Y-86308639D01*
X133086000Y-86104134D01*
X133029086Y-85818008D01*
X132917445Y-85548483D01*
X132755368Y-85305917D01*
X132549083Y-85099632D01*
X132464759Y-85043288D01*
X134387893Y-85043288D01*
X135415000Y-86070395D01*
X136442107Y-85043288D01*
X136334274Y-84768662D01*
X136027616Y-84617784D01*
X135697415Y-84529631D01*
X135356361Y-84507591D01*
X135017561Y-84552511D01*
X134694034Y-84662664D01*
X134495726Y-84768662D01*
X134387893Y-85043288D01*
X132464759Y-85043288D01*
X132306517Y-84937555D01*
X132036992Y-84825914D01*
X131750866Y-84769000D01*
X131459134Y-84769000D01*
X131173008Y-84825914D01*
X130903483Y-84937555D01*
X130660917Y-85099632D01*
X130454632Y-85305917D01*
X130292555Y-85548483D01*
X130180914Y-85818008D01*
X130124000Y-86104134D01*
X126408466Y-86104134D01*
X126160722Y-86028982D01*
X125890000Y-86002318D01*
X125619277Y-86028982D01*
X125358957Y-86107949D01*
X125119045Y-86236185D01*
X124908761Y-86408762D01*
X124736185Y-86619046D01*
X124607949Y-86858958D01*
X124528982Y-87119278D01*
X124509000Y-87322158D01*
X121868000Y-87322158D01*
X121868000Y-76170360D01*
X162070000Y-76170360D01*
X162070000Y-76491640D01*
X162132678Y-76806745D01*
X162255626Y-77103568D01*
X162434119Y-77370702D01*
X162661298Y-77597881D01*
X162928432Y-77776374D01*
X163225255Y-77899322D01*
X163540360Y-77962000D01*
X163861640Y-77962000D01*
X164176745Y-77899322D01*
X164473568Y-77776374D01*
X164740702Y-77597881D01*
X164967881Y-77370702D01*
X165146374Y-77103568D01*
X165269322Y-76806745D01*
X165332000Y-76491640D01*
X165332000Y-76170360D01*
X165269322Y-75855255D01*
X165146374Y-75558432D01*
X164967881Y-75291298D01*
X164740702Y-75064119D01*
X164473568Y-74885626D01*
X164176745Y-74762678D01*
X163861640Y-74700000D01*
X163540360Y-74700000D01*
X163225255Y-74762678D01*
X162928432Y-74885626D01*
X162661298Y-75064119D01*
X162434119Y-75291298D01*
X162255626Y-75558432D01*
X162132678Y-75855255D01*
X162070000Y-76170360D01*
X121868000Y-76170360D01*
X121868000Y-72837981D01*
X122604124Y-72837981D01*
X122916308Y-73286677D01*
X123512259Y-73607112D01*
X124159273Y-73805126D01*
X124832484Y-73873110D01*
X125506023Y-73808449D01*
X126154006Y-73613630D01*
X126701630Y-73322653D01*
X128475452Y-73322653D01*
X128631462Y-73638214D01*
X129006245Y-73829020D01*
X129411051Y-73943044D01*
X129830324Y-73975902D01*
X130247951Y-73926334D01*
X130647883Y-73796243D01*
X130943538Y-73638214D01*
X131099548Y-73322653D01*
X138775452Y-73322653D01*
X138931462Y-73638214D01*
X139306245Y-73829020D01*
X139711051Y-73943044D01*
X140130324Y-73975902D01*
X140547951Y-73926334D01*
X140947883Y-73796243D01*
X141243538Y-73638214D01*
X141399548Y-73322653D01*
X147969952Y-73322653D01*
X148125962Y-73638214D01*
X148500745Y-73829020D01*
X148905551Y-73943044D01*
X149324824Y-73975902D01*
X149742451Y-73926334D01*
X150142383Y-73796243D01*
X150438038Y-73638214D01*
X150594048Y-73322653D01*
X158269952Y-73322653D01*
X158425962Y-73638214D01*
X158800745Y-73829020D01*
X159205551Y-73943044D01*
X159624824Y-73975902D01*
X160042451Y-73926334D01*
X160442383Y-73796243D01*
X160738038Y-73638214D01*
X160894048Y-73322653D01*
X159582000Y-72010605D01*
X158269952Y-73322653D01*
X150594048Y-73322653D01*
X149282000Y-72010605D01*
X147969952Y-73322653D01*
X141399548Y-73322653D01*
X140087500Y-72010605D01*
X138775452Y-73322653D01*
X131099548Y-73322653D01*
X129787500Y-72010605D01*
X128475452Y-73322653D01*
X126701630Y-73322653D01*
X126751530Y-73296139D01*
X126765692Y-73286677D01*
X127077876Y-72837981D01*
X124841000Y-70601105D01*
X122604124Y-72837981D01*
X121868000Y-72837981D01*
X121868000Y-72146913D01*
X121966361Y-72332030D01*
X121975823Y-72346192D01*
X122424519Y-72658376D01*
X124661395Y-70421500D01*
X125020605Y-70421500D01*
X127257481Y-72658376D01*
X127706177Y-72346192D01*
X127708542Y-72341794D01*
X127822257Y-72691383D01*
X127980286Y-72987038D01*
X128295847Y-73143048D01*
X129607895Y-71831000D01*
X129967105Y-71831000D01*
X131279153Y-73143048D01*
X131594714Y-72987038D01*
X131785520Y-72612255D01*
X131899544Y-72207449D01*
X131932402Y-71788176D01*
X131882834Y-71370549D01*
X131752743Y-70970617D01*
X131594714Y-70674962D01*
X131279153Y-70518952D01*
X129967105Y-71831000D01*
X129607895Y-71831000D01*
X129593753Y-71816858D01*
X129773358Y-71637253D01*
X129787500Y-71651395D01*
X131099548Y-70339347D01*
X130964130Y-70065436D01*
X133256500Y-70065436D01*
X133256500Y-70396564D01*
X133321100Y-70721330D01*
X133447817Y-71027252D01*
X133631782Y-71302575D01*
X133865925Y-71536718D01*
X134141248Y-71720683D01*
X134447170Y-71847400D01*
X134771936Y-71912000D01*
X135103064Y-71912000D01*
X135294987Y-71873824D01*
X137942598Y-71873824D01*
X137992166Y-72291451D01*
X138122257Y-72691383D01*
X138280286Y-72987038D01*
X138595847Y-73143048D01*
X139907895Y-71831000D01*
X140267105Y-71831000D01*
X141579153Y-73143048D01*
X141894714Y-72987038D01*
X142085520Y-72612255D01*
X142199544Y-72207449D01*
X142225689Y-71873824D01*
X147137098Y-71873824D01*
X147186666Y-72291451D01*
X147316757Y-72691383D01*
X147474786Y-72987038D01*
X147790347Y-73143048D01*
X149102395Y-71831000D01*
X149461605Y-71831000D01*
X150773653Y-73143048D01*
X151089214Y-72987038D01*
X151280020Y-72612255D01*
X151394044Y-72207449D01*
X151426902Y-71788176D01*
X151377334Y-71370549D01*
X151247243Y-70970617D01*
X151089214Y-70674962D01*
X150773653Y-70518952D01*
X149461605Y-71831000D01*
X149102395Y-71831000D01*
X147790347Y-70518952D01*
X147474786Y-70674962D01*
X147283980Y-71049745D01*
X147169956Y-71454551D01*
X147137098Y-71873824D01*
X142225689Y-71873824D01*
X142232402Y-71788176D01*
X142182834Y-71370549D01*
X142052743Y-70970617D01*
X141894714Y-70674962D01*
X141579153Y-70518952D01*
X140267105Y-71831000D01*
X139907895Y-71831000D01*
X138595847Y-70518952D01*
X138280286Y-70674962D01*
X138089480Y-71049745D01*
X137975456Y-71454551D01*
X137942598Y-71873824D01*
X135294987Y-71873824D01*
X135427830Y-71847400D01*
X135733752Y-71720683D01*
X136009075Y-71536718D01*
X136243218Y-71302575D01*
X136427183Y-71027252D01*
X136553900Y-70721330D01*
X136618500Y-70396564D01*
X136618500Y-70339347D01*
X138775452Y-70339347D01*
X140087500Y-71651395D01*
X141399548Y-70339347D01*
X147969952Y-70339347D01*
X149282000Y-71651395D01*
X150594048Y-70339347D01*
X150458630Y-70065436D01*
X152751000Y-70065436D01*
X152751000Y-70396564D01*
X152815600Y-70721330D01*
X152942317Y-71027252D01*
X153126282Y-71302575D01*
X153360425Y-71536718D01*
X153635748Y-71720683D01*
X153941670Y-71847400D01*
X154266436Y-71912000D01*
X154597564Y-71912000D01*
X154789487Y-71873824D01*
X157437098Y-71873824D01*
X157486666Y-72291451D01*
X157616757Y-72691383D01*
X157774786Y-72987038D01*
X158090347Y-73143048D01*
X159402395Y-71831000D01*
X159761605Y-71831000D01*
X161073653Y-73143048D01*
X161389214Y-72987038D01*
X161580020Y-72612255D01*
X161694044Y-72207449D01*
X161726902Y-71788176D01*
X161677334Y-71370549D01*
X161667515Y-71340360D01*
X162070000Y-71340360D01*
X162070000Y-71661640D01*
X162132678Y-71976745D01*
X162255626Y-72273568D01*
X162434119Y-72540702D01*
X162661298Y-72767881D01*
X162928432Y-72946374D01*
X163225255Y-73069322D01*
X163540360Y-73132000D01*
X163861640Y-73132000D01*
X164176745Y-73069322D01*
X164473568Y-72946374D01*
X164740702Y-72767881D01*
X164967881Y-72540702D01*
X165146374Y-72273568D01*
X165269322Y-71976745D01*
X165332000Y-71661640D01*
X165332000Y-71340360D01*
X166770000Y-71340360D01*
X166770000Y-71661640D01*
X166832678Y-71976745D01*
X166955626Y-72273568D01*
X167134119Y-72540702D01*
X167361298Y-72767881D01*
X167628432Y-72946374D01*
X167925255Y-73069322D01*
X168240360Y-73132000D01*
X168561640Y-73132000D01*
X168876745Y-73069322D01*
X169173568Y-72946374D01*
X169440702Y-72767881D01*
X169667881Y-72540702D01*
X169846374Y-72273568D01*
X169969322Y-71976745D01*
X170032000Y-71661640D01*
X170032000Y-71340360D01*
X171470000Y-71340360D01*
X171470000Y-71661640D01*
X171532678Y-71976745D01*
X171655626Y-72273568D01*
X171834119Y-72540702D01*
X172061298Y-72767881D01*
X172328432Y-72946374D01*
X172625255Y-73069322D01*
X172940360Y-73132000D01*
X173261640Y-73132000D01*
X173576745Y-73069322D01*
X173873568Y-72946374D01*
X174140702Y-72767881D01*
X174367881Y-72540702D01*
X174546374Y-72273568D01*
X174669322Y-71976745D01*
X174732000Y-71661640D01*
X174732000Y-71340360D01*
X174669322Y-71025255D01*
X174546374Y-70728432D01*
X174367881Y-70461298D01*
X174140702Y-70234119D01*
X173873568Y-70055626D01*
X173576745Y-69932678D01*
X173261640Y-69870000D01*
X172940360Y-69870000D01*
X172625255Y-69932678D01*
X172328432Y-70055626D01*
X172061298Y-70234119D01*
X171834119Y-70461298D01*
X171655626Y-70728432D01*
X171532678Y-71025255D01*
X171470000Y-71340360D01*
X170032000Y-71340360D01*
X169969322Y-71025255D01*
X169846374Y-70728432D01*
X169667881Y-70461298D01*
X169440702Y-70234119D01*
X169173568Y-70055626D01*
X168876745Y-69932678D01*
X168561640Y-69870000D01*
X168240360Y-69870000D01*
X167925255Y-69932678D01*
X167628432Y-70055626D01*
X167361298Y-70234119D01*
X167134119Y-70461298D01*
X166955626Y-70728432D01*
X166832678Y-71025255D01*
X166770000Y-71340360D01*
X165332000Y-71340360D01*
X165269322Y-71025255D01*
X165146374Y-70728432D01*
X164967881Y-70461298D01*
X164740702Y-70234119D01*
X164473568Y-70055626D01*
X164176745Y-69932678D01*
X163861640Y-69870000D01*
X163540360Y-69870000D01*
X163225255Y-69932678D01*
X162928432Y-70055626D01*
X162661298Y-70234119D01*
X162434119Y-70461298D01*
X162255626Y-70728432D01*
X162132678Y-71025255D01*
X162070000Y-71340360D01*
X161667515Y-71340360D01*
X161547243Y-70970617D01*
X161389214Y-70674962D01*
X161073653Y-70518952D01*
X159761605Y-71831000D01*
X159402395Y-71831000D01*
X158090347Y-70518952D01*
X157774786Y-70674962D01*
X157583980Y-71049745D01*
X157469956Y-71454551D01*
X157437098Y-71873824D01*
X154789487Y-71873824D01*
X154922330Y-71847400D01*
X155228252Y-71720683D01*
X155503575Y-71536718D01*
X155737718Y-71302575D01*
X155921683Y-71027252D01*
X156048400Y-70721330D01*
X156113000Y-70396564D01*
X156113000Y-70339347D01*
X158269952Y-70339347D01*
X159582000Y-71651395D01*
X160894048Y-70339347D01*
X160738038Y-70023786D01*
X160363255Y-69832980D01*
X159958449Y-69718956D01*
X159539176Y-69686098D01*
X159121549Y-69735666D01*
X158721617Y-69865757D01*
X158425962Y-70023786D01*
X158269952Y-70339347D01*
X156113000Y-70339347D01*
X156113000Y-70065436D01*
X156048400Y-69740670D01*
X155921683Y-69434748D01*
X155737718Y-69159425D01*
X155503575Y-68925282D01*
X155228252Y-68741317D01*
X154922330Y-68614600D01*
X154597564Y-68550000D01*
X154266436Y-68550000D01*
X153941670Y-68614600D01*
X153635748Y-68741317D01*
X153360425Y-68925282D01*
X153126282Y-69159425D01*
X152942317Y-69434748D01*
X152815600Y-69740670D01*
X152751000Y-70065436D01*
X150458630Y-70065436D01*
X150438038Y-70023786D01*
X150063255Y-69832980D01*
X149658449Y-69718956D01*
X149239176Y-69686098D01*
X148821549Y-69735666D01*
X148421617Y-69865757D01*
X148125962Y-70023786D01*
X147969952Y-70339347D01*
X141399548Y-70339347D01*
X141243538Y-70023786D01*
X140868755Y-69832980D01*
X140463949Y-69718956D01*
X140044676Y-69686098D01*
X139627049Y-69735666D01*
X139227117Y-69865757D01*
X138931462Y-70023786D01*
X138775452Y-70339347D01*
X136618500Y-70339347D01*
X136618500Y-70065436D01*
X136553900Y-69740670D01*
X136427183Y-69434748D01*
X136243218Y-69159425D01*
X136009075Y-68925282D01*
X135733752Y-68741317D01*
X135427830Y-68614600D01*
X135103064Y-68550000D01*
X134771936Y-68550000D01*
X134447170Y-68614600D01*
X134141248Y-68741317D01*
X133865925Y-68925282D01*
X133631782Y-69159425D01*
X133447817Y-69434748D01*
X133321100Y-69740670D01*
X133256500Y-70065436D01*
X130964130Y-70065436D01*
X130943538Y-70023786D01*
X130568755Y-69832980D01*
X130163949Y-69718956D01*
X129744676Y-69686098D01*
X129327049Y-69735666D01*
X128927117Y-69865757D01*
X128631462Y-70023786D01*
X128475453Y-70339345D01*
X128360761Y-70224653D01*
X128280591Y-70304823D01*
X128227949Y-69756477D01*
X128033130Y-69108494D01*
X127715639Y-68510970D01*
X127706177Y-68496808D01*
X127257481Y-68184624D01*
X125020605Y-70421500D01*
X124661395Y-70421500D01*
X122424519Y-68184624D01*
X121975823Y-68496808D01*
X121868000Y-68697339D01*
X121868000Y-67512000D01*
X122996079Y-67512000D01*
X122930470Y-67546861D01*
G37*
%TD.AperFunction*%
%TD*%
M02*
