%TF.GenerationSoftware,KiCad,Pcbnew,5.1.10-88a1d61d58~88~ubuntu20.04.1*%
%TF.CreationDate,2021-09-23T20:16:40+02:00*%
%TF.ProjectId,SCART-breakout,53434152-542d-4627-9265-616b6f75742e,rev?*%
%TF.SameCoordinates,Original*%
%TF.FileFunction,Copper,L2,Bot*%
%TF.FilePolarity,Positive*%
%FSLAX46Y46*%
G04 Gerber Fmt 4.6, Leading zero omitted, Abs format (unit mm)*
G04 Created by KiCad (PCBNEW 5.1.10-88a1d61d58~88~ubuntu20.04.1) date 2021-09-23 20:16:40*
%MOMM*%
%LPD*%
G01*
G04 APERTURE LIST*
%TA.AperFunction,ComponentPad*%
%ADD10C,2.500000*%
%TD*%
%TA.AperFunction,ComponentPad*%
%ADD11C,2.200000*%
%TD*%
%TA.AperFunction,ComponentPad*%
%ADD12R,1.700000X1.700000*%
%TD*%
%TA.AperFunction,ComponentPad*%
%ADD13O,1.700000X1.700000*%
%TD*%
%TA.AperFunction,SMDPad,CuDef*%
%ADD14R,1.000000X1.250000*%
%TD*%
%TA.AperFunction,ComponentPad*%
%ADD15C,3.000000*%
%TD*%
%TA.AperFunction,ComponentPad*%
%ADD16C,2.600000*%
%TD*%
%TA.AperFunction,SMDPad,CuDef*%
%ADD17R,1.300000X0.700000*%
%TD*%
%TA.AperFunction,ComponentPad*%
%ADD18C,5.600000*%
%TD*%
%TA.AperFunction,SMDPad,CuDef*%
%ADD19R,1.270000X0.970000*%
%TD*%
%TA.AperFunction,Conductor*%
%ADD20C,0.250000*%
%TD*%
%TA.AperFunction,Conductor*%
%ADD21C,0.254000*%
%TD*%
%TA.AperFunction,Conductor*%
%ADD22C,0.100000*%
%TD*%
G04 APERTURE END LIST*
D10*
%TO.P,SW1,1*%
%TO.N,/Audio_R_INT*%
X173101000Y-71501000D03*
%TO.P,SW1,4*%
%TO.N,/Audio_L_INT*%
X173101000Y-76331000D03*
%TO.P,SW1,2*%
%TO.N,/Audio_R*%
X168401000Y-71501000D03*
%TO.P,SW1,5*%
%TO.N,/Audio_L*%
X168401000Y-76331000D03*
%TO.P,SW1,3*%
%TO.N,/Audio_R_EXT*%
X163701000Y-71501000D03*
%TO.P,SW1,6*%
%TO.N,/Audio_L_EXT*%
X163701000Y-76331000D03*
%TD*%
D11*
%TO.P,J1,20*%
%TO.N,/Sync*%
X131605000Y-86250000D03*
%TO.P,J1,18*%
%TO.N,GND*%
X135415000Y-86250000D03*
%TO.P,J1,16*%
%TO.N,/Blanking*%
X139225000Y-86250000D03*
%TO.P,J1,14*%
%TO.N,N/C*%
X143035000Y-86250000D03*
%TO.P,J1,12*%
X146845000Y-86250000D03*
%TO.P,J1,10*%
X150655000Y-86250000D03*
%TO.P,J1,8*%
X154465000Y-86250000D03*
%TO.P,J1,6*%
%TO.N,/Audio_L*%
X158275000Y-86250000D03*
%TO.P,J1,4*%
%TO.N,GND*%
X162085000Y-86250000D03*
%TO.P,J1,2*%
%TO.N,/Audio_R*%
X165895000Y-86250000D03*
%TO.P,J1,21*%
%TO.N,GND*%
X129710000Y-91330000D03*
%TO.P,J1,19*%
%TO.N,N/C*%
X133520000Y-91330000D03*
%TO.P,J1,17*%
%TO.N,GND*%
X137330000Y-91330000D03*
%TO.P,J1,15*%
%TO.N,/Red*%
X141140000Y-91330000D03*
%TO.P,J1,13*%
%TO.N,GND*%
X144950000Y-91330000D03*
%TO.P,J1,11*%
%TO.N,/Green*%
X148760000Y-91330000D03*
%TO.P,J1,9*%
%TO.N,GND*%
X152570000Y-91330000D03*
%TO.P,J1,7*%
%TO.N,/Blue*%
X156380000Y-91330000D03*
%TO.P,J1,5*%
%TO.N,GND*%
X160190000Y-91330000D03*
%TO.P,J1,3*%
%TO.N,N/C*%
X164000000Y-91330000D03*
%TO.P,J1,1*%
X167810000Y-91330000D03*
%TD*%
D12*
%TO.P,J4,1*%
%TO.N,/Audio_Mono*%
X159194500Y-98996500D03*
D13*
%TO.P,J4,2*%
%TO.N,/Audio_L_INT*%
X156654500Y-98996500D03*
%TO.P,J4,3*%
%TO.N,GND*%
X154114500Y-98996500D03*
%TO.P,J4,4*%
%TO.N,/Audio_R_INT*%
X151574500Y-98996500D03*
%TO.P,J4,5*%
%TO.N,/Blanking*%
X149034500Y-98996500D03*
%TO.P,J4,6*%
%TO.N,GND*%
X146494500Y-98996500D03*
%TO.P,J4,7*%
%TO.N,/Sync_A*%
X143954500Y-98996500D03*
%TO.P,J4,8*%
%TO.N,/Blue_A*%
X141414500Y-98996500D03*
%TO.P,J4,9*%
%TO.N,/Green_A*%
X138874500Y-98996500D03*
%TO.P,J4,10*%
%TO.N,/Red_A*%
X136334500Y-98996500D03*
%TD*%
D14*
%TO.P,C1,1*%
%TO.N,/Red_A*%
X137366500Y-94424500D03*
%TO.P,C1,2*%
%TO.N,Net-(C1-Pad2)*%
X139366500Y-94424500D03*
%TD*%
%TO.P,C2,1*%
%TO.N,/Green_A*%
X144986500Y-94424500D03*
%TO.P,C2,2*%
%TO.N,Net-(C2-Pad2)*%
X146986500Y-94424500D03*
%TD*%
%TO.P,C3,1*%
%TO.N,/Blue_A*%
X152606500Y-94424500D03*
%TO.P,C3,2*%
%TO.N,Net-(C3-Pad2)*%
X154606500Y-94424500D03*
%TD*%
%TO.P,C4,1*%
%TO.N,/Sync_A*%
X133461000Y-96964500D03*
%TO.P,C4,2*%
%TO.N,Net-(C4-Pad2)*%
X131461000Y-96964500D03*
%TD*%
D15*
%TO.P,J2,2*%
%TO.N,GND*%
X129787500Y-71831000D03*
X140087500Y-71831000D03*
D16*
%TO.P,J2,1*%
%TO.N,/Audio_R_EXT*%
X134937500Y-70231000D03*
%TD*%
D15*
%TO.P,J3,2*%
%TO.N,GND*%
X149282000Y-71831000D03*
X159582000Y-71831000D03*
D16*
%TO.P,J3,1*%
%TO.N,/Audio_L_EXT*%
X154432000Y-70231000D03*
%TD*%
D17*
%TO.P,R1,1*%
%TO.N,/Red*%
X141160500Y-93411000D03*
%TO.P,R1,2*%
%TO.N,Net-(C1-Pad2)*%
X141160500Y-95311000D03*
%TD*%
%TO.P,R2,1*%
%TO.N,/Green*%
X148780500Y-93411000D03*
%TO.P,R2,2*%
%TO.N,Net-(C2-Pad2)*%
X148780500Y-95311000D03*
%TD*%
%TO.P,R3,1*%
%TO.N,/Blue*%
X156400500Y-93538000D03*
%TO.P,R3,2*%
%TO.N,Net-(C3-Pad2)*%
X156400500Y-95438000D03*
%TD*%
%TO.P,R4,1*%
%TO.N,/Sync*%
X131635500Y-93411000D03*
%TO.P,R4,2*%
%TO.N,Net-(C4-Pad2)*%
X131635500Y-95311000D03*
%TD*%
%TO.P,R5,1*%
%TO.N,GND*%
X133667500Y-93411000D03*
%TO.P,R5,2*%
%TO.N,Net-(C4-Pad2)*%
X133667500Y-95311000D03*
%TD*%
%TO.P,R6,1*%
%TO.N,GND*%
X158369000Y-93538000D03*
%TO.P,R6,2*%
%TO.N,Net-(C3-Pad2)*%
X158369000Y-95438000D03*
%TD*%
%TO.P,R7,1*%
%TO.N,GND*%
X150749000Y-93411000D03*
%TO.P,R7,2*%
%TO.N,Net-(C2-Pad2)*%
X150749000Y-95311000D03*
%TD*%
%TO.P,R8,1*%
%TO.N,GND*%
X143129000Y-93411000D03*
%TO.P,R8,2*%
%TO.N,Net-(C1-Pad2)*%
X143129000Y-95311000D03*
%TD*%
%TO.P,R9,1*%
%TO.N,/Audio_L_INT*%
X171704000Y-81346000D03*
%TO.P,R9,2*%
%TO.N,/Audio_Mono*%
X171704000Y-83246000D03*
%TD*%
%TO.P,R10,1*%
%TO.N,/Audio_R_INT*%
X169735500Y-81346000D03*
%TO.P,R10,2*%
%TO.N,/Audio_Mono*%
X169735500Y-83246000D03*
%TD*%
%TO.P,R11,1*%
%TO.N,GND*%
X173672500Y-81346000D03*
%TO.P,R11,2*%
%TO.N,/Audio_Mono*%
X173672500Y-83246000D03*
%TD*%
D18*
%TO.P,J5,1*%
%TO.N,GND*%
X171767500Y-100266500D03*
%TD*%
%TO.P,J6,1*%
%TO.N,GND*%
X124841000Y-100203000D03*
%TD*%
D19*
%TO.P,JP1,1*%
%TO.N,/Sync*%
X129413000Y-95689500D03*
%TO.P,JP1,2*%
%TO.N,/Sync_A*%
X129413000Y-96969500D03*
%TD*%
D18*
%TO.P,J7,1*%
%TO.N,GND*%
X124841000Y-70421500D03*
%TD*%
D20*
%TO.N,/Red_A*%
X136334500Y-98996500D02*
X136334500Y-98044000D01*
X137366500Y-97012000D02*
X137366500Y-94424500D01*
X136334500Y-98044000D02*
X137366500Y-97012000D01*
%TO.N,Net-(C1-Pad2)*%
X141160500Y-95311000D02*
X143129000Y-95311000D01*
X139366500Y-94424500D02*
X140274000Y-94424500D01*
X140274000Y-94424500D02*
X141160500Y-95311000D01*
%TO.N,/Green_A*%
X138874500Y-98996500D02*
X138874500Y-98869500D01*
X138874500Y-98869500D02*
X141287500Y-96456500D01*
X141287500Y-96456500D02*
X144081500Y-96456500D01*
X144081500Y-96456500D02*
X144986500Y-95551500D01*
X144986500Y-95551500D02*
X144986500Y-94424500D01*
%TO.N,Net-(C2-Pad2)*%
X148780500Y-95311000D02*
X150749000Y-95311000D01*
X146986500Y-94424500D02*
X147894000Y-94424500D01*
X147894000Y-94424500D02*
X148780500Y-95311000D01*
%TO.N,/Blue_A*%
X141414500Y-98996500D02*
X141414500Y-98742500D01*
X141414500Y-98742500D02*
X142748000Y-97409000D01*
X142748000Y-97409000D02*
X151003000Y-97409000D01*
X151003000Y-97409000D02*
X152606500Y-95805500D01*
X152606500Y-95805500D02*
X152606500Y-94424500D01*
%TO.N,Net-(C3-Pad2)*%
X156400500Y-95438000D02*
X158369000Y-95438000D01*
X154606500Y-94424500D02*
X155387000Y-94424500D01*
X155387000Y-94424500D02*
X156400500Y-95438000D01*
%TO.N,/Sync_A*%
X133461000Y-96964500D02*
X134112000Y-96964500D01*
X142367000Y-100584000D02*
X143954500Y-98996500D01*
X135318500Y-100584000D02*
X142367000Y-100584000D01*
X134620000Y-99885500D02*
X135318500Y-100584000D01*
X134620000Y-97472500D02*
X134620000Y-99885500D01*
X134112000Y-96964500D02*
X134620000Y-97472500D01*
X129413000Y-96969500D02*
X129413000Y-97663000D01*
X133461000Y-97742500D02*
X133461000Y-96964500D01*
X132778500Y-98425000D02*
X133461000Y-97742500D01*
X130175000Y-98425000D02*
X132778500Y-98425000D01*
X129413000Y-97663000D02*
X130175000Y-98425000D01*
%TO.N,Net-(C4-Pad2)*%
X131461000Y-96964500D02*
X131461000Y-95485500D01*
X131461000Y-95485500D02*
X131635500Y-95311000D01*
X131635500Y-95311000D02*
X133667500Y-95311000D01*
%TO.N,/Sync*%
X129413000Y-95689500D02*
X129413000Y-94551500D01*
X130553500Y-93411000D02*
X131635500Y-93411000D01*
X129413000Y-94551500D02*
X130553500Y-93411000D01*
X131635500Y-93411000D02*
X131635500Y-86280500D01*
X131635500Y-86280500D02*
X131605000Y-86250000D01*
%TO.N,/Audio_R*%
X165895000Y-86250000D02*
X165895000Y-74007000D01*
X165895000Y-74007000D02*
X168401000Y-71501000D01*
%TO.N,/Red*%
X141160500Y-93411000D02*
X141160500Y-91350500D01*
X141160500Y-91350500D02*
X141140000Y-91330000D01*
%TO.N,/Green*%
X148780500Y-93411000D02*
X148780500Y-91350500D01*
X148780500Y-91350500D02*
X148760000Y-91330000D01*
%TO.N,/Blue*%
X156400500Y-93538000D02*
X156400500Y-91350500D01*
X156400500Y-91350500D02*
X156380000Y-91330000D01*
%TO.N,/Audio_R_EXT*%
X134937500Y-70231000D02*
X136969500Y-68199000D01*
X160399000Y-68199000D02*
X163701000Y-71501000D01*
X136969500Y-68199000D02*
X160399000Y-68199000D01*
%TO.N,/Audio_L_EXT*%
X154432000Y-70231000D02*
X154432000Y-72136000D01*
X158627000Y-76331000D02*
X163701000Y-76331000D01*
X154432000Y-72136000D02*
X158627000Y-76331000D01*
%TO.N,/Audio_Mono*%
X162367000Y-98996500D02*
X166878000Y-98996500D01*
X159194500Y-98996500D02*
X162367000Y-98996500D01*
X173672500Y-92202000D02*
X173672500Y-83246000D01*
X166878000Y-98996500D02*
X173672500Y-92202000D01*
X171704000Y-83246000D02*
X173672500Y-83246000D01*
X169735500Y-83246000D02*
X171704000Y-83246000D01*
%TO.N,/Audio_L_INT*%
X173101000Y-76331000D02*
X173101000Y-78803500D01*
X171704000Y-80200500D02*
X173101000Y-78803500D01*
X171704000Y-80200500D02*
X171704000Y-81346000D01*
X156654500Y-98996500D02*
X156654500Y-98933000D01*
X171704000Y-81346000D02*
X171828500Y-81346000D01*
%TO.N,/Audio_R_INT*%
X170688000Y-78613000D02*
X170688000Y-73914000D01*
X169735500Y-79565500D02*
X170688000Y-78613000D01*
X169735500Y-81346000D02*
X169735500Y-79565500D01*
X170688000Y-73914000D02*
X173101000Y-71501000D01*
X169735500Y-81346000D02*
X168653500Y-81346000D01*
X154114500Y-96329500D02*
X161988500Y-96329500D01*
X154114500Y-96329500D02*
X151574500Y-98869500D01*
X165862000Y-92456000D02*
X161988500Y-96329500D01*
X165862000Y-89852500D02*
X165862000Y-92456000D01*
X167957500Y-87757000D02*
X165862000Y-89852500D01*
X167957500Y-82042000D02*
X167957500Y-87757000D01*
X168653500Y-81346000D02*
X167957500Y-82042000D01*
X151574500Y-98996500D02*
X151574500Y-98869500D01*
%TD*%
D21*
%TO.N,GND*%
X122930470Y-67546861D02*
X122916308Y-67556323D01*
X122604124Y-68005019D01*
X124841000Y-70241895D01*
X127077876Y-68005019D01*
X126765692Y-67556323D01*
X126683259Y-67512000D01*
X174804001Y-67512000D01*
X174804000Y-69110398D01*
X174804001Y-69110408D01*
X174804001Y-80581755D01*
X174773685Y-80544815D01*
X174676994Y-80465463D01*
X174566680Y-80406498D01*
X174446982Y-80370188D01*
X174322500Y-80357928D01*
X173958250Y-80361000D01*
X173799500Y-80519750D01*
X173799500Y-81219000D01*
X173819500Y-81219000D01*
X173819500Y-81473000D01*
X173799500Y-81473000D01*
X173799500Y-82172250D01*
X173958250Y-82331000D01*
X174322500Y-82334072D01*
X174446982Y-82321812D01*
X174566680Y-82285502D01*
X174676994Y-82226537D01*
X174773685Y-82147185D01*
X174804001Y-82110245D01*
X174804000Y-98660596D01*
X174642139Y-98355970D01*
X174632677Y-98341808D01*
X174183981Y-98029624D01*
X171947105Y-100266500D01*
X174183981Y-102503376D01*
X174632677Y-102191192D01*
X174804000Y-101872562D01*
X174804000Y-103176000D01*
X173612421Y-103176000D01*
X173678030Y-103141139D01*
X173692192Y-103131677D01*
X174004376Y-102682981D01*
X171767500Y-100446105D01*
X169530624Y-102682981D01*
X169842808Y-103131677D01*
X169925241Y-103176000D01*
X126566413Y-103176000D01*
X126751530Y-103077639D01*
X126765692Y-103068177D01*
X127077876Y-102619481D01*
X124841000Y-100382605D01*
X122604124Y-102619481D01*
X122916308Y-103068177D01*
X123116839Y-103176000D01*
X121868000Y-103176000D01*
X121868000Y-101928413D01*
X121966361Y-102113530D01*
X121975823Y-102127692D01*
X122424519Y-102439876D01*
X124661395Y-100203000D01*
X125020605Y-100203000D01*
X127257481Y-102439876D01*
X127706177Y-102127692D01*
X128026612Y-101531741D01*
X128224626Y-100884727D01*
X128292610Y-100211516D01*
X128227949Y-99537977D01*
X128033130Y-98889994D01*
X127715639Y-98292470D01*
X127706177Y-98278308D01*
X127257481Y-97966124D01*
X125020605Y-100203000D01*
X124661395Y-100203000D01*
X122424519Y-97966124D01*
X121975823Y-98278308D01*
X121868000Y-98478839D01*
X121868000Y-97786519D01*
X122604124Y-97786519D01*
X124841000Y-100023395D01*
X127077876Y-97786519D01*
X126765692Y-97337823D01*
X126169741Y-97017388D01*
X125522727Y-96819374D01*
X124849516Y-96751390D01*
X124175977Y-96816051D01*
X123527994Y-97010870D01*
X122930470Y-97328361D01*
X122916308Y-97337823D01*
X122604124Y-97786519D01*
X121868000Y-97786519D01*
X121868000Y-95204500D01*
X128395157Y-95204500D01*
X128395157Y-96174500D01*
X128402513Y-96249189D01*
X128424299Y-96321008D01*
X128428838Y-96329500D01*
X128424299Y-96337992D01*
X128402513Y-96409811D01*
X128395157Y-96484500D01*
X128395157Y-97454500D01*
X128402513Y-97529189D01*
X128424299Y-97601008D01*
X128459678Y-97667196D01*
X128507289Y-97725211D01*
X128565304Y-97772822D01*
X128631492Y-97808201D01*
X128703311Y-97829987D01*
X128778000Y-97837343D01*
X128937118Y-97837343D01*
X128943255Y-97857574D01*
X128963398Y-97895258D01*
X128990242Y-97945479D01*
X129053474Y-98022527D01*
X129072780Y-98038371D01*
X129799628Y-98765220D01*
X129815473Y-98784527D01*
X129892521Y-98847759D01*
X129971537Y-98889994D01*
X129980425Y-98894745D01*
X130075807Y-98923678D01*
X130175000Y-98933448D01*
X130199854Y-98931000D01*
X132753654Y-98931000D01*
X132778500Y-98933447D01*
X132803346Y-98931000D01*
X132803354Y-98931000D01*
X132877693Y-98923678D01*
X132973075Y-98894745D01*
X133060979Y-98847759D01*
X133138027Y-98784527D01*
X133153876Y-98765215D01*
X133801220Y-98117872D01*
X133820527Y-98102027D01*
X133883759Y-98024979D01*
X133911894Y-97972343D01*
X133961000Y-97972343D01*
X134035689Y-97964987D01*
X134107508Y-97943201D01*
X134114000Y-97939731D01*
X134114001Y-99860644D01*
X134111553Y-99885500D01*
X134121322Y-99984692D01*
X134150255Y-100080074D01*
X134153901Y-100086895D01*
X134197242Y-100167979D01*
X134260474Y-100245027D01*
X134279780Y-100260871D01*
X134943128Y-100924220D01*
X134958973Y-100943527D01*
X135036021Y-101006759D01*
X135123925Y-101053745D01*
X135219306Y-101082678D01*
X135229194Y-101083652D01*
X135293646Y-101090000D01*
X135293653Y-101090000D01*
X135318499Y-101092447D01*
X135343345Y-101090000D01*
X142342154Y-101090000D01*
X142367000Y-101092447D01*
X142391846Y-101090000D01*
X142391854Y-101090000D01*
X142466193Y-101082678D01*
X142561575Y-101053745D01*
X142649479Y-101006759D01*
X142726527Y-100943527D01*
X142742376Y-100924215D01*
X143518333Y-100148258D01*
X143595431Y-100180193D01*
X143833257Y-100227500D01*
X144075743Y-100227500D01*
X144313569Y-100180193D01*
X144537597Y-100087398D01*
X144739217Y-99952680D01*
X144910680Y-99781217D01*
X145045398Y-99579597D01*
X145092728Y-99465332D01*
X145150343Y-99627752D01*
X145299322Y-99877855D01*
X145494231Y-100094088D01*
X145727580Y-100268141D01*
X145990401Y-100393325D01*
X146137610Y-100437976D01*
X146367500Y-100316655D01*
X146367500Y-99123500D01*
X146347500Y-99123500D01*
X146347500Y-98869500D01*
X146367500Y-98869500D01*
X146367500Y-98849500D01*
X146621500Y-98849500D01*
X146621500Y-98869500D01*
X146641500Y-98869500D01*
X146641500Y-99123500D01*
X146621500Y-99123500D01*
X146621500Y-100316655D01*
X146851390Y-100437976D01*
X146998599Y-100393325D01*
X147261420Y-100268141D01*
X147494769Y-100094088D01*
X147689678Y-99877855D01*
X147838657Y-99627752D01*
X147896272Y-99465332D01*
X147943602Y-99579597D01*
X148078320Y-99781217D01*
X148249783Y-99952680D01*
X148451403Y-100087398D01*
X148675431Y-100180193D01*
X148913257Y-100227500D01*
X149155743Y-100227500D01*
X149393569Y-100180193D01*
X149617597Y-100087398D01*
X149819217Y-99952680D01*
X149990680Y-99781217D01*
X150125398Y-99579597D01*
X150218193Y-99355569D01*
X150265500Y-99117743D01*
X150265500Y-98875257D01*
X150218193Y-98637431D01*
X150125398Y-98413403D01*
X149990680Y-98211783D01*
X149819217Y-98040320D01*
X149631662Y-97915000D01*
X150977338Y-97915000D01*
X150789783Y-98040320D01*
X150618320Y-98211783D01*
X150483602Y-98413403D01*
X150390807Y-98637431D01*
X150343500Y-98875257D01*
X150343500Y-99117743D01*
X150390807Y-99355569D01*
X150483602Y-99579597D01*
X150618320Y-99781217D01*
X150789783Y-99952680D01*
X150991403Y-100087398D01*
X151215431Y-100180193D01*
X151453257Y-100227500D01*
X151695743Y-100227500D01*
X151933569Y-100180193D01*
X152157597Y-100087398D01*
X152359217Y-99952680D01*
X152530680Y-99781217D01*
X152665398Y-99579597D01*
X152712728Y-99465332D01*
X152770343Y-99627752D01*
X152919322Y-99877855D01*
X153114231Y-100094088D01*
X153347580Y-100268141D01*
X153610401Y-100393325D01*
X153757610Y-100437976D01*
X153987500Y-100316655D01*
X153987500Y-99123500D01*
X153967500Y-99123500D01*
X153967500Y-98869500D01*
X153987500Y-98869500D01*
X153987500Y-97676345D01*
X154241500Y-97676345D01*
X154241500Y-98869500D01*
X154261500Y-98869500D01*
X154261500Y-99123500D01*
X154241500Y-99123500D01*
X154241500Y-100316655D01*
X154471390Y-100437976D01*
X154618599Y-100393325D01*
X154881420Y-100268141D01*
X154895037Y-100257984D01*
X168315890Y-100257984D01*
X168380551Y-100931523D01*
X168575370Y-101579506D01*
X168892861Y-102177030D01*
X168902323Y-102191192D01*
X169351019Y-102503376D01*
X171587895Y-100266500D01*
X169351019Y-98029624D01*
X168902323Y-98341808D01*
X168581888Y-98937759D01*
X168383874Y-99584773D01*
X168315890Y-100257984D01*
X154895037Y-100257984D01*
X155114769Y-100094088D01*
X155309678Y-99877855D01*
X155458657Y-99627752D01*
X155516272Y-99465332D01*
X155563602Y-99579597D01*
X155698320Y-99781217D01*
X155869783Y-99952680D01*
X156071403Y-100087398D01*
X156295431Y-100180193D01*
X156533257Y-100227500D01*
X156775743Y-100227500D01*
X157013569Y-100180193D01*
X157237597Y-100087398D01*
X157439217Y-99952680D01*
X157610680Y-99781217D01*
X157745398Y-99579597D01*
X157838193Y-99355569D01*
X157885500Y-99117743D01*
X157885500Y-98875257D01*
X157838193Y-98637431D01*
X157745398Y-98413403D01*
X157610680Y-98211783D01*
X157545397Y-98146500D01*
X157961657Y-98146500D01*
X157961657Y-99846500D01*
X157969013Y-99921189D01*
X157990799Y-99993008D01*
X158026178Y-100059196D01*
X158073789Y-100117211D01*
X158131804Y-100164822D01*
X158197992Y-100200201D01*
X158269811Y-100221987D01*
X158344500Y-100229343D01*
X160044500Y-100229343D01*
X160119189Y-100221987D01*
X160191008Y-100200201D01*
X160257196Y-100164822D01*
X160315211Y-100117211D01*
X160362822Y-100059196D01*
X160398201Y-99993008D01*
X160419987Y-99921189D01*
X160427343Y-99846500D01*
X160427343Y-99502500D01*
X166853154Y-99502500D01*
X166878000Y-99504947D01*
X166902846Y-99502500D01*
X166902854Y-99502500D01*
X166977193Y-99495178D01*
X167072575Y-99466245D01*
X167160479Y-99419259D01*
X167237527Y-99356027D01*
X167253376Y-99336715D01*
X168740072Y-97850019D01*
X169530624Y-97850019D01*
X171767500Y-100086895D01*
X174004376Y-97850019D01*
X173692192Y-97401323D01*
X173096241Y-97080888D01*
X172449227Y-96882874D01*
X171776016Y-96814890D01*
X171102477Y-96879551D01*
X170454494Y-97074370D01*
X169856970Y-97391861D01*
X169842808Y-97401323D01*
X169530624Y-97850019D01*
X168740072Y-97850019D01*
X174012720Y-92577372D01*
X174032027Y-92561527D01*
X174095259Y-92484479D01*
X174142245Y-92396575D01*
X174171178Y-92301193D01*
X174178500Y-92226854D01*
X174178500Y-92226847D01*
X174180947Y-92202001D01*
X174178500Y-92177155D01*
X174178500Y-83978843D01*
X174322500Y-83978843D01*
X174397189Y-83971487D01*
X174469008Y-83949701D01*
X174535196Y-83914322D01*
X174593211Y-83866711D01*
X174640822Y-83808696D01*
X174676201Y-83742508D01*
X174697987Y-83670689D01*
X174705343Y-83596000D01*
X174705343Y-82896000D01*
X174697987Y-82821311D01*
X174676201Y-82749492D01*
X174640822Y-82683304D01*
X174593211Y-82625289D01*
X174535196Y-82577678D01*
X174469008Y-82542299D01*
X174397189Y-82520513D01*
X174322500Y-82513157D01*
X173022500Y-82513157D01*
X172947811Y-82520513D01*
X172875992Y-82542299D01*
X172809804Y-82577678D01*
X172751789Y-82625289D01*
X172704178Y-82683304D01*
X172688250Y-82713103D01*
X172672322Y-82683304D01*
X172624711Y-82625289D01*
X172566696Y-82577678D01*
X172500508Y-82542299D01*
X172428689Y-82520513D01*
X172354000Y-82513157D01*
X171054000Y-82513157D01*
X170979311Y-82520513D01*
X170907492Y-82542299D01*
X170841304Y-82577678D01*
X170783289Y-82625289D01*
X170735678Y-82683304D01*
X170719750Y-82713103D01*
X170703822Y-82683304D01*
X170656211Y-82625289D01*
X170598196Y-82577678D01*
X170532008Y-82542299D01*
X170460189Y-82520513D01*
X170385500Y-82513157D01*
X169085500Y-82513157D01*
X169010811Y-82520513D01*
X168938992Y-82542299D01*
X168872804Y-82577678D01*
X168814789Y-82625289D01*
X168767178Y-82683304D01*
X168731799Y-82749492D01*
X168710013Y-82821311D01*
X168702657Y-82896000D01*
X168702657Y-83596000D01*
X168710013Y-83670689D01*
X168731799Y-83742508D01*
X168767178Y-83808696D01*
X168814789Y-83866711D01*
X168872804Y-83914322D01*
X168938992Y-83949701D01*
X169010811Y-83971487D01*
X169085500Y-83978843D01*
X170385500Y-83978843D01*
X170460189Y-83971487D01*
X170532008Y-83949701D01*
X170598196Y-83914322D01*
X170656211Y-83866711D01*
X170703822Y-83808696D01*
X170719750Y-83778897D01*
X170735678Y-83808696D01*
X170783289Y-83866711D01*
X170841304Y-83914322D01*
X170907492Y-83949701D01*
X170979311Y-83971487D01*
X171054000Y-83978843D01*
X172354000Y-83978843D01*
X172428689Y-83971487D01*
X172500508Y-83949701D01*
X172566696Y-83914322D01*
X172624711Y-83866711D01*
X172672322Y-83808696D01*
X172688250Y-83778897D01*
X172704178Y-83808696D01*
X172751789Y-83866711D01*
X172809804Y-83914322D01*
X172875992Y-83949701D01*
X172947811Y-83971487D01*
X173022500Y-83978843D01*
X173166501Y-83978843D01*
X173166500Y-91992408D01*
X166668409Y-98490500D01*
X160427343Y-98490500D01*
X160427343Y-98146500D01*
X160419987Y-98071811D01*
X160398201Y-97999992D01*
X160362822Y-97933804D01*
X160315211Y-97875789D01*
X160257196Y-97828178D01*
X160191008Y-97792799D01*
X160119189Y-97771013D01*
X160044500Y-97763657D01*
X158344500Y-97763657D01*
X158269811Y-97771013D01*
X158197992Y-97792799D01*
X158131804Y-97828178D01*
X158073789Y-97875789D01*
X158026178Y-97933804D01*
X157990799Y-97999992D01*
X157969013Y-98071811D01*
X157961657Y-98146500D01*
X157545397Y-98146500D01*
X157439217Y-98040320D01*
X157237597Y-97905602D01*
X157013569Y-97812807D01*
X156775743Y-97765500D01*
X156533257Y-97765500D01*
X156295431Y-97812807D01*
X156071403Y-97905602D01*
X155869783Y-98040320D01*
X155698320Y-98211783D01*
X155563602Y-98413403D01*
X155516272Y-98527668D01*
X155458657Y-98365248D01*
X155309678Y-98115145D01*
X155114769Y-97898912D01*
X154881420Y-97724859D01*
X154618599Y-97599675D01*
X154471390Y-97555024D01*
X154241500Y-97676345D01*
X153987500Y-97676345D01*
X153757610Y-97555024D01*
X153610401Y-97599675D01*
X153514000Y-97645592D01*
X154324092Y-96835500D01*
X161963654Y-96835500D01*
X161988500Y-96837947D01*
X162013346Y-96835500D01*
X162013354Y-96835500D01*
X162087693Y-96828178D01*
X162183075Y-96799245D01*
X162270979Y-96752259D01*
X162348027Y-96689027D01*
X162363876Y-96669715D01*
X166202220Y-92831372D01*
X166221527Y-92815527D01*
X166284759Y-92738479D01*
X166331745Y-92650575D01*
X166360678Y-92555193D01*
X166368000Y-92480854D01*
X166368000Y-92480847D01*
X166370447Y-92456001D01*
X166368000Y-92431155D01*
X166368000Y-91671932D01*
X166385914Y-91761992D01*
X166497555Y-92031517D01*
X166659632Y-92274083D01*
X166865917Y-92480368D01*
X167108483Y-92642445D01*
X167378008Y-92754086D01*
X167664134Y-92811000D01*
X167955866Y-92811000D01*
X168241992Y-92754086D01*
X168511517Y-92642445D01*
X168754083Y-92480368D01*
X168960368Y-92274083D01*
X169122445Y-92031517D01*
X169234086Y-91761992D01*
X169291000Y-91475866D01*
X169291000Y-91184134D01*
X169234086Y-90898008D01*
X169122445Y-90628483D01*
X168960368Y-90385917D01*
X168754083Y-90179632D01*
X168511517Y-90017555D01*
X168241992Y-89905914D01*
X167955866Y-89849000D01*
X167664134Y-89849000D01*
X167378008Y-89905914D01*
X167108483Y-90017555D01*
X166865917Y-90179632D01*
X166659632Y-90385917D01*
X166497555Y-90628483D01*
X166385914Y-90898008D01*
X166368000Y-90988068D01*
X166368000Y-90062091D01*
X168297720Y-88132372D01*
X168317027Y-88116527D01*
X168380259Y-88039479D01*
X168427245Y-87951575D01*
X168456178Y-87856193D01*
X168463500Y-87781854D01*
X168465948Y-87757000D01*
X168463500Y-87732146D01*
X168463500Y-87322158D01*
X170229000Y-87322158D01*
X170229001Y-90257843D01*
X170248983Y-90460723D01*
X170327950Y-90721043D01*
X170456186Y-90960955D01*
X170628762Y-91171239D01*
X170839046Y-91343815D01*
X171078958Y-91472051D01*
X171339278Y-91551018D01*
X171610000Y-91577682D01*
X171880723Y-91551018D01*
X172141043Y-91472051D01*
X172380955Y-91343815D01*
X172591239Y-91171239D01*
X172763815Y-90960955D01*
X172892051Y-90721043D01*
X172971018Y-90460723D01*
X172991000Y-90257843D01*
X172991000Y-87322157D01*
X172971018Y-87119277D01*
X172892051Y-86858957D01*
X172763815Y-86619045D01*
X172591238Y-86408761D01*
X172380954Y-86236185D01*
X172141042Y-86107949D01*
X171880722Y-86028982D01*
X171610000Y-86002318D01*
X171339277Y-86028982D01*
X171078957Y-86107949D01*
X170839045Y-86236185D01*
X170628761Y-86408762D01*
X170456185Y-86619046D01*
X170327949Y-86858958D01*
X170248982Y-87119278D01*
X170229000Y-87322158D01*
X168463500Y-87322158D01*
X168463500Y-82251591D01*
X168784855Y-81930236D01*
X168814789Y-81966711D01*
X168872804Y-82014322D01*
X168938992Y-82049701D01*
X169010811Y-82071487D01*
X169085500Y-82078843D01*
X170385500Y-82078843D01*
X170460189Y-82071487D01*
X170532008Y-82049701D01*
X170598196Y-82014322D01*
X170656211Y-81966711D01*
X170703822Y-81908696D01*
X170719750Y-81878897D01*
X170735678Y-81908696D01*
X170783289Y-81966711D01*
X170841304Y-82014322D01*
X170907492Y-82049701D01*
X170979311Y-82071487D01*
X171054000Y-82078843D01*
X172354000Y-82078843D01*
X172428689Y-82071487D01*
X172493145Y-82051934D01*
X172571315Y-82147185D01*
X172668006Y-82226537D01*
X172778320Y-82285502D01*
X172898018Y-82321812D01*
X173022500Y-82334072D01*
X173386750Y-82331000D01*
X173545500Y-82172250D01*
X173545500Y-81473000D01*
X173525500Y-81473000D01*
X173525500Y-81219000D01*
X173545500Y-81219000D01*
X173545500Y-80519750D01*
X173386750Y-80361000D01*
X173022500Y-80357928D01*
X172898018Y-80370188D01*
X172778320Y-80406498D01*
X172668006Y-80465463D01*
X172571315Y-80544815D01*
X172493145Y-80640066D01*
X172428689Y-80620513D01*
X172354000Y-80613157D01*
X172210000Y-80613157D01*
X172210000Y-80410091D01*
X173441220Y-79178872D01*
X173460527Y-79163027D01*
X173523759Y-79085979D01*
X173570745Y-78998075D01*
X173599678Y-78902693D01*
X173607000Y-78828354D01*
X173607000Y-78828347D01*
X173609447Y-78803501D01*
X173607000Y-78778655D01*
X173607000Y-77886790D01*
X173873568Y-77776374D01*
X174140702Y-77597881D01*
X174367881Y-77370702D01*
X174546374Y-77103568D01*
X174669322Y-76806745D01*
X174732000Y-76491640D01*
X174732000Y-76170360D01*
X174669322Y-75855255D01*
X174546374Y-75558432D01*
X174367881Y-75291298D01*
X174140702Y-75064119D01*
X173873568Y-74885626D01*
X173576745Y-74762678D01*
X173261640Y-74700000D01*
X172940360Y-74700000D01*
X172625255Y-74762678D01*
X172328432Y-74885626D01*
X172061298Y-75064119D01*
X171834119Y-75291298D01*
X171655626Y-75558432D01*
X171532678Y-75855255D01*
X171470000Y-76170360D01*
X171470000Y-76491640D01*
X171532678Y-76806745D01*
X171655626Y-77103568D01*
X171834119Y-77370702D01*
X172061298Y-77597881D01*
X172328432Y-77776374D01*
X172595001Y-77886790D01*
X172595001Y-78593907D01*
X171363785Y-79825124D01*
X171344473Y-79840973D01*
X171281241Y-79918021D01*
X171234255Y-80005926D01*
X171205322Y-80101308D01*
X171198000Y-80175647D01*
X171198000Y-80175654D01*
X171195553Y-80200500D01*
X171198000Y-80225347D01*
X171198000Y-80613157D01*
X171054000Y-80613157D01*
X170979311Y-80620513D01*
X170907492Y-80642299D01*
X170841304Y-80677678D01*
X170783289Y-80725289D01*
X170735678Y-80783304D01*
X170719750Y-80813103D01*
X170703822Y-80783304D01*
X170656211Y-80725289D01*
X170598196Y-80677678D01*
X170532008Y-80642299D01*
X170460189Y-80620513D01*
X170385500Y-80613157D01*
X170241500Y-80613157D01*
X170241500Y-79775091D01*
X171028220Y-78988372D01*
X171047527Y-78972527D01*
X171110759Y-78895479D01*
X171157745Y-78807575D01*
X171186678Y-78712193D01*
X171194000Y-78637854D01*
X171194000Y-78637847D01*
X171196447Y-78613001D01*
X171194000Y-78588155D01*
X171194000Y-74123591D01*
X172358686Y-72958906D01*
X172625255Y-73069322D01*
X172940360Y-73132000D01*
X173261640Y-73132000D01*
X173576745Y-73069322D01*
X173873568Y-72946374D01*
X174140702Y-72767881D01*
X174367881Y-72540702D01*
X174546374Y-72273568D01*
X174669322Y-71976745D01*
X174732000Y-71661640D01*
X174732000Y-71340360D01*
X174669322Y-71025255D01*
X174546374Y-70728432D01*
X174367881Y-70461298D01*
X174140702Y-70234119D01*
X173873568Y-70055626D01*
X173576745Y-69932678D01*
X173261640Y-69870000D01*
X172940360Y-69870000D01*
X172625255Y-69932678D01*
X172328432Y-70055626D01*
X172061298Y-70234119D01*
X171834119Y-70461298D01*
X171655626Y-70728432D01*
X171532678Y-71025255D01*
X171470000Y-71340360D01*
X171470000Y-71661640D01*
X171532678Y-71976745D01*
X171643094Y-72243314D01*
X170347781Y-73538628D01*
X170328474Y-73554473D01*
X170265242Y-73631521D01*
X170246396Y-73666779D01*
X170218255Y-73719426D01*
X170189322Y-73814808D01*
X170179553Y-73914000D01*
X170182001Y-73938856D01*
X170182000Y-78403408D01*
X169395280Y-79190129D01*
X169375974Y-79205973D01*
X169312742Y-79283021D01*
X169297280Y-79311948D01*
X169265755Y-79370926D01*
X169236822Y-79466308D01*
X169227053Y-79565500D01*
X169229501Y-79590356D01*
X169229500Y-80613157D01*
X169085500Y-80613157D01*
X169010811Y-80620513D01*
X168938992Y-80642299D01*
X168872804Y-80677678D01*
X168814789Y-80725289D01*
X168767178Y-80783304D01*
X168736873Y-80840000D01*
X168678354Y-80840000D01*
X168653500Y-80837552D01*
X168628646Y-80840000D01*
X168554307Y-80847322D01*
X168458925Y-80876255D01*
X168371021Y-80923241D01*
X168293973Y-80986473D01*
X168278128Y-81005780D01*
X167617285Y-81666624D01*
X167597973Y-81682473D01*
X167534741Y-81759521D01*
X167487755Y-81847426D01*
X167458822Y-81942808D01*
X167451500Y-82017147D01*
X167451500Y-82017154D01*
X167449053Y-82042000D01*
X167451500Y-82066846D01*
X167451501Y-87547407D01*
X165521785Y-89477124D01*
X165502473Y-89492973D01*
X165439241Y-89570021D01*
X165392255Y-89657926D01*
X165363322Y-89753308D01*
X165356000Y-89827647D01*
X165356000Y-89827654D01*
X165353553Y-89852500D01*
X165356000Y-89877346D01*
X165356000Y-90733635D01*
X165312445Y-90628483D01*
X165150368Y-90385917D01*
X164944083Y-90179632D01*
X164701517Y-90017555D01*
X164431992Y-89905914D01*
X164145866Y-89849000D01*
X163854134Y-89849000D01*
X163568008Y-89905914D01*
X163298483Y-90017555D01*
X163055917Y-90179632D01*
X162849632Y-90385917D01*
X162687555Y-90628483D01*
X162575914Y-90898008D01*
X162519000Y-91184134D01*
X162519000Y-91475866D01*
X162575914Y-91761992D01*
X162687555Y-92031517D01*
X162849632Y-92274083D01*
X163055917Y-92480368D01*
X163298483Y-92642445D01*
X163568008Y-92754086D01*
X163854134Y-92811000D01*
X164145866Y-92811000D01*
X164431992Y-92754086D01*
X164701517Y-92642445D01*
X164944083Y-92480368D01*
X165150368Y-92274083D01*
X165312445Y-92031517D01*
X165356001Y-91926364D01*
X165356001Y-92246407D01*
X161778909Y-95823500D01*
X159398347Y-95823500D01*
X159401843Y-95788000D01*
X159401843Y-95088000D01*
X159394487Y-95013311D01*
X159372701Y-94941492D01*
X159337322Y-94875304D01*
X159289711Y-94817289D01*
X159231696Y-94769678D01*
X159165508Y-94734299D01*
X159093689Y-94712513D01*
X159019000Y-94705157D01*
X157719000Y-94705157D01*
X157644311Y-94712513D01*
X157572492Y-94734299D01*
X157506304Y-94769678D01*
X157448289Y-94817289D01*
X157400678Y-94875304D01*
X157384750Y-94905103D01*
X157368822Y-94875304D01*
X157321211Y-94817289D01*
X157263196Y-94769678D01*
X157197008Y-94734299D01*
X157125189Y-94712513D01*
X157050500Y-94705157D01*
X156383249Y-94705157D01*
X155948934Y-94270843D01*
X157050500Y-94270843D01*
X157125189Y-94263487D01*
X157189645Y-94243934D01*
X157267815Y-94339185D01*
X157364506Y-94418537D01*
X157474820Y-94477502D01*
X157594518Y-94513812D01*
X157719000Y-94526072D01*
X158083250Y-94523000D01*
X158242000Y-94364250D01*
X158242000Y-93665000D01*
X158496000Y-93665000D01*
X158496000Y-94364250D01*
X158654750Y-94523000D01*
X159019000Y-94526072D01*
X159143482Y-94513812D01*
X159263180Y-94477502D01*
X159373494Y-94418537D01*
X159470185Y-94339185D01*
X159549537Y-94242494D01*
X159608502Y-94132180D01*
X159644812Y-94012482D01*
X159657072Y-93888000D01*
X159654000Y-93823750D01*
X159495250Y-93665000D01*
X158496000Y-93665000D01*
X158242000Y-93665000D01*
X158222000Y-93665000D01*
X158222000Y-93411000D01*
X158242000Y-93411000D01*
X158242000Y-92711750D01*
X158083250Y-92553000D01*
X157719000Y-92549928D01*
X157594518Y-92562188D01*
X157474820Y-92598498D01*
X157364506Y-92657463D01*
X157267815Y-92736815D01*
X157189645Y-92832066D01*
X157125189Y-92812513D01*
X157050500Y-92805157D01*
X156906500Y-92805157D01*
X156906500Y-92714939D01*
X157081517Y-92642445D01*
X157324083Y-92480368D01*
X157530368Y-92274083D01*
X157692445Y-92031517D01*
X157804086Y-91761992D01*
X157861000Y-91475866D01*
X157861000Y-91388639D01*
X158447591Y-91388639D01*
X158492511Y-91727439D01*
X158602664Y-92050966D01*
X158708662Y-92249274D01*
X158983286Y-92357106D01*
X158867864Y-92472528D01*
X158945881Y-92550545D01*
X158654750Y-92553000D01*
X158496000Y-92711750D01*
X158496000Y-93411000D01*
X159495250Y-93411000D01*
X159654000Y-93252250D01*
X159657072Y-93188000D01*
X159644812Y-93063518D01*
X159617316Y-92972877D01*
X159907585Y-93050369D01*
X160248639Y-93072409D01*
X160587439Y-93027489D01*
X160910966Y-92917336D01*
X161109274Y-92811338D01*
X161217107Y-92536712D01*
X160190000Y-91509605D01*
X160175858Y-91523748D01*
X159996253Y-91344143D01*
X160010395Y-91330000D01*
X160369605Y-91330000D01*
X161396712Y-92357107D01*
X161671338Y-92249274D01*
X161822216Y-91942616D01*
X161910369Y-91612415D01*
X161932409Y-91271361D01*
X161887489Y-90932561D01*
X161777336Y-90609034D01*
X161671338Y-90410726D01*
X161396712Y-90302893D01*
X160369605Y-91330000D01*
X160010395Y-91330000D01*
X158983288Y-90302893D01*
X158708662Y-90410726D01*
X158557784Y-90717384D01*
X158469631Y-91047585D01*
X158447591Y-91388639D01*
X157861000Y-91388639D01*
X157861000Y-91184134D01*
X157804086Y-90898008D01*
X157692445Y-90628483D01*
X157530368Y-90385917D01*
X157324083Y-90179632D01*
X157239759Y-90123288D01*
X159162893Y-90123288D01*
X160190000Y-91150395D01*
X161217107Y-90123288D01*
X161109274Y-89848662D01*
X160802616Y-89697784D01*
X160472415Y-89609631D01*
X160131361Y-89587591D01*
X159792561Y-89632511D01*
X159469034Y-89742664D01*
X159270726Y-89848662D01*
X159162893Y-90123288D01*
X157239759Y-90123288D01*
X157081517Y-90017555D01*
X156811992Y-89905914D01*
X156525866Y-89849000D01*
X156234134Y-89849000D01*
X155948008Y-89905914D01*
X155678483Y-90017555D01*
X155435917Y-90179632D01*
X155229632Y-90385917D01*
X155067555Y-90628483D01*
X154955914Y-90898008D01*
X154899000Y-91184134D01*
X154899000Y-91475866D01*
X154955914Y-91761992D01*
X155067555Y-92031517D01*
X155229632Y-92274083D01*
X155435917Y-92480368D01*
X155678483Y-92642445D01*
X155894500Y-92731922D01*
X155894500Y-92805157D01*
X155750500Y-92805157D01*
X155675811Y-92812513D01*
X155603992Y-92834299D01*
X155537804Y-92869678D01*
X155479789Y-92917289D01*
X155432178Y-92975304D01*
X155396799Y-93041492D01*
X155375013Y-93113311D01*
X155367657Y-93188000D01*
X155367657Y-93520948D01*
X155319196Y-93481178D01*
X155253008Y-93445799D01*
X155181189Y-93424013D01*
X155106500Y-93416657D01*
X154106500Y-93416657D01*
X154031811Y-93424013D01*
X153959992Y-93445799D01*
X153893804Y-93481178D01*
X153835789Y-93528789D01*
X153788178Y-93586804D01*
X153752799Y-93652992D01*
X153731013Y-93724811D01*
X153723657Y-93799500D01*
X153723657Y-95049500D01*
X153731013Y-95124189D01*
X153752799Y-95196008D01*
X153788178Y-95262196D01*
X153835789Y-95320211D01*
X153893804Y-95367822D01*
X153959992Y-95403201D01*
X154031811Y-95424987D01*
X154106500Y-95432343D01*
X155106500Y-95432343D01*
X155181189Y-95424987D01*
X155253008Y-95403201D01*
X155319196Y-95367822D01*
X155367657Y-95328052D01*
X155367657Y-95788000D01*
X155371153Y-95823500D01*
X154139345Y-95823500D01*
X154114499Y-95821053D01*
X154089653Y-95823500D01*
X154089646Y-95823500D01*
X154025194Y-95829848D01*
X154015306Y-95830822D01*
X154004899Y-95833979D01*
X153919925Y-95859755D01*
X153832021Y-95906741D01*
X153754973Y-95969973D01*
X153739129Y-95989279D01*
X151918583Y-97809826D01*
X151695743Y-97765500D01*
X151453257Y-97765500D01*
X151338369Y-97788353D01*
X151362527Y-97768527D01*
X151378376Y-97749215D01*
X152946720Y-96180872D01*
X152966027Y-96165027D01*
X153029259Y-96087979D01*
X153076245Y-96000075D01*
X153104253Y-95907744D01*
X153105178Y-95904694D01*
X153109604Y-95859755D01*
X153112500Y-95830354D01*
X153112500Y-95830347D01*
X153114947Y-95805501D01*
X153112500Y-95780655D01*
X153112500Y-95431752D01*
X153181189Y-95424987D01*
X153253008Y-95403201D01*
X153319196Y-95367822D01*
X153377211Y-95320211D01*
X153424822Y-95262196D01*
X153460201Y-95196008D01*
X153481987Y-95124189D01*
X153489343Y-95049500D01*
X153489343Y-93799500D01*
X153481987Y-93724811D01*
X153460201Y-93652992D01*
X153424822Y-93586804D01*
X153377211Y-93528789D01*
X153319196Y-93481178D01*
X153253008Y-93445799D01*
X153181189Y-93424013D01*
X153106500Y-93416657D01*
X152106500Y-93416657D01*
X152031811Y-93424013D01*
X151959992Y-93445799D01*
X151893804Y-93481178D01*
X151835789Y-93528789D01*
X151828230Y-93538000D01*
X150876000Y-93538000D01*
X150876000Y-94237250D01*
X151034750Y-94396000D01*
X151399000Y-94399072D01*
X151523482Y-94386812D01*
X151643180Y-94350502D01*
X151723657Y-94307485D01*
X151723657Y-94760156D01*
X151717322Y-94748304D01*
X151669711Y-94690289D01*
X151611696Y-94642678D01*
X151545508Y-94607299D01*
X151473689Y-94585513D01*
X151399000Y-94578157D01*
X150099000Y-94578157D01*
X150024311Y-94585513D01*
X149952492Y-94607299D01*
X149886304Y-94642678D01*
X149828289Y-94690289D01*
X149780678Y-94748304D01*
X149764750Y-94778103D01*
X149748822Y-94748304D01*
X149701211Y-94690289D01*
X149643196Y-94642678D01*
X149577008Y-94607299D01*
X149505189Y-94585513D01*
X149430500Y-94578157D01*
X148763249Y-94578157D01*
X148328934Y-94143843D01*
X149430500Y-94143843D01*
X149505189Y-94136487D01*
X149569645Y-94116934D01*
X149647815Y-94212185D01*
X149744506Y-94291537D01*
X149854820Y-94350502D01*
X149974518Y-94386812D01*
X150099000Y-94399072D01*
X150463250Y-94396000D01*
X150622000Y-94237250D01*
X150622000Y-93538000D01*
X150602000Y-93538000D01*
X150602000Y-93284000D01*
X150622000Y-93284000D01*
X150622000Y-92584750D01*
X150463250Y-92426000D01*
X150099000Y-92422928D01*
X149974518Y-92435188D01*
X149854820Y-92471498D01*
X149744506Y-92530463D01*
X149647815Y-92609815D01*
X149569645Y-92705066D01*
X149505189Y-92685513D01*
X149430500Y-92678157D01*
X149375301Y-92678157D01*
X149461517Y-92642445D01*
X149704083Y-92480368D01*
X149910368Y-92274083D01*
X150072445Y-92031517D01*
X150184086Y-91761992D01*
X150241000Y-91475866D01*
X150241000Y-91388639D01*
X150827591Y-91388639D01*
X150872511Y-91727439D01*
X150982664Y-92050966D01*
X151088662Y-92249274D01*
X151363286Y-92357106D01*
X151296600Y-92423792D01*
X151034750Y-92426000D01*
X150876000Y-92584750D01*
X150876000Y-93284000D01*
X151875250Y-93284000D01*
X152034000Y-93125250D01*
X152037072Y-93061000D01*
X152029232Y-92981397D01*
X152287585Y-93050369D01*
X152628639Y-93072409D01*
X152967439Y-93027489D01*
X153290966Y-92917336D01*
X153489274Y-92811338D01*
X153597107Y-92536712D01*
X152570000Y-91509605D01*
X152555858Y-91523748D01*
X152376253Y-91344143D01*
X152390395Y-91330000D01*
X152749605Y-91330000D01*
X153776712Y-92357107D01*
X154051338Y-92249274D01*
X154202216Y-91942616D01*
X154290369Y-91612415D01*
X154312409Y-91271361D01*
X154267489Y-90932561D01*
X154157336Y-90609034D01*
X154051338Y-90410726D01*
X153776712Y-90302893D01*
X152749605Y-91330000D01*
X152390395Y-91330000D01*
X151363288Y-90302893D01*
X151088662Y-90410726D01*
X150937784Y-90717384D01*
X150849631Y-91047585D01*
X150827591Y-91388639D01*
X150241000Y-91388639D01*
X150241000Y-91184134D01*
X150184086Y-90898008D01*
X150072445Y-90628483D01*
X149910368Y-90385917D01*
X149704083Y-90179632D01*
X149619759Y-90123288D01*
X151542893Y-90123288D01*
X152570000Y-91150395D01*
X153597107Y-90123288D01*
X153489274Y-89848662D01*
X153182616Y-89697784D01*
X152852415Y-89609631D01*
X152511361Y-89587591D01*
X152172561Y-89632511D01*
X151849034Y-89742664D01*
X151650726Y-89848662D01*
X151542893Y-90123288D01*
X149619759Y-90123288D01*
X149461517Y-90017555D01*
X149191992Y-89905914D01*
X148905866Y-89849000D01*
X148614134Y-89849000D01*
X148328008Y-89905914D01*
X148058483Y-90017555D01*
X147815917Y-90179632D01*
X147609632Y-90385917D01*
X147447555Y-90628483D01*
X147335914Y-90898008D01*
X147279000Y-91184134D01*
X147279000Y-91475866D01*
X147335914Y-91761992D01*
X147447555Y-92031517D01*
X147609632Y-92274083D01*
X147815917Y-92480368D01*
X148058483Y-92642445D01*
X148144699Y-92678157D01*
X148130500Y-92678157D01*
X148055811Y-92685513D01*
X147983992Y-92707299D01*
X147917804Y-92742678D01*
X147859789Y-92790289D01*
X147812178Y-92848304D01*
X147776799Y-92914492D01*
X147755013Y-92986311D01*
X147747657Y-93061000D01*
X147747657Y-93520948D01*
X147699196Y-93481178D01*
X147633008Y-93445799D01*
X147561189Y-93424013D01*
X147486500Y-93416657D01*
X146486500Y-93416657D01*
X146411811Y-93424013D01*
X146339992Y-93445799D01*
X146273804Y-93481178D01*
X146215789Y-93528789D01*
X146168178Y-93586804D01*
X146132799Y-93652992D01*
X146111013Y-93724811D01*
X146103657Y-93799500D01*
X146103657Y-95049500D01*
X146111013Y-95124189D01*
X146132799Y-95196008D01*
X146168178Y-95262196D01*
X146215789Y-95320211D01*
X146273804Y-95367822D01*
X146339992Y-95403201D01*
X146411811Y-95424987D01*
X146486500Y-95432343D01*
X147486500Y-95432343D01*
X147561189Y-95424987D01*
X147633008Y-95403201D01*
X147699196Y-95367822D01*
X147747657Y-95328052D01*
X147747657Y-95661000D01*
X147755013Y-95735689D01*
X147776799Y-95807508D01*
X147812178Y-95873696D01*
X147859789Y-95931711D01*
X147917804Y-95979322D01*
X147983992Y-96014701D01*
X148055811Y-96036487D01*
X148130500Y-96043843D01*
X149430500Y-96043843D01*
X149505189Y-96036487D01*
X149577008Y-96014701D01*
X149643196Y-95979322D01*
X149701211Y-95931711D01*
X149748822Y-95873696D01*
X149764750Y-95843897D01*
X149780678Y-95873696D01*
X149828289Y-95931711D01*
X149886304Y-95979322D01*
X149952492Y-96014701D01*
X150024311Y-96036487D01*
X150099000Y-96043843D01*
X151399000Y-96043843D01*
X151473689Y-96036487D01*
X151545508Y-96014701D01*
X151611696Y-95979322D01*
X151669711Y-95931711D01*
X151717322Y-95873696D01*
X151752701Y-95807508D01*
X151774487Y-95735689D01*
X151781843Y-95661000D01*
X151781843Y-95250344D01*
X151788178Y-95262196D01*
X151835789Y-95320211D01*
X151893804Y-95367822D01*
X151959992Y-95403201D01*
X152031811Y-95424987D01*
X152100500Y-95431752D01*
X152100500Y-95595908D01*
X150793409Y-96903000D01*
X144319563Y-96903000D01*
X144363979Y-96879259D01*
X144441027Y-96816027D01*
X144456876Y-96796715D01*
X145326720Y-95926872D01*
X145346027Y-95911027D01*
X145409259Y-95833979D01*
X145456245Y-95746075D01*
X145479162Y-95670526D01*
X145485178Y-95650694D01*
X145486152Y-95640806D01*
X145492500Y-95576354D01*
X145492500Y-95576347D01*
X145494947Y-95551501D01*
X145492500Y-95526655D01*
X145492500Y-95431752D01*
X145561189Y-95424987D01*
X145633008Y-95403201D01*
X145699196Y-95367822D01*
X145757211Y-95320211D01*
X145804822Y-95262196D01*
X145840201Y-95196008D01*
X145861987Y-95124189D01*
X145869343Y-95049500D01*
X145869343Y-93799500D01*
X145861987Y-93724811D01*
X145840201Y-93652992D01*
X145804822Y-93586804D01*
X145757211Y-93528789D01*
X145699196Y-93481178D01*
X145633008Y-93445799D01*
X145561189Y-93424013D01*
X145486500Y-93416657D01*
X144486500Y-93416657D01*
X144411811Y-93424013D01*
X144339992Y-93445799D01*
X144273804Y-93481178D01*
X144215789Y-93528789D01*
X144208230Y-93538000D01*
X143256000Y-93538000D01*
X143256000Y-94237250D01*
X143414750Y-94396000D01*
X143779000Y-94399072D01*
X143903482Y-94386812D01*
X144023180Y-94350502D01*
X144103657Y-94307485D01*
X144103657Y-94760156D01*
X144097322Y-94748304D01*
X144049711Y-94690289D01*
X143991696Y-94642678D01*
X143925508Y-94607299D01*
X143853689Y-94585513D01*
X143779000Y-94578157D01*
X142479000Y-94578157D01*
X142404311Y-94585513D01*
X142332492Y-94607299D01*
X142266304Y-94642678D01*
X142208289Y-94690289D01*
X142160678Y-94748304D01*
X142144750Y-94778103D01*
X142128822Y-94748304D01*
X142081211Y-94690289D01*
X142023196Y-94642678D01*
X141957008Y-94607299D01*
X141885189Y-94585513D01*
X141810500Y-94578157D01*
X141143249Y-94578157D01*
X140708934Y-94143843D01*
X141810500Y-94143843D01*
X141885189Y-94136487D01*
X141949645Y-94116934D01*
X142027815Y-94212185D01*
X142124506Y-94291537D01*
X142234820Y-94350502D01*
X142354518Y-94386812D01*
X142479000Y-94399072D01*
X142843250Y-94396000D01*
X143002000Y-94237250D01*
X143002000Y-93538000D01*
X142982000Y-93538000D01*
X142982000Y-93284000D01*
X143002000Y-93284000D01*
X143002000Y-92584750D01*
X142843250Y-92426000D01*
X142479000Y-92422928D01*
X142354518Y-92435188D01*
X142234820Y-92471498D01*
X142124506Y-92530463D01*
X142027815Y-92609815D01*
X141949645Y-92705066D01*
X141885189Y-92685513D01*
X141810500Y-92678157D01*
X141755301Y-92678157D01*
X141841517Y-92642445D01*
X142084083Y-92480368D01*
X142290368Y-92274083D01*
X142452445Y-92031517D01*
X142564086Y-91761992D01*
X142621000Y-91475866D01*
X142621000Y-91388639D01*
X143207591Y-91388639D01*
X143252511Y-91727439D01*
X143362664Y-92050966D01*
X143468662Y-92249274D01*
X143743286Y-92357106D01*
X143676600Y-92423792D01*
X143414750Y-92426000D01*
X143256000Y-92584750D01*
X143256000Y-93284000D01*
X144255250Y-93284000D01*
X144414000Y-93125250D01*
X144417072Y-93061000D01*
X144409232Y-92981397D01*
X144667585Y-93050369D01*
X145008639Y-93072409D01*
X145347439Y-93027489D01*
X145670966Y-92917336D01*
X145869274Y-92811338D01*
X145977107Y-92536712D01*
X144950000Y-91509605D01*
X144935858Y-91523748D01*
X144756253Y-91344143D01*
X144770395Y-91330000D01*
X145129605Y-91330000D01*
X146156712Y-92357107D01*
X146431338Y-92249274D01*
X146582216Y-91942616D01*
X146670369Y-91612415D01*
X146692409Y-91271361D01*
X146647489Y-90932561D01*
X146537336Y-90609034D01*
X146431338Y-90410726D01*
X146156712Y-90302893D01*
X145129605Y-91330000D01*
X144770395Y-91330000D01*
X143743288Y-90302893D01*
X143468662Y-90410726D01*
X143317784Y-90717384D01*
X143229631Y-91047585D01*
X143207591Y-91388639D01*
X142621000Y-91388639D01*
X142621000Y-91184134D01*
X142564086Y-90898008D01*
X142452445Y-90628483D01*
X142290368Y-90385917D01*
X142084083Y-90179632D01*
X141999759Y-90123288D01*
X143922893Y-90123288D01*
X144950000Y-91150395D01*
X145977107Y-90123288D01*
X145869274Y-89848662D01*
X145562616Y-89697784D01*
X145232415Y-89609631D01*
X144891361Y-89587591D01*
X144552561Y-89632511D01*
X144229034Y-89742664D01*
X144030726Y-89848662D01*
X143922893Y-90123288D01*
X141999759Y-90123288D01*
X141841517Y-90017555D01*
X141571992Y-89905914D01*
X141285866Y-89849000D01*
X140994134Y-89849000D01*
X140708008Y-89905914D01*
X140438483Y-90017555D01*
X140195917Y-90179632D01*
X139989632Y-90385917D01*
X139827555Y-90628483D01*
X139715914Y-90898008D01*
X139659000Y-91184134D01*
X139659000Y-91475866D01*
X139715914Y-91761992D01*
X139827555Y-92031517D01*
X139989632Y-92274083D01*
X140195917Y-92480368D01*
X140438483Y-92642445D01*
X140524699Y-92678157D01*
X140510500Y-92678157D01*
X140435811Y-92685513D01*
X140363992Y-92707299D01*
X140297804Y-92742678D01*
X140239789Y-92790289D01*
X140192178Y-92848304D01*
X140156799Y-92914492D01*
X140135013Y-92986311D01*
X140127657Y-93061000D01*
X140127657Y-93520948D01*
X140079196Y-93481178D01*
X140013008Y-93445799D01*
X139941189Y-93424013D01*
X139866500Y-93416657D01*
X138866500Y-93416657D01*
X138791811Y-93424013D01*
X138719992Y-93445799D01*
X138653804Y-93481178D01*
X138595789Y-93528789D01*
X138548178Y-93586804D01*
X138512799Y-93652992D01*
X138491013Y-93724811D01*
X138483657Y-93799500D01*
X138483657Y-95049500D01*
X138491013Y-95124189D01*
X138512799Y-95196008D01*
X138548178Y-95262196D01*
X138595789Y-95320211D01*
X138653804Y-95367822D01*
X138719992Y-95403201D01*
X138791811Y-95424987D01*
X138866500Y-95432343D01*
X139866500Y-95432343D01*
X139941189Y-95424987D01*
X140013008Y-95403201D01*
X140079196Y-95367822D01*
X140127657Y-95328052D01*
X140127657Y-95661000D01*
X140135013Y-95735689D01*
X140156799Y-95807508D01*
X140192178Y-95873696D01*
X140239789Y-95931711D01*
X140297804Y-95979322D01*
X140363992Y-96014701D01*
X140435811Y-96036487D01*
X140510500Y-96043843D01*
X140992712Y-96043843D01*
X140927973Y-96096973D01*
X140912129Y-96116279D01*
X139218583Y-97809826D01*
X138995743Y-97765500D01*
X138753257Y-97765500D01*
X138515431Y-97812807D01*
X138291403Y-97905602D01*
X138089783Y-98040320D01*
X137918320Y-98211783D01*
X137783602Y-98413403D01*
X137690807Y-98637431D01*
X137643500Y-98875257D01*
X137643500Y-99117743D01*
X137690807Y-99355569D01*
X137783602Y-99579597D01*
X137918320Y-99781217D01*
X138089783Y-99952680D01*
X138277338Y-100078000D01*
X136931662Y-100078000D01*
X137119217Y-99952680D01*
X137290680Y-99781217D01*
X137425398Y-99579597D01*
X137518193Y-99355569D01*
X137565500Y-99117743D01*
X137565500Y-98875257D01*
X137518193Y-98637431D01*
X137425398Y-98413403D01*
X137290680Y-98211783D01*
X137119217Y-98040320D01*
X137079985Y-98014106D01*
X137706720Y-97387372D01*
X137726027Y-97371527D01*
X137789259Y-97294479D01*
X137836245Y-97206575D01*
X137860528Y-97126522D01*
X137865178Y-97111194D01*
X137868805Y-97074370D01*
X137872500Y-97036854D01*
X137872500Y-97036847D01*
X137874947Y-97012001D01*
X137872500Y-96987155D01*
X137872500Y-95431752D01*
X137941189Y-95424987D01*
X138013008Y-95403201D01*
X138079196Y-95367822D01*
X138137211Y-95320211D01*
X138184822Y-95262196D01*
X138220201Y-95196008D01*
X138241987Y-95124189D01*
X138249343Y-95049500D01*
X138249343Y-93799500D01*
X138241987Y-93724811D01*
X138220201Y-93652992D01*
X138184822Y-93586804D01*
X138137211Y-93528789D01*
X138079196Y-93481178D01*
X138013008Y-93445799D01*
X137941189Y-93424013D01*
X137866500Y-93416657D01*
X136866500Y-93416657D01*
X136791811Y-93424013D01*
X136719992Y-93445799D01*
X136653804Y-93481178D01*
X136595789Y-93528789D01*
X136548178Y-93586804D01*
X136512799Y-93652992D01*
X136491013Y-93724811D01*
X136483657Y-93799500D01*
X136483657Y-95049500D01*
X136491013Y-95124189D01*
X136512799Y-95196008D01*
X136548178Y-95262196D01*
X136595789Y-95320211D01*
X136653804Y-95367822D01*
X136719992Y-95403201D01*
X136791811Y-95424987D01*
X136860501Y-95431752D01*
X136860500Y-96802408D01*
X135994280Y-97668629D01*
X135974974Y-97684473D01*
X135911742Y-97761521D01*
X135890001Y-97802196D01*
X135864755Y-97849426D01*
X135861555Y-97859976D01*
X135751403Y-97905602D01*
X135549783Y-98040320D01*
X135378320Y-98211783D01*
X135243602Y-98413403D01*
X135150807Y-98637431D01*
X135126000Y-98762143D01*
X135126000Y-97497345D01*
X135128447Y-97472499D01*
X135126000Y-97447653D01*
X135126000Y-97447646D01*
X135118678Y-97373307D01*
X135089745Y-97277925D01*
X135042759Y-97190021D01*
X134979527Y-97112973D01*
X134960220Y-97097128D01*
X134487376Y-96624285D01*
X134471527Y-96604973D01*
X134394479Y-96541741D01*
X134343843Y-96514675D01*
X134343843Y-96339500D01*
X134336487Y-96264811D01*
X134314701Y-96192992D01*
X134279322Y-96126804D01*
X134231711Y-96068789D01*
X134201314Y-96043843D01*
X134317500Y-96043843D01*
X134392189Y-96036487D01*
X134464008Y-96014701D01*
X134530196Y-95979322D01*
X134588211Y-95931711D01*
X134635822Y-95873696D01*
X134671201Y-95807508D01*
X134692987Y-95735689D01*
X134700343Y-95661000D01*
X134700343Y-94961000D01*
X134692987Y-94886311D01*
X134671201Y-94814492D01*
X134635822Y-94748304D01*
X134588211Y-94690289D01*
X134530196Y-94642678D01*
X134464008Y-94607299D01*
X134392189Y-94585513D01*
X134317500Y-94578157D01*
X133017500Y-94578157D01*
X132942811Y-94585513D01*
X132870992Y-94607299D01*
X132804804Y-94642678D01*
X132746789Y-94690289D01*
X132699178Y-94748304D01*
X132668873Y-94805000D01*
X132634127Y-94805000D01*
X132603822Y-94748304D01*
X132556211Y-94690289D01*
X132498196Y-94642678D01*
X132432008Y-94607299D01*
X132360189Y-94585513D01*
X132285500Y-94578157D01*
X130985500Y-94578157D01*
X130910811Y-94585513D01*
X130838992Y-94607299D01*
X130772804Y-94642678D01*
X130714789Y-94690289D01*
X130667178Y-94748304D01*
X130631799Y-94814492D01*
X130610013Y-94886311D01*
X130602657Y-94961000D01*
X130602657Y-95661000D01*
X130610013Y-95735689D01*
X130631799Y-95807508D01*
X130667178Y-95873696D01*
X130714789Y-95931711D01*
X130772804Y-95979322D01*
X130799707Y-95993702D01*
X130748304Y-96021178D01*
X130690289Y-96068789D01*
X130642678Y-96126804D01*
X130607299Y-96192992D01*
X130585513Y-96264811D01*
X130578157Y-96339500D01*
X130578157Y-97589500D01*
X130585513Y-97664189D01*
X130607299Y-97736008D01*
X130642678Y-97802196D01*
X130690289Y-97860211D01*
X130748304Y-97907822D01*
X130769216Y-97919000D01*
X130384592Y-97919000D01*
X130246175Y-97780584D01*
X130260696Y-97772822D01*
X130318711Y-97725211D01*
X130366322Y-97667196D01*
X130401701Y-97601008D01*
X130423487Y-97529189D01*
X130430843Y-97454500D01*
X130430843Y-96484500D01*
X130423487Y-96409811D01*
X130401701Y-96337992D01*
X130397162Y-96329500D01*
X130401701Y-96321008D01*
X130423487Y-96249189D01*
X130430843Y-96174500D01*
X130430843Y-95204500D01*
X130423487Y-95129811D01*
X130401701Y-95057992D01*
X130366322Y-94991804D01*
X130318711Y-94933789D01*
X130260696Y-94886178D01*
X130194508Y-94850799D01*
X130122689Y-94829013D01*
X130048000Y-94821657D01*
X129919000Y-94821657D01*
X129919000Y-94761091D01*
X130684855Y-93995236D01*
X130714789Y-94031711D01*
X130772804Y-94079322D01*
X130838992Y-94114701D01*
X130910811Y-94136487D01*
X130985500Y-94143843D01*
X132285500Y-94143843D01*
X132360189Y-94136487D01*
X132432008Y-94114701D01*
X132474421Y-94092030D01*
X132486963Y-94115494D01*
X132566315Y-94212185D01*
X132663006Y-94291537D01*
X132773320Y-94350502D01*
X132893018Y-94386812D01*
X133017500Y-94399072D01*
X133381750Y-94396000D01*
X133540500Y-94237250D01*
X133540500Y-93538000D01*
X133794500Y-93538000D01*
X133794500Y-94237250D01*
X133953250Y-94396000D01*
X134317500Y-94399072D01*
X134441982Y-94386812D01*
X134561680Y-94350502D01*
X134671994Y-94291537D01*
X134768685Y-94212185D01*
X134848037Y-94115494D01*
X134907002Y-94005180D01*
X134943312Y-93885482D01*
X134955572Y-93761000D01*
X134952500Y-93696750D01*
X134793750Y-93538000D01*
X133794500Y-93538000D01*
X133540500Y-93538000D01*
X133520500Y-93538000D01*
X133520500Y-93284000D01*
X133540500Y-93284000D01*
X133540500Y-93264000D01*
X133794500Y-93264000D01*
X133794500Y-93284000D01*
X134793750Y-93284000D01*
X134952500Y-93125250D01*
X134955572Y-93061000D01*
X134943312Y-92936518D01*
X134907002Y-92816820D01*
X134848037Y-92706506D01*
X134768685Y-92609815D01*
X134679609Y-92536712D01*
X136302893Y-92536712D01*
X136410726Y-92811338D01*
X136717384Y-92962216D01*
X137047585Y-93050369D01*
X137388639Y-93072409D01*
X137727439Y-93027489D01*
X138050966Y-92917336D01*
X138249274Y-92811338D01*
X138357107Y-92536712D01*
X137330000Y-91509605D01*
X136302893Y-92536712D01*
X134679609Y-92536712D01*
X134671994Y-92530463D01*
X134561680Y-92471498D01*
X134493604Y-92450847D01*
X134670368Y-92274083D01*
X134832445Y-92031517D01*
X134944086Y-91761992D01*
X135001000Y-91475866D01*
X135001000Y-91388639D01*
X135587591Y-91388639D01*
X135632511Y-91727439D01*
X135742664Y-92050966D01*
X135848662Y-92249274D01*
X136123288Y-92357107D01*
X137150395Y-91330000D01*
X137509605Y-91330000D01*
X138536712Y-92357107D01*
X138811338Y-92249274D01*
X138962216Y-91942616D01*
X139050369Y-91612415D01*
X139072409Y-91271361D01*
X139027489Y-90932561D01*
X138917336Y-90609034D01*
X138811338Y-90410726D01*
X138536712Y-90302893D01*
X137509605Y-91330000D01*
X137150395Y-91330000D01*
X136123288Y-90302893D01*
X135848662Y-90410726D01*
X135697784Y-90717384D01*
X135609631Y-91047585D01*
X135587591Y-91388639D01*
X135001000Y-91388639D01*
X135001000Y-91184134D01*
X134944086Y-90898008D01*
X134832445Y-90628483D01*
X134670368Y-90385917D01*
X134464083Y-90179632D01*
X134379759Y-90123288D01*
X136302893Y-90123288D01*
X137330000Y-91150395D01*
X138357107Y-90123288D01*
X138249274Y-89848662D01*
X137942616Y-89697784D01*
X137612415Y-89609631D01*
X137271361Y-89587591D01*
X136932561Y-89632511D01*
X136609034Y-89742664D01*
X136410726Y-89848662D01*
X136302893Y-90123288D01*
X134379759Y-90123288D01*
X134221517Y-90017555D01*
X133951992Y-89905914D01*
X133665866Y-89849000D01*
X133374134Y-89849000D01*
X133088008Y-89905914D01*
X132818483Y-90017555D01*
X132575917Y-90179632D01*
X132369632Y-90385917D01*
X132207555Y-90628483D01*
X132141500Y-90787954D01*
X132141500Y-87630797D01*
X132306517Y-87562445D01*
X132464758Y-87456712D01*
X134387893Y-87456712D01*
X134495726Y-87731338D01*
X134802384Y-87882216D01*
X135132585Y-87970369D01*
X135473639Y-87992409D01*
X135812439Y-87947489D01*
X136135966Y-87837336D01*
X136334274Y-87731338D01*
X136442107Y-87456712D01*
X135415000Y-86429605D01*
X134387893Y-87456712D01*
X132464758Y-87456712D01*
X132549083Y-87400368D01*
X132755368Y-87194083D01*
X132917445Y-86951517D01*
X133029086Y-86681992D01*
X133086000Y-86395866D01*
X133086000Y-86308639D01*
X133672591Y-86308639D01*
X133717511Y-86647439D01*
X133827664Y-86970966D01*
X133933662Y-87169274D01*
X134208288Y-87277107D01*
X135235395Y-86250000D01*
X135594605Y-86250000D01*
X136621712Y-87277107D01*
X136896338Y-87169274D01*
X137047216Y-86862616D01*
X137135369Y-86532415D01*
X137157409Y-86191361D01*
X137145844Y-86104134D01*
X137744000Y-86104134D01*
X137744000Y-86395866D01*
X137800914Y-86681992D01*
X137912555Y-86951517D01*
X138074632Y-87194083D01*
X138280917Y-87400368D01*
X138523483Y-87562445D01*
X138793008Y-87674086D01*
X139079134Y-87731000D01*
X139370866Y-87731000D01*
X139656992Y-87674086D01*
X139926517Y-87562445D01*
X140169083Y-87400368D01*
X140375368Y-87194083D01*
X140537445Y-86951517D01*
X140649086Y-86681992D01*
X140706000Y-86395866D01*
X140706000Y-86104134D01*
X141554000Y-86104134D01*
X141554000Y-86395866D01*
X141610914Y-86681992D01*
X141722555Y-86951517D01*
X141884632Y-87194083D01*
X142090917Y-87400368D01*
X142333483Y-87562445D01*
X142603008Y-87674086D01*
X142889134Y-87731000D01*
X143180866Y-87731000D01*
X143466992Y-87674086D01*
X143736517Y-87562445D01*
X143979083Y-87400368D01*
X144185368Y-87194083D01*
X144347445Y-86951517D01*
X144459086Y-86681992D01*
X144516000Y-86395866D01*
X144516000Y-86104134D01*
X145364000Y-86104134D01*
X145364000Y-86395866D01*
X145420914Y-86681992D01*
X145532555Y-86951517D01*
X145694632Y-87194083D01*
X145900917Y-87400368D01*
X146143483Y-87562445D01*
X146413008Y-87674086D01*
X146699134Y-87731000D01*
X146990866Y-87731000D01*
X147276992Y-87674086D01*
X147546517Y-87562445D01*
X147789083Y-87400368D01*
X147995368Y-87194083D01*
X148157445Y-86951517D01*
X148269086Y-86681992D01*
X148326000Y-86395866D01*
X148326000Y-86104134D01*
X149174000Y-86104134D01*
X149174000Y-86395866D01*
X149230914Y-86681992D01*
X149342555Y-86951517D01*
X149504632Y-87194083D01*
X149710917Y-87400368D01*
X149953483Y-87562445D01*
X150223008Y-87674086D01*
X150509134Y-87731000D01*
X150800866Y-87731000D01*
X151086992Y-87674086D01*
X151356517Y-87562445D01*
X151599083Y-87400368D01*
X151805368Y-87194083D01*
X151967445Y-86951517D01*
X152079086Y-86681992D01*
X152136000Y-86395866D01*
X152136000Y-86104134D01*
X152984000Y-86104134D01*
X152984000Y-86395866D01*
X153040914Y-86681992D01*
X153152555Y-86951517D01*
X153314632Y-87194083D01*
X153520917Y-87400368D01*
X153763483Y-87562445D01*
X154033008Y-87674086D01*
X154319134Y-87731000D01*
X154610866Y-87731000D01*
X154896992Y-87674086D01*
X155166517Y-87562445D01*
X155409083Y-87400368D01*
X155615368Y-87194083D01*
X155777445Y-86951517D01*
X155889086Y-86681992D01*
X155946000Y-86395866D01*
X155946000Y-86104134D01*
X156794000Y-86104134D01*
X156794000Y-86395866D01*
X156850914Y-86681992D01*
X156962555Y-86951517D01*
X157124632Y-87194083D01*
X157330917Y-87400368D01*
X157573483Y-87562445D01*
X157843008Y-87674086D01*
X158129134Y-87731000D01*
X158420866Y-87731000D01*
X158706992Y-87674086D01*
X158976517Y-87562445D01*
X159134758Y-87456712D01*
X161057893Y-87456712D01*
X161165726Y-87731338D01*
X161472384Y-87882216D01*
X161802585Y-87970369D01*
X162143639Y-87992409D01*
X162482439Y-87947489D01*
X162805966Y-87837336D01*
X163004274Y-87731338D01*
X163112107Y-87456712D01*
X162085000Y-86429605D01*
X161057893Y-87456712D01*
X159134758Y-87456712D01*
X159219083Y-87400368D01*
X159425368Y-87194083D01*
X159587445Y-86951517D01*
X159699086Y-86681992D01*
X159756000Y-86395866D01*
X159756000Y-86308639D01*
X160342591Y-86308639D01*
X160387511Y-86647439D01*
X160497664Y-86970966D01*
X160603662Y-87169274D01*
X160878288Y-87277107D01*
X161905395Y-86250000D01*
X162264605Y-86250000D01*
X163291712Y-87277107D01*
X163566338Y-87169274D01*
X163717216Y-86862616D01*
X163805369Y-86532415D01*
X163827409Y-86191361D01*
X163815844Y-86104134D01*
X164414000Y-86104134D01*
X164414000Y-86395866D01*
X164470914Y-86681992D01*
X164582555Y-86951517D01*
X164744632Y-87194083D01*
X164950917Y-87400368D01*
X165193483Y-87562445D01*
X165463008Y-87674086D01*
X165749134Y-87731000D01*
X166040866Y-87731000D01*
X166326992Y-87674086D01*
X166596517Y-87562445D01*
X166839083Y-87400368D01*
X167045368Y-87194083D01*
X167207445Y-86951517D01*
X167319086Y-86681992D01*
X167376000Y-86395866D01*
X167376000Y-86104134D01*
X167319086Y-85818008D01*
X167207445Y-85548483D01*
X167045368Y-85305917D01*
X166839083Y-85099632D01*
X166596517Y-84937555D01*
X166401000Y-84856569D01*
X166401000Y-76170360D01*
X166770000Y-76170360D01*
X166770000Y-76491640D01*
X166832678Y-76806745D01*
X166955626Y-77103568D01*
X167134119Y-77370702D01*
X167361298Y-77597881D01*
X167628432Y-77776374D01*
X167925255Y-77899322D01*
X168240360Y-77962000D01*
X168561640Y-77962000D01*
X168876745Y-77899322D01*
X169173568Y-77776374D01*
X169440702Y-77597881D01*
X169667881Y-77370702D01*
X169846374Y-77103568D01*
X169969322Y-76806745D01*
X170032000Y-76491640D01*
X170032000Y-76170360D01*
X169969322Y-75855255D01*
X169846374Y-75558432D01*
X169667881Y-75291298D01*
X169440702Y-75064119D01*
X169173568Y-74885626D01*
X168876745Y-74762678D01*
X168561640Y-74700000D01*
X168240360Y-74700000D01*
X167925255Y-74762678D01*
X167628432Y-74885626D01*
X167361298Y-75064119D01*
X167134119Y-75291298D01*
X166955626Y-75558432D01*
X166832678Y-75855255D01*
X166770000Y-76170360D01*
X166401000Y-76170360D01*
X166401000Y-74216591D01*
X167658686Y-72958906D01*
X167925255Y-73069322D01*
X168240360Y-73132000D01*
X168561640Y-73132000D01*
X168876745Y-73069322D01*
X169173568Y-72946374D01*
X169440702Y-72767881D01*
X169667881Y-72540702D01*
X169846374Y-72273568D01*
X169969322Y-71976745D01*
X170032000Y-71661640D01*
X170032000Y-71340360D01*
X169969322Y-71025255D01*
X169846374Y-70728432D01*
X169667881Y-70461298D01*
X169440702Y-70234119D01*
X169173568Y-70055626D01*
X168876745Y-69932678D01*
X168561640Y-69870000D01*
X168240360Y-69870000D01*
X167925255Y-69932678D01*
X167628432Y-70055626D01*
X167361298Y-70234119D01*
X167134119Y-70461298D01*
X166955626Y-70728432D01*
X166832678Y-71025255D01*
X166770000Y-71340360D01*
X166770000Y-71661640D01*
X166832678Y-71976745D01*
X166943094Y-72243314D01*
X165554781Y-73631628D01*
X165535474Y-73647473D01*
X165472242Y-73724521D01*
X165447127Y-73771508D01*
X165425255Y-73812426D01*
X165396322Y-73907808D01*
X165386553Y-74007000D01*
X165389001Y-74031856D01*
X165389000Y-84856569D01*
X165193483Y-84937555D01*
X164950917Y-85099632D01*
X164744632Y-85305917D01*
X164582555Y-85548483D01*
X164470914Y-85818008D01*
X164414000Y-86104134D01*
X163815844Y-86104134D01*
X163782489Y-85852561D01*
X163672336Y-85529034D01*
X163566338Y-85330726D01*
X163291712Y-85222893D01*
X162264605Y-86250000D01*
X161905395Y-86250000D01*
X160878288Y-85222893D01*
X160603662Y-85330726D01*
X160452784Y-85637384D01*
X160364631Y-85967585D01*
X160342591Y-86308639D01*
X159756000Y-86308639D01*
X159756000Y-86104134D01*
X159699086Y-85818008D01*
X159587445Y-85548483D01*
X159425368Y-85305917D01*
X159219083Y-85099632D01*
X159134759Y-85043288D01*
X161057893Y-85043288D01*
X162085000Y-86070395D01*
X163112107Y-85043288D01*
X163004274Y-84768662D01*
X162697616Y-84617784D01*
X162367415Y-84529631D01*
X162026361Y-84507591D01*
X161687561Y-84552511D01*
X161364034Y-84662664D01*
X161165726Y-84768662D01*
X161057893Y-85043288D01*
X159134759Y-85043288D01*
X158976517Y-84937555D01*
X158706992Y-84825914D01*
X158420866Y-84769000D01*
X158129134Y-84769000D01*
X157843008Y-84825914D01*
X157573483Y-84937555D01*
X157330917Y-85099632D01*
X157124632Y-85305917D01*
X156962555Y-85548483D01*
X156850914Y-85818008D01*
X156794000Y-86104134D01*
X155946000Y-86104134D01*
X155889086Y-85818008D01*
X155777445Y-85548483D01*
X155615368Y-85305917D01*
X155409083Y-85099632D01*
X155166517Y-84937555D01*
X154896992Y-84825914D01*
X154610866Y-84769000D01*
X154319134Y-84769000D01*
X154033008Y-84825914D01*
X153763483Y-84937555D01*
X153520917Y-85099632D01*
X153314632Y-85305917D01*
X153152555Y-85548483D01*
X153040914Y-85818008D01*
X152984000Y-86104134D01*
X152136000Y-86104134D01*
X152079086Y-85818008D01*
X151967445Y-85548483D01*
X151805368Y-85305917D01*
X151599083Y-85099632D01*
X151356517Y-84937555D01*
X151086992Y-84825914D01*
X150800866Y-84769000D01*
X150509134Y-84769000D01*
X150223008Y-84825914D01*
X149953483Y-84937555D01*
X149710917Y-85099632D01*
X149504632Y-85305917D01*
X149342555Y-85548483D01*
X149230914Y-85818008D01*
X149174000Y-86104134D01*
X148326000Y-86104134D01*
X148269086Y-85818008D01*
X148157445Y-85548483D01*
X147995368Y-85305917D01*
X147789083Y-85099632D01*
X147546517Y-84937555D01*
X147276992Y-84825914D01*
X146990866Y-84769000D01*
X146699134Y-84769000D01*
X146413008Y-84825914D01*
X146143483Y-84937555D01*
X145900917Y-85099632D01*
X145694632Y-85305917D01*
X145532555Y-85548483D01*
X145420914Y-85818008D01*
X145364000Y-86104134D01*
X144516000Y-86104134D01*
X144459086Y-85818008D01*
X144347445Y-85548483D01*
X144185368Y-85305917D01*
X143979083Y-85099632D01*
X143736517Y-84937555D01*
X143466992Y-84825914D01*
X143180866Y-84769000D01*
X142889134Y-84769000D01*
X142603008Y-84825914D01*
X142333483Y-84937555D01*
X142090917Y-85099632D01*
X141884632Y-85305917D01*
X141722555Y-85548483D01*
X141610914Y-85818008D01*
X141554000Y-86104134D01*
X140706000Y-86104134D01*
X140649086Y-85818008D01*
X140537445Y-85548483D01*
X140375368Y-85305917D01*
X140169083Y-85099632D01*
X139926517Y-84937555D01*
X139656992Y-84825914D01*
X139370866Y-84769000D01*
X139079134Y-84769000D01*
X138793008Y-84825914D01*
X138523483Y-84937555D01*
X138280917Y-85099632D01*
X138074632Y-85305917D01*
X137912555Y-85548483D01*
X137800914Y-85818008D01*
X137744000Y-86104134D01*
X137145844Y-86104134D01*
X137112489Y-85852561D01*
X137002336Y-85529034D01*
X136896338Y-85330726D01*
X136621712Y-85222893D01*
X135594605Y-86250000D01*
X135235395Y-86250000D01*
X134208288Y-85222893D01*
X133933662Y-85330726D01*
X133782784Y-85637384D01*
X133694631Y-85967585D01*
X133672591Y-86308639D01*
X133086000Y-86308639D01*
X133086000Y-86104134D01*
X133029086Y-85818008D01*
X132917445Y-85548483D01*
X132755368Y-85305917D01*
X132549083Y-85099632D01*
X132464759Y-85043288D01*
X134387893Y-85043288D01*
X135415000Y-86070395D01*
X136442107Y-85043288D01*
X136334274Y-84768662D01*
X136027616Y-84617784D01*
X135697415Y-84529631D01*
X135356361Y-84507591D01*
X135017561Y-84552511D01*
X134694034Y-84662664D01*
X134495726Y-84768662D01*
X134387893Y-85043288D01*
X132464759Y-85043288D01*
X132306517Y-84937555D01*
X132036992Y-84825914D01*
X131750866Y-84769000D01*
X131459134Y-84769000D01*
X131173008Y-84825914D01*
X130903483Y-84937555D01*
X130660917Y-85099632D01*
X130454632Y-85305917D01*
X130292555Y-85548483D01*
X130180914Y-85818008D01*
X130124000Y-86104134D01*
X130124000Y-86395866D01*
X130180914Y-86681992D01*
X130292555Y-86951517D01*
X130454632Y-87194083D01*
X130660917Y-87400368D01*
X130903483Y-87562445D01*
X131129501Y-87656065D01*
X131129500Y-90386445D01*
X130916712Y-90302893D01*
X129889605Y-91330000D01*
X130916712Y-92357107D01*
X131129500Y-92273555D01*
X131129500Y-92678157D01*
X130985500Y-92678157D01*
X130910811Y-92685513D01*
X130838992Y-92707299D01*
X130772804Y-92742678D01*
X130714789Y-92790289D01*
X130667178Y-92848304D01*
X130636873Y-92905000D01*
X130578354Y-92905000D01*
X130553500Y-92902552D01*
X130528646Y-92905000D01*
X130454307Y-92912322D01*
X130375329Y-92936279D01*
X130430966Y-92917336D01*
X130629274Y-92811338D01*
X130737107Y-92536712D01*
X129710000Y-91509605D01*
X128682893Y-92536712D01*
X128790726Y-92811338D01*
X129097384Y-92962216D01*
X129427585Y-93050369D01*
X129768639Y-93072409D01*
X130107439Y-93027489D01*
X130355785Y-92942933D01*
X130271021Y-92988241D01*
X130193973Y-93051473D01*
X130178128Y-93070780D01*
X129072780Y-94176129D01*
X129053474Y-94191973D01*
X128990242Y-94269021D01*
X128978207Y-94291537D01*
X128943255Y-94356926D01*
X128914322Y-94452308D01*
X128904553Y-94551500D01*
X128907001Y-94576356D01*
X128907001Y-94821657D01*
X128778000Y-94821657D01*
X128703311Y-94829013D01*
X128631492Y-94850799D01*
X128565304Y-94886178D01*
X128507289Y-94933789D01*
X128459678Y-94991804D01*
X128424299Y-95057992D01*
X128402513Y-95129811D01*
X128395157Y-95204500D01*
X121868000Y-95204500D01*
X121868000Y-87322158D01*
X124509000Y-87322158D01*
X124509001Y-90257843D01*
X124528983Y-90460723D01*
X124607950Y-90721043D01*
X124736186Y-90960955D01*
X124908762Y-91171239D01*
X125119046Y-91343815D01*
X125358958Y-91472051D01*
X125619278Y-91551018D01*
X125890000Y-91577682D01*
X126160723Y-91551018D01*
X126421043Y-91472051D01*
X126577095Y-91388639D01*
X127967591Y-91388639D01*
X128012511Y-91727439D01*
X128122664Y-92050966D01*
X128228662Y-92249274D01*
X128503288Y-92357107D01*
X129530395Y-91330000D01*
X128503288Y-90302893D01*
X128228662Y-90410726D01*
X128077784Y-90717384D01*
X127989631Y-91047585D01*
X127967591Y-91388639D01*
X126577095Y-91388639D01*
X126660955Y-91343815D01*
X126871239Y-91171239D01*
X127043815Y-90960955D01*
X127172051Y-90721043D01*
X127251018Y-90460723D01*
X127271000Y-90257843D01*
X127271000Y-90123288D01*
X128682893Y-90123288D01*
X129710000Y-91150395D01*
X130737107Y-90123288D01*
X130629274Y-89848662D01*
X130322616Y-89697784D01*
X129992415Y-89609631D01*
X129651361Y-89587591D01*
X129312561Y-89632511D01*
X128989034Y-89742664D01*
X128790726Y-89848662D01*
X128682893Y-90123288D01*
X127271000Y-90123288D01*
X127271000Y-87322157D01*
X127251018Y-87119277D01*
X127172051Y-86858957D01*
X127043815Y-86619045D01*
X126871238Y-86408761D01*
X126660954Y-86236185D01*
X126421042Y-86107949D01*
X126160722Y-86028982D01*
X125890000Y-86002318D01*
X125619277Y-86028982D01*
X125358957Y-86107949D01*
X125119045Y-86236185D01*
X124908761Y-86408762D01*
X124736185Y-86619046D01*
X124607949Y-86858958D01*
X124528982Y-87119278D01*
X124509000Y-87322158D01*
X121868000Y-87322158D01*
X121868000Y-72837981D01*
X122604124Y-72837981D01*
X122916308Y-73286677D01*
X123512259Y-73607112D01*
X124159273Y-73805126D01*
X124832484Y-73873110D01*
X125506023Y-73808449D01*
X126154006Y-73613630D01*
X126701630Y-73322653D01*
X128475452Y-73322653D01*
X128631462Y-73638214D01*
X129006245Y-73829020D01*
X129411051Y-73943044D01*
X129830324Y-73975902D01*
X130247951Y-73926334D01*
X130647883Y-73796243D01*
X130943538Y-73638214D01*
X131099548Y-73322653D01*
X138775452Y-73322653D01*
X138931462Y-73638214D01*
X139306245Y-73829020D01*
X139711051Y-73943044D01*
X140130324Y-73975902D01*
X140547951Y-73926334D01*
X140947883Y-73796243D01*
X141243538Y-73638214D01*
X141399548Y-73322653D01*
X147969952Y-73322653D01*
X148125962Y-73638214D01*
X148500745Y-73829020D01*
X148905551Y-73943044D01*
X149324824Y-73975902D01*
X149742451Y-73926334D01*
X150142383Y-73796243D01*
X150438038Y-73638214D01*
X150594048Y-73322653D01*
X149282000Y-72010605D01*
X147969952Y-73322653D01*
X141399548Y-73322653D01*
X140087500Y-72010605D01*
X138775452Y-73322653D01*
X131099548Y-73322653D01*
X129787500Y-72010605D01*
X128475452Y-73322653D01*
X126701630Y-73322653D01*
X126751530Y-73296139D01*
X126765692Y-73286677D01*
X127077876Y-72837981D01*
X124841000Y-70601105D01*
X122604124Y-72837981D01*
X121868000Y-72837981D01*
X121868000Y-72146913D01*
X121966361Y-72332030D01*
X121975823Y-72346192D01*
X122424519Y-72658376D01*
X124661395Y-70421500D01*
X125020605Y-70421500D01*
X127257481Y-72658376D01*
X127706177Y-72346192D01*
X127708542Y-72341794D01*
X127822257Y-72691383D01*
X127980286Y-72987038D01*
X128295847Y-73143048D01*
X129607895Y-71831000D01*
X129967105Y-71831000D01*
X131279153Y-73143048D01*
X131594714Y-72987038D01*
X131785520Y-72612255D01*
X131899544Y-72207449D01*
X131932402Y-71788176D01*
X131882834Y-71370549D01*
X131752743Y-70970617D01*
X131594714Y-70674962D01*
X131279153Y-70518952D01*
X129967105Y-71831000D01*
X129607895Y-71831000D01*
X129593753Y-71816858D01*
X129773358Y-71637253D01*
X129787500Y-71651395D01*
X131099548Y-70339347D01*
X130964130Y-70065436D01*
X133256500Y-70065436D01*
X133256500Y-70396564D01*
X133321100Y-70721330D01*
X133447817Y-71027252D01*
X133631782Y-71302575D01*
X133865925Y-71536718D01*
X134141248Y-71720683D01*
X134447170Y-71847400D01*
X134771936Y-71912000D01*
X135103064Y-71912000D01*
X135294987Y-71873824D01*
X137942598Y-71873824D01*
X137992166Y-72291451D01*
X138122257Y-72691383D01*
X138280286Y-72987038D01*
X138595847Y-73143048D01*
X139907895Y-71831000D01*
X140267105Y-71831000D01*
X141579153Y-73143048D01*
X141894714Y-72987038D01*
X142085520Y-72612255D01*
X142199544Y-72207449D01*
X142225689Y-71873824D01*
X147137098Y-71873824D01*
X147186666Y-72291451D01*
X147316757Y-72691383D01*
X147474786Y-72987038D01*
X147790347Y-73143048D01*
X149102395Y-71831000D01*
X149461605Y-71831000D01*
X150773653Y-73143048D01*
X151089214Y-72987038D01*
X151280020Y-72612255D01*
X151394044Y-72207449D01*
X151426902Y-71788176D01*
X151377334Y-71370549D01*
X151247243Y-70970617D01*
X151089214Y-70674962D01*
X150773653Y-70518952D01*
X149461605Y-71831000D01*
X149102395Y-71831000D01*
X147790347Y-70518952D01*
X147474786Y-70674962D01*
X147283980Y-71049745D01*
X147169956Y-71454551D01*
X147137098Y-71873824D01*
X142225689Y-71873824D01*
X142232402Y-71788176D01*
X142182834Y-71370549D01*
X142052743Y-70970617D01*
X141894714Y-70674962D01*
X141579153Y-70518952D01*
X140267105Y-71831000D01*
X139907895Y-71831000D01*
X138595847Y-70518952D01*
X138280286Y-70674962D01*
X138089480Y-71049745D01*
X137975456Y-71454551D01*
X137942598Y-71873824D01*
X135294987Y-71873824D01*
X135427830Y-71847400D01*
X135733752Y-71720683D01*
X136009075Y-71536718D01*
X136243218Y-71302575D01*
X136427183Y-71027252D01*
X136553900Y-70721330D01*
X136618500Y-70396564D01*
X136618500Y-70339347D01*
X138775452Y-70339347D01*
X140087500Y-71651395D01*
X141399548Y-70339347D01*
X147969952Y-70339347D01*
X149282000Y-71651395D01*
X150594048Y-70339347D01*
X150438038Y-70023786D01*
X150063255Y-69832980D01*
X149658449Y-69718956D01*
X149239176Y-69686098D01*
X148821549Y-69735666D01*
X148421617Y-69865757D01*
X148125962Y-70023786D01*
X147969952Y-70339347D01*
X141399548Y-70339347D01*
X141243538Y-70023786D01*
X140868755Y-69832980D01*
X140463949Y-69718956D01*
X140044676Y-69686098D01*
X139627049Y-69735666D01*
X139227117Y-69865757D01*
X138931462Y-70023786D01*
X138775452Y-70339347D01*
X136618500Y-70339347D01*
X136618500Y-70065436D01*
X136553900Y-69740670D01*
X136433674Y-69450418D01*
X137179092Y-68705000D01*
X153723425Y-68705000D01*
X153635748Y-68741317D01*
X153360425Y-68925282D01*
X153126282Y-69159425D01*
X152942317Y-69434748D01*
X152815600Y-69740670D01*
X152751000Y-70065436D01*
X152751000Y-70396564D01*
X152815600Y-70721330D01*
X152942317Y-71027252D01*
X153126282Y-71302575D01*
X153360425Y-71536718D01*
X153635748Y-71720683D01*
X153926001Y-71840910D01*
X153926001Y-72111144D01*
X153923553Y-72136000D01*
X153933322Y-72235192D01*
X153962255Y-72330574D01*
X153984127Y-72371492D01*
X154009242Y-72418479D01*
X154072474Y-72495527D01*
X154091781Y-72511372D01*
X158251628Y-76671220D01*
X158267473Y-76690527D01*
X158344521Y-76753759D01*
X158432425Y-76800745D01*
X158527807Y-76829678D01*
X158627000Y-76839448D01*
X158651854Y-76837000D01*
X162145210Y-76837000D01*
X162255626Y-77103568D01*
X162434119Y-77370702D01*
X162661298Y-77597881D01*
X162928432Y-77776374D01*
X163225255Y-77899322D01*
X163540360Y-77962000D01*
X163861640Y-77962000D01*
X164176745Y-77899322D01*
X164473568Y-77776374D01*
X164740702Y-77597881D01*
X164967881Y-77370702D01*
X165146374Y-77103568D01*
X165269322Y-76806745D01*
X165332000Y-76491640D01*
X165332000Y-76170360D01*
X165269322Y-75855255D01*
X165146374Y-75558432D01*
X164967881Y-75291298D01*
X164740702Y-75064119D01*
X164473568Y-74885626D01*
X164176745Y-74762678D01*
X163861640Y-74700000D01*
X163540360Y-74700000D01*
X163225255Y-74762678D01*
X162928432Y-74885626D01*
X162661298Y-75064119D01*
X162434119Y-75291298D01*
X162255626Y-75558432D01*
X162145210Y-75825000D01*
X158836592Y-75825000D01*
X156334245Y-73322653D01*
X158269952Y-73322653D01*
X158425962Y-73638214D01*
X158800745Y-73829020D01*
X159205551Y-73943044D01*
X159624824Y-73975902D01*
X160042451Y-73926334D01*
X160442383Y-73796243D01*
X160738038Y-73638214D01*
X160894048Y-73322653D01*
X159582000Y-72010605D01*
X158269952Y-73322653D01*
X156334245Y-73322653D01*
X154938000Y-71926409D01*
X154938000Y-71873824D01*
X157437098Y-71873824D01*
X157486666Y-72291451D01*
X157616757Y-72691383D01*
X157774786Y-72987038D01*
X158090347Y-73143048D01*
X159402395Y-71831000D01*
X159761605Y-71831000D01*
X161073653Y-73143048D01*
X161389214Y-72987038D01*
X161580020Y-72612255D01*
X161694044Y-72207449D01*
X161726902Y-71788176D01*
X161677334Y-71370549D01*
X161547243Y-70970617D01*
X161389214Y-70674962D01*
X161073653Y-70518952D01*
X159761605Y-71831000D01*
X159402395Y-71831000D01*
X158090347Y-70518952D01*
X157774786Y-70674962D01*
X157583980Y-71049745D01*
X157469956Y-71454551D01*
X157437098Y-71873824D01*
X154938000Y-71873824D01*
X154938000Y-71840909D01*
X155228252Y-71720683D01*
X155503575Y-71536718D01*
X155737718Y-71302575D01*
X155921683Y-71027252D01*
X156048400Y-70721330D01*
X156113000Y-70396564D01*
X156113000Y-70339347D01*
X158269952Y-70339347D01*
X159582000Y-71651395D01*
X160894048Y-70339347D01*
X160738038Y-70023786D01*
X160363255Y-69832980D01*
X159958449Y-69718956D01*
X159539176Y-69686098D01*
X159121549Y-69735666D01*
X158721617Y-69865757D01*
X158425962Y-70023786D01*
X158269952Y-70339347D01*
X156113000Y-70339347D01*
X156113000Y-70065436D01*
X156048400Y-69740670D01*
X155921683Y-69434748D01*
X155737718Y-69159425D01*
X155503575Y-68925282D01*
X155228252Y-68741317D01*
X155140575Y-68705000D01*
X160189409Y-68705000D01*
X162243094Y-70758686D01*
X162132678Y-71025255D01*
X162070000Y-71340360D01*
X162070000Y-71661640D01*
X162132678Y-71976745D01*
X162255626Y-72273568D01*
X162434119Y-72540702D01*
X162661298Y-72767881D01*
X162928432Y-72946374D01*
X163225255Y-73069322D01*
X163540360Y-73132000D01*
X163861640Y-73132000D01*
X164176745Y-73069322D01*
X164473568Y-72946374D01*
X164740702Y-72767881D01*
X164967881Y-72540702D01*
X165146374Y-72273568D01*
X165269322Y-71976745D01*
X165332000Y-71661640D01*
X165332000Y-71340360D01*
X165269322Y-71025255D01*
X165146374Y-70728432D01*
X164967881Y-70461298D01*
X164740702Y-70234119D01*
X164473568Y-70055626D01*
X164176745Y-69932678D01*
X163861640Y-69870000D01*
X163540360Y-69870000D01*
X163225255Y-69932678D01*
X162958686Y-70043094D01*
X160774376Y-67858785D01*
X160758527Y-67839473D01*
X160681479Y-67776241D01*
X160593575Y-67729255D01*
X160498193Y-67700322D01*
X160423854Y-67693000D01*
X160423846Y-67693000D01*
X160399000Y-67690553D01*
X160374154Y-67693000D01*
X136994346Y-67693000D01*
X136969500Y-67690553D01*
X136944654Y-67693000D01*
X136944646Y-67693000D01*
X136870307Y-67700322D01*
X136774925Y-67729255D01*
X136687021Y-67776241D01*
X136609973Y-67839473D01*
X136594128Y-67858780D01*
X135718082Y-68734826D01*
X135427830Y-68614600D01*
X135103064Y-68550000D01*
X134771936Y-68550000D01*
X134447170Y-68614600D01*
X134141248Y-68741317D01*
X133865925Y-68925282D01*
X133631782Y-69159425D01*
X133447817Y-69434748D01*
X133321100Y-69740670D01*
X133256500Y-70065436D01*
X130964130Y-70065436D01*
X130943538Y-70023786D01*
X130568755Y-69832980D01*
X130163949Y-69718956D01*
X129744676Y-69686098D01*
X129327049Y-69735666D01*
X128927117Y-69865757D01*
X128631462Y-70023786D01*
X128475453Y-70339345D01*
X128360761Y-70224653D01*
X128280591Y-70304823D01*
X128227949Y-69756477D01*
X128033130Y-69108494D01*
X127715639Y-68510970D01*
X127706177Y-68496808D01*
X127257481Y-68184624D01*
X125020605Y-70421500D01*
X124661395Y-70421500D01*
X122424519Y-68184624D01*
X121975823Y-68496808D01*
X121868000Y-68697339D01*
X121868000Y-67512000D01*
X122996079Y-67512000D01*
X122930470Y-67546861D01*
%TA.AperFunction,Conductor*%
D22*
G36*
X122930470Y-67546861D02*
G01*
X122916308Y-67556323D01*
X122604124Y-68005019D01*
X124841000Y-70241895D01*
X127077876Y-68005019D01*
X126765692Y-67556323D01*
X126683259Y-67512000D01*
X174804001Y-67512000D01*
X174804000Y-69110398D01*
X174804001Y-69110408D01*
X174804001Y-80581755D01*
X174773685Y-80544815D01*
X174676994Y-80465463D01*
X174566680Y-80406498D01*
X174446982Y-80370188D01*
X174322500Y-80357928D01*
X173958250Y-80361000D01*
X173799500Y-80519750D01*
X173799500Y-81219000D01*
X173819500Y-81219000D01*
X173819500Y-81473000D01*
X173799500Y-81473000D01*
X173799500Y-82172250D01*
X173958250Y-82331000D01*
X174322500Y-82334072D01*
X174446982Y-82321812D01*
X174566680Y-82285502D01*
X174676994Y-82226537D01*
X174773685Y-82147185D01*
X174804001Y-82110245D01*
X174804000Y-98660596D01*
X174642139Y-98355970D01*
X174632677Y-98341808D01*
X174183981Y-98029624D01*
X171947105Y-100266500D01*
X174183981Y-102503376D01*
X174632677Y-102191192D01*
X174804000Y-101872562D01*
X174804000Y-103176000D01*
X173612421Y-103176000D01*
X173678030Y-103141139D01*
X173692192Y-103131677D01*
X174004376Y-102682981D01*
X171767500Y-100446105D01*
X169530624Y-102682981D01*
X169842808Y-103131677D01*
X169925241Y-103176000D01*
X126566413Y-103176000D01*
X126751530Y-103077639D01*
X126765692Y-103068177D01*
X127077876Y-102619481D01*
X124841000Y-100382605D01*
X122604124Y-102619481D01*
X122916308Y-103068177D01*
X123116839Y-103176000D01*
X121868000Y-103176000D01*
X121868000Y-101928413D01*
X121966361Y-102113530D01*
X121975823Y-102127692D01*
X122424519Y-102439876D01*
X124661395Y-100203000D01*
X125020605Y-100203000D01*
X127257481Y-102439876D01*
X127706177Y-102127692D01*
X128026612Y-101531741D01*
X128224626Y-100884727D01*
X128292610Y-100211516D01*
X128227949Y-99537977D01*
X128033130Y-98889994D01*
X127715639Y-98292470D01*
X127706177Y-98278308D01*
X127257481Y-97966124D01*
X125020605Y-100203000D01*
X124661395Y-100203000D01*
X122424519Y-97966124D01*
X121975823Y-98278308D01*
X121868000Y-98478839D01*
X121868000Y-97786519D01*
X122604124Y-97786519D01*
X124841000Y-100023395D01*
X127077876Y-97786519D01*
X126765692Y-97337823D01*
X126169741Y-97017388D01*
X125522727Y-96819374D01*
X124849516Y-96751390D01*
X124175977Y-96816051D01*
X123527994Y-97010870D01*
X122930470Y-97328361D01*
X122916308Y-97337823D01*
X122604124Y-97786519D01*
X121868000Y-97786519D01*
X121868000Y-95204500D01*
X128395157Y-95204500D01*
X128395157Y-96174500D01*
X128402513Y-96249189D01*
X128424299Y-96321008D01*
X128428838Y-96329500D01*
X128424299Y-96337992D01*
X128402513Y-96409811D01*
X128395157Y-96484500D01*
X128395157Y-97454500D01*
X128402513Y-97529189D01*
X128424299Y-97601008D01*
X128459678Y-97667196D01*
X128507289Y-97725211D01*
X128565304Y-97772822D01*
X128631492Y-97808201D01*
X128703311Y-97829987D01*
X128778000Y-97837343D01*
X128937118Y-97837343D01*
X128943255Y-97857574D01*
X128963398Y-97895258D01*
X128990242Y-97945479D01*
X129053474Y-98022527D01*
X129072780Y-98038371D01*
X129799628Y-98765220D01*
X129815473Y-98784527D01*
X129892521Y-98847759D01*
X129971537Y-98889994D01*
X129980425Y-98894745D01*
X130075807Y-98923678D01*
X130175000Y-98933448D01*
X130199854Y-98931000D01*
X132753654Y-98931000D01*
X132778500Y-98933447D01*
X132803346Y-98931000D01*
X132803354Y-98931000D01*
X132877693Y-98923678D01*
X132973075Y-98894745D01*
X133060979Y-98847759D01*
X133138027Y-98784527D01*
X133153876Y-98765215D01*
X133801220Y-98117872D01*
X133820527Y-98102027D01*
X133883759Y-98024979D01*
X133911894Y-97972343D01*
X133961000Y-97972343D01*
X134035689Y-97964987D01*
X134107508Y-97943201D01*
X134114000Y-97939731D01*
X134114001Y-99860644D01*
X134111553Y-99885500D01*
X134121322Y-99984692D01*
X134150255Y-100080074D01*
X134153901Y-100086895D01*
X134197242Y-100167979D01*
X134260474Y-100245027D01*
X134279780Y-100260871D01*
X134943128Y-100924220D01*
X134958973Y-100943527D01*
X135036021Y-101006759D01*
X135123925Y-101053745D01*
X135219306Y-101082678D01*
X135229194Y-101083652D01*
X135293646Y-101090000D01*
X135293653Y-101090000D01*
X135318499Y-101092447D01*
X135343345Y-101090000D01*
X142342154Y-101090000D01*
X142367000Y-101092447D01*
X142391846Y-101090000D01*
X142391854Y-101090000D01*
X142466193Y-101082678D01*
X142561575Y-101053745D01*
X142649479Y-101006759D01*
X142726527Y-100943527D01*
X142742376Y-100924215D01*
X143518333Y-100148258D01*
X143595431Y-100180193D01*
X143833257Y-100227500D01*
X144075743Y-100227500D01*
X144313569Y-100180193D01*
X144537597Y-100087398D01*
X144739217Y-99952680D01*
X144910680Y-99781217D01*
X145045398Y-99579597D01*
X145092728Y-99465332D01*
X145150343Y-99627752D01*
X145299322Y-99877855D01*
X145494231Y-100094088D01*
X145727580Y-100268141D01*
X145990401Y-100393325D01*
X146137610Y-100437976D01*
X146367500Y-100316655D01*
X146367500Y-99123500D01*
X146347500Y-99123500D01*
X146347500Y-98869500D01*
X146367500Y-98869500D01*
X146367500Y-98849500D01*
X146621500Y-98849500D01*
X146621500Y-98869500D01*
X146641500Y-98869500D01*
X146641500Y-99123500D01*
X146621500Y-99123500D01*
X146621500Y-100316655D01*
X146851390Y-100437976D01*
X146998599Y-100393325D01*
X147261420Y-100268141D01*
X147494769Y-100094088D01*
X147689678Y-99877855D01*
X147838657Y-99627752D01*
X147896272Y-99465332D01*
X147943602Y-99579597D01*
X148078320Y-99781217D01*
X148249783Y-99952680D01*
X148451403Y-100087398D01*
X148675431Y-100180193D01*
X148913257Y-100227500D01*
X149155743Y-100227500D01*
X149393569Y-100180193D01*
X149617597Y-100087398D01*
X149819217Y-99952680D01*
X149990680Y-99781217D01*
X150125398Y-99579597D01*
X150218193Y-99355569D01*
X150265500Y-99117743D01*
X150265500Y-98875257D01*
X150218193Y-98637431D01*
X150125398Y-98413403D01*
X149990680Y-98211783D01*
X149819217Y-98040320D01*
X149631662Y-97915000D01*
X150977338Y-97915000D01*
X150789783Y-98040320D01*
X150618320Y-98211783D01*
X150483602Y-98413403D01*
X150390807Y-98637431D01*
X150343500Y-98875257D01*
X150343500Y-99117743D01*
X150390807Y-99355569D01*
X150483602Y-99579597D01*
X150618320Y-99781217D01*
X150789783Y-99952680D01*
X150991403Y-100087398D01*
X151215431Y-100180193D01*
X151453257Y-100227500D01*
X151695743Y-100227500D01*
X151933569Y-100180193D01*
X152157597Y-100087398D01*
X152359217Y-99952680D01*
X152530680Y-99781217D01*
X152665398Y-99579597D01*
X152712728Y-99465332D01*
X152770343Y-99627752D01*
X152919322Y-99877855D01*
X153114231Y-100094088D01*
X153347580Y-100268141D01*
X153610401Y-100393325D01*
X153757610Y-100437976D01*
X153987500Y-100316655D01*
X153987500Y-99123500D01*
X153967500Y-99123500D01*
X153967500Y-98869500D01*
X153987500Y-98869500D01*
X153987500Y-97676345D01*
X154241500Y-97676345D01*
X154241500Y-98869500D01*
X154261500Y-98869500D01*
X154261500Y-99123500D01*
X154241500Y-99123500D01*
X154241500Y-100316655D01*
X154471390Y-100437976D01*
X154618599Y-100393325D01*
X154881420Y-100268141D01*
X154895037Y-100257984D01*
X168315890Y-100257984D01*
X168380551Y-100931523D01*
X168575370Y-101579506D01*
X168892861Y-102177030D01*
X168902323Y-102191192D01*
X169351019Y-102503376D01*
X171587895Y-100266500D01*
X169351019Y-98029624D01*
X168902323Y-98341808D01*
X168581888Y-98937759D01*
X168383874Y-99584773D01*
X168315890Y-100257984D01*
X154895037Y-100257984D01*
X155114769Y-100094088D01*
X155309678Y-99877855D01*
X155458657Y-99627752D01*
X155516272Y-99465332D01*
X155563602Y-99579597D01*
X155698320Y-99781217D01*
X155869783Y-99952680D01*
X156071403Y-100087398D01*
X156295431Y-100180193D01*
X156533257Y-100227500D01*
X156775743Y-100227500D01*
X157013569Y-100180193D01*
X157237597Y-100087398D01*
X157439217Y-99952680D01*
X157610680Y-99781217D01*
X157745398Y-99579597D01*
X157838193Y-99355569D01*
X157885500Y-99117743D01*
X157885500Y-98875257D01*
X157838193Y-98637431D01*
X157745398Y-98413403D01*
X157610680Y-98211783D01*
X157545397Y-98146500D01*
X157961657Y-98146500D01*
X157961657Y-99846500D01*
X157969013Y-99921189D01*
X157990799Y-99993008D01*
X158026178Y-100059196D01*
X158073789Y-100117211D01*
X158131804Y-100164822D01*
X158197992Y-100200201D01*
X158269811Y-100221987D01*
X158344500Y-100229343D01*
X160044500Y-100229343D01*
X160119189Y-100221987D01*
X160191008Y-100200201D01*
X160257196Y-100164822D01*
X160315211Y-100117211D01*
X160362822Y-100059196D01*
X160398201Y-99993008D01*
X160419987Y-99921189D01*
X160427343Y-99846500D01*
X160427343Y-99502500D01*
X166853154Y-99502500D01*
X166878000Y-99504947D01*
X166902846Y-99502500D01*
X166902854Y-99502500D01*
X166977193Y-99495178D01*
X167072575Y-99466245D01*
X167160479Y-99419259D01*
X167237527Y-99356027D01*
X167253376Y-99336715D01*
X168740072Y-97850019D01*
X169530624Y-97850019D01*
X171767500Y-100086895D01*
X174004376Y-97850019D01*
X173692192Y-97401323D01*
X173096241Y-97080888D01*
X172449227Y-96882874D01*
X171776016Y-96814890D01*
X171102477Y-96879551D01*
X170454494Y-97074370D01*
X169856970Y-97391861D01*
X169842808Y-97401323D01*
X169530624Y-97850019D01*
X168740072Y-97850019D01*
X174012720Y-92577372D01*
X174032027Y-92561527D01*
X174095259Y-92484479D01*
X174142245Y-92396575D01*
X174171178Y-92301193D01*
X174178500Y-92226854D01*
X174178500Y-92226847D01*
X174180947Y-92202001D01*
X174178500Y-92177155D01*
X174178500Y-83978843D01*
X174322500Y-83978843D01*
X174397189Y-83971487D01*
X174469008Y-83949701D01*
X174535196Y-83914322D01*
X174593211Y-83866711D01*
X174640822Y-83808696D01*
X174676201Y-83742508D01*
X174697987Y-83670689D01*
X174705343Y-83596000D01*
X174705343Y-82896000D01*
X174697987Y-82821311D01*
X174676201Y-82749492D01*
X174640822Y-82683304D01*
X174593211Y-82625289D01*
X174535196Y-82577678D01*
X174469008Y-82542299D01*
X174397189Y-82520513D01*
X174322500Y-82513157D01*
X173022500Y-82513157D01*
X172947811Y-82520513D01*
X172875992Y-82542299D01*
X172809804Y-82577678D01*
X172751789Y-82625289D01*
X172704178Y-82683304D01*
X172688250Y-82713103D01*
X172672322Y-82683304D01*
X172624711Y-82625289D01*
X172566696Y-82577678D01*
X172500508Y-82542299D01*
X172428689Y-82520513D01*
X172354000Y-82513157D01*
X171054000Y-82513157D01*
X170979311Y-82520513D01*
X170907492Y-82542299D01*
X170841304Y-82577678D01*
X170783289Y-82625289D01*
X170735678Y-82683304D01*
X170719750Y-82713103D01*
X170703822Y-82683304D01*
X170656211Y-82625289D01*
X170598196Y-82577678D01*
X170532008Y-82542299D01*
X170460189Y-82520513D01*
X170385500Y-82513157D01*
X169085500Y-82513157D01*
X169010811Y-82520513D01*
X168938992Y-82542299D01*
X168872804Y-82577678D01*
X168814789Y-82625289D01*
X168767178Y-82683304D01*
X168731799Y-82749492D01*
X168710013Y-82821311D01*
X168702657Y-82896000D01*
X168702657Y-83596000D01*
X168710013Y-83670689D01*
X168731799Y-83742508D01*
X168767178Y-83808696D01*
X168814789Y-83866711D01*
X168872804Y-83914322D01*
X168938992Y-83949701D01*
X169010811Y-83971487D01*
X169085500Y-83978843D01*
X170385500Y-83978843D01*
X170460189Y-83971487D01*
X170532008Y-83949701D01*
X170598196Y-83914322D01*
X170656211Y-83866711D01*
X170703822Y-83808696D01*
X170719750Y-83778897D01*
X170735678Y-83808696D01*
X170783289Y-83866711D01*
X170841304Y-83914322D01*
X170907492Y-83949701D01*
X170979311Y-83971487D01*
X171054000Y-83978843D01*
X172354000Y-83978843D01*
X172428689Y-83971487D01*
X172500508Y-83949701D01*
X172566696Y-83914322D01*
X172624711Y-83866711D01*
X172672322Y-83808696D01*
X172688250Y-83778897D01*
X172704178Y-83808696D01*
X172751789Y-83866711D01*
X172809804Y-83914322D01*
X172875992Y-83949701D01*
X172947811Y-83971487D01*
X173022500Y-83978843D01*
X173166501Y-83978843D01*
X173166500Y-91992408D01*
X166668409Y-98490500D01*
X160427343Y-98490500D01*
X160427343Y-98146500D01*
X160419987Y-98071811D01*
X160398201Y-97999992D01*
X160362822Y-97933804D01*
X160315211Y-97875789D01*
X160257196Y-97828178D01*
X160191008Y-97792799D01*
X160119189Y-97771013D01*
X160044500Y-97763657D01*
X158344500Y-97763657D01*
X158269811Y-97771013D01*
X158197992Y-97792799D01*
X158131804Y-97828178D01*
X158073789Y-97875789D01*
X158026178Y-97933804D01*
X157990799Y-97999992D01*
X157969013Y-98071811D01*
X157961657Y-98146500D01*
X157545397Y-98146500D01*
X157439217Y-98040320D01*
X157237597Y-97905602D01*
X157013569Y-97812807D01*
X156775743Y-97765500D01*
X156533257Y-97765500D01*
X156295431Y-97812807D01*
X156071403Y-97905602D01*
X155869783Y-98040320D01*
X155698320Y-98211783D01*
X155563602Y-98413403D01*
X155516272Y-98527668D01*
X155458657Y-98365248D01*
X155309678Y-98115145D01*
X155114769Y-97898912D01*
X154881420Y-97724859D01*
X154618599Y-97599675D01*
X154471390Y-97555024D01*
X154241500Y-97676345D01*
X153987500Y-97676345D01*
X153757610Y-97555024D01*
X153610401Y-97599675D01*
X153514000Y-97645592D01*
X154324092Y-96835500D01*
X161963654Y-96835500D01*
X161988500Y-96837947D01*
X162013346Y-96835500D01*
X162013354Y-96835500D01*
X162087693Y-96828178D01*
X162183075Y-96799245D01*
X162270979Y-96752259D01*
X162348027Y-96689027D01*
X162363876Y-96669715D01*
X166202220Y-92831372D01*
X166221527Y-92815527D01*
X166284759Y-92738479D01*
X166331745Y-92650575D01*
X166360678Y-92555193D01*
X166368000Y-92480854D01*
X166368000Y-92480847D01*
X166370447Y-92456001D01*
X166368000Y-92431155D01*
X166368000Y-91671932D01*
X166385914Y-91761992D01*
X166497555Y-92031517D01*
X166659632Y-92274083D01*
X166865917Y-92480368D01*
X167108483Y-92642445D01*
X167378008Y-92754086D01*
X167664134Y-92811000D01*
X167955866Y-92811000D01*
X168241992Y-92754086D01*
X168511517Y-92642445D01*
X168754083Y-92480368D01*
X168960368Y-92274083D01*
X169122445Y-92031517D01*
X169234086Y-91761992D01*
X169291000Y-91475866D01*
X169291000Y-91184134D01*
X169234086Y-90898008D01*
X169122445Y-90628483D01*
X168960368Y-90385917D01*
X168754083Y-90179632D01*
X168511517Y-90017555D01*
X168241992Y-89905914D01*
X167955866Y-89849000D01*
X167664134Y-89849000D01*
X167378008Y-89905914D01*
X167108483Y-90017555D01*
X166865917Y-90179632D01*
X166659632Y-90385917D01*
X166497555Y-90628483D01*
X166385914Y-90898008D01*
X166368000Y-90988068D01*
X166368000Y-90062091D01*
X168297720Y-88132372D01*
X168317027Y-88116527D01*
X168380259Y-88039479D01*
X168427245Y-87951575D01*
X168456178Y-87856193D01*
X168463500Y-87781854D01*
X168465948Y-87757000D01*
X168463500Y-87732146D01*
X168463500Y-87322158D01*
X170229000Y-87322158D01*
X170229001Y-90257843D01*
X170248983Y-90460723D01*
X170327950Y-90721043D01*
X170456186Y-90960955D01*
X170628762Y-91171239D01*
X170839046Y-91343815D01*
X171078958Y-91472051D01*
X171339278Y-91551018D01*
X171610000Y-91577682D01*
X171880723Y-91551018D01*
X172141043Y-91472051D01*
X172380955Y-91343815D01*
X172591239Y-91171239D01*
X172763815Y-90960955D01*
X172892051Y-90721043D01*
X172971018Y-90460723D01*
X172991000Y-90257843D01*
X172991000Y-87322157D01*
X172971018Y-87119277D01*
X172892051Y-86858957D01*
X172763815Y-86619045D01*
X172591238Y-86408761D01*
X172380954Y-86236185D01*
X172141042Y-86107949D01*
X171880722Y-86028982D01*
X171610000Y-86002318D01*
X171339277Y-86028982D01*
X171078957Y-86107949D01*
X170839045Y-86236185D01*
X170628761Y-86408762D01*
X170456185Y-86619046D01*
X170327949Y-86858958D01*
X170248982Y-87119278D01*
X170229000Y-87322158D01*
X168463500Y-87322158D01*
X168463500Y-82251591D01*
X168784855Y-81930236D01*
X168814789Y-81966711D01*
X168872804Y-82014322D01*
X168938992Y-82049701D01*
X169010811Y-82071487D01*
X169085500Y-82078843D01*
X170385500Y-82078843D01*
X170460189Y-82071487D01*
X170532008Y-82049701D01*
X170598196Y-82014322D01*
X170656211Y-81966711D01*
X170703822Y-81908696D01*
X170719750Y-81878897D01*
X170735678Y-81908696D01*
X170783289Y-81966711D01*
X170841304Y-82014322D01*
X170907492Y-82049701D01*
X170979311Y-82071487D01*
X171054000Y-82078843D01*
X172354000Y-82078843D01*
X172428689Y-82071487D01*
X172493145Y-82051934D01*
X172571315Y-82147185D01*
X172668006Y-82226537D01*
X172778320Y-82285502D01*
X172898018Y-82321812D01*
X173022500Y-82334072D01*
X173386750Y-82331000D01*
X173545500Y-82172250D01*
X173545500Y-81473000D01*
X173525500Y-81473000D01*
X173525500Y-81219000D01*
X173545500Y-81219000D01*
X173545500Y-80519750D01*
X173386750Y-80361000D01*
X173022500Y-80357928D01*
X172898018Y-80370188D01*
X172778320Y-80406498D01*
X172668006Y-80465463D01*
X172571315Y-80544815D01*
X172493145Y-80640066D01*
X172428689Y-80620513D01*
X172354000Y-80613157D01*
X172210000Y-80613157D01*
X172210000Y-80410091D01*
X173441220Y-79178872D01*
X173460527Y-79163027D01*
X173523759Y-79085979D01*
X173570745Y-78998075D01*
X173599678Y-78902693D01*
X173607000Y-78828354D01*
X173607000Y-78828347D01*
X173609447Y-78803501D01*
X173607000Y-78778655D01*
X173607000Y-77886790D01*
X173873568Y-77776374D01*
X174140702Y-77597881D01*
X174367881Y-77370702D01*
X174546374Y-77103568D01*
X174669322Y-76806745D01*
X174732000Y-76491640D01*
X174732000Y-76170360D01*
X174669322Y-75855255D01*
X174546374Y-75558432D01*
X174367881Y-75291298D01*
X174140702Y-75064119D01*
X173873568Y-74885626D01*
X173576745Y-74762678D01*
X173261640Y-74700000D01*
X172940360Y-74700000D01*
X172625255Y-74762678D01*
X172328432Y-74885626D01*
X172061298Y-75064119D01*
X171834119Y-75291298D01*
X171655626Y-75558432D01*
X171532678Y-75855255D01*
X171470000Y-76170360D01*
X171470000Y-76491640D01*
X171532678Y-76806745D01*
X171655626Y-77103568D01*
X171834119Y-77370702D01*
X172061298Y-77597881D01*
X172328432Y-77776374D01*
X172595001Y-77886790D01*
X172595001Y-78593907D01*
X171363785Y-79825124D01*
X171344473Y-79840973D01*
X171281241Y-79918021D01*
X171234255Y-80005926D01*
X171205322Y-80101308D01*
X171198000Y-80175647D01*
X171198000Y-80175654D01*
X171195553Y-80200500D01*
X171198000Y-80225347D01*
X171198000Y-80613157D01*
X171054000Y-80613157D01*
X170979311Y-80620513D01*
X170907492Y-80642299D01*
X170841304Y-80677678D01*
X170783289Y-80725289D01*
X170735678Y-80783304D01*
X170719750Y-80813103D01*
X170703822Y-80783304D01*
X170656211Y-80725289D01*
X170598196Y-80677678D01*
X170532008Y-80642299D01*
X170460189Y-80620513D01*
X170385500Y-80613157D01*
X170241500Y-80613157D01*
X170241500Y-79775091D01*
X171028220Y-78988372D01*
X171047527Y-78972527D01*
X171110759Y-78895479D01*
X171157745Y-78807575D01*
X171186678Y-78712193D01*
X171194000Y-78637854D01*
X171194000Y-78637847D01*
X171196447Y-78613001D01*
X171194000Y-78588155D01*
X171194000Y-74123591D01*
X172358686Y-72958906D01*
X172625255Y-73069322D01*
X172940360Y-73132000D01*
X173261640Y-73132000D01*
X173576745Y-73069322D01*
X173873568Y-72946374D01*
X174140702Y-72767881D01*
X174367881Y-72540702D01*
X174546374Y-72273568D01*
X174669322Y-71976745D01*
X174732000Y-71661640D01*
X174732000Y-71340360D01*
X174669322Y-71025255D01*
X174546374Y-70728432D01*
X174367881Y-70461298D01*
X174140702Y-70234119D01*
X173873568Y-70055626D01*
X173576745Y-69932678D01*
X173261640Y-69870000D01*
X172940360Y-69870000D01*
X172625255Y-69932678D01*
X172328432Y-70055626D01*
X172061298Y-70234119D01*
X171834119Y-70461298D01*
X171655626Y-70728432D01*
X171532678Y-71025255D01*
X171470000Y-71340360D01*
X171470000Y-71661640D01*
X171532678Y-71976745D01*
X171643094Y-72243314D01*
X170347781Y-73538628D01*
X170328474Y-73554473D01*
X170265242Y-73631521D01*
X170246396Y-73666779D01*
X170218255Y-73719426D01*
X170189322Y-73814808D01*
X170179553Y-73914000D01*
X170182001Y-73938856D01*
X170182000Y-78403408D01*
X169395280Y-79190129D01*
X169375974Y-79205973D01*
X169312742Y-79283021D01*
X169297280Y-79311948D01*
X169265755Y-79370926D01*
X169236822Y-79466308D01*
X169227053Y-79565500D01*
X169229501Y-79590356D01*
X169229500Y-80613157D01*
X169085500Y-80613157D01*
X169010811Y-80620513D01*
X168938992Y-80642299D01*
X168872804Y-80677678D01*
X168814789Y-80725289D01*
X168767178Y-80783304D01*
X168736873Y-80840000D01*
X168678354Y-80840000D01*
X168653500Y-80837552D01*
X168628646Y-80840000D01*
X168554307Y-80847322D01*
X168458925Y-80876255D01*
X168371021Y-80923241D01*
X168293973Y-80986473D01*
X168278128Y-81005780D01*
X167617285Y-81666624D01*
X167597973Y-81682473D01*
X167534741Y-81759521D01*
X167487755Y-81847426D01*
X167458822Y-81942808D01*
X167451500Y-82017147D01*
X167451500Y-82017154D01*
X167449053Y-82042000D01*
X167451500Y-82066846D01*
X167451501Y-87547407D01*
X165521785Y-89477124D01*
X165502473Y-89492973D01*
X165439241Y-89570021D01*
X165392255Y-89657926D01*
X165363322Y-89753308D01*
X165356000Y-89827647D01*
X165356000Y-89827654D01*
X165353553Y-89852500D01*
X165356000Y-89877346D01*
X165356000Y-90733635D01*
X165312445Y-90628483D01*
X165150368Y-90385917D01*
X164944083Y-90179632D01*
X164701517Y-90017555D01*
X164431992Y-89905914D01*
X164145866Y-89849000D01*
X163854134Y-89849000D01*
X163568008Y-89905914D01*
X163298483Y-90017555D01*
X163055917Y-90179632D01*
X162849632Y-90385917D01*
X162687555Y-90628483D01*
X162575914Y-90898008D01*
X162519000Y-91184134D01*
X162519000Y-91475866D01*
X162575914Y-91761992D01*
X162687555Y-92031517D01*
X162849632Y-92274083D01*
X163055917Y-92480368D01*
X163298483Y-92642445D01*
X163568008Y-92754086D01*
X163854134Y-92811000D01*
X164145866Y-92811000D01*
X164431992Y-92754086D01*
X164701517Y-92642445D01*
X164944083Y-92480368D01*
X165150368Y-92274083D01*
X165312445Y-92031517D01*
X165356001Y-91926364D01*
X165356001Y-92246407D01*
X161778909Y-95823500D01*
X159398347Y-95823500D01*
X159401843Y-95788000D01*
X159401843Y-95088000D01*
X159394487Y-95013311D01*
X159372701Y-94941492D01*
X159337322Y-94875304D01*
X159289711Y-94817289D01*
X159231696Y-94769678D01*
X159165508Y-94734299D01*
X159093689Y-94712513D01*
X159019000Y-94705157D01*
X157719000Y-94705157D01*
X157644311Y-94712513D01*
X157572492Y-94734299D01*
X157506304Y-94769678D01*
X157448289Y-94817289D01*
X157400678Y-94875304D01*
X157384750Y-94905103D01*
X157368822Y-94875304D01*
X157321211Y-94817289D01*
X157263196Y-94769678D01*
X157197008Y-94734299D01*
X157125189Y-94712513D01*
X157050500Y-94705157D01*
X156383249Y-94705157D01*
X155948934Y-94270843D01*
X157050500Y-94270843D01*
X157125189Y-94263487D01*
X157189645Y-94243934D01*
X157267815Y-94339185D01*
X157364506Y-94418537D01*
X157474820Y-94477502D01*
X157594518Y-94513812D01*
X157719000Y-94526072D01*
X158083250Y-94523000D01*
X158242000Y-94364250D01*
X158242000Y-93665000D01*
X158496000Y-93665000D01*
X158496000Y-94364250D01*
X158654750Y-94523000D01*
X159019000Y-94526072D01*
X159143482Y-94513812D01*
X159263180Y-94477502D01*
X159373494Y-94418537D01*
X159470185Y-94339185D01*
X159549537Y-94242494D01*
X159608502Y-94132180D01*
X159644812Y-94012482D01*
X159657072Y-93888000D01*
X159654000Y-93823750D01*
X159495250Y-93665000D01*
X158496000Y-93665000D01*
X158242000Y-93665000D01*
X158222000Y-93665000D01*
X158222000Y-93411000D01*
X158242000Y-93411000D01*
X158242000Y-92711750D01*
X158083250Y-92553000D01*
X157719000Y-92549928D01*
X157594518Y-92562188D01*
X157474820Y-92598498D01*
X157364506Y-92657463D01*
X157267815Y-92736815D01*
X157189645Y-92832066D01*
X157125189Y-92812513D01*
X157050500Y-92805157D01*
X156906500Y-92805157D01*
X156906500Y-92714939D01*
X157081517Y-92642445D01*
X157324083Y-92480368D01*
X157530368Y-92274083D01*
X157692445Y-92031517D01*
X157804086Y-91761992D01*
X157861000Y-91475866D01*
X157861000Y-91388639D01*
X158447591Y-91388639D01*
X158492511Y-91727439D01*
X158602664Y-92050966D01*
X158708662Y-92249274D01*
X158983286Y-92357106D01*
X158867864Y-92472528D01*
X158945881Y-92550545D01*
X158654750Y-92553000D01*
X158496000Y-92711750D01*
X158496000Y-93411000D01*
X159495250Y-93411000D01*
X159654000Y-93252250D01*
X159657072Y-93188000D01*
X159644812Y-93063518D01*
X159617316Y-92972877D01*
X159907585Y-93050369D01*
X160248639Y-93072409D01*
X160587439Y-93027489D01*
X160910966Y-92917336D01*
X161109274Y-92811338D01*
X161217107Y-92536712D01*
X160190000Y-91509605D01*
X160175858Y-91523748D01*
X159996253Y-91344143D01*
X160010395Y-91330000D01*
X160369605Y-91330000D01*
X161396712Y-92357107D01*
X161671338Y-92249274D01*
X161822216Y-91942616D01*
X161910369Y-91612415D01*
X161932409Y-91271361D01*
X161887489Y-90932561D01*
X161777336Y-90609034D01*
X161671338Y-90410726D01*
X161396712Y-90302893D01*
X160369605Y-91330000D01*
X160010395Y-91330000D01*
X158983288Y-90302893D01*
X158708662Y-90410726D01*
X158557784Y-90717384D01*
X158469631Y-91047585D01*
X158447591Y-91388639D01*
X157861000Y-91388639D01*
X157861000Y-91184134D01*
X157804086Y-90898008D01*
X157692445Y-90628483D01*
X157530368Y-90385917D01*
X157324083Y-90179632D01*
X157239759Y-90123288D01*
X159162893Y-90123288D01*
X160190000Y-91150395D01*
X161217107Y-90123288D01*
X161109274Y-89848662D01*
X160802616Y-89697784D01*
X160472415Y-89609631D01*
X160131361Y-89587591D01*
X159792561Y-89632511D01*
X159469034Y-89742664D01*
X159270726Y-89848662D01*
X159162893Y-90123288D01*
X157239759Y-90123288D01*
X157081517Y-90017555D01*
X156811992Y-89905914D01*
X156525866Y-89849000D01*
X156234134Y-89849000D01*
X155948008Y-89905914D01*
X155678483Y-90017555D01*
X155435917Y-90179632D01*
X155229632Y-90385917D01*
X155067555Y-90628483D01*
X154955914Y-90898008D01*
X154899000Y-91184134D01*
X154899000Y-91475866D01*
X154955914Y-91761992D01*
X155067555Y-92031517D01*
X155229632Y-92274083D01*
X155435917Y-92480368D01*
X155678483Y-92642445D01*
X155894500Y-92731922D01*
X155894500Y-92805157D01*
X155750500Y-92805157D01*
X155675811Y-92812513D01*
X155603992Y-92834299D01*
X155537804Y-92869678D01*
X155479789Y-92917289D01*
X155432178Y-92975304D01*
X155396799Y-93041492D01*
X155375013Y-93113311D01*
X155367657Y-93188000D01*
X155367657Y-93520948D01*
X155319196Y-93481178D01*
X155253008Y-93445799D01*
X155181189Y-93424013D01*
X155106500Y-93416657D01*
X154106500Y-93416657D01*
X154031811Y-93424013D01*
X153959992Y-93445799D01*
X153893804Y-93481178D01*
X153835789Y-93528789D01*
X153788178Y-93586804D01*
X153752799Y-93652992D01*
X153731013Y-93724811D01*
X153723657Y-93799500D01*
X153723657Y-95049500D01*
X153731013Y-95124189D01*
X153752799Y-95196008D01*
X153788178Y-95262196D01*
X153835789Y-95320211D01*
X153893804Y-95367822D01*
X153959992Y-95403201D01*
X154031811Y-95424987D01*
X154106500Y-95432343D01*
X155106500Y-95432343D01*
X155181189Y-95424987D01*
X155253008Y-95403201D01*
X155319196Y-95367822D01*
X155367657Y-95328052D01*
X155367657Y-95788000D01*
X155371153Y-95823500D01*
X154139345Y-95823500D01*
X154114499Y-95821053D01*
X154089653Y-95823500D01*
X154089646Y-95823500D01*
X154025194Y-95829848D01*
X154015306Y-95830822D01*
X154004899Y-95833979D01*
X153919925Y-95859755D01*
X153832021Y-95906741D01*
X153754973Y-95969973D01*
X153739129Y-95989279D01*
X151918583Y-97809826D01*
X151695743Y-97765500D01*
X151453257Y-97765500D01*
X151338369Y-97788353D01*
X151362527Y-97768527D01*
X151378376Y-97749215D01*
X152946720Y-96180872D01*
X152966027Y-96165027D01*
X153029259Y-96087979D01*
X153076245Y-96000075D01*
X153104253Y-95907744D01*
X153105178Y-95904694D01*
X153109604Y-95859755D01*
X153112500Y-95830354D01*
X153112500Y-95830347D01*
X153114947Y-95805501D01*
X153112500Y-95780655D01*
X153112500Y-95431752D01*
X153181189Y-95424987D01*
X153253008Y-95403201D01*
X153319196Y-95367822D01*
X153377211Y-95320211D01*
X153424822Y-95262196D01*
X153460201Y-95196008D01*
X153481987Y-95124189D01*
X153489343Y-95049500D01*
X153489343Y-93799500D01*
X153481987Y-93724811D01*
X153460201Y-93652992D01*
X153424822Y-93586804D01*
X153377211Y-93528789D01*
X153319196Y-93481178D01*
X153253008Y-93445799D01*
X153181189Y-93424013D01*
X153106500Y-93416657D01*
X152106500Y-93416657D01*
X152031811Y-93424013D01*
X151959992Y-93445799D01*
X151893804Y-93481178D01*
X151835789Y-93528789D01*
X151828230Y-93538000D01*
X150876000Y-93538000D01*
X150876000Y-94237250D01*
X151034750Y-94396000D01*
X151399000Y-94399072D01*
X151523482Y-94386812D01*
X151643180Y-94350502D01*
X151723657Y-94307485D01*
X151723657Y-94760156D01*
X151717322Y-94748304D01*
X151669711Y-94690289D01*
X151611696Y-94642678D01*
X151545508Y-94607299D01*
X151473689Y-94585513D01*
X151399000Y-94578157D01*
X150099000Y-94578157D01*
X150024311Y-94585513D01*
X149952492Y-94607299D01*
X149886304Y-94642678D01*
X149828289Y-94690289D01*
X149780678Y-94748304D01*
X149764750Y-94778103D01*
X149748822Y-94748304D01*
X149701211Y-94690289D01*
X149643196Y-94642678D01*
X149577008Y-94607299D01*
X149505189Y-94585513D01*
X149430500Y-94578157D01*
X148763249Y-94578157D01*
X148328934Y-94143843D01*
X149430500Y-94143843D01*
X149505189Y-94136487D01*
X149569645Y-94116934D01*
X149647815Y-94212185D01*
X149744506Y-94291537D01*
X149854820Y-94350502D01*
X149974518Y-94386812D01*
X150099000Y-94399072D01*
X150463250Y-94396000D01*
X150622000Y-94237250D01*
X150622000Y-93538000D01*
X150602000Y-93538000D01*
X150602000Y-93284000D01*
X150622000Y-93284000D01*
X150622000Y-92584750D01*
X150463250Y-92426000D01*
X150099000Y-92422928D01*
X149974518Y-92435188D01*
X149854820Y-92471498D01*
X149744506Y-92530463D01*
X149647815Y-92609815D01*
X149569645Y-92705066D01*
X149505189Y-92685513D01*
X149430500Y-92678157D01*
X149375301Y-92678157D01*
X149461517Y-92642445D01*
X149704083Y-92480368D01*
X149910368Y-92274083D01*
X150072445Y-92031517D01*
X150184086Y-91761992D01*
X150241000Y-91475866D01*
X150241000Y-91388639D01*
X150827591Y-91388639D01*
X150872511Y-91727439D01*
X150982664Y-92050966D01*
X151088662Y-92249274D01*
X151363286Y-92357106D01*
X151296600Y-92423792D01*
X151034750Y-92426000D01*
X150876000Y-92584750D01*
X150876000Y-93284000D01*
X151875250Y-93284000D01*
X152034000Y-93125250D01*
X152037072Y-93061000D01*
X152029232Y-92981397D01*
X152287585Y-93050369D01*
X152628639Y-93072409D01*
X152967439Y-93027489D01*
X153290966Y-92917336D01*
X153489274Y-92811338D01*
X153597107Y-92536712D01*
X152570000Y-91509605D01*
X152555858Y-91523748D01*
X152376253Y-91344143D01*
X152390395Y-91330000D01*
X152749605Y-91330000D01*
X153776712Y-92357107D01*
X154051338Y-92249274D01*
X154202216Y-91942616D01*
X154290369Y-91612415D01*
X154312409Y-91271361D01*
X154267489Y-90932561D01*
X154157336Y-90609034D01*
X154051338Y-90410726D01*
X153776712Y-90302893D01*
X152749605Y-91330000D01*
X152390395Y-91330000D01*
X151363288Y-90302893D01*
X151088662Y-90410726D01*
X150937784Y-90717384D01*
X150849631Y-91047585D01*
X150827591Y-91388639D01*
X150241000Y-91388639D01*
X150241000Y-91184134D01*
X150184086Y-90898008D01*
X150072445Y-90628483D01*
X149910368Y-90385917D01*
X149704083Y-90179632D01*
X149619759Y-90123288D01*
X151542893Y-90123288D01*
X152570000Y-91150395D01*
X153597107Y-90123288D01*
X153489274Y-89848662D01*
X153182616Y-89697784D01*
X152852415Y-89609631D01*
X152511361Y-89587591D01*
X152172561Y-89632511D01*
X151849034Y-89742664D01*
X151650726Y-89848662D01*
X151542893Y-90123288D01*
X149619759Y-90123288D01*
X149461517Y-90017555D01*
X149191992Y-89905914D01*
X148905866Y-89849000D01*
X148614134Y-89849000D01*
X148328008Y-89905914D01*
X148058483Y-90017555D01*
X147815917Y-90179632D01*
X147609632Y-90385917D01*
X147447555Y-90628483D01*
X147335914Y-90898008D01*
X147279000Y-91184134D01*
X147279000Y-91475866D01*
X147335914Y-91761992D01*
X147447555Y-92031517D01*
X147609632Y-92274083D01*
X147815917Y-92480368D01*
X148058483Y-92642445D01*
X148144699Y-92678157D01*
X148130500Y-92678157D01*
X148055811Y-92685513D01*
X147983992Y-92707299D01*
X147917804Y-92742678D01*
X147859789Y-92790289D01*
X147812178Y-92848304D01*
X147776799Y-92914492D01*
X147755013Y-92986311D01*
X147747657Y-93061000D01*
X147747657Y-93520948D01*
X147699196Y-93481178D01*
X147633008Y-93445799D01*
X147561189Y-93424013D01*
X147486500Y-93416657D01*
X146486500Y-93416657D01*
X146411811Y-93424013D01*
X146339992Y-93445799D01*
X146273804Y-93481178D01*
X146215789Y-93528789D01*
X146168178Y-93586804D01*
X146132799Y-93652992D01*
X146111013Y-93724811D01*
X146103657Y-93799500D01*
X146103657Y-95049500D01*
X146111013Y-95124189D01*
X146132799Y-95196008D01*
X146168178Y-95262196D01*
X146215789Y-95320211D01*
X146273804Y-95367822D01*
X146339992Y-95403201D01*
X146411811Y-95424987D01*
X146486500Y-95432343D01*
X147486500Y-95432343D01*
X147561189Y-95424987D01*
X147633008Y-95403201D01*
X147699196Y-95367822D01*
X147747657Y-95328052D01*
X147747657Y-95661000D01*
X147755013Y-95735689D01*
X147776799Y-95807508D01*
X147812178Y-95873696D01*
X147859789Y-95931711D01*
X147917804Y-95979322D01*
X147983992Y-96014701D01*
X148055811Y-96036487D01*
X148130500Y-96043843D01*
X149430500Y-96043843D01*
X149505189Y-96036487D01*
X149577008Y-96014701D01*
X149643196Y-95979322D01*
X149701211Y-95931711D01*
X149748822Y-95873696D01*
X149764750Y-95843897D01*
X149780678Y-95873696D01*
X149828289Y-95931711D01*
X149886304Y-95979322D01*
X149952492Y-96014701D01*
X150024311Y-96036487D01*
X150099000Y-96043843D01*
X151399000Y-96043843D01*
X151473689Y-96036487D01*
X151545508Y-96014701D01*
X151611696Y-95979322D01*
X151669711Y-95931711D01*
X151717322Y-95873696D01*
X151752701Y-95807508D01*
X151774487Y-95735689D01*
X151781843Y-95661000D01*
X151781843Y-95250344D01*
X151788178Y-95262196D01*
X151835789Y-95320211D01*
X151893804Y-95367822D01*
X151959992Y-95403201D01*
X152031811Y-95424987D01*
X152100500Y-95431752D01*
X152100500Y-95595908D01*
X150793409Y-96903000D01*
X144319563Y-96903000D01*
X144363979Y-96879259D01*
X144441027Y-96816027D01*
X144456876Y-96796715D01*
X145326720Y-95926872D01*
X145346027Y-95911027D01*
X145409259Y-95833979D01*
X145456245Y-95746075D01*
X145479162Y-95670526D01*
X145485178Y-95650694D01*
X145486152Y-95640806D01*
X145492500Y-95576354D01*
X145492500Y-95576347D01*
X145494947Y-95551501D01*
X145492500Y-95526655D01*
X145492500Y-95431752D01*
X145561189Y-95424987D01*
X145633008Y-95403201D01*
X145699196Y-95367822D01*
X145757211Y-95320211D01*
X145804822Y-95262196D01*
X145840201Y-95196008D01*
X145861987Y-95124189D01*
X145869343Y-95049500D01*
X145869343Y-93799500D01*
X145861987Y-93724811D01*
X145840201Y-93652992D01*
X145804822Y-93586804D01*
X145757211Y-93528789D01*
X145699196Y-93481178D01*
X145633008Y-93445799D01*
X145561189Y-93424013D01*
X145486500Y-93416657D01*
X144486500Y-93416657D01*
X144411811Y-93424013D01*
X144339992Y-93445799D01*
X144273804Y-93481178D01*
X144215789Y-93528789D01*
X144208230Y-93538000D01*
X143256000Y-93538000D01*
X143256000Y-94237250D01*
X143414750Y-94396000D01*
X143779000Y-94399072D01*
X143903482Y-94386812D01*
X144023180Y-94350502D01*
X144103657Y-94307485D01*
X144103657Y-94760156D01*
X144097322Y-94748304D01*
X144049711Y-94690289D01*
X143991696Y-94642678D01*
X143925508Y-94607299D01*
X143853689Y-94585513D01*
X143779000Y-94578157D01*
X142479000Y-94578157D01*
X142404311Y-94585513D01*
X142332492Y-94607299D01*
X142266304Y-94642678D01*
X142208289Y-94690289D01*
X142160678Y-94748304D01*
X142144750Y-94778103D01*
X142128822Y-94748304D01*
X142081211Y-94690289D01*
X142023196Y-94642678D01*
X141957008Y-94607299D01*
X141885189Y-94585513D01*
X141810500Y-94578157D01*
X141143249Y-94578157D01*
X140708934Y-94143843D01*
X141810500Y-94143843D01*
X141885189Y-94136487D01*
X141949645Y-94116934D01*
X142027815Y-94212185D01*
X142124506Y-94291537D01*
X142234820Y-94350502D01*
X142354518Y-94386812D01*
X142479000Y-94399072D01*
X142843250Y-94396000D01*
X143002000Y-94237250D01*
X143002000Y-93538000D01*
X142982000Y-93538000D01*
X142982000Y-93284000D01*
X143002000Y-93284000D01*
X143002000Y-92584750D01*
X142843250Y-92426000D01*
X142479000Y-92422928D01*
X142354518Y-92435188D01*
X142234820Y-92471498D01*
X142124506Y-92530463D01*
X142027815Y-92609815D01*
X141949645Y-92705066D01*
X141885189Y-92685513D01*
X141810500Y-92678157D01*
X141755301Y-92678157D01*
X141841517Y-92642445D01*
X142084083Y-92480368D01*
X142290368Y-92274083D01*
X142452445Y-92031517D01*
X142564086Y-91761992D01*
X142621000Y-91475866D01*
X142621000Y-91388639D01*
X143207591Y-91388639D01*
X143252511Y-91727439D01*
X143362664Y-92050966D01*
X143468662Y-92249274D01*
X143743286Y-92357106D01*
X143676600Y-92423792D01*
X143414750Y-92426000D01*
X143256000Y-92584750D01*
X143256000Y-93284000D01*
X144255250Y-93284000D01*
X144414000Y-93125250D01*
X144417072Y-93061000D01*
X144409232Y-92981397D01*
X144667585Y-93050369D01*
X145008639Y-93072409D01*
X145347439Y-93027489D01*
X145670966Y-92917336D01*
X145869274Y-92811338D01*
X145977107Y-92536712D01*
X144950000Y-91509605D01*
X144935858Y-91523748D01*
X144756253Y-91344143D01*
X144770395Y-91330000D01*
X145129605Y-91330000D01*
X146156712Y-92357107D01*
X146431338Y-92249274D01*
X146582216Y-91942616D01*
X146670369Y-91612415D01*
X146692409Y-91271361D01*
X146647489Y-90932561D01*
X146537336Y-90609034D01*
X146431338Y-90410726D01*
X146156712Y-90302893D01*
X145129605Y-91330000D01*
X144770395Y-91330000D01*
X143743288Y-90302893D01*
X143468662Y-90410726D01*
X143317784Y-90717384D01*
X143229631Y-91047585D01*
X143207591Y-91388639D01*
X142621000Y-91388639D01*
X142621000Y-91184134D01*
X142564086Y-90898008D01*
X142452445Y-90628483D01*
X142290368Y-90385917D01*
X142084083Y-90179632D01*
X141999759Y-90123288D01*
X143922893Y-90123288D01*
X144950000Y-91150395D01*
X145977107Y-90123288D01*
X145869274Y-89848662D01*
X145562616Y-89697784D01*
X145232415Y-89609631D01*
X144891361Y-89587591D01*
X144552561Y-89632511D01*
X144229034Y-89742664D01*
X144030726Y-89848662D01*
X143922893Y-90123288D01*
X141999759Y-90123288D01*
X141841517Y-90017555D01*
X141571992Y-89905914D01*
X141285866Y-89849000D01*
X140994134Y-89849000D01*
X140708008Y-89905914D01*
X140438483Y-90017555D01*
X140195917Y-90179632D01*
X139989632Y-90385917D01*
X139827555Y-90628483D01*
X139715914Y-90898008D01*
X139659000Y-91184134D01*
X139659000Y-91475866D01*
X139715914Y-91761992D01*
X139827555Y-92031517D01*
X139989632Y-92274083D01*
X140195917Y-92480368D01*
X140438483Y-92642445D01*
X140524699Y-92678157D01*
X140510500Y-92678157D01*
X140435811Y-92685513D01*
X140363992Y-92707299D01*
X140297804Y-92742678D01*
X140239789Y-92790289D01*
X140192178Y-92848304D01*
X140156799Y-92914492D01*
X140135013Y-92986311D01*
X140127657Y-93061000D01*
X140127657Y-93520948D01*
X140079196Y-93481178D01*
X140013008Y-93445799D01*
X139941189Y-93424013D01*
X139866500Y-93416657D01*
X138866500Y-93416657D01*
X138791811Y-93424013D01*
X138719992Y-93445799D01*
X138653804Y-93481178D01*
X138595789Y-93528789D01*
X138548178Y-93586804D01*
X138512799Y-93652992D01*
X138491013Y-93724811D01*
X138483657Y-93799500D01*
X138483657Y-95049500D01*
X138491013Y-95124189D01*
X138512799Y-95196008D01*
X138548178Y-95262196D01*
X138595789Y-95320211D01*
X138653804Y-95367822D01*
X138719992Y-95403201D01*
X138791811Y-95424987D01*
X138866500Y-95432343D01*
X139866500Y-95432343D01*
X139941189Y-95424987D01*
X140013008Y-95403201D01*
X140079196Y-95367822D01*
X140127657Y-95328052D01*
X140127657Y-95661000D01*
X140135013Y-95735689D01*
X140156799Y-95807508D01*
X140192178Y-95873696D01*
X140239789Y-95931711D01*
X140297804Y-95979322D01*
X140363992Y-96014701D01*
X140435811Y-96036487D01*
X140510500Y-96043843D01*
X140992712Y-96043843D01*
X140927973Y-96096973D01*
X140912129Y-96116279D01*
X139218583Y-97809826D01*
X138995743Y-97765500D01*
X138753257Y-97765500D01*
X138515431Y-97812807D01*
X138291403Y-97905602D01*
X138089783Y-98040320D01*
X137918320Y-98211783D01*
X137783602Y-98413403D01*
X137690807Y-98637431D01*
X137643500Y-98875257D01*
X137643500Y-99117743D01*
X137690807Y-99355569D01*
X137783602Y-99579597D01*
X137918320Y-99781217D01*
X138089783Y-99952680D01*
X138277338Y-100078000D01*
X136931662Y-100078000D01*
X137119217Y-99952680D01*
X137290680Y-99781217D01*
X137425398Y-99579597D01*
X137518193Y-99355569D01*
X137565500Y-99117743D01*
X137565500Y-98875257D01*
X137518193Y-98637431D01*
X137425398Y-98413403D01*
X137290680Y-98211783D01*
X137119217Y-98040320D01*
X137079985Y-98014106D01*
X137706720Y-97387372D01*
X137726027Y-97371527D01*
X137789259Y-97294479D01*
X137836245Y-97206575D01*
X137860528Y-97126522D01*
X137865178Y-97111194D01*
X137868805Y-97074370D01*
X137872500Y-97036854D01*
X137872500Y-97036847D01*
X137874947Y-97012001D01*
X137872500Y-96987155D01*
X137872500Y-95431752D01*
X137941189Y-95424987D01*
X138013008Y-95403201D01*
X138079196Y-95367822D01*
X138137211Y-95320211D01*
X138184822Y-95262196D01*
X138220201Y-95196008D01*
X138241987Y-95124189D01*
X138249343Y-95049500D01*
X138249343Y-93799500D01*
X138241987Y-93724811D01*
X138220201Y-93652992D01*
X138184822Y-93586804D01*
X138137211Y-93528789D01*
X138079196Y-93481178D01*
X138013008Y-93445799D01*
X137941189Y-93424013D01*
X137866500Y-93416657D01*
X136866500Y-93416657D01*
X136791811Y-93424013D01*
X136719992Y-93445799D01*
X136653804Y-93481178D01*
X136595789Y-93528789D01*
X136548178Y-93586804D01*
X136512799Y-93652992D01*
X136491013Y-93724811D01*
X136483657Y-93799500D01*
X136483657Y-95049500D01*
X136491013Y-95124189D01*
X136512799Y-95196008D01*
X136548178Y-95262196D01*
X136595789Y-95320211D01*
X136653804Y-95367822D01*
X136719992Y-95403201D01*
X136791811Y-95424987D01*
X136860501Y-95431752D01*
X136860500Y-96802408D01*
X135994280Y-97668629D01*
X135974974Y-97684473D01*
X135911742Y-97761521D01*
X135890001Y-97802196D01*
X135864755Y-97849426D01*
X135861555Y-97859976D01*
X135751403Y-97905602D01*
X135549783Y-98040320D01*
X135378320Y-98211783D01*
X135243602Y-98413403D01*
X135150807Y-98637431D01*
X135126000Y-98762143D01*
X135126000Y-97497345D01*
X135128447Y-97472499D01*
X135126000Y-97447653D01*
X135126000Y-97447646D01*
X135118678Y-97373307D01*
X135089745Y-97277925D01*
X135042759Y-97190021D01*
X134979527Y-97112973D01*
X134960220Y-97097128D01*
X134487376Y-96624285D01*
X134471527Y-96604973D01*
X134394479Y-96541741D01*
X134343843Y-96514675D01*
X134343843Y-96339500D01*
X134336487Y-96264811D01*
X134314701Y-96192992D01*
X134279322Y-96126804D01*
X134231711Y-96068789D01*
X134201314Y-96043843D01*
X134317500Y-96043843D01*
X134392189Y-96036487D01*
X134464008Y-96014701D01*
X134530196Y-95979322D01*
X134588211Y-95931711D01*
X134635822Y-95873696D01*
X134671201Y-95807508D01*
X134692987Y-95735689D01*
X134700343Y-95661000D01*
X134700343Y-94961000D01*
X134692987Y-94886311D01*
X134671201Y-94814492D01*
X134635822Y-94748304D01*
X134588211Y-94690289D01*
X134530196Y-94642678D01*
X134464008Y-94607299D01*
X134392189Y-94585513D01*
X134317500Y-94578157D01*
X133017500Y-94578157D01*
X132942811Y-94585513D01*
X132870992Y-94607299D01*
X132804804Y-94642678D01*
X132746789Y-94690289D01*
X132699178Y-94748304D01*
X132668873Y-94805000D01*
X132634127Y-94805000D01*
X132603822Y-94748304D01*
X132556211Y-94690289D01*
X132498196Y-94642678D01*
X132432008Y-94607299D01*
X132360189Y-94585513D01*
X132285500Y-94578157D01*
X130985500Y-94578157D01*
X130910811Y-94585513D01*
X130838992Y-94607299D01*
X130772804Y-94642678D01*
X130714789Y-94690289D01*
X130667178Y-94748304D01*
X130631799Y-94814492D01*
X130610013Y-94886311D01*
X130602657Y-94961000D01*
X130602657Y-95661000D01*
X130610013Y-95735689D01*
X130631799Y-95807508D01*
X130667178Y-95873696D01*
X130714789Y-95931711D01*
X130772804Y-95979322D01*
X130799707Y-95993702D01*
X130748304Y-96021178D01*
X130690289Y-96068789D01*
X130642678Y-96126804D01*
X130607299Y-96192992D01*
X130585513Y-96264811D01*
X130578157Y-96339500D01*
X130578157Y-97589500D01*
X130585513Y-97664189D01*
X130607299Y-97736008D01*
X130642678Y-97802196D01*
X130690289Y-97860211D01*
X130748304Y-97907822D01*
X130769216Y-97919000D01*
X130384592Y-97919000D01*
X130246175Y-97780584D01*
X130260696Y-97772822D01*
X130318711Y-97725211D01*
X130366322Y-97667196D01*
X130401701Y-97601008D01*
X130423487Y-97529189D01*
X130430843Y-97454500D01*
X130430843Y-96484500D01*
X130423487Y-96409811D01*
X130401701Y-96337992D01*
X130397162Y-96329500D01*
X130401701Y-96321008D01*
X130423487Y-96249189D01*
X130430843Y-96174500D01*
X130430843Y-95204500D01*
X130423487Y-95129811D01*
X130401701Y-95057992D01*
X130366322Y-94991804D01*
X130318711Y-94933789D01*
X130260696Y-94886178D01*
X130194508Y-94850799D01*
X130122689Y-94829013D01*
X130048000Y-94821657D01*
X129919000Y-94821657D01*
X129919000Y-94761091D01*
X130684855Y-93995236D01*
X130714789Y-94031711D01*
X130772804Y-94079322D01*
X130838992Y-94114701D01*
X130910811Y-94136487D01*
X130985500Y-94143843D01*
X132285500Y-94143843D01*
X132360189Y-94136487D01*
X132432008Y-94114701D01*
X132474421Y-94092030D01*
X132486963Y-94115494D01*
X132566315Y-94212185D01*
X132663006Y-94291537D01*
X132773320Y-94350502D01*
X132893018Y-94386812D01*
X133017500Y-94399072D01*
X133381750Y-94396000D01*
X133540500Y-94237250D01*
X133540500Y-93538000D01*
X133794500Y-93538000D01*
X133794500Y-94237250D01*
X133953250Y-94396000D01*
X134317500Y-94399072D01*
X134441982Y-94386812D01*
X134561680Y-94350502D01*
X134671994Y-94291537D01*
X134768685Y-94212185D01*
X134848037Y-94115494D01*
X134907002Y-94005180D01*
X134943312Y-93885482D01*
X134955572Y-93761000D01*
X134952500Y-93696750D01*
X134793750Y-93538000D01*
X133794500Y-93538000D01*
X133540500Y-93538000D01*
X133520500Y-93538000D01*
X133520500Y-93284000D01*
X133540500Y-93284000D01*
X133540500Y-93264000D01*
X133794500Y-93264000D01*
X133794500Y-93284000D01*
X134793750Y-93284000D01*
X134952500Y-93125250D01*
X134955572Y-93061000D01*
X134943312Y-92936518D01*
X134907002Y-92816820D01*
X134848037Y-92706506D01*
X134768685Y-92609815D01*
X134679609Y-92536712D01*
X136302893Y-92536712D01*
X136410726Y-92811338D01*
X136717384Y-92962216D01*
X137047585Y-93050369D01*
X137388639Y-93072409D01*
X137727439Y-93027489D01*
X138050966Y-92917336D01*
X138249274Y-92811338D01*
X138357107Y-92536712D01*
X137330000Y-91509605D01*
X136302893Y-92536712D01*
X134679609Y-92536712D01*
X134671994Y-92530463D01*
X134561680Y-92471498D01*
X134493604Y-92450847D01*
X134670368Y-92274083D01*
X134832445Y-92031517D01*
X134944086Y-91761992D01*
X135001000Y-91475866D01*
X135001000Y-91388639D01*
X135587591Y-91388639D01*
X135632511Y-91727439D01*
X135742664Y-92050966D01*
X135848662Y-92249274D01*
X136123288Y-92357107D01*
X137150395Y-91330000D01*
X137509605Y-91330000D01*
X138536712Y-92357107D01*
X138811338Y-92249274D01*
X138962216Y-91942616D01*
X139050369Y-91612415D01*
X139072409Y-91271361D01*
X139027489Y-90932561D01*
X138917336Y-90609034D01*
X138811338Y-90410726D01*
X138536712Y-90302893D01*
X137509605Y-91330000D01*
X137150395Y-91330000D01*
X136123288Y-90302893D01*
X135848662Y-90410726D01*
X135697784Y-90717384D01*
X135609631Y-91047585D01*
X135587591Y-91388639D01*
X135001000Y-91388639D01*
X135001000Y-91184134D01*
X134944086Y-90898008D01*
X134832445Y-90628483D01*
X134670368Y-90385917D01*
X134464083Y-90179632D01*
X134379759Y-90123288D01*
X136302893Y-90123288D01*
X137330000Y-91150395D01*
X138357107Y-90123288D01*
X138249274Y-89848662D01*
X137942616Y-89697784D01*
X137612415Y-89609631D01*
X137271361Y-89587591D01*
X136932561Y-89632511D01*
X136609034Y-89742664D01*
X136410726Y-89848662D01*
X136302893Y-90123288D01*
X134379759Y-90123288D01*
X134221517Y-90017555D01*
X133951992Y-89905914D01*
X133665866Y-89849000D01*
X133374134Y-89849000D01*
X133088008Y-89905914D01*
X132818483Y-90017555D01*
X132575917Y-90179632D01*
X132369632Y-90385917D01*
X132207555Y-90628483D01*
X132141500Y-90787954D01*
X132141500Y-87630797D01*
X132306517Y-87562445D01*
X132464758Y-87456712D01*
X134387893Y-87456712D01*
X134495726Y-87731338D01*
X134802384Y-87882216D01*
X135132585Y-87970369D01*
X135473639Y-87992409D01*
X135812439Y-87947489D01*
X136135966Y-87837336D01*
X136334274Y-87731338D01*
X136442107Y-87456712D01*
X135415000Y-86429605D01*
X134387893Y-87456712D01*
X132464758Y-87456712D01*
X132549083Y-87400368D01*
X132755368Y-87194083D01*
X132917445Y-86951517D01*
X133029086Y-86681992D01*
X133086000Y-86395866D01*
X133086000Y-86308639D01*
X133672591Y-86308639D01*
X133717511Y-86647439D01*
X133827664Y-86970966D01*
X133933662Y-87169274D01*
X134208288Y-87277107D01*
X135235395Y-86250000D01*
X135594605Y-86250000D01*
X136621712Y-87277107D01*
X136896338Y-87169274D01*
X137047216Y-86862616D01*
X137135369Y-86532415D01*
X137157409Y-86191361D01*
X137145844Y-86104134D01*
X137744000Y-86104134D01*
X137744000Y-86395866D01*
X137800914Y-86681992D01*
X137912555Y-86951517D01*
X138074632Y-87194083D01*
X138280917Y-87400368D01*
X138523483Y-87562445D01*
X138793008Y-87674086D01*
X139079134Y-87731000D01*
X139370866Y-87731000D01*
X139656992Y-87674086D01*
X139926517Y-87562445D01*
X140169083Y-87400368D01*
X140375368Y-87194083D01*
X140537445Y-86951517D01*
X140649086Y-86681992D01*
X140706000Y-86395866D01*
X140706000Y-86104134D01*
X141554000Y-86104134D01*
X141554000Y-86395866D01*
X141610914Y-86681992D01*
X141722555Y-86951517D01*
X141884632Y-87194083D01*
X142090917Y-87400368D01*
X142333483Y-87562445D01*
X142603008Y-87674086D01*
X142889134Y-87731000D01*
X143180866Y-87731000D01*
X143466992Y-87674086D01*
X143736517Y-87562445D01*
X143979083Y-87400368D01*
X144185368Y-87194083D01*
X144347445Y-86951517D01*
X144459086Y-86681992D01*
X144516000Y-86395866D01*
X144516000Y-86104134D01*
X145364000Y-86104134D01*
X145364000Y-86395866D01*
X145420914Y-86681992D01*
X145532555Y-86951517D01*
X145694632Y-87194083D01*
X145900917Y-87400368D01*
X146143483Y-87562445D01*
X146413008Y-87674086D01*
X146699134Y-87731000D01*
X146990866Y-87731000D01*
X147276992Y-87674086D01*
X147546517Y-87562445D01*
X147789083Y-87400368D01*
X147995368Y-87194083D01*
X148157445Y-86951517D01*
X148269086Y-86681992D01*
X148326000Y-86395866D01*
X148326000Y-86104134D01*
X149174000Y-86104134D01*
X149174000Y-86395866D01*
X149230914Y-86681992D01*
X149342555Y-86951517D01*
X149504632Y-87194083D01*
X149710917Y-87400368D01*
X149953483Y-87562445D01*
X150223008Y-87674086D01*
X150509134Y-87731000D01*
X150800866Y-87731000D01*
X151086992Y-87674086D01*
X151356517Y-87562445D01*
X151599083Y-87400368D01*
X151805368Y-87194083D01*
X151967445Y-86951517D01*
X152079086Y-86681992D01*
X152136000Y-86395866D01*
X152136000Y-86104134D01*
X152984000Y-86104134D01*
X152984000Y-86395866D01*
X153040914Y-86681992D01*
X153152555Y-86951517D01*
X153314632Y-87194083D01*
X153520917Y-87400368D01*
X153763483Y-87562445D01*
X154033008Y-87674086D01*
X154319134Y-87731000D01*
X154610866Y-87731000D01*
X154896992Y-87674086D01*
X155166517Y-87562445D01*
X155409083Y-87400368D01*
X155615368Y-87194083D01*
X155777445Y-86951517D01*
X155889086Y-86681992D01*
X155946000Y-86395866D01*
X155946000Y-86104134D01*
X156794000Y-86104134D01*
X156794000Y-86395866D01*
X156850914Y-86681992D01*
X156962555Y-86951517D01*
X157124632Y-87194083D01*
X157330917Y-87400368D01*
X157573483Y-87562445D01*
X157843008Y-87674086D01*
X158129134Y-87731000D01*
X158420866Y-87731000D01*
X158706992Y-87674086D01*
X158976517Y-87562445D01*
X159134758Y-87456712D01*
X161057893Y-87456712D01*
X161165726Y-87731338D01*
X161472384Y-87882216D01*
X161802585Y-87970369D01*
X162143639Y-87992409D01*
X162482439Y-87947489D01*
X162805966Y-87837336D01*
X163004274Y-87731338D01*
X163112107Y-87456712D01*
X162085000Y-86429605D01*
X161057893Y-87456712D01*
X159134758Y-87456712D01*
X159219083Y-87400368D01*
X159425368Y-87194083D01*
X159587445Y-86951517D01*
X159699086Y-86681992D01*
X159756000Y-86395866D01*
X159756000Y-86308639D01*
X160342591Y-86308639D01*
X160387511Y-86647439D01*
X160497664Y-86970966D01*
X160603662Y-87169274D01*
X160878288Y-87277107D01*
X161905395Y-86250000D01*
X162264605Y-86250000D01*
X163291712Y-87277107D01*
X163566338Y-87169274D01*
X163717216Y-86862616D01*
X163805369Y-86532415D01*
X163827409Y-86191361D01*
X163815844Y-86104134D01*
X164414000Y-86104134D01*
X164414000Y-86395866D01*
X164470914Y-86681992D01*
X164582555Y-86951517D01*
X164744632Y-87194083D01*
X164950917Y-87400368D01*
X165193483Y-87562445D01*
X165463008Y-87674086D01*
X165749134Y-87731000D01*
X166040866Y-87731000D01*
X166326992Y-87674086D01*
X166596517Y-87562445D01*
X166839083Y-87400368D01*
X167045368Y-87194083D01*
X167207445Y-86951517D01*
X167319086Y-86681992D01*
X167376000Y-86395866D01*
X167376000Y-86104134D01*
X167319086Y-85818008D01*
X167207445Y-85548483D01*
X167045368Y-85305917D01*
X166839083Y-85099632D01*
X166596517Y-84937555D01*
X166401000Y-84856569D01*
X166401000Y-76170360D01*
X166770000Y-76170360D01*
X166770000Y-76491640D01*
X166832678Y-76806745D01*
X166955626Y-77103568D01*
X167134119Y-77370702D01*
X167361298Y-77597881D01*
X167628432Y-77776374D01*
X167925255Y-77899322D01*
X168240360Y-77962000D01*
X168561640Y-77962000D01*
X168876745Y-77899322D01*
X169173568Y-77776374D01*
X169440702Y-77597881D01*
X169667881Y-77370702D01*
X169846374Y-77103568D01*
X169969322Y-76806745D01*
X170032000Y-76491640D01*
X170032000Y-76170360D01*
X169969322Y-75855255D01*
X169846374Y-75558432D01*
X169667881Y-75291298D01*
X169440702Y-75064119D01*
X169173568Y-74885626D01*
X168876745Y-74762678D01*
X168561640Y-74700000D01*
X168240360Y-74700000D01*
X167925255Y-74762678D01*
X167628432Y-74885626D01*
X167361298Y-75064119D01*
X167134119Y-75291298D01*
X166955626Y-75558432D01*
X166832678Y-75855255D01*
X166770000Y-76170360D01*
X166401000Y-76170360D01*
X166401000Y-74216591D01*
X167658686Y-72958906D01*
X167925255Y-73069322D01*
X168240360Y-73132000D01*
X168561640Y-73132000D01*
X168876745Y-73069322D01*
X169173568Y-72946374D01*
X169440702Y-72767881D01*
X169667881Y-72540702D01*
X169846374Y-72273568D01*
X169969322Y-71976745D01*
X170032000Y-71661640D01*
X170032000Y-71340360D01*
X169969322Y-71025255D01*
X169846374Y-70728432D01*
X169667881Y-70461298D01*
X169440702Y-70234119D01*
X169173568Y-70055626D01*
X168876745Y-69932678D01*
X168561640Y-69870000D01*
X168240360Y-69870000D01*
X167925255Y-69932678D01*
X167628432Y-70055626D01*
X167361298Y-70234119D01*
X167134119Y-70461298D01*
X166955626Y-70728432D01*
X166832678Y-71025255D01*
X166770000Y-71340360D01*
X166770000Y-71661640D01*
X166832678Y-71976745D01*
X166943094Y-72243314D01*
X165554781Y-73631628D01*
X165535474Y-73647473D01*
X165472242Y-73724521D01*
X165447127Y-73771508D01*
X165425255Y-73812426D01*
X165396322Y-73907808D01*
X165386553Y-74007000D01*
X165389001Y-74031856D01*
X165389000Y-84856569D01*
X165193483Y-84937555D01*
X164950917Y-85099632D01*
X164744632Y-85305917D01*
X164582555Y-85548483D01*
X164470914Y-85818008D01*
X164414000Y-86104134D01*
X163815844Y-86104134D01*
X163782489Y-85852561D01*
X163672336Y-85529034D01*
X163566338Y-85330726D01*
X163291712Y-85222893D01*
X162264605Y-86250000D01*
X161905395Y-86250000D01*
X160878288Y-85222893D01*
X160603662Y-85330726D01*
X160452784Y-85637384D01*
X160364631Y-85967585D01*
X160342591Y-86308639D01*
X159756000Y-86308639D01*
X159756000Y-86104134D01*
X159699086Y-85818008D01*
X159587445Y-85548483D01*
X159425368Y-85305917D01*
X159219083Y-85099632D01*
X159134759Y-85043288D01*
X161057893Y-85043288D01*
X162085000Y-86070395D01*
X163112107Y-85043288D01*
X163004274Y-84768662D01*
X162697616Y-84617784D01*
X162367415Y-84529631D01*
X162026361Y-84507591D01*
X161687561Y-84552511D01*
X161364034Y-84662664D01*
X161165726Y-84768662D01*
X161057893Y-85043288D01*
X159134759Y-85043288D01*
X158976517Y-84937555D01*
X158706992Y-84825914D01*
X158420866Y-84769000D01*
X158129134Y-84769000D01*
X157843008Y-84825914D01*
X157573483Y-84937555D01*
X157330917Y-85099632D01*
X157124632Y-85305917D01*
X156962555Y-85548483D01*
X156850914Y-85818008D01*
X156794000Y-86104134D01*
X155946000Y-86104134D01*
X155889086Y-85818008D01*
X155777445Y-85548483D01*
X155615368Y-85305917D01*
X155409083Y-85099632D01*
X155166517Y-84937555D01*
X154896992Y-84825914D01*
X154610866Y-84769000D01*
X154319134Y-84769000D01*
X154033008Y-84825914D01*
X153763483Y-84937555D01*
X153520917Y-85099632D01*
X153314632Y-85305917D01*
X153152555Y-85548483D01*
X153040914Y-85818008D01*
X152984000Y-86104134D01*
X152136000Y-86104134D01*
X152079086Y-85818008D01*
X151967445Y-85548483D01*
X151805368Y-85305917D01*
X151599083Y-85099632D01*
X151356517Y-84937555D01*
X151086992Y-84825914D01*
X150800866Y-84769000D01*
X150509134Y-84769000D01*
X150223008Y-84825914D01*
X149953483Y-84937555D01*
X149710917Y-85099632D01*
X149504632Y-85305917D01*
X149342555Y-85548483D01*
X149230914Y-85818008D01*
X149174000Y-86104134D01*
X148326000Y-86104134D01*
X148269086Y-85818008D01*
X148157445Y-85548483D01*
X147995368Y-85305917D01*
X147789083Y-85099632D01*
X147546517Y-84937555D01*
X147276992Y-84825914D01*
X146990866Y-84769000D01*
X146699134Y-84769000D01*
X146413008Y-84825914D01*
X146143483Y-84937555D01*
X145900917Y-85099632D01*
X145694632Y-85305917D01*
X145532555Y-85548483D01*
X145420914Y-85818008D01*
X145364000Y-86104134D01*
X144516000Y-86104134D01*
X144459086Y-85818008D01*
X144347445Y-85548483D01*
X144185368Y-85305917D01*
X143979083Y-85099632D01*
X143736517Y-84937555D01*
X143466992Y-84825914D01*
X143180866Y-84769000D01*
X142889134Y-84769000D01*
X142603008Y-84825914D01*
X142333483Y-84937555D01*
X142090917Y-85099632D01*
X141884632Y-85305917D01*
X141722555Y-85548483D01*
X141610914Y-85818008D01*
X141554000Y-86104134D01*
X140706000Y-86104134D01*
X140649086Y-85818008D01*
X140537445Y-85548483D01*
X140375368Y-85305917D01*
X140169083Y-85099632D01*
X139926517Y-84937555D01*
X139656992Y-84825914D01*
X139370866Y-84769000D01*
X139079134Y-84769000D01*
X138793008Y-84825914D01*
X138523483Y-84937555D01*
X138280917Y-85099632D01*
X138074632Y-85305917D01*
X137912555Y-85548483D01*
X137800914Y-85818008D01*
X137744000Y-86104134D01*
X137145844Y-86104134D01*
X137112489Y-85852561D01*
X137002336Y-85529034D01*
X136896338Y-85330726D01*
X136621712Y-85222893D01*
X135594605Y-86250000D01*
X135235395Y-86250000D01*
X134208288Y-85222893D01*
X133933662Y-85330726D01*
X133782784Y-85637384D01*
X133694631Y-85967585D01*
X133672591Y-86308639D01*
X133086000Y-86308639D01*
X133086000Y-86104134D01*
X133029086Y-85818008D01*
X132917445Y-85548483D01*
X132755368Y-85305917D01*
X132549083Y-85099632D01*
X132464759Y-85043288D01*
X134387893Y-85043288D01*
X135415000Y-86070395D01*
X136442107Y-85043288D01*
X136334274Y-84768662D01*
X136027616Y-84617784D01*
X135697415Y-84529631D01*
X135356361Y-84507591D01*
X135017561Y-84552511D01*
X134694034Y-84662664D01*
X134495726Y-84768662D01*
X134387893Y-85043288D01*
X132464759Y-85043288D01*
X132306517Y-84937555D01*
X132036992Y-84825914D01*
X131750866Y-84769000D01*
X131459134Y-84769000D01*
X131173008Y-84825914D01*
X130903483Y-84937555D01*
X130660917Y-85099632D01*
X130454632Y-85305917D01*
X130292555Y-85548483D01*
X130180914Y-85818008D01*
X130124000Y-86104134D01*
X130124000Y-86395866D01*
X130180914Y-86681992D01*
X130292555Y-86951517D01*
X130454632Y-87194083D01*
X130660917Y-87400368D01*
X130903483Y-87562445D01*
X131129501Y-87656065D01*
X131129500Y-90386445D01*
X130916712Y-90302893D01*
X129889605Y-91330000D01*
X130916712Y-92357107D01*
X131129500Y-92273555D01*
X131129500Y-92678157D01*
X130985500Y-92678157D01*
X130910811Y-92685513D01*
X130838992Y-92707299D01*
X130772804Y-92742678D01*
X130714789Y-92790289D01*
X130667178Y-92848304D01*
X130636873Y-92905000D01*
X130578354Y-92905000D01*
X130553500Y-92902552D01*
X130528646Y-92905000D01*
X130454307Y-92912322D01*
X130375329Y-92936279D01*
X130430966Y-92917336D01*
X130629274Y-92811338D01*
X130737107Y-92536712D01*
X129710000Y-91509605D01*
X128682893Y-92536712D01*
X128790726Y-92811338D01*
X129097384Y-92962216D01*
X129427585Y-93050369D01*
X129768639Y-93072409D01*
X130107439Y-93027489D01*
X130355785Y-92942933D01*
X130271021Y-92988241D01*
X130193973Y-93051473D01*
X130178128Y-93070780D01*
X129072780Y-94176129D01*
X129053474Y-94191973D01*
X128990242Y-94269021D01*
X128978207Y-94291537D01*
X128943255Y-94356926D01*
X128914322Y-94452308D01*
X128904553Y-94551500D01*
X128907001Y-94576356D01*
X128907001Y-94821657D01*
X128778000Y-94821657D01*
X128703311Y-94829013D01*
X128631492Y-94850799D01*
X128565304Y-94886178D01*
X128507289Y-94933789D01*
X128459678Y-94991804D01*
X128424299Y-95057992D01*
X128402513Y-95129811D01*
X128395157Y-95204500D01*
X121868000Y-95204500D01*
X121868000Y-87322158D01*
X124509000Y-87322158D01*
X124509001Y-90257843D01*
X124528983Y-90460723D01*
X124607950Y-90721043D01*
X124736186Y-90960955D01*
X124908762Y-91171239D01*
X125119046Y-91343815D01*
X125358958Y-91472051D01*
X125619278Y-91551018D01*
X125890000Y-91577682D01*
X126160723Y-91551018D01*
X126421043Y-91472051D01*
X126577095Y-91388639D01*
X127967591Y-91388639D01*
X128012511Y-91727439D01*
X128122664Y-92050966D01*
X128228662Y-92249274D01*
X128503288Y-92357107D01*
X129530395Y-91330000D01*
X128503288Y-90302893D01*
X128228662Y-90410726D01*
X128077784Y-90717384D01*
X127989631Y-91047585D01*
X127967591Y-91388639D01*
X126577095Y-91388639D01*
X126660955Y-91343815D01*
X126871239Y-91171239D01*
X127043815Y-90960955D01*
X127172051Y-90721043D01*
X127251018Y-90460723D01*
X127271000Y-90257843D01*
X127271000Y-90123288D01*
X128682893Y-90123288D01*
X129710000Y-91150395D01*
X130737107Y-90123288D01*
X130629274Y-89848662D01*
X130322616Y-89697784D01*
X129992415Y-89609631D01*
X129651361Y-89587591D01*
X129312561Y-89632511D01*
X128989034Y-89742664D01*
X128790726Y-89848662D01*
X128682893Y-90123288D01*
X127271000Y-90123288D01*
X127271000Y-87322157D01*
X127251018Y-87119277D01*
X127172051Y-86858957D01*
X127043815Y-86619045D01*
X126871238Y-86408761D01*
X126660954Y-86236185D01*
X126421042Y-86107949D01*
X126160722Y-86028982D01*
X125890000Y-86002318D01*
X125619277Y-86028982D01*
X125358957Y-86107949D01*
X125119045Y-86236185D01*
X124908761Y-86408762D01*
X124736185Y-86619046D01*
X124607949Y-86858958D01*
X124528982Y-87119278D01*
X124509000Y-87322158D01*
X121868000Y-87322158D01*
X121868000Y-72837981D01*
X122604124Y-72837981D01*
X122916308Y-73286677D01*
X123512259Y-73607112D01*
X124159273Y-73805126D01*
X124832484Y-73873110D01*
X125506023Y-73808449D01*
X126154006Y-73613630D01*
X126701630Y-73322653D01*
X128475452Y-73322653D01*
X128631462Y-73638214D01*
X129006245Y-73829020D01*
X129411051Y-73943044D01*
X129830324Y-73975902D01*
X130247951Y-73926334D01*
X130647883Y-73796243D01*
X130943538Y-73638214D01*
X131099548Y-73322653D01*
X138775452Y-73322653D01*
X138931462Y-73638214D01*
X139306245Y-73829020D01*
X139711051Y-73943044D01*
X140130324Y-73975902D01*
X140547951Y-73926334D01*
X140947883Y-73796243D01*
X141243538Y-73638214D01*
X141399548Y-73322653D01*
X147969952Y-73322653D01*
X148125962Y-73638214D01*
X148500745Y-73829020D01*
X148905551Y-73943044D01*
X149324824Y-73975902D01*
X149742451Y-73926334D01*
X150142383Y-73796243D01*
X150438038Y-73638214D01*
X150594048Y-73322653D01*
X149282000Y-72010605D01*
X147969952Y-73322653D01*
X141399548Y-73322653D01*
X140087500Y-72010605D01*
X138775452Y-73322653D01*
X131099548Y-73322653D01*
X129787500Y-72010605D01*
X128475452Y-73322653D01*
X126701630Y-73322653D01*
X126751530Y-73296139D01*
X126765692Y-73286677D01*
X127077876Y-72837981D01*
X124841000Y-70601105D01*
X122604124Y-72837981D01*
X121868000Y-72837981D01*
X121868000Y-72146913D01*
X121966361Y-72332030D01*
X121975823Y-72346192D01*
X122424519Y-72658376D01*
X124661395Y-70421500D01*
X125020605Y-70421500D01*
X127257481Y-72658376D01*
X127706177Y-72346192D01*
X127708542Y-72341794D01*
X127822257Y-72691383D01*
X127980286Y-72987038D01*
X128295847Y-73143048D01*
X129607895Y-71831000D01*
X129967105Y-71831000D01*
X131279153Y-73143048D01*
X131594714Y-72987038D01*
X131785520Y-72612255D01*
X131899544Y-72207449D01*
X131932402Y-71788176D01*
X131882834Y-71370549D01*
X131752743Y-70970617D01*
X131594714Y-70674962D01*
X131279153Y-70518952D01*
X129967105Y-71831000D01*
X129607895Y-71831000D01*
X129593753Y-71816858D01*
X129773358Y-71637253D01*
X129787500Y-71651395D01*
X131099548Y-70339347D01*
X130964130Y-70065436D01*
X133256500Y-70065436D01*
X133256500Y-70396564D01*
X133321100Y-70721330D01*
X133447817Y-71027252D01*
X133631782Y-71302575D01*
X133865925Y-71536718D01*
X134141248Y-71720683D01*
X134447170Y-71847400D01*
X134771936Y-71912000D01*
X135103064Y-71912000D01*
X135294987Y-71873824D01*
X137942598Y-71873824D01*
X137992166Y-72291451D01*
X138122257Y-72691383D01*
X138280286Y-72987038D01*
X138595847Y-73143048D01*
X139907895Y-71831000D01*
X140267105Y-71831000D01*
X141579153Y-73143048D01*
X141894714Y-72987038D01*
X142085520Y-72612255D01*
X142199544Y-72207449D01*
X142225689Y-71873824D01*
X147137098Y-71873824D01*
X147186666Y-72291451D01*
X147316757Y-72691383D01*
X147474786Y-72987038D01*
X147790347Y-73143048D01*
X149102395Y-71831000D01*
X149461605Y-71831000D01*
X150773653Y-73143048D01*
X151089214Y-72987038D01*
X151280020Y-72612255D01*
X151394044Y-72207449D01*
X151426902Y-71788176D01*
X151377334Y-71370549D01*
X151247243Y-70970617D01*
X151089214Y-70674962D01*
X150773653Y-70518952D01*
X149461605Y-71831000D01*
X149102395Y-71831000D01*
X147790347Y-70518952D01*
X147474786Y-70674962D01*
X147283980Y-71049745D01*
X147169956Y-71454551D01*
X147137098Y-71873824D01*
X142225689Y-71873824D01*
X142232402Y-71788176D01*
X142182834Y-71370549D01*
X142052743Y-70970617D01*
X141894714Y-70674962D01*
X141579153Y-70518952D01*
X140267105Y-71831000D01*
X139907895Y-71831000D01*
X138595847Y-70518952D01*
X138280286Y-70674962D01*
X138089480Y-71049745D01*
X137975456Y-71454551D01*
X137942598Y-71873824D01*
X135294987Y-71873824D01*
X135427830Y-71847400D01*
X135733752Y-71720683D01*
X136009075Y-71536718D01*
X136243218Y-71302575D01*
X136427183Y-71027252D01*
X136553900Y-70721330D01*
X136618500Y-70396564D01*
X136618500Y-70339347D01*
X138775452Y-70339347D01*
X140087500Y-71651395D01*
X141399548Y-70339347D01*
X147969952Y-70339347D01*
X149282000Y-71651395D01*
X150594048Y-70339347D01*
X150438038Y-70023786D01*
X150063255Y-69832980D01*
X149658449Y-69718956D01*
X149239176Y-69686098D01*
X148821549Y-69735666D01*
X148421617Y-69865757D01*
X148125962Y-70023786D01*
X147969952Y-70339347D01*
X141399548Y-70339347D01*
X141243538Y-70023786D01*
X140868755Y-69832980D01*
X140463949Y-69718956D01*
X140044676Y-69686098D01*
X139627049Y-69735666D01*
X139227117Y-69865757D01*
X138931462Y-70023786D01*
X138775452Y-70339347D01*
X136618500Y-70339347D01*
X136618500Y-70065436D01*
X136553900Y-69740670D01*
X136433674Y-69450418D01*
X137179092Y-68705000D01*
X153723425Y-68705000D01*
X153635748Y-68741317D01*
X153360425Y-68925282D01*
X153126282Y-69159425D01*
X152942317Y-69434748D01*
X152815600Y-69740670D01*
X152751000Y-70065436D01*
X152751000Y-70396564D01*
X152815600Y-70721330D01*
X152942317Y-71027252D01*
X153126282Y-71302575D01*
X153360425Y-71536718D01*
X153635748Y-71720683D01*
X153926001Y-71840910D01*
X153926001Y-72111144D01*
X153923553Y-72136000D01*
X153933322Y-72235192D01*
X153962255Y-72330574D01*
X153984127Y-72371492D01*
X154009242Y-72418479D01*
X154072474Y-72495527D01*
X154091781Y-72511372D01*
X158251628Y-76671220D01*
X158267473Y-76690527D01*
X158344521Y-76753759D01*
X158432425Y-76800745D01*
X158527807Y-76829678D01*
X158627000Y-76839448D01*
X158651854Y-76837000D01*
X162145210Y-76837000D01*
X162255626Y-77103568D01*
X162434119Y-77370702D01*
X162661298Y-77597881D01*
X162928432Y-77776374D01*
X163225255Y-77899322D01*
X163540360Y-77962000D01*
X163861640Y-77962000D01*
X164176745Y-77899322D01*
X164473568Y-77776374D01*
X164740702Y-77597881D01*
X164967881Y-77370702D01*
X165146374Y-77103568D01*
X165269322Y-76806745D01*
X165332000Y-76491640D01*
X165332000Y-76170360D01*
X165269322Y-75855255D01*
X165146374Y-75558432D01*
X164967881Y-75291298D01*
X164740702Y-75064119D01*
X164473568Y-74885626D01*
X164176745Y-74762678D01*
X163861640Y-74700000D01*
X163540360Y-74700000D01*
X163225255Y-74762678D01*
X162928432Y-74885626D01*
X162661298Y-75064119D01*
X162434119Y-75291298D01*
X162255626Y-75558432D01*
X162145210Y-75825000D01*
X158836592Y-75825000D01*
X156334245Y-73322653D01*
X158269952Y-73322653D01*
X158425962Y-73638214D01*
X158800745Y-73829020D01*
X159205551Y-73943044D01*
X159624824Y-73975902D01*
X160042451Y-73926334D01*
X160442383Y-73796243D01*
X160738038Y-73638214D01*
X160894048Y-73322653D01*
X159582000Y-72010605D01*
X158269952Y-73322653D01*
X156334245Y-73322653D01*
X154938000Y-71926409D01*
X154938000Y-71873824D01*
X157437098Y-71873824D01*
X157486666Y-72291451D01*
X157616757Y-72691383D01*
X157774786Y-72987038D01*
X158090347Y-73143048D01*
X159402395Y-71831000D01*
X159761605Y-71831000D01*
X161073653Y-73143048D01*
X161389214Y-72987038D01*
X161580020Y-72612255D01*
X161694044Y-72207449D01*
X161726902Y-71788176D01*
X161677334Y-71370549D01*
X161547243Y-70970617D01*
X161389214Y-70674962D01*
X161073653Y-70518952D01*
X159761605Y-71831000D01*
X159402395Y-71831000D01*
X158090347Y-70518952D01*
X157774786Y-70674962D01*
X157583980Y-71049745D01*
X157469956Y-71454551D01*
X157437098Y-71873824D01*
X154938000Y-71873824D01*
X154938000Y-71840909D01*
X155228252Y-71720683D01*
X155503575Y-71536718D01*
X155737718Y-71302575D01*
X155921683Y-71027252D01*
X156048400Y-70721330D01*
X156113000Y-70396564D01*
X156113000Y-70339347D01*
X158269952Y-70339347D01*
X159582000Y-71651395D01*
X160894048Y-70339347D01*
X160738038Y-70023786D01*
X160363255Y-69832980D01*
X159958449Y-69718956D01*
X159539176Y-69686098D01*
X159121549Y-69735666D01*
X158721617Y-69865757D01*
X158425962Y-70023786D01*
X158269952Y-70339347D01*
X156113000Y-70339347D01*
X156113000Y-70065436D01*
X156048400Y-69740670D01*
X155921683Y-69434748D01*
X155737718Y-69159425D01*
X155503575Y-68925282D01*
X155228252Y-68741317D01*
X155140575Y-68705000D01*
X160189409Y-68705000D01*
X162243094Y-70758686D01*
X162132678Y-71025255D01*
X162070000Y-71340360D01*
X162070000Y-71661640D01*
X162132678Y-71976745D01*
X162255626Y-72273568D01*
X162434119Y-72540702D01*
X162661298Y-72767881D01*
X162928432Y-72946374D01*
X163225255Y-73069322D01*
X163540360Y-73132000D01*
X163861640Y-73132000D01*
X164176745Y-73069322D01*
X164473568Y-72946374D01*
X164740702Y-72767881D01*
X164967881Y-72540702D01*
X165146374Y-72273568D01*
X165269322Y-71976745D01*
X165332000Y-71661640D01*
X165332000Y-71340360D01*
X165269322Y-71025255D01*
X165146374Y-70728432D01*
X164967881Y-70461298D01*
X164740702Y-70234119D01*
X164473568Y-70055626D01*
X164176745Y-69932678D01*
X163861640Y-69870000D01*
X163540360Y-69870000D01*
X163225255Y-69932678D01*
X162958686Y-70043094D01*
X160774376Y-67858785D01*
X160758527Y-67839473D01*
X160681479Y-67776241D01*
X160593575Y-67729255D01*
X160498193Y-67700322D01*
X160423854Y-67693000D01*
X160423846Y-67693000D01*
X160399000Y-67690553D01*
X160374154Y-67693000D01*
X136994346Y-67693000D01*
X136969500Y-67690553D01*
X136944654Y-67693000D01*
X136944646Y-67693000D01*
X136870307Y-67700322D01*
X136774925Y-67729255D01*
X136687021Y-67776241D01*
X136609973Y-67839473D01*
X136594128Y-67858780D01*
X135718082Y-68734826D01*
X135427830Y-68614600D01*
X135103064Y-68550000D01*
X134771936Y-68550000D01*
X134447170Y-68614600D01*
X134141248Y-68741317D01*
X133865925Y-68925282D01*
X133631782Y-69159425D01*
X133447817Y-69434748D01*
X133321100Y-69740670D01*
X133256500Y-70065436D01*
X130964130Y-70065436D01*
X130943538Y-70023786D01*
X130568755Y-69832980D01*
X130163949Y-69718956D01*
X129744676Y-69686098D01*
X129327049Y-69735666D01*
X128927117Y-69865757D01*
X128631462Y-70023786D01*
X128475453Y-70339345D01*
X128360761Y-70224653D01*
X128280591Y-70304823D01*
X128227949Y-69756477D01*
X128033130Y-69108494D01*
X127715639Y-68510970D01*
X127706177Y-68496808D01*
X127257481Y-68184624D01*
X125020605Y-70421500D01*
X124661395Y-70421500D01*
X122424519Y-68184624D01*
X121975823Y-68496808D01*
X121868000Y-68697339D01*
X121868000Y-67512000D01*
X122996079Y-67512000D01*
X122930470Y-67546861D01*
G37*
%TD.AperFunction*%
%TD*%
M02*
