G04 #@! TF.FileFunction,Legend,Top*
%FSLAX46Y46*%
G04 Gerber Fmt 4.6, Leading zero omitted, Abs format (unit mm)*
G04 Created by KiCad (PCBNEW 4.0.7-e2-6376~61~ubuntu18.04.1) date Fri Dec 20 20:00:32 2019*
%MOMM*%
%LPD*%
G01*
G04 APERTURE LIST*
%ADD10C,0.100000*%
%ADD11C,0.150000*%
%ADD12C,0.120000*%
G04 APERTURE END LIST*
D10*
D11*
X122080000Y-80535000D02*
X122080000Y-97045000D01*
X122080000Y-80535000D02*
X174780000Y-80535000D01*
X122080000Y-97045000D02*
X174780000Y-97045000D01*
X174785000Y-80535000D02*
X174785000Y-97035000D01*
D12*
X160524500Y-100436500D02*
X135004500Y-100436500D01*
X135004500Y-100436500D02*
X135004500Y-103096500D01*
X135004500Y-103096500D02*
X160524500Y-103096500D01*
X160524500Y-103096500D02*
X160524500Y-100436500D01*
X159574500Y-103096500D02*
X159574500Y-109096500D01*
X159574500Y-109096500D02*
X158814500Y-109096500D01*
X158814500Y-109096500D02*
X158814500Y-103096500D01*
X159514500Y-103096500D02*
X159514500Y-109096500D01*
X159394500Y-103096500D02*
X159394500Y-109096500D01*
X159274500Y-103096500D02*
X159274500Y-109096500D01*
X159154500Y-103096500D02*
X159154500Y-109096500D01*
X159034500Y-103096500D02*
X159034500Y-109096500D01*
X158914500Y-103096500D02*
X158914500Y-109096500D01*
X159574500Y-100106500D02*
X159574500Y-100436500D01*
X158814500Y-100106500D02*
X158814500Y-100436500D01*
X157924500Y-100436500D02*
X157924500Y-103096500D01*
X157034500Y-103096500D02*
X157034500Y-109096500D01*
X157034500Y-109096500D02*
X156274500Y-109096500D01*
X156274500Y-109096500D02*
X156274500Y-103096500D01*
X157034500Y-100039429D02*
X157034500Y-100436500D01*
X156274500Y-100039429D02*
X156274500Y-100436500D01*
X155384500Y-100436500D02*
X155384500Y-103096500D01*
X154494500Y-103096500D02*
X154494500Y-109096500D01*
X154494500Y-109096500D02*
X153734500Y-109096500D01*
X153734500Y-109096500D02*
X153734500Y-103096500D01*
X154494500Y-100039429D02*
X154494500Y-100436500D01*
X153734500Y-100039429D02*
X153734500Y-100436500D01*
X152844500Y-100436500D02*
X152844500Y-103096500D01*
X151954500Y-103096500D02*
X151954500Y-109096500D01*
X151954500Y-109096500D02*
X151194500Y-109096500D01*
X151194500Y-109096500D02*
X151194500Y-103096500D01*
X151954500Y-100039429D02*
X151954500Y-100436500D01*
X151194500Y-100039429D02*
X151194500Y-100436500D01*
X150304500Y-100436500D02*
X150304500Y-103096500D01*
X149414500Y-103096500D02*
X149414500Y-109096500D01*
X149414500Y-109096500D02*
X148654500Y-109096500D01*
X148654500Y-109096500D02*
X148654500Y-103096500D01*
X149414500Y-100039429D02*
X149414500Y-100436500D01*
X148654500Y-100039429D02*
X148654500Y-100436500D01*
X147764500Y-100436500D02*
X147764500Y-103096500D01*
X146874500Y-103096500D02*
X146874500Y-109096500D01*
X146874500Y-109096500D02*
X146114500Y-109096500D01*
X146114500Y-109096500D02*
X146114500Y-103096500D01*
X146874500Y-100039429D02*
X146874500Y-100436500D01*
X146114500Y-100039429D02*
X146114500Y-100436500D01*
X145224500Y-100436500D02*
X145224500Y-103096500D01*
X144334500Y-103096500D02*
X144334500Y-109096500D01*
X144334500Y-109096500D02*
X143574500Y-109096500D01*
X143574500Y-109096500D02*
X143574500Y-103096500D01*
X144334500Y-100039429D02*
X144334500Y-100436500D01*
X143574500Y-100039429D02*
X143574500Y-100436500D01*
X142684500Y-100436500D02*
X142684500Y-103096500D01*
X141794500Y-103096500D02*
X141794500Y-109096500D01*
X141794500Y-109096500D02*
X141034500Y-109096500D01*
X141034500Y-109096500D02*
X141034500Y-103096500D01*
X141794500Y-100039429D02*
X141794500Y-100436500D01*
X141034500Y-100039429D02*
X141034500Y-100436500D01*
X140144500Y-100436500D02*
X140144500Y-103096500D01*
X139254500Y-103096500D02*
X139254500Y-109096500D01*
X139254500Y-109096500D02*
X138494500Y-109096500D01*
X138494500Y-109096500D02*
X138494500Y-103096500D01*
X139254500Y-100039429D02*
X139254500Y-100436500D01*
X138494500Y-100039429D02*
X138494500Y-100436500D01*
X137604500Y-100436500D02*
X137604500Y-103096500D01*
X136714500Y-103096500D02*
X136714500Y-109096500D01*
X136714500Y-109096500D02*
X135954500Y-109096500D01*
X135954500Y-109096500D02*
X135954500Y-103096500D01*
X136714500Y-100039429D02*
X136714500Y-100436500D01*
X135954500Y-100039429D02*
X135954500Y-100436500D01*
X159194500Y-97726500D02*
X160464500Y-97726500D01*
X160464500Y-97726500D02*
X160464500Y-98996500D01*
D11*
X162433167Y-79525762D02*
X162576024Y-79573381D01*
X162814120Y-79573381D01*
X162909358Y-79525762D01*
X162956977Y-79478143D01*
X163004596Y-79382905D01*
X163004596Y-79287667D01*
X162956977Y-79192429D01*
X162909358Y-79144810D01*
X162814120Y-79097190D01*
X162623643Y-79049571D01*
X162528405Y-79001952D01*
X162480786Y-78954333D01*
X162433167Y-78859095D01*
X162433167Y-78763857D01*
X162480786Y-78668619D01*
X162528405Y-78621000D01*
X162623643Y-78573381D01*
X162861739Y-78573381D01*
X163004596Y-78621000D01*
X163337929Y-78573381D02*
X163576024Y-79573381D01*
X163766501Y-78859095D01*
X163956977Y-79573381D01*
X164195072Y-78573381D01*
X165099834Y-79573381D02*
X164528405Y-79573381D01*
X164814119Y-79573381D02*
X164814119Y-78573381D01*
X164718881Y-78716238D01*
X164623643Y-78811476D01*
X164528405Y-78859095D01*
X122793167Y-80795881D02*
X122793167Y-81510167D01*
X122745547Y-81653024D01*
X122650309Y-81748262D01*
X122507452Y-81795881D01*
X122412214Y-81795881D01*
X123793167Y-81795881D02*
X123221738Y-81795881D01*
X123507452Y-81795881D02*
X123507452Y-80795881D01*
X123412214Y-80938738D01*
X123316976Y-81033976D01*
X123221738Y-81081595D01*
X161123381Y-102250833D02*
X161837667Y-102250833D01*
X161980524Y-102298453D01*
X162075762Y-102393691D01*
X162123381Y-102536548D01*
X162123381Y-102631786D01*
X161456714Y-101346071D02*
X162123381Y-101346071D01*
X161075762Y-101584167D02*
X161790048Y-101822262D01*
X161790048Y-101203214D01*
X139620667Y-68095881D02*
X139620667Y-68810167D01*
X139573047Y-68953024D01*
X139477809Y-69048262D01*
X139334952Y-69095881D01*
X139239714Y-69095881D01*
X140049238Y-68191119D02*
X140096857Y-68143500D01*
X140192095Y-68095881D01*
X140430191Y-68095881D01*
X140525429Y-68143500D01*
X140573048Y-68191119D01*
X140620667Y-68286357D01*
X140620667Y-68381595D01*
X140573048Y-68524452D01*
X140001619Y-69095881D01*
X140620667Y-69095881D01*
X148891667Y-68286381D02*
X148891667Y-69000667D01*
X148844047Y-69143524D01*
X148748809Y-69238762D01*
X148605952Y-69286381D01*
X148510714Y-69286381D01*
X149272619Y-68286381D02*
X149891667Y-68286381D01*
X149558333Y-68667333D01*
X149701191Y-68667333D01*
X149796429Y-68714952D01*
X149844048Y-68762571D01*
X149891667Y-68857810D01*
X149891667Y-69095905D01*
X149844048Y-69191143D01*
X149796429Y-69238762D01*
X149701191Y-69286381D01*
X149415476Y-69286381D01*
X149320238Y-69238762D01*
X149272619Y-69191143D01*
M02*
