%TF.GenerationSoftware,KiCad,Pcbnew,5.1.10-88a1d61d58~88~ubuntu20.04.1*%
%TF.CreationDate,2021-09-23T20:16:40+02:00*%
%TF.ProjectId,SCART-breakout,53434152-542d-4627-9265-616b6f75742e,rev?*%
%TF.SameCoordinates,Original*%
%TF.FileFunction,Legend,Bot*%
%TF.FilePolarity,Positive*%
%FSLAX46Y46*%
G04 Gerber Fmt 4.6, Leading zero omitted, Abs format (unit mm)*
G04 Created by KiCad (PCBNEW 5.1.10-88a1d61d58~88~ubuntu20.04.1) date 2021-09-23 20:16:40*
%MOMM*%
%LPD*%
G01*
G04 APERTURE LIST*
%ADD10C,0.300000*%
%ADD11C,0.100000*%
%ADD12C,0.120000*%
%ADD13C,0.150000*%
G04 APERTURE END LIST*
D10*
X155720428Y-79540571D02*
X156220428Y-78826285D01*
X156577571Y-79540571D02*
X156577571Y-78040571D01*
X156006142Y-78040571D01*
X155863285Y-78112000D01*
X155791857Y-78183428D01*
X155720428Y-78326285D01*
X155720428Y-78540571D01*
X155791857Y-78683428D01*
X155863285Y-78754857D01*
X156006142Y-78826285D01*
X156577571Y-78826285D01*
X154291857Y-78112000D02*
X154434714Y-78040571D01*
X154649000Y-78040571D01*
X154863285Y-78112000D01*
X155006142Y-78254857D01*
X155077571Y-78397714D01*
X155149000Y-78683428D01*
X155149000Y-78897714D01*
X155077571Y-79183428D01*
X155006142Y-79326285D01*
X154863285Y-79469142D01*
X154649000Y-79540571D01*
X154506142Y-79540571D01*
X154291857Y-79469142D01*
X154220428Y-79397714D01*
X154220428Y-78897714D01*
X154506142Y-78897714D01*
X153077571Y-78754857D02*
X152863285Y-78826285D01*
X152791857Y-78897714D01*
X152720428Y-79040571D01*
X152720428Y-79254857D01*
X152791857Y-79397714D01*
X152863285Y-79469142D01*
X153006142Y-79540571D01*
X153577571Y-79540571D01*
X153577571Y-78040571D01*
X153077571Y-78040571D01*
X152934714Y-78112000D01*
X152863285Y-78183428D01*
X152791857Y-78326285D01*
X152791857Y-78469142D01*
X152863285Y-78612000D01*
X152934714Y-78683428D01*
X153077571Y-78754857D01*
X153577571Y-78754857D01*
X151006142Y-79469142D02*
X150791857Y-79540571D01*
X150434714Y-79540571D01*
X150291857Y-79469142D01*
X150220428Y-79397714D01*
X150149000Y-79254857D01*
X150149000Y-79112000D01*
X150220428Y-78969142D01*
X150291857Y-78897714D01*
X150434714Y-78826285D01*
X150720428Y-78754857D01*
X150863285Y-78683428D01*
X150934714Y-78612000D01*
X151006142Y-78469142D01*
X151006142Y-78326285D01*
X150934714Y-78183428D01*
X150863285Y-78112000D01*
X150720428Y-78040571D01*
X150363285Y-78040571D01*
X150149000Y-78112000D01*
X148649000Y-79397714D02*
X148720428Y-79469142D01*
X148934714Y-79540571D01*
X149077571Y-79540571D01*
X149291857Y-79469142D01*
X149434714Y-79326285D01*
X149506142Y-79183428D01*
X149577571Y-78897714D01*
X149577571Y-78683428D01*
X149506142Y-78397714D01*
X149434714Y-78254857D01*
X149291857Y-78112000D01*
X149077571Y-78040571D01*
X148934714Y-78040571D01*
X148720428Y-78112000D01*
X148649000Y-78183428D01*
X148077571Y-79112000D02*
X147363285Y-79112000D01*
X148220428Y-79540571D02*
X147720428Y-78040571D01*
X147220428Y-79540571D01*
X145863285Y-79540571D02*
X146363285Y-78826285D01*
X146720428Y-79540571D02*
X146720428Y-78040571D01*
X146149000Y-78040571D01*
X146006142Y-78112000D01*
X145934714Y-78183428D01*
X145863285Y-78326285D01*
X145863285Y-78540571D01*
X145934714Y-78683428D01*
X146006142Y-78754857D01*
X146149000Y-78826285D01*
X146720428Y-78826285D01*
X145434714Y-78040571D02*
X144577571Y-78040571D01*
X145006142Y-79540571D02*
X145006142Y-78040571D01*
X142434714Y-78754857D02*
X142220428Y-78826285D01*
X142149000Y-78897714D01*
X142077571Y-79040571D01*
X142077571Y-79254857D01*
X142149000Y-79397714D01*
X142220428Y-79469142D01*
X142363285Y-79540571D01*
X142934714Y-79540571D01*
X142934714Y-78040571D01*
X142434714Y-78040571D01*
X142291857Y-78112000D01*
X142220428Y-78183428D01*
X142149000Y-78326285D01*
X142149000Y-78469142D01*
X142220428Y-78612000D01*
X142291857Y-78683428D01*
X142434714Y-78754857D01*
X142934714Y-78754857D01*
X140577571Y-79540571D02*
X141077571Y-78826285D01*
X141434714Y-79540571D02*
X141434714Y-78040571D01*
X140863285Y-78040571D01*
X140720428Y-78112000D01*
X140649000Y-78183428D01*
X140577571Y-78326285D01*
X140577571Y-78540571D01*
X140649000Y-78683428D01*
X140720428Y-78754857D01*
X140863285Y-78826285D01*
X141434714Y-78826285D01*
X139934714Y-78754857D02*
X139434714Y-78754857D01*
X139220428Y-79540571D02*
X139934714Y-79540571D01*
X139934714Y-78040571D01*
X139220428Y-78040571D01*
X138649000Y-79112000D02*
X137934714Y-79112000D01*
X138791857Y-79540571D02*
X138291857Y-78040571D01*
X137791857Y-79540571D01*
X137291857Y-79540571D02*
X137291857Y-78040571D01*
X136434714Y-79540571D02*
X137077571Y-78683428D01*
X136434714Y-78040571D02*
X137291857Y-78897714D01*
X135506142Y-78040571D02*
X135220428Y-78040571D01*
X135077571Y-78112000D01*
X134934714Y-78254857D01*
X134863285Y-78540571D01*
X134863285Y-79040571D01*
X134934714Y-79326285D01*
X135077571Y-79469142D01*
X135220428Y-79540571D01*
X135506142Y-79540571D01*
X135649000Y-79469142D01*
X135791857Y-79326285D01*
X135863285Y-79040571D01*
X135863285Y-78540571D01*
X135791857Y-78254857D01*
X135649000Y-78112000D01*
X135506142Y-78040571D01*
X134220428Y-78040571D02*
X134220428Y-79254857D01*
X134149000Y-79397714D01*
X134077571Y-79469142D01*
X133934714Y-79540571D01*
X133649000Y-79540571D01*
X133506142Y-79469142D01*
X133434714Y-79397714D01*
X133363285Y-79254857D01*
X133363285Y-78040571D01*
X132863285Y-78040571D02*
X132006142Y-78040571D01*
X132434714Y-79540571D02*
X132434714Y-78040571D01*
X165506142Y-82090571D02*
X165506142Y-80590571D01*
X165006142Y-81662000D01*
X164506142Y-80590571D01*
X164506142Y-82090571D01*
X163149000Y-82090571D02*
X163149000Y-81304857D01*
X163220428Y-81162000D01*
X163363285Y-81090571D01*
X163649000Y-81090571D01*
X163791857Y-81162000D01*
X163149000Y-82019142D02*
X163291857Y-82090571D01*
X163649000Y-82090571D01*
X163791857Y-82019142D01*
X163863285Y-81876285D01*
X163863285Y-81733428D01*
X163791857Y-81590571D01*
X163649000Y-81519142D01*
X163291857Y-81519142D01*
X163149000Y-81447714D01*
X162434714Y-82090571D02*
X162434714Y-81090571D01*
X162434714Y-81376285D02*
X162363285Y-81233428D01*
X162291857Y-81162000D01*
X162149000Y-81090571D01*
X162006142Y-81090571D01*
X161720428Y-81090571D02*
X161149000Y-81090571D01*
X161506142Y-80590571D02*
X161506142Y-81876285D01*
X161434714Y-82019142D01*
X161291857Y-82090571D01*
X161149000Y-82090571D01*
X160649000Y-82090571D02*
X160649000Y-81090571D01*
X160649000Y-80590571D02*
X160720428Y-80662000D01*
X160649000Y-80733428D01*
X160577571Y-80662000D01*
X160649000Y-80590571D01*
X160649000Y-80733428D01*
X159934714Y-81090571D02*
X159934714Y-82090571D01*
X159934714Y-81233428D02*
X159863285Y-81162000D01*
X159720428Y-81090571D01*
X159506142Y-81090571D01*
X159363285Y-81162000D01*
X159291857Y-81304857D01*
X159291857Y-82090571D01*
X157434714Y-82090571D02*
X157434714Y-80590571D01*
X157434714Y-81304857D02*
X156577571Y-81304857D01*
X156577571Y-82090571D02*
X156577571Y-80590571D01*
X155291857Y-82019142D02*
X155434714Y-82090571D01*
X155720428Y-82090571D01*
X155863285Y-82019142D01*
X155934714Y-81876285D01*
X155934714Y-81304857D01*
X155863285Y-81162000D01*
X155720428Y-81090571D01*
X155434714Y-81090571D01*
X155291857Y-81162000D01*
X155220428Y-81304857D01*
X155220428Y-81447714D01*
X155934714Y-81590571D01*
X154577571Y-81090571D02*
X154577571Y-82376285D01*
X154649000Y-82519142D01*
X154791857Y-82590571D01*
X154863285Y-82590571D01*
X154577571Y-80590571D02*
X154649000Y-80662000D01*
X154577571Y-80733428D01*
X154506142Y-80662000D01*
X154577571Y-80590571D01*
X154577571Y-80733428D01*
X153863285Y-81090571D02*
X153863285Y-82090571D01*
X153863285Y-81233428D02*
X153791857Y-81162000D01*
X153649000Y-81090571D01*
X153434714Y-81090571D01*
X153291857Y-81162000D01*
X153220428Y-81304857D01*
X153220428Y-82090571D01*
X152720428Y-81090571D02*
X152149000Y-81090571D01*
X152506142Y-82090571D02*
X152506142Y-80804857D01*
X152434714Y-80662000D01*
X152291857Y-80590571D01*
X152149000Y-80590571D01*
X151077571Y-82019142D02*
X151220428Y-82090571D01*
X151506142Y-82090571D01*
X151649000Y-82019142D01*
X151720428Y-81876285D01*
X151720428Y-81304857D01*
X151649000Y-81162000D01*
X151506142Y-81090571D01*
X151220428Y-81090571D01*
X151077571Y-81162000D01*
X151006142Y-81304857D01*
X151006142Y-81447714D01*
X151720428Y-81590571D01*
X150149000Y-82090571D02*
X150291857Y-82019142D01*
X150363285Y-81876285D01*
X150363285Y-80590571D01*
X149791857Y-81090571D02*
X149220428Y-81090571D01*
X149577571Y-80590571D02*
X149577571Y-81876285D01*
X149506142Y-82019142D01*
X149363285Y-82090571D01*
X149220428Y-82090571D01*
X147149000Y-82662000D02*
X147220428Y-82590571D01*
X147363285Y-82376285D01*
X147434714Y-82233428D01*
X147506142Y-82019142D01*
X147577571Y-81662000D01*
X147577571Y-81376285D01*
X147506142Y-81019142D01*
X147434714Y-80804857D01*
X147363285Y-80662000D01*
X147220428Y-80447714D01*
X147149000Y-80376285D01*
X146577571Y-82090571D02*
X146577571Y-81090571D01*
X146577571Y-81233428D02*
X146506142Y-81162000D01*
X146363285Y-81090571D01*
X146149000Y-81090571D01*
X146006142Y-81162000D01*
X145934714Y-81304857D01*
X145934714Y-82090571D01*
X145934714Y-81304857D02*
X145863285Y-81162000D01*
X145720428Y-81090571D01*
X145506142Y-81090571D01*
X145363285Y-81162000D01*
X145291857Y-81304857D01*
X145291857Y-82090571D01*
X143934714Y-82090571D02*
X143934714Y-81304857D01*
X144006142Y-81162000D01*
X144149000Y-81090571D01*
X144434714Y-81090571D01*
X144577571Y-81162000D01*
X143934714Y-82019142D02*
X144077571Y-82090571D01*
X144434714Y-82090571D01*
X144577571Y-82019142D01*
X144649000Y-81876285D01*
X144649000Y-81733428D01*
X144577571Y-81590571D01*
X144434714Y-81519142D01*
X144077571Y-81519142D01*
X143934714Y-81447714D01*
X143220428Y-82090571D02*
X143220428Y-81090571D01*
X143220428Y-81376285D02*
X143149000Y-81233428D01*
X143077571Y-81162000D01*
X142934714Y-81090571D01*
X142791857Y-81090571D01*
X142506142Y-81090571D02*
X141934714Y-81090571D01*
X142291857Y-80590571D02*
X142291857Y-81876285D01*
X142220428Y-82019142D01*
X142077571Y-82090571D01*
X141934714Y-82090571D01*
X141434714Y-82090571D02*
X141434714Y-81090571D01*
X141434714Y-80590571D02*
X141506142Y-80662000D01*
X141434714Y-80733428D01*
X141363285Y-80662000D01*
X141434714Y-80590571D01*
X141434714Y-80733428D01*
X140720428Y-81090571D02*
X140720428Y-82090571D01*
X140720428Y-81233428D02*
X140649000Y-81162000D01*
X140506142Y-81090571D01*
X140291857Y-81090571D01*
X140149000Y-81162000D01*
X140077571Y-81304857D01*
X140077571Y-82090571D01*
X138434714Y-81376285D02*
X138506142Y-81304857D01*
X138649000Y-81233428D01*
X138791857Y-81233428D01*
X138934714Y-81304857D01*
X139006142Y-81376285D01*
X139077571Y-81519142D01*
X139077571Y-81662000D01*
X139006142Y-81804857D01*
X138934714Y-81876285D01*
X138791857Y-81947714D01*
X138649000Y-81947714D01*
X138506142Y-81876285D01*
X138434714Y-81804857D01*
X138434714Y-81233428D02*
X138434714Y-81804857D01*
X138363285Y-81876285D01*
X138291857Y-81876285D01*
X138149000Y-81804857D01*
X138077571Y-81662000D01*
X138077571Y-81304857D01*
X138220428Y-81090571D01*
X138434714Y-80947714D01*
X138720428Y-80876285D01*
X139006142Y-80947714D01*
X139220428Y-81090571D01*
X139363285Y-81304857D01*
X139434714Y-81590571D01*
X139363285Y-81876285D01*
X139220428Y-82090571D01*
X139006142Y-82233428D01*
X138720428Y-82304857D01*
X138434714Y-82233428D01*
X138220428Y-82090571D01*
X137434714Y-82090571D02*
X137434714Y-80590571D01*
X136791857Y-82090571D02*
X136791857Y-81304857D01*
X136863285Y-81162000D01*
X137006142Y-81090571D01*
X137220428Y-81090571D01*
X137363285Y-81162000D01*
X137434714Y-81233428D01*
X135506142Y-82019142D02*
X135649000Y-82090571D01*
X135934714Y-82090571D01*
X136077571Y-82019142D01*
X136149000Y-81876285D01*
X136149000Y-81304857D01*
X136077571Y-81162000D01*
X135934714Y-81090571D01*
X135649000Y-81090571D01*
X135506142Y-81162000D01*
X135434714Y-81304857D01*
X135434714Y-81447714D01*
X136149000Y-81590571D01*
X134791857Y-81090571D02*
X134791857Y-82376285D01*
X134863285Y-82519142D01*
X135006142Y-82590571D01*
X135077571Y-82590571D01*
X134791857Y-80590571D02*
X134863285Y-80662000D01*
X134791857Y-80733428D01*
X134720428Y-80662000D01*
X134791857Y-80590571D01*
X134791857Y-80733428D01*
X134077571Y-81090571D02*
X134077571Y-82090571D01*
X134077571Y-81233428D02*
X134006142Y-81162000D01*
X133863285Y-81090571D01*
X133649000Y-81090571D01*
X133506142Y-81162000D01*
X133434714Y-81304857D01*
X133434714Y-82090571D01*
X132934714Y-81090571D02*
X132363285Y-81090571D01*
X132720428Y-82090571D02*
X132720428Y-80804857D01*
X132649000Y-80662000D01*
X132506142Y-80590571D01*
X132363285Y-80590571D01*
X131291857Y-82019142D02*
X131434714Y-82090571D01*
X131720428Y-82090571D01*
X131863285Y-82019142D01*
X131934714Y-81876285D01*
X131934714Y-81304857D01*
X131863285Y-81162000D01*
X131720428Y-81090571D01*
X131434714Y-81090571D01*
X131291857Y-81162000D01*
X131220428Y-81304857D01*
X131220428Y-81447714D01*
X131934714Y-81590571D01*
X130363285Y-82090571D02*
X130506142Y-82019142D01*
X130577571Y-81876285D01*
X130577571Y-80590571D01*
X130006142Y-81090571D02*
X129434714Y-81090571D01*
X129791857Y-80590571D02*
X129791857Y-81876285D01*
X129720428Y-82019142D01*
X129577571Y-82090571D01*
X129434714Y-82090571D01*
X128934714Y-81947714D02*
X128863285Y-82019142D01*
X128934714Y-82090571D01*
X129006142Y-82019142D01*
X128934714Y-81947714D01*
X128934714Y-82090571D01*
X127577571Y-82019142D02*
X127720428Y-82090571D01*
X128006142Y-82090571D01*
X128149000Y-82019142D01*
X128220428Y-81947714D01*
X128291857Y-81804857D01*
X128291857Y-81376285D01*
X128220428Y-81233428D01*
X128149000Y-81162000D01*
X128006142Y-81090571D01*
X127720428Y-81090571D01*
X127577571Y-81162000D01*
X126720428Y-82090571D02*
X126863285Y-82019142D01*
X126934714Y-81947714D01*
X127006142Y-81804857D01*
X127006142Y-81376285D01*
X126934714Y-81233428D01*
X126863285Y-81162000D01*
X126720428Y-81090571D01*
X126506142Y-81090571D01*
X126363285Y-81162000D01*
X126291857Y-81233428D01*
X126220428Y-81376285D01*
X126220428Y-81804857D01*
X126291857Y-81947714D01*
X126363285Y-82019142D01*
X126506142Y-82090571D01*
X126720428Y-82090571D01*
X125577571Y-82090571D02*
X125577571Y-81090571D01*
X125577571Y-81233428D02*
X125506142Y-81162000D01*
X125363285Y-81090571D01*
X125149000Y-81090571D01*
X125006142Y-81162000D01*
X124934714Y-81304857D01*
X124934714Y-82090571D01*
X124934714Y-81304857D02*
X124863285Y-81162000D01*
X124720428Y-81090571D01*
X124506142Y-81090571D01*
X124363285Y-81162000D01*
X124291857Y-81304857D01*
X124291857Y-82090571D01*
X123720428Y-82662000D02*
X123649000Y-82590571D01*
X123506142Y-82376285D01*
X123434714Y-82233428D01*
X123363285Y-82019142D01*
X123291857Y-81662000D01*
X123291857Y-81376285D01*
X123363285Y-81019142D01*
X123434714Y-80804857D01*
X123506142Y-80662000D01*
X123649000Y-80447714D01*
X123720428Y-80376285D01*
D11*
X136605928Y-101468285D02*
X136320214Y-101268285D01*
X136605928Y-101125428D02*
X136005928Y-101125428D01*
X136005928Y-101354000D01*
X136034500Y-101411142D01*
X136063071Y-101439714D01*
X136120214Y-101468285D01*
X136205928Y-101468285D01*
X136263071Y-101439714D01*
X136291642Y-101411142D01*
X136320214Y-101354000D01*
X136320214Y-101125428D01*
X136291642Y-101725428D02*
X136291642Y-101925428D01*
X136605928Y-102011142D02*
X136605928Y-101725428D01*
X136005928Y-101725428D01*
X136005928Y-102011142D01*
X136605928Y-102268285D02*
X136005928Y-102268285D01*
X136005928Y-102411142D01*
X136034500Y-102496857D01*
X136091642Y-102554000D01*
X136148785Y-102582571D01*
X136263071Y-102611142D01*
X136348785Y-102611142D01*
X136463071Y-102582571D01*
X136520214Y-102554000D01*
X136577357Y-102496857D01*
X136605928Y-102411142D01*
X136605928Y-102268285D01*
X138638000Y-100727000D02*
X138609428Y-100669857D01*
X138609428Y-100584142D01*
X138638000Y-100498428D01*
X138695142Y-100441285D01*
X138752285Y-100412714D01*
X138866571Y-100384142D01*
X138952285Y-100384142D01*
X139066571Y-100412714D01*
X139123714Y-100441285D01*
X139180857Y-100498428D01*
X139209428Y-100584142D01*
X139209428Y-100641285D01*
X139180857Y-100727000D01*
X139152285Y-100755571D01*
X138952285Y-100755571D01*
X138952285Y-100641285D01*
X139209428Y-101355571D02*
X138923714Y-101155571D01*
X139209428Y-101012714D02*
X138609428Y-101012714D01*
X138609428Y-101241285D01*
X138638000Y-101298428D01*
X138666571Y-101327000D01*
X138723714Y-101355571D01*
X138809428Y-101355571D01*
X138866571Y-101327000D01*
X138895142Y-101298428D01*
X138923714Y-101241285D01*
X138923714Y-101012714D01*
X138895142Y-101612714D02*
X138895142Y-101812714D01*
X139209428Y-101898428D02*
X139209428Y-101612714D01*
X138609428Y-101612714D01*
X138609428Y-101898428D01*
X138895142Y-102155571D02*
X138895142Y-102355571D01*
X139209428Y-102441285D02*
X139209428Y-102155571D01*
X138609428Y-102155571D01*
X138609428Y-102441285D01*
X139209428Y-102698428D02*
X138609428Y-102698428D01*
X139209428Y-103041285D01*
X138609428Y-103041285D01*
X141371642Y-101004785D02*
X141400214Y-101090500D01*
X141428785Y-101119071D01*
X141485928Y-101147642D01*
X141571642Y-101147642D01*
X141628785Y-101119071D01*
X141657357Y-101090500D01*
X141685928Y-101033357D01*
X141685928Y-100804785D01*
X141085928Y-100804785D01*
X141085928Y-101004785D01*
X141114500Y-101061928D01*
X141143071Y-101090500D01*
X141200214Y-101119071D01*
X141257357Y-101119071D01*
X141314500Y-101090500D01*
X141343071Y-101061928D01*
X141371642Y-101004785D01*
X141371642Y-100804785D01*
X141685928Y-101690500D02*
X141685928Y-101404785D01*
X141085928Y-101404785D01*
X141085928Y-101890500D02*
X141571642Y-101890500D01*
X141628785Y-101919071D01*
X141657357Y-101947642D01*
X141685928Y-102004785D01*
X141685928Y-102119071D01*
X141657357Y-102176214D01*
X141628785Y-102204785D01*
X141571642Y-102233357D01*
X141085928Y-102233357D01*
X141371642Y-102519071D02*
X141371642Y-102719071D01*
X141685928Y-102804785D02*
X141685928Y-102519071D01*
X141085928Y-102519071D01*
X141085928Y-102804785D01*
X144197357Y-100684142D02*
X144225928Y-100769857D01*
X144225928Y-100912714D01*
X144197357Y-100969857D01*
X144168785Y-100998428D01*
X144111642Y-101027000D01*
X144054500Y-101027000D01*
X143997357Y-100998428D01*
X143968785Y-100969857D01*
X143940214Y-100912714D01*
X143911642Y-100798428D01*
X143883071Y-100741285D01*
X143854500Y-100712714D01*
X143797357Y-100684142D01*
X143740214Y-100684142D01*
X143683071Y-100712714D01*
X143654500Y-100741285D01*
X143625928Y-100798428D01*
X143625928Y-100941285D01*
X143654500Y-101027000D01*
X143940214Y-101398428D02*
X144225928Y-101398428D01*
X143625928Y-101198428D02*
X143940214Y-101398428D01*
X143625928Y-101598428D01*
X144225928Y-101798428D02*
X143625928Y-101798428D01*
X144225928Y-102141285D01*
X143625928Y-102141285D01*
X144168785Y-102769857D02*
X144197357Y-102741285D01*
X144225928Y-102655571D01*
X144225928Y-102598428D01*
X144197357Y-102512714D01*
X144140214Y-102455571D01*
X144083071Y-102427000D01*
X143968785Y-102398428D01*
X143883071Y-102398428D01*
X143768785Y-102427000D01*
X143711642Y-102455571D01*
X143654500Y-102512714D01*
X143625928Y-102598428D01*
X143625928Y-102655571D01*
X143654500Y-102741285D01*
X143683071Y-102769857D01*
X146258000Y-101206357D02*
X146229428Y-101149214D01*
X146229428Y-101063500D01*
X146258000Y-100977785D01*
X146315142Y-100920642D01*
X146372285Y-100892071D01*
X146486571Y-100863500D01*
X146572285Y-100863500D01*
X146686571Y-100892071D01*
X146743714Y-100920642D01*
X146800857Y-100977785D01*
X146829428Y-101063500D01*
X146829428Y-101120642D01*
X146800857Y-101206357D01*
X146772285Y-101234928D01*
X146572285Y-101234928D01*
X146572285Y-101120642D01*
X146829428Y-101492071D02*
X146229428Y-101492071D01*
X146829428Y-101834928D01*
X146229428Y-101834928D01*
X146829428Y-102120642D02*
X146229428Y-102120642D01*
X146229428Y-102263500D01*
X146258000Y-102349214D01*
X146315142Y-102406357D01*
X146372285Y-102434928D01*
X146486571Y-102463500D01*
X146572285Y-102463500D01*
X146686571Y-102434928D01*
X146743714Y-102406357D01*
X146800857Y-102349214D01*
X146829428Y-102263500D01*
X146829428Y-102120642D01*
X149055142Y-100655571D02*
X149083714Y-100741285D01*
X149112285Y-100769857D01*
X149169428Y-100798428D01*
X149255142Y-100798428D01*
X149312285Y-100769857D01*
X149340857Y-100741285D01*
X149369428Y-100684142D01*
X149369428Y-100455571D01*
X148769428Y-100455571D01*
X148769428Y-100655571D01*
X148798000Y-100712714D01*
X148826571Y-100741285D01*
X148883714Y-100769857D01*
X148940857Y-100769857D01*
X148998000Y-100741285D01*
X149026571Y-100712714D01*
X149055142Y-100655571D01*
X149055142Y-100455571D01*
X149369428Y-101341285D02*
X149369428Y-101055571D01*
X148769428Y-101055571D01*
X149198000Y-101512714D02*
X149198000Y-101798428D01*
X149369428Y-101455571D02*
X148769428Y-101655571D01*
X149369428Y-101855571D01*
X149369428Y-102055571D02*
X148769428Y-102055571D01*
X149369428Y-102398428D01*
X148769428Y-102398428D01*
X149369428Y-102684142D02*
X148769428Y-102684142D01*
X149369428Y-103027000D02*
X149026571Y-102769857D01*
X148769428Y-103027000D02*
X149112285Y-102684142D01*
X159529428Y-100584142D02*
X158929428Y-100584142D01*
X159358000Y-100784142D01*
X158929428Y-100984142D01*
X159529428Y-100984142D01*
X158929428Y-101384142D02*
X158929428Y-101498428D01*
X158958000Y-101555571D01*
X159015142Y-101612714D01*
X159129428Y-101641285D01*
X159329428Y-101641285D01*
X159443714Y-101612714D01*
X159500857Y-101555571D01*
X159529428Y-101498428D01*
X159529428Y-101384142D01*
X159500857Y-101327000D01*
X159443714Y-101269857D01*
X159329428Y-101241285D01*
X159129428Y-101241285D01*
X159015142Y-101269857D01*
X158958000Y-101327000D01*
X158929428Y-101384142D01*
X159529428Y-101898428D02*
X158929428Y-101898428D01*
X159529428Y-102241285D01*
X158929428Y-102241285D01*
X158929428Y-102641285D02*
X158929428Y-102755571D01*
X158958000Y-102812714D01*
X159015142Y-102869857D01*
X159129428Y-102898428D01*
X159329428Y-102898428D01*
X159443714Y-102869857D01*
X159500857Y-102812714D01*
X159529428Y-102755571D01*
X159529428Y-102641285D01*
X159500857Y-102584142D01*
X159443714Y-102527000D01*
X159329428Y-102498428D01*
X159129428Y-102498428D01*
X159015142Y-102527000D01*
X158958000Y-102584142D01*
X158929428Y-102641285D01*
X153814500Y-101333357D02*
X153785928Y-101276214D01*
X153785928Y-101190500D01*
X153814500Y-101104785D01*
X153871642Y-101047642D01*
X153928785Y-101019071D01*
X154043071Y-100990500D01*
X154128785Y-100990500D01*
X154243071Y-101019071D01*
X154300214Y-101047642D01*
X154357357Y-101104785D01*
X154385928Y-101190500D01*
X154385928Y-101247642D01*
X154357357Y-101333357D01*
X154328785Y-101361928D01*
X154128785Y-101361928D01*
X154128785Y-101247642D01*
X154385928Y-101619071D02*
X153785928Y-101619071D01*
X154385928Y-101961928D01*
X153785928Y-101961928D01*
X154385928Y-102247642D02*
X153785928Y-102247642D01*
X153785928Y-102390500D01*
X153814500Y-102476214D01*
X153871642Y-102533357D01*
X153928785Y-102561928D01*
X154043071Y-102590500D01*
X154128785Y-102590500D01*
X154243071Y-102561928D01*
X154300214Y-102533357D01*
X154357357Y-102476214D01*
X154385928Y-102390500D01*
X154385928Y-102247642D01*
X151845928Y-100927000D02*
X151560214Y-100727000D01*
X151845928Y-100584142D02*
X151245928Y-100584142D01*
X151245928Y-100812714D01*
X151274500Y-100869857D01*
X151303071Y-100898428D01*
X151360214Y-100927000D01*
X151445928Y-100927000D01*
X151503071Y-100898428D01*
X151531642Y-100869857D01*
X151560214Y-100812714D01*
X151560214Y-100584142D01*
X151845928Y-101184142D02*
X151245928Y-101184142D01*
X151274500Y-101784142D02*
X151245928Y-101727000D01*
X151245928Y-101641285D01*
X151274500Y-101555571D01*
X151331642Y-101498428D01*
X151388785Y-101469857D01*
X151503071Y-101441285D01*
X151588785Y-101441285D01*
X151703071Y-101469857D01*
X151760214Y-101498428D01*
X151817357Y-101555571D01*
X151845928Y-101641285D01*
X151845928Y-101698428D01*
X151817357Y-101784142D01*
X151788785Y-101812714D01*
X151588785Y-101812714D01*
X151588785Y-101698428D01*
X151845928Y-102069857D02*
X151245928Y-102069857D01*
X151531642Y-102069857D02*
X151531642Y-102412714D01*
X151845928Y-102412714D02*
X151245928Y-102412714D01*
X151245928Y-102612714D02*
X151245928Y-102955571D01*
X151845928Y-102784142D02*
X151245928Y-102784142D01*
X156925928Y-101155571D02*
X156925928Y-100869857D01*
X156325928Y-100869857D01*
X156611642Y-101355571D02*
X156611642Y-101555571D01*
X156925928Y-101641285D02*
X156925928Y-101355571D01*
X156325928Y-101355571D01*
X156325928Y-101641285D01*
X156611642Y-102098428D02*
X156611642Y-101898428D01*
X156925928Y-101898428D02*
X156325928Y-101898428D01*
X156325928Y-102184142D01*
X156325928Y-102327000D02*
X156325928Y-102669857D01*
X156925928Y-102498428D02*
X156325928Y-102498428D01*
D10*
X137001000Y-75100571D02*
X137501000Y-74386285D01*
X137858142Y-75100571D02*
X137858142Y-73600571D01*
X137286714Y-73600571D01*
X137143857Y-73672000D01*
X137072428Y-73743428D01*
X137001000Y-73886285D01*
X137001000Y-74100571D01*
X137072428Y-74243428D01*
X137143857Y-74314857D01*
X137286714Y-74386285D01*
X137858142Y-74386285D01*
X136358142Y-75100571D02*
X136358142Y-73600571D01*
X134858142Y-73672000D02*
X135001000Y-73600571D01*
X135215285Y-73600571D01*
X135429571Y-73672000D01*
X135572428Y-73814857D01*
X135643857Y-73957714D01*
X135715285Y-74243428D01*
X135715285Y-74457714D01*
X135643857Y-74743428D01*
X135572428Y-74886285D01*
X135429571Y-75029142D01*
X135215285Y-75100571D01*
X135072428Y-75100571D01*
X134858142Y-75029142D01*
X134786714Y-74957714D01*
X134786714Y-74457714D01*
X135072428Y-74457714D01*
X134143857Y-75100571D02*
X134143857Y-73600571D01*
X134143857Y-74314857D02*
X133286714Y-74314857D01*
X133286714Y-75100571D02*
X133286714Y-73600571D01*
X132786714Y-73600571D02*
X131929571Y-73600571D01*
X132358142Y-75100571D02*
X132358142Y-73600571D01*
X156051071Y-75100571D02*
X156765357Y-75100571D01*
X156765357Y-73600571D01*
X155551071Y-74314857D02*
X155051071Y-74314857D01*
X154836785Y-75100571D02*
X155551071Y-75100571D01*
X155551071Y-73600571D01*
X154836785Y-73600571D01*
X153693928Y-74314857D02*
X154193928Y-74314857D01*
X154193928Y-75100571D02*
X154193928Y-73600571D01*
X153479642Y-73600571D01*
X153122500Y-73600571D02*
X152265357Y-73600571D01*
X152693928Y-75100571D02*
X152693928Y-73600571D01*
D12*
%TO.C,C1*%
X137866500Y-93574500D02*
X138866500Y-93574500D01*
X138866500Y-95274500D02*
X137866500Y-95274500D01*
%TO.C,C2*%
X145486500Y-93574500D02*
X146486500Y-93574500D01*
X146486500Y-95274500D02*
X145486500Y-95274500D01*
%TO.C,C3*%
X153106500Y-93574500D02*
X154106500Y-93574500D01*
X154106500Y-95274500D02*
X153106500Y-95274500D01*
%TO.C,C4*%
X132961000Y-97814500D02*
X131961000Y-97814500D01*
X131961000Y-96114500D02*
X132961000Y-96114500D01*
%TO.C,R1*%
X140280500Y-93761000D02*
X140280500Y-94961000D01*
X142040500Y-94961000D02*
X142040500Y-93761000D01*
%TO.C,R2*%
X147900500Y-93761000D02*
X147900500Y-94961000D01*
X149660500Y-94961000D02*
X149660500Y-93761000D01*
%TO.C,R3*%
X155520500Y-93888000D02*
X155520500Y-95088000D01*
X157280500Y-95088000D02*
X157280500Y-93888000D01*
%TO.C,R4*%
X130755500Y-93761000D02*
X130755500Y-94961000D01*
X132515500Y-94961000D02*
X132515500Y-93761000D01*
%TO.C,R5*%
X132787500Y-93761000D02*
X132787500Y-94961000D01*
X134547500Y-94961000D02*
X134547500Y-93761000D01*
%TO.C,R6*%
X157489000Y-93888000D02*
X157489000Y-95088000D01*
X159249000Y-95088000D02*
X159249000Y-93888000D01*
%TO.C,R7*%
X149869000Y-93761000D02*
X149869000Y-94961000D01*
X151629000Y-94961000D02*
X151629000Y-93761000D01*
%TO.C,R8*%
X142249000Y-93761000D02*
X142249000Y-94961000D01*
X144009000Y-94961000D02*
X144009000Y-93761000D01*
%TO.C,R9*%
X170824000Y-81696000D02*
X170824000Y-82896000D01*
X172584000Y-82896000D02*
X172584000Y-81696000D01*
%TO.C,R10*%
X168855500Y-81696000D02*
X168855500Y-82896000D01*
X170615500Y-82896000D02*
X170615500Y-81696000D01*
%TO.C,R11*%
X172792500Y-81696000D02*
X172792500Y-82896000D01*
X174552500Y-82896000D02*
X174552500Y-81696000D01*
%TO.C,JP1*%
X130303000Y-95059500D02*
X128523000Y-95059500D01*
X128523000Y-97599500D02*
X130303000Y-97599500D01*
X128523000Y-97599500D02*
X128523000Y-95059500D01*
X130303000Y-95059500D02*
X130303000Y-97599500D01*
%TO.C,C1*%
D13*
X138533166Y-96369142D02*
X138580785Y-96416761D01*
X138723642Y-96464380D01*
X138818880Y-96464380D01*
X138961738Y-96416761D01*
X139056976Y-96321523D01*
X139104595Y-96226285D01*
X139152214Y-96035809D01*
X139152214Y-95892952D01*
X139104595Y-95702476D01*
X139056976Y-95607238D01*
X138961738Y-95512000D01*
X138818880Y-95464380D01*
X138723642Y-95464380D01*
X138580785Y-95512000D01*
X138533166Y-95559619D01*
X137580785Y-96464380D02*
X138152214Y-96464380D01*
X137866500Y-96464380D02*
X137866500Y-95464380D01*
X137961738Y-95607238D01*
X138056976Y-95702476D01*
X138152214Y-95750095D01*
%TO.C,C2*%
X146153166Y-96369142D02*
X146200785Y-96416761D01*
X146343642Y-96464380D01*
X146438880Y-96464380D01*
X146581738Y-96416761D01*
X146676976Y-96321523D01*
X146724595Y-96226285D01*
X146772214Y-96035809D01*
X146772214Y-95892952D01*
X146724595Y-95702476D01*
X146676976Y-95607238D01*
X146581738Y-95512000D01*
X146438880Y-95464380D01*
X146343642Y-95464380D01*
X146200785Y-95512000D01*
X146153166Y-95559619D01*
X145772214Y-95559619D02*
X145724595Y-95512000D01*
X145629357Y-95464380D01*
X145391261Y-95464380D01*
X145296023Y-95512000D01*
X145248404Y-95559619D01*
X145200785Y-95654857D01*
X145200785Y-95750095D01*
X145248404Y-95892952D01*
X145819833Y-96464380D01*
X145200785Y-96464380D01*
%TO.C,C3*%
X153773166Y-96369142D02*
X153820785Y-96416761D01*
X153963642Y-96464380D01*
X154058880Y-96464380D01*
X154201738Y-96416761D01*
X154296976Y-96321523D01*
X154344595Y-96226285D01*
X154392214Y-96035809D01*
X154392214Y-95892952D01*
X154344595Y-95702476D01*
X154296976Y-95607238D01*
X154201738Y-95512000D01*
X154058880Y-95464380D01*
X153963642Y-95464380D01*
X153820785Y-95512000D01*
X153773166Y-95559619D01*
X153439833Y-95464380D02*
X152820785Y-95464380D01*
X153154119Y-95845333D01*
X153011261Y-95845333D01*
X152916023Y-95892952D01*
X152868404Y-95940571D01*
X152820785Y-96035809D01*
X152820785Y-96273904D01*
X152868404Y-96369142D01*
X152916023Y-96416761D01*
X153011261Y-96464380D01*
X153296976Y-96464380D01*
X153392214Y-96416761D01*
X153439833Y-96369142D01*
%TO.C,C4*%
X135421666Y-97385142D02*
X135469285Y-97432761D01*
X135612142Y-97480380D01*
X135707380Y-97480380D01*
X135850238Y-97432761D01*
X135945476Y-97337523D01*
X135993095Y-97242285D01*
X136040714Y-97051809D01*
X136040714Y-96908952D01*
X135993095Y-96718476D01*
X135945476Y-96623238D01*
X135850238Y-96528000D01*
X135707380Y-96480380D01*
X135612142Y-96480380D01*
X135469285Y-96528000D01*
X135421666Y-96575619D01*
X134564523Y-96813714D02*
X134564523Y-97480380D01*
X134802619Y-96432761D02*
X135040714Y-97147047D01*
X134421666Y-97147047D01*
%TO.C,R1*%
X141612880Y-96670833D02*
X141136690Y-96337500D01*
X141612880Y-96099404D02*
X140612880Y-96099404D01*
X140612880Y-96480357D01*
X140660500Y-96575595D01*
X140708119Y-96623214D01*
X140803357Y-96670833D01*
X140946214Y-96670833D01*
X141041452Y-96623214D01*
X141089071Y-96575595D01*
X141136690Y-96480357D01*
X141136690Y-96099404D01*
X141612880Y-97623214D02*
X141612880Y-97051785D01*
X141612880Y-97337500D02*
X140612880Y-97337500D01*
X140755738Y-97242261D01*
X140850976Y-97147023D01*
X140898595Y-97051785D01*
%TO.C,R2*%
X149296380Y-96670833D02*
X148820190Y-96337500D01*
X149296380Y-96099404D02*
X148296380Y-96099404D01*
X148296380Y-96480357D01*
X148344000Y-96575595D01*
X148391619Y-96623214D01*
X148486857Y-96670833D01*
X148629714Y-96670833D01*
X148724952Y-96623214D01*
X148772571Y-96575595D01*
X148820190Y-96480357D01*
X148820190Y-96099404D01*
X148391619Y-97051785D02*
X148344000Y-97099404D01*
X148296380Y-97194642D01*
X148296380Y-97432738D01*
X148344000Y-97527976D01*
X148391619Y-97575595D01*
X148486857Y-97623214D01*
X148582095Y-97623214D01*
X148724952Y-97575595D01*
X149296380Y-97004166D01*
X149296380Y-97623214D01*
%TO.C,R3*%
X156916380Y-96797833D02*
X156440190Y-96464500D01*
X156916380Y-96226404D02*
X155916380Y-96226404D01*
X155916380Y-96607357D01*
X155964000Y-96702595D01*
X156011619Y-96750214D01*
X156106857Y-96797833D01*
X156249714Y-96797833D01*
X156344952Y-96750214D01*
X156392571Y-96702595D01*
X156440190Y-96607357D01*
X156440190Y-96226404D01*
X155916380Y-97131166D02*
X155916380Y-97750214D01*
X156297333Y-97416880D01*
X156297333Y-97559738D01*
X156344952Y-97654976D01*
X156392571Y-97702595D01*
X156487809Y-97750214D01*
X156725904Y-97750214D01*
X156821142Y-97702595D01*
X156868761Y-97654976D01*
X156916380Y-97559738D01*
X156916380Y-97274023D01*
X156868761Y-97178785D01*
X156821142Y-97131166D01*
%TO.C,R4*%
X130500380Y-93432333D02*
X130024190Y-93099000D01*
X130500380Y-92860904D02*
X129500380Y-92860904D01*
X129500380Y-93241857D01*
X129548000Y-93337095D01*
X129595619Y-93384714D01*
X129690857Y-93432333D01*
X129833714Y-93432333D01*
X129928952Y-93384714D01*
X129976571Y-93337095D01*
X130024190Y-93241857D01*
X130024190Y-92860904D01*
X129833714Y-94289476D02*
X130500380Y-94289476D01*
X129452761Y-94051380D02*
X130167047Y-93813285D01*
X130167047Y-94432333D01*
%TO.C,R5*%
X135770880Y-93432333D02*
X135294690Y-93099000D01*
X135770880Y-92860904D02*
X134770880Y-92860904D01*
X134770880Y-93241857D01*
X134818500Y-93337095D01*
X134866119Y-93384714D01*
X134961357Y-93432333D01*
X135104214Y-93432333D01*
X135199452Y-93384714D01*
X135247071Y-93337095D01*
X135294690Y-93241857D01*
X135294690Y-92860904D01*
X134770880Y-94337095D02*
X134770880Y-93860904D01*
X135247071Y-93813285D01*
X135199452Y-93860904D01*
X135151833Y-93956142D01*
X135151833Y-94194238D01*
X135199452Y-94289476D01*
X135247071Y-94337095D01*
X135342309Y-94384714D01*
X135580404Y-94384714D01*
X135675642Y-94337095D01*
X135723261Y-94289476D01*
X135770880Y-94194238D01*
X135770880Y-93956142D01*
X135723261Y-93860904D01*
X135675642Y-93813285D01*
%TO.C,R6*%
X158821380Y-96797833D02*
X158345190Y-96464500D01*
X158821380Y-96226404D02*
X157821380Y-96226404D01*
X157821380Y-96607357D01*
X157869000Y-96702595D01*
X157916619Y-96750214D01*
X158011857Y-96797833D01*
X158154714Y-96797833D01*
X158249952Y-96750214D01*
X158297571Y-96702595D01*
X158345190Y-96607357D01*
X158345190Y-96226404D01*
X157821380Y-97654976D02*
X157821380Y-97464500D01*
X157869000Y-97369261D01*
X157916619Y-97321642D01*
X158059476Y-97226404D01*
X158249952Y-97178785D01*
X158630904Y-97178785D01*
X158726142Y-97226404D01*
X158773761Y-97274023D01*
X158821380Y-97369261D01*
X158821380Y-97559738D01*
X158773761Y-97654976D01*
X158726142Y-97702595D01*
X158630904Y-97750214D01*
X158392809Y-97750214D01*
X158297571Y-97702595D01*
X158249952Y-97654976D01*
X158202333Y-97559738D01*
X158202333Y-97369261D01*
X158249952Y-97274023D01*
X158297571Y-97226404D01*
X158392809Y-97178785D01*
%TO.C,R7*%
X151201380Y-96670833D02*
X150725190Y-96337500D01*
X151201380Y-96099404D02*
X150201380Y-96099404D01*
X150201380Y-96480357D01*
X150249000Y-96575595D01*
X150296619Y-96623214D01*
X150391857Y-96670833D01*
X150534714Y-96670833D01*
X150629952Y-96623214D01*
X150677571Y-96575595D01*
X150725190Y-96480357D01*
X150725190Y-96099404D01*
X150201380Y-97004166D02*
X150201380Y-97670833D01*
X151201380Y-97242261D01*
%TO.C,R8*%
X143581380Y-96670833D02*
X143105190Y-96337500D01*
X143581380Y-96099404D02*
X142581380Y-96099404D01*
X142581380Y-96480357D01*
X142629000Y-96575595D01*
X142676619Y-96623214D01*
X142771857Y-96670833D01*
X142914714Y-96670833D01*
X143009952Y-96623214D01*
X143057571Y-96575595D01*
X143105190Y-96480357D01*
X143105190Y-96099404D01*
X143009952Y-97242261D02*
X142962333Y-97147023D01*
X142914714Y-97099404D01*
X142819476Y-97051785D01*
X142771857Y-97051785D01*
X142676619Y-97099404D01*
X142629000Y-97147023D01*
X142581380Y-97242261D01*
X142581380Y-97432738D01*
X142629000Y-97527976D01*
X142676619Y-97575595D01*
X142771857Y-97623214D01*
X142819476Y-97623214D01*
X142914714Y-97575595D01*
X142962333Y-97527976D01*
X143009952Y-97432738D01*
X143009952Y-97242261D01*
X143057571Y-97147023D01*
X143105190Y-97099404D01*
X143200428Y-97051785D01*
X143390904Y-97051785D01*
X143486142Y-97099404D01*
X143533761Y-97147023D01*
X143581380Y-97242261D01*
X143581380Y-97432738D01*
X143533761Y-97527976D01*
X143486142Y-97575595D01*
X143390904Y-97623214D01*
X143200428Y-97623214D01*
X143105190Y-97575595D01*
X143057571Y-97527976D01*
X143009952Y-97432738D01*
%TO.C,R9*%
X172156380Y-84605833D02*
X171680190Y-84272500D01*
X172156380Y-84034404D02*
X171156380Y-84034404D01*
X171156380Y-84415357D01*
X171204000Y-84510595D01*
X171251619Y-84558214D01*
X171346857Y-84605833D01*
X171489714Y-84605833D01*
X171584952Y-84558214D01*
X171632571Y-84510595D01*
X171680190Y-84415357D01*
X171680190Y-84034404D01*
X172156380Y-85082023D02*
X172156380Y-85272500D01*
X172108761Y-85367738D01*
X172061142Y-85415357D01*
X171918285Y-85510595D01*
X171727809Y-85558214D01*
X171346857Y-85558214D01*
X171251619Y-85510595D01*
X171204000Y-85462976D01*
X171156380Y-85367738D01*
X171156380Y-85177261D01*
X171204000Y-85082023D01*
X171251619Y-85034404D01*
X171346857Y-84986785D01*
X171584952Y-84986785D01*
X171680190Y-85034404D01*
X171727809Y-85082023D01*
X171775428Y-85177261D01*
X171775428Y-85367738D01*
X171727809Y-85462976D01*
X171680190Y-85510595D01*
X171584952Y-85558214D01*
%TO.C,R10*%
X170187880Y-84574142D02*
X169711690Y-84240809D01*
X170187880Y-84002714D02*
X169187880Y-84002714D01*
X169187880Y-84383666D01*
X169235500Y-84478904D01*
X169283119Y-84526523D01*
X169378357Y-84574142D01*
X169521214Y-84574142D01*
X169616452Y-84526523D01*
X169664071Y-84478904D01*
X169711690Y-84383666D01*
X169711690Y-84002714D01*
X170187880Y-85526523D02*
X170187880Y-84955095D01*
X170187880Y-85240809D02*
X169187880Y-85240809D01*
X169330738Y-85145571D01*
X169425976Y-85050333D01*
X169473595Y-84955095D01*
X169187880Y-86145571D02*
X169187880Y-86240809D01*
X169235500Y-86336047D01*
X169283119Y-86383666D01*
X169378357Y-86431285D01*
X169568833Y-86478904D01*
X169806928Y-86478904D01*
X169997404Y-86431285D01*
X170092642Y-86383666D01*
X170140261Y-86336047D01*
X170187880Y-86240809D01*
X170187880Y-86145571D01*
X170140261Y-86050333D01*
X170092642Y-86002714D01*
X169997404Y-85955095D01*
X169806928Y-85907476D01*
X169568833Y-85907476D01*
X169378357Y-85955095D01*
X169283119Y-86002714D01*
X169235500Y-86050333D01*
X169187880Y-86145571D01*
%TO.C,R11*%
X174188380Y-84574142D02*
X173712190Y-84240809D01*
X174188380Y-84002714D02*
X173188380Y-84002714D01*
X173188380Y-84383666D01*
X173236000Y-84478904D01*
X173283619Y-84526523D01*
X173378857Y-84574142D01*
X173521714Y-84574142D01*
X173616952Y-84526523D01*
X173664571Y-84478904D01*
X173712190Y-84383666D01*
X173712190Y-84002714D01*
X174188380Y-85526523D02*
X174188380Y-84955095D01*
X174188380Y-85240809D02*
X173188380Y-85240809D01*
X173331238Y-85145571D01*
X173426476Y-85050333D01*
X173474095Y-84955095D01*
X174188380Y-86478904D02*
X174188380Y-85907476D01*
X174188380Y-86193190D02*
X173188380Y-86193190D01*
X173331238Y-86097952D01*
X173426476Y-86002714D01*
X173474095Y-85907476D01*
%TO.C,JP1*%
X127085380Y-95496166D02*
X127799666Y-95496166D01*
X127942523Y-95448547D01*
X128037761Y-95353309D01*
X128085380Y-95210452D01*
X128085380Y-95115214D01*
X128085380Y-95972357D02*
X127085380Y-95972357D01*
X127085380Y-96353309D01*
X127133000Y-96448547D01*
X127180619Y-96496166D01*
X127275857Y-96543785D01*
X127418714Y-96543785D01*
X127513952Y-96496166D01*
X127561571Y-96448547D01*
X127609190Y-96353309D01*
X127609190Y-95972357D01*
X128085380Y-97496166D02*
X128085380Y-96924738D01*
X128085380Y-97210452D02*
X127085380Y-97210452D01*
X127228238Y-97115214D01*
X127323476Y-97019976D01*
X127371095Y-96924738D01*
%TD*%
M02*
