M48
;DRILL file {KiCad 4.0.7-e2-6376~61~ubuntu18.04.1} date Fri Dec 20 20:00:38 2019
;FORMAT={-:-/ absolute / inch / decimal}
FMAT,2
INCH,TZ
T1C0.039
T2C0.051
T3C0.067
T4C0.073
T5C0.079
T6C0.126
%
G90
G05
M72
T1
X5.3675Y-3.8975
X5.4675Y-3.8975
X5.5675Y-3.8975
X5.6675Y-3.8975
X5.7675Y-3.8975
X5.8675Y-3.8975
X5.9675Y-3.8975
X6.0675Y-3.8975
X6.1675Y-3.8975
X6.2675Y-3.8975
T2
X5.1067Y-3.5957
X5.1813Y-3.3957
X5.2567Y-3.5957
X5.3313Y-3.3957
X5.4067Y-3.5957
X5.4813Y-3.3957
X5.5567Y-3.5957
X5.6313Y-3.3957
X5.7067Y-3.5957
X5.7813Y-3.3957
X5.8567Y-3.5957
X5.9313Y-3.3957
X6.0067Y-3.5957
X6.0813Y-3.3957
X6.1567Y-3.5957
X6.2313Y-3.3957
X6.3067Y-3.5957
X6.3813Y-3.3957
X6.4567Y-3.5957
X6.5313Y-3.3957
X6.6067Y-3.5957
T3
X5.3125Y-2.765
X6.08Y-2.765
T4
X6.4449Y-2.815
X6.4449Y-3.0052
X6.63Y-2.815
X6.63Y-3.0052
X6.815Y-2.815
X6.815Y-3.0052
T5
X5.1097Y-2.828
X5.5153Y-2.828
X5.8772Y-2.828
X6.2828Y-2.828
T6
X4.915Y-2.7725
X4.915Y-3.945
X6.7625Y-3.9475
T0
M30
