G04 #@! TF.FileFunction,Legend,Bot*
%FSLAX46Y46*%
G04 Gerber Fmt 4.6, Leading zero omitted, Abs format (unit mm)*
G04 Created by KiCad (PCBNEW 4.0.7-e2-6376~61~ubuntu18.04.1) date Fri Dec 20 20:00:32 2019*
%MOMM*%
%LPD*%
G01*
G04 APERTURE LIST*
%ADD10C,0.100000*%
%ADD11C,0.300000*%
%ADD12C,0.120000*%
%ADD13C,0.150000*%
G04 APERTURE END LIST*
D10*
D11*
X155720428Y-79540571D02*
X156220428Y-78826286D01*
X156577571Y-79540571D02*
X156577571Y-78040571D01*
X156006143Y-78040571D01*
X155863285Y-78112000D01*
X155791857Y-78183429D01*
X155720428Y-78326286D01*
X155720428Y-78540571D01*
X155791857Y-78683429D01*
X155863285Y-78754857D01*
X156006143Y-78826286D01*
X156577571Y-78826286D01*
X154291857Y-78112000D02*
X154434714Y-78040571D01*
X154649000Y-78040571D01*
X154863285Y-78112000D01*
X155006143Y-78254857D01*
X155077571Y-78397714D01*
X155149000Y-78683429D01*
X155149000Y-78897714D01*
X155077571Y-79183429D01*
X155006143Y-79326286D01*
X154863285Y-79469143D01*
X154649000Y-79540571D01*
X154506143Y-79540571D01*
X154291857Y-79469143D01*
X154220428Y-79397714D01*
X154220428Y-78897714D01*
X154506143Y-78897714D01*
X153077571Y-78754857D02*
X152863285Y-78826286D01*
X152791857Y-78897714D01*
X152720428Y-79040571D01*
X152720428Y-79254857D01*
X152791857Y-79397714D01*
X152863285Y-79469143D01*
X153006143Y-79540571D01*
X153577571Y-79540571D01*
X153577571Y-78040571D01*
X153077571Y-78040571D01*
X152934714Y-78112000D01*
X152863285Y-78183429D01*
X152791857Y-78326286D01*
X152791857Y-78469143D01*
X152863285Y-78612000D01*
X152934714Y-78683429D01*
X153077571Y-78754857D01*
X153577571Y-78754857D01*
X151006143Y-79469143D02*
X150791857Y-79540571D01*
X150434714Y-79540571D01*
X150291857Y-79469143D01*
X150220428Y-79397714D01*
X150149000Y-79254857D01*
X150149000Y-79112000D01*
X150220428Y-78969143D01*
X150291857Y-78897714D01*
X150434714Y-78826286D01*
X150720428Y-78754857D01*
X150863286Y-78683429D01*
X150934714Y-78612000D01*
X151006143Y-78469143D01*
X151006143Y-78326286D01*
X150934714Y-78183429D01*
X150863286Y-78112000D01*
X150720428Y-78040571D01*
X150363286Y-78040571D01*
X150149000Y-78112000D01*
X148649000Y-79397714D02*
X148720429Y-79469143D01*
X148934715Y-79540571D01*
X149077572Y-79540571D01*
X149291857Y-79469143D01*
X149434715Y-79326286D01*
X149506143Y-79183429D01*
X149577572Y-78897714D01*
X149577572Y-78683429D01*
X149506143Y-78397714D01*
X149434715Y-78254857D01*
X149291857Y-78112000D01*
X149077572Y-78040571D01*
X148934715Y-78040571D01*
X148720429Y-78112000D01*
X148649000Y-78183429D01*
X148077572Y-79112000D02*
X147363286Y-79112000D01*
X148220429Y-79540571D02*
X147720429Y-78040571D01*
X147220429Y-79540571D01*
X145863286Y-79540571D02*
X146363286Y-78826286D01*
X146720429Y-79540571D02*
X146720429Y-78040571D01*
X146149001Y-78040571D01*
X146006143Y-78112000D01*
X145934715Y-78183429D01*
X145863286Y-78326286D01*
X145863286Y-78540571D01*
X145934715Y-78683429D01*
X146006143Y-78754857D01*
X146149001Y-78826286D01*
X146720429Y-78826286D01*
X145434715Y-78040571D02*
X144577572Y-78040571D01*
X145006143Y-79540571D02*
X145006143Y-78040571D01*
X142434715Y-78754857D02*
X142220429Y-78826286D01*
X142149001Y-78897714D01*
X142077572Y-79040571D01*
X142077572Y-79254857D01*
X142149001Y-79397714D01*
X142220429Y-79469143D01*
X142363287Y-79540571D01*
X142934715Y-79540571D01*
X142934715Y-78040571D01*
X142434715Y-78040571D01*
X142291858Y-78112000D01*
X142220429Y-78183429D01*
X142149001Y-78326286D01*
X142149001Y-78469143D01*
X142220429Y-78612000D01*
X142291858Y-78683429D01*
X142434715Y-78754857D01*
X142934715Y-78754857D01*
X140577572Y-79540571D02*
X141077572Y-78826286D01*
X141434715Y-79540571D02*
X141434715Y-78040571D01*
X140863287Y-78040571D01*
X140720429Y-78112000D01*
X140649001Y-78183429D01*
X140577572Y-78326286D01*
X140577572Y-78540571D01*
X140649001Y-78683429D01*
X140720429Y-78754857D01*
X140863287Y-78826286D01*
X141434715Y-78826286D01*
X139934715Y-78754857D02*
X139434715Y-78754857D01*
X139220429Y-79540571D02*
X139934715Y-79540571D01*
X139934715Y-78040571D01*
X139220429Y-78040571D01*
X138649001Y-79112000D02*
X137934715Y-79112000D01*
X138791858Y-79540571D02*
X138291858Y-78040571D01*
X137791858Y-79540571D01*
X137291858Y-79540571D02*
X137291858Y-78040571D01*
X136434715Y-79540571D02*
X137077572Y-78683429D01*
X136434715Y-78040571D02*
X137291858Y-78897714D01*
X135506144Y-78040571D02*
X135220430Y-78040571D01*
X135077572Y-78112000D01*
X134934715Y-78254857D01*
X134863287Y-78540571D01*
X134863287Y-79040571D01*
X134934715Y-79326286D01*
X135077572Y-79469143D01*
X135220430Y-79540571D01*
X135506144Y-79540571D01*
X135649001Y-79469143D01*
X135791858Y-79326286D01*
X135863287Y-79040571D01*
X135863287Y-78540571D01*
X135791858Y-78254857D01*
X135649001Y-78112000D01*
X135506144Y-78040571D01*
X134220429Y-78040571D02*
X134220429Y-79254857D01*
X134149001Y-79397714D01*
X134077572Y-79469143D01*
X133934715Y-79540571D01*
X133649001Y-79540571D01*
X133506143Y-79469143D01*
X133434715Y-79397714D01*
X133363286Y-79254857D01*
X133363286Y-78040571D01*
X132863286Y-78040571D02*
X132006143Y-78040571D01*
X132434714Y-79540571D02*
X132434714Y-78040571D01*
X165506143Y-82090571D02*
X165506143Y-80590571D01*
X165006143Y-81662000D01*
X164506143Y-80590571D01*
X164506143Y-82090571D01*
X163149000Y-82090571D02*
X163149000Y-81304857D01*
X163220429Y-81162000D01*
X163363286Y-81090571D01*
X163649000Y-81090571D01*
X163791857Y-81162000D01*
X163149000Y-82019143D02*
X163291857Y-82090571D01*
X163649000Y-82090571D01*
X163791857Y-82019143D01*
X163863286Y-81876286D01*
X163863286Y-81733429D01*
X163791857Y-81590571D01*
X163649000Y-81519143D01*
X163291857Y-81519143D01*
X163149000Y-81447714D01*
X162434714Y-82090571D02*
X162434714Y-81090571D01*
X162434714Y-81376286D02*
X162363286Y-81233429D01*
X162291857Y-81162000D01*
X162149000Y-81090571D01*
X162006143Y-81090571D01*
X161720429Y-81090571D02*
X161149000Y-81090571D01*
X161506143Y-80590571D02*
X161506143Y-81876286D01*
X161434715Y-82019143D01*
X161291857Y-82090571D01*
X161149000Y-82090571D01*
X160649000Y-82090571D02*
X160649000Y-81090571D01*
X160649000Y-80590571D02*
X160720429Y-80662000D01*
X160649000Y-80733429D01*
X160577572Y-80662000D01*
X160649000Y-80590571D01*
X160649000Y-80733429D01*
X159934714Y-81090571D02*
X159934714Y-82090571D01*
X159934714Y-81233429D02*
X159863286Y-81162000D01*
X159720428Y-81090571D01*
X159506143Y-81090571D01*
X159363286Y-81162000D01*
X159291857Y-81304857D01*
X159291857Y-82090571D01*
X157434714Y-82090571D02*
X157434714Y-80590571D01*
X157434714Y-81304857D02*
X156577571Y-81304857D01*
X156577571Y-82090571D02*
X156577571Y-80590571D01*
X155291857Y-82019143D02*
X155434714Y-82090571D01*
X155720428Y-82090571D01*
X155863285Y-82019143D01*
X155934714Y-81876286D01*
X155934714Y-81304857D01*
X155863285Y-81162000D01*
X155720428Y-81090571D01*
X155434714Y-81090571D01*
X155291857Y-81162000D01*
X155220428Y-81304857D01*
X155220428Y-81447714D01*
X155934714Y-81590571D01*
X154577571Y-81090571D02*
X154577571Y-82376286D01*
X154649000Y-82519143D01*
X154791857Y-82590571D01*
X154863285Y-82590571D01*
X154577571Y-80590571D02*
X154649000Y-80662000D01*
X154577571Y-80733429D01*
X154506143Y-80662000D01*
X154577571Y-80590571D01*
X154577571Y-80733429D01*
X153863285Y-81090571D02*
X153863285Y-82090571D01*
X153863285Y-81233429D02*
X153791857Y-81162000D01*
X153648999Y-81090571D01*
X153434714Y-81090571D01*
X153291857Y-81162000D01*
X153220428Y-81304857D01*
X153220428Y-82090571D01*
X152720428Y-81090571D02*
X152148999Y-81090571D01*
X152506142Y-82090571D02*
X152506142Y-80804857D01*
X152434714Y-80662000D01*
X152291856Y-80590571D01*
X152148999Y-80590571D01*
X151077571Y-82019143D02*
X151220428Y-82090571D01*
X151506142Y-82090571D01*
X151648999Y-82019143D01*
X151720428Y-81876286D01*
X151720428Y-81304857D01*
X151648999Y-81162000D01*
X151506142Y-81090571D01*
X151220428Y-81090571D01*
X151077571Y-81162000D01*
X151006142Y-81304857D01*
X151006142Y-81447714D01*
X151720428Y-81590571D01*
X150148999Y-82090571D02*
X150291857Y-82019143D01*
X150363285Y-81876286D01*
X150363285Y-80590571D01*
X149791857Y-81090571D02*
X149220428Y-81090571D01*
X149577571Y-80590571D02*
X149577571Y-81876286D01*
X149506143Y-82019143D01*
X149363285Y-82090571D01*
X149220428Y-82090571D01*
X147149000Y-82662000D02*
X147220428Y-82590571D01*
X147363285Y-82376286D01*
X147434714Y-82233429D01*
X147506143Y-82019143D01*
X147577571Y-81662000D01*
X147577571Y-81376286D01*
X147506143Y-81019143D01*
X147434714Y-80804857D01*
X147363285Y-80662000D01*
X147220428Y-80447714D01*
X147149000Y-80376286D01*
X146577571Y-82090571D02*
X146577571Y-81090571D01*
X146577571Y-81233429D02*
X146506143Y-81162000D01*
X146363285Y-81090571D01*
X146149000Y-81090571D01*
X146006143Y-81162000D01*
X145934714Y-81304857D01*
X145934714Y-82090571D01*
X145934714Y-81304857D02*
X145863285Y-81162000D01*
X145720428Y-81090571D01*
X145506143Y-81090571D01*
X145363285Y-81162000D01*
X145291857Y-81304857D01*
X145291857Y-82090571D01*
X143934714Y-82090571D02*
X143934714Y-81304857D01*
X144006143Y-81162000D01*
X144149000Y-81090571D01*
X144434714Y-81090571D01*
X144577571Y-81162000D01*
X143934714Y-82019143D02*
X144077571Y-82090571D01*
X144434714Y-82090571D01*
X144577571Y-82019143D01*
X144649000Y-81876286D01*
X144649000Y-81733429D01*
X144577571Y-81590571D01*
X144434714Y-81519143D01*
X144077571Y-81519143D01*
X143934714Y-81447714D01*
X143220428Y-82090571D02*
X143220428Y-81090571D01*
X143220428Y-81376286D02*
X143149000Y-81233429D01*
X143077571Y-81162000D01*
X142934714Y-81090571D01*
X142791857Y-81090571D01*
X142506143Y-81090571D02*
X141934714Y-81090571D01*
X142291857Y-80590571D02*
X142291857Y-81876286D01*
X142220429Y-82019143D01*
X142077571Y-82090571D01*
X141934714Y-82090571D01*
X141434714Y-82090571D02*
X141434714Y-81090571D01*
X141434714Y-80590571D02*
X141506143Y-80662000D01*
X141434714Y-80733429D01*
X141363286Y-80662000D01*
X141434714Y-80590571D01*
X141434714Y-80733429D01*
X140720428Y-81090571D02*
X140720428Y-82090571D01*
X140720428Y-81233429D02*
X140649000Y-81162000D01*
X140506142Y-81090571D01*
X140291857Y-81090571D01*
X140149000Y-81162000D01*
X140077571Y-81304857D01*
X140077571Y-82090571D01*
X138434714Y-81376286D02*
X138506142Y-81304857D01*
X138648999Y-81233429D01*
X138791857Y-81233429D01*
X138934714Y-81304857D01*
X139006142Y-81376286D01*
X139077571Y-81519143D01*
X139077571Y-81662000D01*
X139006142Y-81804857D01*
X138934714Y-81876286D01*
X138791857Y-81947714D01*
X138648999Y-81947714D01*
X138506142Y-81876286D01*
X138434714Y-81804857D01*
X138434714Y-81233429D02*
X138434714Y-81804857D01*
X138363285Y-81876286D01*
X138291857Y-81876286D01*
X138148999Y-81804857D01*
X138077571Y-81662000D01*
X138077571Y-81304857D01*
X138220428Y-81090571D01*
X138434714Y-80947714D01*
X138720428Y-80876286D01*
X139006142Y-80947714D01*
X139220428Y-81090571D01*
X139363285Y-81304857D01*
X139434714Y-81590571D01*
X139363285Y-81876286D01*
X139220428Y-82090571D01*
X139006142Y-82233429D01*
X138720428Y-82304857D01*
X138434714Y-82233429D01*
X138220428Y-82090571D01*
X137434714Y-82090571D02*
X137434714Y-80590571D01*
X136791857Y-82090571D02*
X136791857Y-81304857D01*
X136863286Y-81162000D01*
X137006143Y-81090571D01*
X137220428Y-81090571D01*
X137363286Y-81162000D01*
X137434714Y-81233429D01*
X135506143Y-82019143D02*
X135649000Y-82090571D01*
X135934714Y-82090571D01*
X136077571Y-82019143D01*
X136149000Y-81876286D01*
X136149000Y-81304857D01*
X136077571Y-81162000D01*
X135934714Y-81090571D01*
X135649000Y-81090571D01*
X135506143Y-81162000D01*
X135434714Y-81304857D01*
X135434714Y-81447714D01*
X136149000Y-81590571D01*
X134791857Y-81090571D02*
X134791857Y-82376286D01*
X134863286Y-82519143D01*
X135006143Y-82590571D01*
X135077571Y-82590571D01*
X134791857Y-80590571D02*
X134863286Y-80662000D01*
X134791857Y-80733429D01*
X134720429Y-80662000D01*
X134791857Y-80590571D01*
X134791857Y-80733429D01*
X134077571Y-81090571D02*
X134077571Y-82090571D01*
X134077571Y-81233429D02*
X134006143Y-81162000D01*
X133863285Y-81090571D01*
X133649000Y-81090571D01*
X133506143Y-81162000D01*
X133434714Y-81304857D01*
X133434714Y-82090571D01*
X132934714Y-81090571D02*
X132363285Y-81090571D01*
X132720428Y-82090571D02*
X132720428Y-80804857D01*
X132649000Y-80662000D01*
X132506142Y-80590571D01*
X132363285Y-80590571D01*
X131291857Y-82019143D02*
X131434714Y-82090571D01*
X131720428Y-82090571D01*
X131863285Y-82019143D01*
X131934714Y-81876286D01*
X131934714Y-81304857D01*
X131863285Y-81162000D01*
X131720428Y-81090571D01*
X131434714Y-81090571D01*
X131291857Y-81162000D01*
X131220428Y-81304857D01*
X131220428Y-81447714D01*
X131934714Y-81590571D01*
X130363285Y-82090571D02*
X130506143Y-82019143D01*
X130577571Y-81876286D01*
X130577571Y-80590571D01*
X130006143Y-81090571D02*
X129434714Y-81090571D01*
X129791857Y-80590571D02*
X129791857Y-81876286D01*
X129720429Y-82019143D01*
X129577571Y-82090571D01*
X129434714Y-82090571D01*
X128934714Y-81947714D02*
X128863286Y-82019143D01*
X128934714Y-82090571D01*
X129006143Y-82019143D01*
X128934714Y-81947714D01*
X128934714Y-82090571D01*
X127577571Y-82019143D02*
X127720428Y-82090571D01*
X128006142Y-82090571D01*
X128149000Y-82019143D01*
X128220428Y-81947714D01*
X128291857Y-81804857D01*
X128291857Y-81376286D01*
X128220428Y-81233429D01*
X128149000Y-81162000D01*
X128006142Y-81090571D01*
X127720428Y-81090571D01*
X127577571Y-81162000D01*
X126720428Y-82090571D02*
X126863286Y-82019143D01*
X126934714Y-81947714D01*
X127006143Y-81804857D01*
X127006143Y-81376286D01*
X126934714Y-81233429D01*
X126863286Y-81162000D01*
X126720428Y-81090571D01*
X126506143Y-81090571D01*
X126363286Y-81162000D01*
X126291857Y-81233429D01*
X126220428Y-81376286D01*
X126220428Y-81804857D01*
X126291857Y-81947714D01*
X126363286Y-82019143D01*
X126506143Y-82090571D01*
X126720428Y-82090571D01*
X125577571Y-82090571D02*
X125577571Y-81090571D01*
X125577571Y-81233429D02*
X125506143Y-81162000D01*
X125363285Y-81090571D01*
X125149000Y-81090571D01*
X125006143Y-81162000D01*
X124934714Y-81304857D01*
X124934714Y-82090571D01*
X124934714Y-81304857D02*
X124863285Y-81162000D01*
X124720428Y-81090571D01*
X124506143Y-81090571D01*
X124363285Y-81162000D01*
X124291857Y-81304857D01*
X124291857Y-82090571D01*
X123720428Y-82662000D02*
X123649000Y-82590571D01*
X123506143Y-82376286D01*
X123434714Y-82233429D01*
X123363285Y-82019143D01*
X123291857Y-81662000D01*
X123291857Y-81376286D01*
X123363285Y-81019143D01*
X123434714Y-80804857D01*
X123506143Y-80662000D01*
X123649000Y-80447714D01*
X123720428Y-80376286D01*
D10*
X136605929Y-101468286D02*
X136320214Y-101268286D01*
X136605929Y-101125429D02*
X136005929Y-101125429D01*
X136005929Y-101354001D01*
X136034500Y-101411143D01*
X136063071Y-101439715D01*
X136120214Y-101468286D01*
X136205929Y-101468286D01*
X136263071Y-101439715D01*
X136291643Y-101411143D01*
X136320214Y-101354001D01*
X136320214Y-101125429D01*
X136291643Y-101725429D02*
X136291643Y-101925429D01*
X136605929Y-102011143D02*
X136605929Y-101725429D01*
X136005929Y-101725429D01*
X136005929Y-102011143D01*
X136605929Y-102268286D02*
X136005929Y-102268286D01*
X136005929Y-102411143D01*
X136034500Y-102496858D01*
X136091643Y-102554000D01*
X136148786Y-102582572D01*
X136263071Y-102611143D01*
X136348786Y-102611143D01*
X136463071Y-102582572D01*
X136520214Y-102554000D01*
X136577357Y-102496858D01*
X136605929Y-102411143D01*
X136605929Y-102268286D01*
X138638000Y-100727001D02*
X138609429Y-100669858D01*
X138609429Y-100584144D01*
X138638000Y-100498429D01*
X138695143Y-100441287D01*
X138752286Y-100412715D01*
X138866571Y-100384144D01*
X138952286Y-100384144D01*
X139066571Y-100412715D01*
X139123714Y-100441287D01*
X139180857Y-100498429D01*
X139209429Y-100584144D01*
X139209429Y-100641287D01*
X139180857Y-100727001D01*
X139152286Y-100755572D01*
X138952286Y-100755572D01*
X138952286Y-100641287D01*
X139209429Y-101355572D02*
X138923714Y-101155572D01*
X139209429Y-101012715D02*
X138609429Y-101012715D01*
X138609429Y-101241287D01*
X138638000Y-101298429D01*
X138666571Y-101327001D01*
X138723714Y-101355572D01*
X138809429Y-101355572D01*
X138866571Y-101327001D01*
X138895143Y-101298429D01*
X138923714Y-101241287D01*
X138923714Y-101012715D01*
X138895143Y-101612715D02*
X138895143Y-101812715D01*
X139209429Y-101898429D02*
X139209429Y-101612715D01*
X138609429Y-101612715D01*
X138609429Y-101898429D01*
X138895143Y-102155572D02*
X138895143Y-102355572D01*
X139209429Y-102441286D02*
X139209429Y-102155572D01*
X138609429Y-102155572D01*
X138609429Y-102441286D01*
X139209429Y-102698429D02*
X138609429Y-102698429D01*
X139209429Y-103041286D01*
X138609429Y-103041286D01*
X141371643Y-101004786D02*
X141400214Y-101090500D01*
X141428786Y-101119072D01*
X141485929Y-101147643D01*
X141571643Y-101147643D01*
X141628786Y-101119072D01*
X141657357Y-101090500D01*
X141685929Y-101033358D01*
X141685929Y-100804786D01*
X141085929Y-100804786D01*
X141085929Y-101004786D01*
X141114500Y-101061929D01*
X141143071Y-101090500D01*
X141200214Y-101119072D01*
X141257357Y-101119072D01*
X141314500Y-101090500D01*
X141343071Y-101061929D01*
X141371643Y-101004786D01*
X141371643Y-100804786D01*
X141685929Y-101690500D02*
X141685929Y-101404786D01*
X141085929Y-101404786D01*
X141085929Y-101890500D02*
X141571643Y-101890500D01*
X141628786Y-101919072D01*
X141657357Y-101947643D01*
X141685929Y-102004786D01*
X141685929Y-102119072D01*
X141657357Y-102176214D01*
X141628786Y-102204786D01*
X141571643Y-102233357D01*
X141085929Y-102233357D01*
X141371643Y-102519071D02*
X141371643Y-102719071D01*
X141685929Y-102804785D02*
X141685929Y-102519071D01*
X141085929Y-102519071D01*
X141085929Y-102804785D01*
X144197357Y-100684143D02*
X144225929Y-100769857D01*
X144225929Y-100912714D01*
X144197357Y-100969857D01*
X144168786Y-100998428D01*
X144111643Y-101027000D01*
X144054500Y-101027000D01*
X143997357Y-100998428D01*
X143968786Y-100969857D01*
X143940214Y-100912714D01*
X143911643Y-100798428D01*
X143883071Y-100741286D01*
X143854500Y-100712714D01*
X143797357Y-100684143D01*
X143740214Y-100684143D01*
X143683071Y-100712714D01*
X143654500Y-100741286D01*
X143625929Y-100798428D01*
X143625929Y-100941286D01*
X143654500Y-101027000D01*
X143940214Y-101398429D02*
X144225929Y-101398429D01*
X143625929Y-101198429D02*
X143940214Y-101398429D01*
X143625929Y-101598429D01*
X144225929Y-101798429D02*
X143625929Y-101798429D01*
X144225929Y-102141286D01*
X143625929Y-102141286D01*
X144168786Y-102769857D02*
X144197357Y-102741286D01*
X144225929Y-102655572D01*
X144225929Y-102598429D01*
X144197357Y-102512714D01*
X144140214Y-102455572D01*
X144083071Y-102427000D01*
X143968786Y-102398429D01*
X143883071Y-102398429D01*
X143768786Y-102427000D01*
X143711643Y-102455572D01*
X143654500Y-102512714D01*
X143625929Y-102598429D01*
X143625929Y-102655572D01*
X143654500Y-102741286D01*
X143683071Y-102769857D01*
X146258000Y-101206358D02*
X146229429Y-101149215D01*
X146229429Y-101063501D01*
X146258000Y-100977786D01*
X146315143Y-100920644D01*
X146372286Y-100892072D01*
X146486571Y-100863501D01*
X146572286Y-100863501D01*
X146686571Y-100892072D01*
X146743714Y-100920644D01*
X146800857Y-100977786D01*
X146829429Y-101063501D01*
X146829429Y-101120644D01*
X146800857Y-101206358D01*
X146772286Y-101234929D01*
X146572286Y-101234929D01*
X146572286Y-101120644D01*
X146829429Y-101492072D02*
X146229429Y-101492072D01*
X146829429Y-101834929D01*
X146229429Y-101834929D01*
X146829429Y-102120643D02*
X146229429Y-102120643D01*
X146229429Y-102263500D01*
X146258000Y-102349215D01*
X146315143Y-102406357D01*
X146372286Y-102434929D01*
X146486571Y-102463500D01*
X146572286Y-102463500D01*
X146686571Y-102434929D01*
X146743714Y-102406357D01*
X146800857Y-102349215D01*
X146829429Y-102263500D01*
X146829429Y-102120643D01*
X149055143Y-100655572D02*
X149083714Y-100741286D01*
X149112286Y-100769858D01*
X149169429Y-100798429D01*
X149255143Y-100798429D01*
X149312286Y-100769858D01*
X149340857Y-100741286D01*
X149369429Y-100684144D01*
X149369429Y-100455572D01*
X148769429Y-100455572D01*
X148769429Y-100655572D01*
X148798000Y-100712715D01*
X148826571Y-100741286D01*
X148883714Y-100769858D01*
X148940857Y-100769858D01*
X148998000Y-100741286D01*
X149026571Y-100712715D01*
X149055143Y-100655572D01*
X149055143Y-100455572D01*
X149369429Y-101341286D02*
X149369429Y-101055572D01*
X148769429Y-101055572D01*
X149198000Y-101512715D02*
X149198000Y-101798429D01*
X149369429Y-101455572D02*
X148769429Y-101655572D01*
X149369429Y-101855572D01*
X149369429Y-102055572D02*
X148769429Y-102055572D01*
X149369429Y-102398429D01*
X148769429Y-102398429D01*
X149369429Y-102684143D02*
X148769429Y-102684143D01*
X149369429Y-103027000D02*
X149026571Y-102769857D01*
X148769429Y-103027000D02*
X149112286Y-102684143D01*
X159529429Y-100584144D02*
X158929429Y-100584144D01*
X159358000Y-100784144D01*
X158929429Y-100984144D01*
X159529429Y-100984144D01*
X158929429Y-101384144D02*
X158929429Y-101498430D01*
X158958000Y-101555572D01*
X159015143Y-101612715D01*
X159129429Y-101641287D01*
X159329429Y-101641287D01*
X159443714Y-101612715D01*
X159500857Y-101555572D01*
X159529429Y-101498430D01*
X159529429Y-101384144D01*
X159500857Y-101327001D01*
X159443714Y-101269858D01*
X159329429Y-101241287D01*
X159129429Y-101241287D01*
X159015143Y-101269858D01*
X158958000Y-101327001D01*
X158929429Y-101384144D01*
X159529429Y-101898429D02*
X158929429Y-101898429D01*
X159529429Y-102241286D01*
X158929429Y-102241286D01*
X158929429Y-102641286D02*
X158929429Y-102755572D01*
X158958000Y-102812714D01*
X159015143Y-102869857D01*
X159129429Y-102898429D01*
X159329429Y-102898429D01*
X159443714Y-102869857D01*
X159500857Y-102812714D01*
X159529429Y-102755572D01*
X159529429Y-102641286D01*
X159500857Y-102584143D01*
X159443714Y-102527000D01*
X159329429Y-102498429D01*
X159129429Y-102498429D01*
X159015143Y-102527000D01*
X158958000Y-102584143D01*
X158929429Y-102641286D01*
X153814500Y-101333358D02*
X153785929Y-101276215D01*
X153785929Y-101190501D01*
X153814500Y-101104786D01*
X153871643Y-101047644D01*
X153928786Y-101019072D01*
X154043071Y-100990501D01*
X154128786Y-100990501D01*
X154243071Y-101019072D01*
X154300214Y-101047644D01*
X154357357Y-101104786D01*
X154385929Y-101190501D01*
X154385929Y-101247644D01*
X154357357Y-101333358D01*
X154328786Y-101361929D01*
X154128786Y-101361929D01*
X154128786Y-101247644D01*
X154385929Y-101619072D02*
X153785929Y-101619072D01*
X154385929Y-101961929D01*
X153785929Y-101961929D01*
X154385929Y-102247643D02*
X153785929Y-102247643D01*
X153785929Y-102390500D01*
X153814500Y-102476215D01*
X153871643Y-102533357D01*
X153928786Y-102561929D01*
X154043071Y-102590500D01*
X154128786Y-102590500D01*
X154243071Y-102561929D01*
X154300214Y-102533357D01*
X154357357Y-102476215D01*
X154385929Y-102390500D01*
X154385929Y-102247643D01*
X151845929Y-100927000D02*
X151560214Y-100727000D01*
X151845929Y-100584143D02*
X151245929Y-100584143D01*
X151245929Y-100812715D01*
X151274500Y-100869857D01*
X151303071Y-100898429D01*
X151360214Y-100927000D01*
X151445929Y-100927000D01*
X151503071Y-100898429D01*
X151531643Y-100869857D01*
X151560214Y-100812715D01*
X151560214Y-100584143D01*
X151845929Y-101184143D02*
X151245929Y-101184143D01*
X151274500Y-101784143D02*
X151245929Y-101727000D01*
X151245929Y-101641286D01*
X151274500Y-101555571D01*
X151331643Y-101498429D01*
X151388786Y-101469857D01*
X151503071Y-101441286D01*
X151588786Y-101441286D01*
X151703071Y-101469857D01*
X151760214Y-101498429D01*
X151817357Y-101555571D01*
X151845929Y-101641286D01*
X151845929Y-101698429D01*
X151817357Y-101784143D01*
X151788786Y-101812714D01*
X151588786Y-101812714D01*
X151588786Y-101698429D01*
X151845929Y-102069857D02*
X151245929Y-102069857D01*
X151531643Y-102069857D02*
X151531643Y-102412714D01*
X151845929Y-102412714D02*
X151245929Y-102412714D01*
X151245929Y-102612714D02*
X151245929Y-102955571D01*
X151845929Y-102784142D02*
X151245929Y-102784142D01*
X156925929Y-101155571D02*
X156925929Y-100869857D01*
X156325929Y-100869857D01*
X156611643Y-101355571D02*
X156611643Y-101555571D01*
X156925929Y-101641285D02*
X156925929Y-101355571D01*
X156325929Y-101355571D01*
X156325929Y-101641285D01*
X156611643Y-102098428D02*
X156611643Y-101898428D01*
X156925929Y-101898428D02*
X156325929Y-101898428D01*
X156325929Y-102184142D01*
X156325929Y-102327000D02*
X156325929Y-102669857D01*
X156925929Y-102498428D02*
X156325929Y-102498428D01*
D11*
X137001000Y-75100571D02*
X137501000Y-74386286D01*
X137858143Y-75100571D02*
X137858143Y-73600571D01*
X137286715Y-73600571D01*
X137143857Y-73672000D01*
X137072429Y-73743429D01*
X137001000Y-73886286D01*
X137001000Y-74100571D01*
X137072429Y-74243429D01*
X137143857Y-74314857D01*
X137286715Y-74386286D01*
X137858143Y-74386286D01*
X136358143Y-75100571D02*
X136358143Y-73600571D01*
X134858143Y-73672000D02*
X135001000Y-73600571D01*
X135215286Y-73600571D01*
X135429571Y-73672000D01*
X135572429Y-73814857D01*
X135643857Y-73957714D01*
X135715286Y-74243429D01*
X135715286Y-74457714D01*
X135643857Y-74743429D01*
X135572429Y-74886286D01*
X135429571Y-75029143D01*
X135215286Y-75100571D01*
X135072429Y-75100571D01*
X134858143Y-75029143D01*
X134786714Y-74957714D01*
X134786714Y-74457714D01*
X135072429Y-74457714D01*
X134143857Y-75100571D02*
X134143857Y-73600571D01*
X134143857Y-74314857D02*
X133286714Y-74314857D01*
X133286714Y-75100571D02*
X133286714Y-73600571D01*
X132786714Y-73600571D02*
X131929571Y-73600571D01*
X132358142Y-75100571D02*
X132358142Y-73600571D01*
X156051071Y-75100571D02*
X156765357Y-75100571D01*
X156765357Y-73600571D01*
X155551071Y-74314857D02*
X155051071Y-74314857D01*
X154836785Y-75100571D02*
X155551071Y-75100571D01*
X155551071Y-73600571D01*
X154836785Y-73600571D01*
X153693928Y-74314857D02*
X154193928Y-74314857D01*
X154193928Y-75100571D02*
X154193928Y-73600571D01*
X153479642Y-73600571D01*
X153122500Y-73600571D02*
X152265357Y-73600571D01*
X152693928Y-75100571D02*
X152693928Y-73600571D01*
D12*
X138866500Y-95274500D02*
X137866500Y-95274500D01*
X137866500Y-93574500D02*
X138866500Y-93574500D01*
X146486500Y-95274500D02*
X145486500Y-95274500D01*
X145486500Y-93574500D02*
X146486500Y-93574500D01*
X154106500Y-95274500D02*
X153106500Y-95274500D01*
X153106500Y-93574500D02*
X154106500Y-93574500D01*
X131961000Y-96114500D02*
X132961000Y-96114500D01*
X132961000Y-97814500D02*
X131961000Y-97814500D01*
X142040500Y-94961000D02*
X142040500Y-93761000D01*
X140280500Y-93761000D02*
X140280500Y-94961000D01*
X149660500Y-94961000D02*
X149660500Y-93761000D01*
X147900500Y-93761000D02*
X147900500Y-94961000D01*
X157280500Y-95088000D02*
X157280500Y-93888000D01*
X155520500Y-93888000D02*
X155520500Y-95088000D01*
X132515500Y-94961000D02*
X132515500Y-93761000D01*
X130755500Y-93761000D02*
X130755500Y-94961000D01*
X134547500Y-94961000D02*
X134547500Y-93761000D01*
X132787500Y-93761000D02*
X132787500Y-94961000D01*
X159249000Y-95088000D02*
X159249000Y-93888000D01*
X157489000Y-93888000D02*
X157489000Y-95088000D01*
X151629000Y-94961000D02*
X151629000Y-93761000D01*
X149869000Y-93761000D02*
X149869000Y-94961000D01*
X144009000Y-94961000D02*
X144009000Y-93761000D01*
X142249000Y-93761000D02*
X142249000Y-94961000D01*
X172584000Y-82896000D02*
X172584000Y-81696000D01*
X170824000Y-81696000D02*
X170824000Y-82896000D01*
X170615500Y-82896000D02*
X170615500Y-81696000D01*
X168855500Y-81696000D02*
X168855500Y-82896000D01*
X174552500Y-82896000D02*
X174552500Y-81696000D01*
X172792500Y-81696000D02*
X172792500Y-82896000D01*
X130303000Y-95059500D02*
X130303000Y-97599500D01*
X128523000Y-97599500D02*
X128523000Y-95059500D01*
X128523000Y-97599500D02*
X130303000Y-97599500D01*
X130303000Y-95059500D02*
X128523000Y-95059500D01*
D13*
X138533166Y-96369143D02*
X138580785Y-96416762D01*
X138723642Y-96464381D01*
X138818880Y-96464381D01*
X138961738Y-96416762D01*
X139056976Y-96321524D01*
X139104595Y-96226286D01*
X139152214Y-96035810D01*
X139152214Y-95892952D01*
X139104595Y-95702476D01*
X139056976Y-95607238D01*
X138961738Y-95512000D01*
X138818880Y-95464381D01*
X138723642Y-95464381D01*
X138580785Y-95512000D01*
X138533166Y-95559619D01*
X137580785Y-96464381D02*
X138152214Y-96464381D01*
X137866500Y-96464381D02*
X137866500Y-95464381D01*
X137961738Y-95607238D01*
X138056976Y-95702476D01*
X138152214Y-95750095D01*
X146153166Y-96369143D02*
X146200785Y-96416762D01*
X146343642Y-96464381D01*
X146438880Y-96464381D01*
X146581738Y-96416762D01*
X146676976Y-96321524D01*
X146724595Y-96226286D01*
X146772214Y-96035810D01*
X146772214Y-95892952D01*
X146724595Y-95702476D01*
X146676976Y-95607238D01*
X146581738Y-95512000D01*
X146438880Y-95464381D01*
X146343642Y-95464381D01*
X146200785Y-95512000D01*
X146153166Y-95559619D01*
X145772214Y-95559619D02*
X145724595Y-95512000D01*
X145629357Y-95464381D01*
X145391261Y-95464381D01*
X145296023Y-95512000D01*
X145248404Y-95559619D01*
X145200785Y-95654857D01*
X145200785Y-95750095D01*
X145248404Y-95892952D01*
X145819833Y-96464381D01*
X145200785Y-96464381D01*
X153773166Y-96369143D02*
X153820785Y-96416762D01*
X153963642Y-96464381D01*
X154058880Y-96464381D01*
X154201738Y-96416762D01*
X154296976Y-96321524D01*
X154344595Y-96226286D01*
X154392214Y-96035810D01*
X154392214Y-95892952D01*
X154344595Y-95702476D01*
X154296976Y-95607238D01*
X154201738Y-95512000D01*
X154058880Y-95464381D01*
X153963642Y-95464381D01*
X153820785Y-95512000D01*
X153773166Y-95559619D01*
X153439833Y-95464381D02*
X152820785Y-95464381D01*
X153154119Y-95845333D01*
X153011261Y-95845333D01*
X152916023Y-95892952D01*
X152868404Y-95940571D01*
X152820785Y-96035810D01*
X152820785Y-96273905D01*
X152868404Y-96369143D01*
X152916023Y-96416762D01*
X153011261Y-96464381D01*
X153296976Y-96464381D01*
X153392214Y-96416762D01*
X153439833Y-96369143D01*
X135421666Y-97385143D02*
X135469285Y-97432762D01*
X135612142Y-97480381D01*
X135707380Y-97480381D01*
X135850238Y-97432762D01*
X135945476Y-97337524D01*
X135993095Y-97242286D01*
X136040714Y-97051810D01*
X136040714Y-96908952D01*
X135993095Y-96718476D01*
X135945476Y-96623238D01*
X135850238Y-96528000D01*
X135707380Y-96480381D01*
X135612142Y-96480381D01*
X135469285Y-96528000D01*
X135421666Y-96575619D01*
X134564523Y-96813714D02*
X134564523Y-97480381D01*
X134802619Y-96432762D02*
X135040714Y-97147048D01*
X134421666Y-97147048D01*
X141612881Y-96670834D02*
X141136690Y-96337500D01*
X141612881Y-96099405D02*
X140612881Y-96099405D01*
X140612881Y-96480358D01*
X140660500Y-96575596D01*
X140708119Y-96623215D01*
X140803357Y-96670834D01*
X140946214Y-96670834D01*
X141041452Y-96623215D01*
X141089071Y-96575596D01*
X141136690Y-96480358D01*
X141136690Y-96099405D01*
X141612881Y-97623215D02*
X141612881Y-97051786D01*
X141612881Y-97337500D02*
X140612881Y-97337500D01*
X140755738Y-97242262D01*
X140850976Y-97147024D01*
X140898595Y-97051786D01*
X149296381Y-96670834D02*
X148820190Y-96337500D01*
X149296381Y-96099405D02*
X148296381Y-96099405D01*
X148296381Y-96480358D01*
X148344000Y-96575596D01*
X148391619Y-96623215D01*
X148486857Y-96670834D01*
X148629714Y-96670834D01*
X148724952Y-96623215D01*
X148772571Y-96575596D01*
X148820190Y-96480358D01*
X148820190Y-96099405D01*
X148391619Y-97051786D02*
X148344000Y-97099405D01*
X148296381Y-97194643D01*
X148296381Y-97432739D01*
X148344000Y-97527977D01*
X148391619Y-97575596D01*
X148486857Y-97623215D01*
X148582095Y-97623215D01*
X148724952Y-97575596D01*
X149296381Y-97004167D01*
X149296381Y-97623215D01*
X156916381Y-96797834D02*
X156440190Y-96464500D01*
X156916381Y-96226405D02*
X155916381Y-96226405D01*
X155916381Y-96607358D01*
X155964000Y-96702596D01*
X156011619Y-96750215D01*
X156106857Y-96797834D01*
X156249714Y-96797834D01*
X156344952Y-96750215D01*
X156392571Y-96702596D01*
X156440190Y-96607358D01*
X156440190Y-96226405D01*
X155916381Y-97131167D02*
X155916381Y-97750215D01*
X156297333Y-97416881D01*
X156297333Y-97559739D01*
X156344952Y-97654977D01*
X156392571Y-97702596D01*
X156487810Y-97750215D01*
X156725905Y-97750215D01*
X156821143Y-97702596D01*
X156868762Y-97654977D01*
X156916381Y-97559739D01*
X156916381Y-97274024D01*
X156868762Y-97178786D01*
X156821143Y-97131167D01*
X130500381Y-93432334D02*
X130024190Y-93099000D01*
X130500381Y-92860905D02*
X129500381Y-92860905D01*
X129500381Y-93241858D01*
X129548000Y-93337096D01*
X129595619Y-93384715D01*
X129690857Y-93432334D01*
X129833714Y-93432334D01*
X129928952Y-93384715D01*
X129976571Y-93337096D01*
X130024190Y-93241858D01*
X130024190Y-92860905D01*
X129833714Y-94289477D02*
X130500381Y-94289477D01*
X129452762Y-94051381D02*
X130167048Y-93813286D01*
X130167048Y-94432334D01*
X135770881Y-93432334D02*
X135294690Y-93099000D01*
X135770881Y-92860905D02*
X134770881Y-92860905D01*
X134770881Y-93241858D01*
X134818500Y-93337096D01*
X134866119Y-93384715D01*
X134961357Y-93432334D01*
X135104214Y-93432334D01*
X135199452Y-93384715D01*
X135247071Y-93337096D01*
X135294690Y-93241858D01*
X135294690Y-92860905D01*
X134770881Y-94337096D02*
X134770881Y-93860905D01*
X135247071Y-93813286D01*
X135199452Y-93860905D01*
X135151833Y-93956143D01*
X135151833Y-94194239D01*
X135199452Y-94289477D01*
X135247071Y-94337096D01*
X135342310Y-94384715D01*
X135580405Y-94384715D01*
X135675643Y-94337096D01*
X135723262Y-94289477D01*
X135770881Y-94194239D01*
X135770881Y-93956143D01*
X135723262Y-93860905D01*
X135675643Y-93813286D01*
X158821381Y-96797834D02*
X158345190Y-96464500D01*
X158821381Y-96226405D02*
X157821381Y-96226405D01*
X157821381Y-96607358D01*
X157869000Y-96702596D01*
X157916619Y-96750215D01*
X158011857Y-96797834D01*
X158154714Y-96797834D01*
X158249952Y-96750215D01*
X158297571Y-96702596D01*
X158345190Y-96607358D01*
X158345190Y-96226405D01*
X157821381Y-97654977D02*
X157821381Y-97464500D01*
X157869000Y-97369262D01*
X157916619Y-97321643D01*
X158059476Y-97226405D01*
X158249952Y-97178786D01*
X158630905Y-97178786D01*
X158726143Y-97226405D01*
X158773762Y-97274024D01*
X158821381Y-97369262D01*
X158821381Y-97559739D01*
X158773762Y-97654977D01*
X158726143Y-97702596D01*
X158630905Y-97750215D01*
X158392810Y-97750215D01*
X158297571Y-97702596D01*
X158249952Y-97654977D01*
X158202333Y-97559739D01*
X158202333Y-97369262D01*
X158249952Y-97274024D01*
X158297571Y-97226405D01*
X158392810Y-97178786D01*
X151201381Y-96670834D02*
X150725190Y-96337500D01*
X151201381Y-96099405D02*
X150201381Y-96099405D01*
X150201381Y-96480358D01*
X150249000Y-96575596D01*
X150296619Y-96623215D01*
X150391857Y-96670834D01*
X150534714Y-96670834D01*
X150629952Y-96623215D01*
X150677571Y-96575596D01*
X150725190Y-96480358D01*
X150725190Y-96099405D01*
X150201381Y-97004167D02*
X150201381Y-97670834D01*
X151201381Y-97242262D01*
X143581381Y-96670834D02*
X143105190Y-96337500D01*
X143581381Y-96099405D02*
X142581381Y-96099405D01*
X142581381Y-96480358D01*
X142629000Y-96575596D01*
X142676619Y-96623215D01*
X142771857Y-96670834D01*
X142914714Y-96670834D01*
X143009952Y-96623215D01*
X143057571Y-96575596D01*
X143105190Y-96480358D01*
X143105190Y-96099405D01*
X143009952Y-97242262D02*
X142962333Y-97147024D01*
X142914714Y-97099405D01*
X142819476Y-97051786D01*
X142771857Y-97051786D01*
X142676619Y-97099405D01*
X142629000Y-97147024D01*
X142581381Y-97242262D01*
X142581381Y-97432739D01*
X142629000Y-97527977D01*
X142676619Y-97575596D01*
X142771857Y-97623215D01*
X142819476Y-97623215D01*
X142914714Y-97575596D01*
X142962333Y-97527977D01*
X143009952Y-97432739D01*
X143009952Y-97242262D01*
X143057571Y-97147024D01*
X143105190Y-97099405D01*
X143200429Y-97051786D01*
X143390905Y-97051786D01*
X143486143Y-97099405D01*
X143533762Y-97147024D01*
X143581381Y-97242262D01*
X143581381Y-97432739D01*
X143533762Y-97527977D01*
X143486143Y-97575596D01*
X143390905Y-97623215D01*
X143200429Y-97623215D01*
X143105190Y-97575596D01*
X143057571Y-97527977D01*
X143009952Y-97432739D01*
X172156381Y-84605834D02*
X171680190Y-84272500D01*
X172156381Y-84034405D02*
X171156381Y-84034405D01*
X171156381Y-84415358D01*
X171204000Y-84510596D01*
X171251619Y-84558215D01*
X171346857Y-84605834D01*
X171489714Y-84605834D01*
X171584952Y-84558215D01*
X171632571Y-84510596D01*
X171680190Y-84415358D01*
X171680190Y-84034405D01*
X172156381Y-85082024D02*
X172156381Y-85272500D01*
X172108762Y-85367739D01*
X172061143Y-85415358D01*
X171918286Y-85510596D01*
X171727810Y-85558215D01*
X171346857Y-85558215D01*
X171251619Y-85510596D01*
X171204000Y-85462977D01*
X171156381Y-85367739D01*
X171156381Y-85177262D01*
X171204000Y-85082024D01*
X171251619Y-85034405D01*
X171346857Y-84986786D01*
X171584952Y-84986786D01*
X171680190Y-85034405D01*
X171727810Y-85082024D01*
X171775429Y-85177262D01*
X171775429Y-85367739D01*
X171727810Y-85462977D01*
X171680190Y-85510596D01*
X171584952Y-85558215D01*
X170187881Y-84574143D02*
X169711690Y-84240809D01*
X170187881Y-84002714D02*
X169187881Y-84002714D01*
X169187881Y-84383667D01*
X169235500Y-84478905D01*
X169283119Y-84526524D01*
X169378357Y-84574143D01*
X169521214Y-84574143D01*
X169616452Y-84526524D01*
X169664071Y-84478905D01*
X169711690Y-84383667D01*
X169711690Y-84002714D01*
X170187881Y-85526524D02*
X170187881Y-84955095D01*
X170187881Y-85240809D02*
X169187881Y-85240809D01*
X169330738Y-85145571D01*
X169425976Y-85050333D01*
X169473595Y-84955095D01*
X169187881Y-86145571D02*
X169187881Y-86240810D01*
X169235500Y-86336048D01*
X169283119Y-86383667D01*
X169378357Y-86431286D01*
X169568833Y-86478905D01*
X169806929Y-86478905D01*
X169997405Y-86431286D01*
X170092643Y-86383667D01*
X170140262Y-86336048D01*
X170187881Y-86240810D01*
X170187881Y-86145571D01*
X170140262Y-86050333D01*
X170092643Y-86002714D01*
X169997405Y-85955095D01*
X169806929Y-85907476D01*
X169568833Y-85907476D01*
X169378357Y-85955095D01*
X169283119Y-86002714D01*
X169235500Y-86050333D01*
X169187881Y-86145571D01*
X174188381Y-84574143D02*
X173712190Y-84240809D01*
X174188381Y-84002714D02*
X173188381Y-84002714D01*
X173188381Y-84383667D01*
X173236000Y-84478905D01*
X173283619Y-84526524D01*
X173378857Y-84574143D01*
X173521714Y-84574143D01*
X173616952Y-84526524D01*
X173664571Y-84478905D01*
X173712190Y-84383667D01*
X173712190Y-84002714D01*
X174188381Y-85526524D02*
X174188381Y-84955095D01*
X174188381Y-85240809D02*
X173188381Y-85240809D01*
X173331238Y-85145571D01*
X173426476Y-85050333D01*
X173474095Y-84955095D01*
X174188381Y-86478905D02*
X174188381Y-85907476D01*
X174188381Y-86193190D02*
X173188381Y-86193190D01*
X173331238Y-86097952D01*
X173426476Y-86002714D01*
X173474095Y-85907476D01*
X127085381Y-95496167D02*
X127799667Y-95496167D01*
X127942524Y-95448547D01*
X128037762Y-95353309D01*
X128085381Y-95210452D01*
X128085381Y-95115214D01*
X128085381Y-95972357D02*
X127085381Y-95972357D01*
X127085381Y-96353310D01*
X127133000Y-96448548D01*
X127180619Y-96496167D01*
X127275857Y-96543786D01*
X127418714Y-96543786D01*
X127513952Y-96496167D01*
X127561571Y-96448548D01*
X127609190Y-96353310D01*
X127609190Y-95972357D01*
X128085381Y-97496167D02*
X128085381Y-96924738D01*
X128085381Y-97210452D02*
X127085381Y-97210452D01*
X127228238Y-97115214D01*
X127323476Y-97019976D01*
X127371095Y-96924738D01*
M02*
