%TF.GenerationSoftware,KiCad,Pcbnew,5.1.10-88a1d61d58~88~ubuntu20.04.1*%
%TF.CreationDate,2021-09-23T20:16:40+02:00*%
%TF.ProjectId,SCART-breakout,53434152-542d-4627-9265-616b6f75742e,rev?*%
%TF.SameCoordinates,Original*%
%TF.FileFunction,Legend,Top*%
%TF.FilePolarity,Positive*%
%FSLAX46Y46*%
G04 Gerber Fmt 4.6, Leading zero omitted, Abs format (unit mm)*
G04 Created by KiCad (PCBNEW 5.1.10-88a1d61d58~88~ubuntu20.04.1) date 2021-09-23 20:16:40*
%MOMM*%
%LPD*%
G01*
G04 APERTURE LIST*
%ADD10C,0.150000*%
%ADD11C,0.120000*%
G04 APERTURE END LIST*
D10*
%TO.C,J1*%
X174785000Y-80535000D02*
X174785000Y-97035000D01*
X122080000Y-97045000D02*
X174780000Y-97045000D01*
X122080000Y-80535000D02*
X174780000Y-80535000D01*
X122080000Y-80535000D02*
X122080000Y-97045000D01*
D11*
%TO.C,J4*%
X160464500Y-97726500D02*
X160464500Y-98996500D01*
X159194500Y-97726500D02*
X160464500Y-97726500D01*
X135954500Y-100039429D02*
X135954500Y-100436500D01*
X136714500Y-100039429D02*
X136714500Y-100436500D01*
X135954500Y-109096500D02*
X135954500Y-103096500D01*
X136714500Y-109096500D02*
X135954500Y-109096500D01*
X136714500Y-103096500D02*
X136714500Y-109096500D01*
X137604500Y-100436500D02*
X137604500Y-103096500D01*
X138494500Y-100039429D02*
X138494500Y-100436500D01*
X139254500Y-100039429D02*
X139254500Y-100436500D01*
X138494500Y-109096500D02*
X138494500Y-103096500D01*
X139254500Y-109096500D02*
X138494500Y-109096500D01*
X139254500Y-103096500D02*
X139254500Y-109096500D01*
X140144500Y-100436500D02*
X140144500Y-103096500D01*
X141034500Y-100039429D02*
X141034500Y-100436500D01*
X141794500Y-100039429D02*
X141794500Y-100436500D01*
X141034500Y-109096500D02*
X141034500Y-103096500D01*
X141794500Y-109096500D02*
X141034500Y-109096500D01*
X141794500Y-103096500D02*
X141794500Y-109096500D01*
X142684500Y-100436500D02*
X142684500Y-103096500D01*
X143574500Y-100039429D02*
X143574500Y-100436500D01*
X144334500Y-100039429D02*
X144334500Y-100436500D01*
X143574500Y-109096500D02*
X143574500Y-103096500D01*
X144334500Y-109096500D02*
X143574500Y-109096500D01*
X144334500Y-103096500D02*
X144334500Y-109096500D01*
X145224500Y-100436500D02*
X145224500Y-103096500D01*
X146114500Y-100039429D02*
X146114500Y-100436500D01*
X146874500Y-100039429D02*
X146874500Y-100436500D01*
X146114500Y-109096500D02*
X146114500Y-103096500D01*
X146874500Y-109096500D02*
X146114500Y-109096500D01*
X146874500Y-103096500D02*
X146874500Y-109096500D01*
X147764500Y-100436500D02*
X147764500Y-103096500D01*
X148654500Y-100039429D02*
X148654500Y-100436500D01*
X149414500Y-100039429D02*
X149414500Y-100436500D01*
X148654500Y-109096500D02*
X148654500Y-103096500D01*
X149414500Y-109096500D02*
X148654500Y-109096500D01*
X149414500Y-103096500D02*
X149414500Y-109096500D01*
X150304500Y-100436500D02*
X150304500Y-103096500D01*
X151194500Y-100039429D02*
X151194500Y-100436500D01*
X151954500Y-100039429D02*
X151954500Y-100436500D01*
X151194500Y-109096500D02*
X151194500Y-103096500D01*
X151954500Y-109096500D02*
X151194500Y-109096500D01*
X151954500Y-103096500D02*
X151954500Y-109096500D01*
X152844500Y-100436500D02*
X152844500Y-103096500D01*
X153734500Y-100039429D02*
X153734500Y-100436500D01*
X154494500Y-100039429D02*
X154494500Y-100436500D01*
X153734500Y-109096500D02*
X153734500Y-103096500D01*
X154494500Y-109096500D02*
X153734500Y-109096500D01*
X154494500Y-103096500D02*
X154494500Y-109096500D01*
X155384500Y-100436500D02*
X155384500Y-103096500D01*
X156274500Y-100039429D02*
X156274500Y-100436500D01*
X157034500Y-100039429D02*
X157034500Y-100436500D01*
X156274500Y-109096500D02*
X156274500Y-103096500D01*
X157034500Y-109096500D02*
X156274500Y-109096500D01*
X157034500Y-103096500D02*
X157034500Y-109096500D01*
X157924500Y-100436500D02*
X157924500Y-103096500D01*
X158814500Y-100106500D02*
X158814500Y-100436500D01*
X159574500Y-100106500D02*
X159574500Y-100436500D01*
X158914500Y-103096500D02*
X158914500Y-109096500D01*
X159034500Y-103096500D02*
X159034500Y-109096500D01*
X159154500Y-103096500D02*
X159154500Y-109096500D01*
X159274500Y-103096500D02*
X159274500Y-109096500D01*
X159394500Y-103096500D02*
X159394500Y-109096500D01*
X159514500Y-103096500D02*
X159514500Y-109096500D01*
X158814500Y-109096500D02*
X158814500Y-103096500D01*
X159574500Y-109096500D02*
X158814500Y-109096500D01*
X159574500Y-103096500D02*
X159574500Y-109096500D01*
X160524500Y-103096500D02*
X160524500Y-100436500D01*
X135004500Y-103096500D02*
X160524500Y-103096500D01*
X135004500Y-100436500D02*
X135004500Y-103096500D01*
X160524500Y-100436500D02*
X135004500Y-100436500D01*
%TO.C,SW1*%
D10*
X162433166Y-79525761D02*
X162576023Y-79573380D01*
X162814119Y-79573380D01*
X162909357Y-79525761D01*
X162956976Y-79478142D01*
X163004595Y-79382904D01*
X163004595Y-79287666D01*
X162956976Y-79192428D01*
X162909357Y-79144809D01*
X162814119Y-79097190D01*
X162623642Y-79049571D01*
X162528404Y-79001952D01*
X162480785Y-78954333D01*
X162433166Y-78859095D01*
X162433166Y-78763857D01*
X162480785Y-78668619D01*
X162528404Y-78621000D01*
X162623642Y-78573380D01*
X162861738Y-78573380D01*
X163004595Y-78621000D01*
X163337928Y-78573380D02*
X163576023Y-79573380D01*
X163766500Y-78859095D01*
X163956976Y-79573380D01*
X164195071Y-78573380D01*
X165099833Y-79573380D02*
X164528404Y-79573380D01*
X164814119Y-79573380D02*
X164814119Y-78573380D01*
X164718880Y-78716238D01*
X164623642Y-78811476D01*
X164528404Y-78859095D01*
%TO.C,J1*%
X122793166Y-80795880D02*
X122793166Y-81510166D01*
X122745547Y-81653023D01*
X122650309Y-81748261D01*
X122507452Y-81795880D01*
X122412214Y-81795880D01*
X123793166Y-81795880D02*
X123221738Y-81795880D01*
X123507452Y-81795880D02*
X123507452Y-80795880D01*
X123412214Y-80938738D01*
X123316976Y-81033976D01*
X123221738Y-81081595D01*
%TO.C,J4*%
X161123380Y-102250833D02*
X161837666Y-102250833D01*
X161980523Y-102298452D01*
X162075761Y-102393690D01*
X162123380Y-102536547D01*
X162123380Y-102631785D01*
X161456714Y-101346071D02*
X162123380Y-101346071D01*
X161075761Y-101584166D02*
X161790047Y-101822261D01*
X161790047Y-101203214D01*
%TO.C,J2*%
X139620666Y-68095880D02*
X139620666Y-68810166D01*
X139573047Y-68953023D01*
X139477809Y-69048261D01*
X139334952Y-69095880D01*
X139239714Y-69095880D01*
X140049238Y-68191119D02*
X140096857Y-68143500D01*
X140192095Y-68095880D01*
X140430190Y-68095880D01*
X140525428Y-68143500D01*
X140573047Y-68191119D01*
X140620666Y-68286357D01*
X140620666Y-68381595D01*
X140573047Y-68524452D01*
X140001619Y-69095880D01*
X140620666Y-69095880D01*
%TO.C,J3*%
X148891666Y-68286380D02*
X148891666Y-69000666D01*
X148844047Y-69143523D01*
X148748809Y-69238761D01*
X148605952Y-69286380D01*
X148510714Y-69286380D01*
X149272619Y-68286380D02*
X149891666Y-68286380D01*
X149558333Y-68667333D01*
X149701190Y-68667333D01*
X149796428Y-68714952D01*
X149844047Y-68762571D01*
X149891666Y-68857809D01*
X149891666Y-69095904D01*
X149844047Y-69191142D01*
X149796428Y-69238761D01*
X149701190Y-69286380D01*
X149415476Y-69286380D01*
X149320238Y-69238761D01*
X149272619Y-69191142D01*
%TD*%
M02*
